<?xml version="1.0" encoding="UTF-8" standalone="no"?>
<!-- Created with Inkscape (http://www.inkscape.org/) -->

<svg
   xmlns:dc="http://purl.org/dc/elements/1.1/"
   xmlns:cc="http://creativecommons.org/ns#"
   xmlns:rdf="http://www.w3.org/1999/02/22-rdf-syntax-ns#"
   xmlns:svg="http://www.w3.org/2000/svg"
   xmlns="http://www.w3.org/2000/svg"
   xmlns:sodipodi="http://sodipodi.sourceforge.net/DTD/sodipodi-0.dtd"
   xmlns:inkscape="http://www.inkscape.org/namespaces/inkscape"
   width="956"
   height="640"
   id="svg2"
   version="1.1"
   inkscape:version="0.48.5 r10040"
   sodipodi:docname="carousel_supported_languages.svg"
   inkscape:export-filename="C:\Users\Alex\scm\Tavendo\organize\marketing\azure\languages_bluebg.png"
   inkscape:export-xdpi="90"
   inkscape:export-ydpi="90">
  <defs
     id="defs4" />
  <sodipodi:namedview
     id="base"
     pagecolor="#fbfdfe"
     bordercolor="#666666"
     borderopacity="1.0"
     inkscape:pageopacity="0"
     inkscape:pageshadow="2"
     inkscape:zoom="0.24748737"
     inkscape:cx="-390.23396"
     inkscape:cy="376.31067"
     inkscape:document-units="px"
     inkscape:current-layer="layer1"
     showgrid="false"
     inkscape:window-width="1050"
     inkscape:window-height="1658"
     inkscape:window-x="-8"
     inkscape:window-y="-8"
     inkscape:window-maximized="1" />
  <metadata
     id="metadata7">
    <rdf:RDF>
      <cc:Work
         rdf:about="">
        <dc:format>image/svg+xml</dc:format>
        <dc:type
           rdf:resource="http://purl.org/dc/dcmitype/StillImage" />
        <dc:title />
      </cc:Work>
    </rdf:RDF>
  </metadata>
  <g
     inkscape:label="Layer 1"
     inkscape:groupmode="layer"
     id="layer1"
     transform="translate(0,-412.36218)">
    <g
       transform="matrix(2.8334487,0,0,2.8334487,123.94464,401.43408)"
       style="font-size:40px;font-style:normal;font-weight:normal;line-height:125%;letter-spacing:0px;word-spacing:0px;fill:#ffffff;fill-opacity:1;stroke:none;font-family:Sans"
       id="flowRoot2985">
      <path
         d="m 90.242187,101.48544 0,-28.632813 10.800783,0 c 1.90102,2.8e-5 3.35285,0.09117 4.35547,0.273437 1.40623,0.234403 2.58461,0.680366 3.53515,1.337891 0.9505,0.657578 1.71548,1.578801 2.29493,2.763672 0.5794,1.184918 0.86911,2.487001 0.86914,3.90625 -3e-5,2.434913 -0.77477,4.495458 -2.32422,6.18164 -1.5495,1.686211 -4.34898,2.529309 -8.39844,2.529297 l -7.34375,0 0,11.640626 z m 3.789063,-15.019532 7.40234,0 c 2.4479,1.5e-5 4.18618,-0.455714 5.21485,-1.367188 1.02862,-0.911441 1.54295,-2.193992 1.54297,-3.847656 -2e-5,-1.197895 -0.30276,-2.223285 -0.90821,-3.076172 -0.60549,-0.85284 -1.40301,-1.415991 -2.39257,-1.689453 -0.63804,-0.169246 -1.81643,-0.253881 -3.53516,-0.253906 l -7.32422,0 z"
         style=""
         id="path3107" />
      <path
         d="m 116.35547,109.47372 -0.39063,-3.30078 c 0.76823,0.20833 1.4388,0.31249 2.01172,0.3125 0.78125,-1e-5 1.40625,-0.13021 1.875,-0.39063 0.46875,-0.26042 0.85286,-0.625 1.15235,-1.09375 0.22134,-0.35156 0.57942,-1.22396 1.07422,-2.61718 0.0651,-0.19532 0.16926,-0.48177 0.3125,-0.85938 l -7.8711,-20.781248 3.78906,0 4.31641,12.011718 c 0.55989,1.523445 1.06119,3.125006 1.50391,4.804688 0.40363,-1.614578 0.8854,-3.190097 1.44531,-4.726563 l 4.43359,-12.089843 3.51563,0 -7.89063,21.093748 c -0.84636,2.27864 -1.50391,3.84765 -1.97265,4.70703 -0.62501,1.15885 -1.34116,2.00846 -2.14844,2.54883 -0.8073,0.54036 -1.77084,0.81054 -2.89063,0.81055 -0.67708,-10e-6 -1.43229,-0.14324 -2.26562,-0.42969 z"
         style=""
         id="path3109" />
      <path
         d="m 144.1875,98.340908 0.50781,3.105472 c -0.98959,0.20833 -1.87501,0.3125 -2.65625,0.3125 -1.27605,0 -2.26563,-0.20183 -2.96875,-0.60547 -0.70313,-0.40365 -1.19792,-0.93425 -1.48437,-1.591799 -0.28646,-0.65755 -0.42969,-2.041012 -0.42969,-4.150391 l 0,-11.933593 -2.57813,0 0,-2.734375 2.57813,0 0,-5.136719 3.49609,-2.109375 0,7.246094 3.53516,0 0,2.734375 -3.53516,0 0,12.128906 c 0,1.002609 0.0618,1.647139 0.18555,1.933594 0.12369,0.286462 0.32551,0.514326 0.60547,0.683593 0.27994,0.169274 0.68033,0.25391 1.20117,0.253907 0.39062,3e-6 0.90494,-0.04557 1.54297,-0.136719 z"
         style=""
         id="path3111" />
      <path
         d="m 147.60547,101.48544 0,-28.632813 3.51562,0 0,10.273437 c 1.64062,-1.901021 3.71093,-2.851541 6.21094,-2.851562 1.53645,2.1e-5 2.87108,0.302755 4.00391,0.908203 1.13279,0.605488 1.94334,1.442076 2.43164,2.509765 0.48826,1.067725 0.7324,2.617203 0.73242,4.648438 l 0,13.144532 -3.51563,0 0,-13.144532 c -1e-5,-1.757798 -0.38087,-3.037093 -1.14257,-3.837891 -0.76174,-0.800763 -1.83921,-1.201153 -3.23243,-1.201172 -1.04167,1.9e-5 -2.02149,0.270201 -2.93945,0.810547 -0.91797,0.540382 -1.57227,1.272803 -1.96289,2.197266 -0.39063,0.924493 -0.58594,2.200534 -0.58594,3.828125 l 0,11.347657 z"
         style=""
         id="path3113" />
      <path
         d="m 168.5625,91.114345 c 0,-3.841131 1.06771,-6.686181 3.20312,-8.535156 1.78385,-1.536438 3.95833,-2.304666 6.52344,-2.304687 2.85155,2.1e-5 5.18228,0.934265 6.99219,2.802734 1.80988,1.868506 2.71482,4.449884 2.71484,7.744141 -2e-5,2.669278 -0.40041,4.768886 -1.20117,6.298828 -0.8008,1.52995 -1.96616,2.7181 -3.49609,3.564455 -1.52996,0.84635 -3.19988,1.26953 -5.00977,1.26953 -2.90365,0 -5.25065,-0.93099 -7.04101,-2.79297 -1.79037,-1.861975 -2.68555,-4.544264 -2.68555,-8.046875 z m 3.61328,0 c 0,2.656258 0.57942,4.645188 1.73828,5.966797 1.15885,1.321618 2.61718,1.982424 4.375,1.982422 1.74478,2e-6 3.1966,-0.664059 4.35547,-1.992187 1.15884,-1.32812 1.73827,-3.352857 1.73828,-6.074219 -1e-5,-2.565091 -0.5827,-4.508449 -1.74804,-5.830078 -1.16538,-1.321597 -2.61395,-1.982404 -4.34571,-1.982422 -1.75782,1.8e-5 -3.21615,0.65757 -4.375,1.972656 -1.15886,1.315119 -1.73828,3.300794 -1.73828,5.957031 z"
         style=""
         id="path3115" />
      <path
         d="m 192.13672,101.48544 0,-20.742188 3.16406,0 0,2.949218 c 1.52343,-2.278625 3.72395,-3.417947 6.60156,-3.417968 1.24999,2.1e-5 2.39908,0.22463 3.44727,0.673828 1.04816,0.449239 1.83266,1.038431 2.35351,1.767578 0.52082,0.729185 0.8854,1.595069 1.09375,2.597656 0.13019,0.651057 0.1953,1.790379 0.19532,3.417969 l 0,12.753907 -3.51563,0 0,-12.617188 c -1e-5,-1.432278 -0.13673,-2.503241 -0.41015,-3.212891 -0.27346,-0.709619 -0.75848,-1.276025 -1.45508,-1.699219 -0.69663,-0.423159 -1.51369,-0.634747 -2.45117,-0.634765 -1.49741,1.8e-5 -2.78973,0.475278 -3.87696,1.425781 -1.08724,0.950536 -1.63086,2.75392 -1.63086,5.410156 l 0,11.328126 z"
         style=""
         id="path3117" />
    </g>
    <flowRoot
       xml:space="preserve"
       id="flowRoot2993"
       style="font-size:40px;font-style:normal;font-weight:normal;line-height:125%;letter-spacing:0px;word-spacing:0px;fill:#000000;fill-opacity:1;stroke:none;font-family:Sans"><flowRegion
         id="flowRegion2995"><rect
           id="rect2997"
           width="162.85715"
           height="104.28571"
           x="147.14285"
           y="215.21933" /></flowRegion><flowPara
         id="flowPara2999">JavaScriptJJ</flowPara></flowRoot>    <g
       transform="matrix(2.8072627,0,0,2.8072627,-378.95951,126.86129)"
       style="font-size:40px;font-style:normal;font-weight:normal;line-height:125%;letter-spacing:0px;word-spacing:0px;fill:#ffffff;fill-opacity:1;stroke:none;font-family:Sans"
       id="flowRoot3001">
      <path
         d="m 183.99609,249.07919 3.41797,-0.46875 c 0.0911,2.18751 0.5013,3.6849 1.23047,4.49219 0.72916,0.80729 1.73827,1.21094 3.02734,1.21093 0.95052,1e-5 1.77083,-0.21809 2.46094,-0.65429 0.69009,-0.4362 1.16535,-1.02864 1.42578,-1.77735 0.26041,-0.74869 0.39062,-1.94335 0.39063,-3.58398 l 0,-19.72656 3.78906,0 0,19.51172 c -2e-5,2.39584 -0.28973,4.2513 -0.86914,5.5664 -0.57944,1.31511 -1.49741,2.31771 -2.75391,3.00781 -1.25652,0.69011 -2.73113,1.03516 -4.42382,1.03516 -2.51303,0 -4.43686,-0.72266 -5.77149,-2.16797 -1.33464,-1.44531 -1.97591,-3.59374 -1.92383,-6.44531 z"
         style=""
         id="path3086" />
      <path
         d="m 219.01562,254.6456 c -1.30209,1.10677 -2.55535,1.88802 -3.75976,2.34375 -1.20444,0.45572 -2.49676,0.68359 -3.87695,0.68359 -2.27866,0 -4.02996,-0.55664 -5.25391,-1.66992 -1.22396,-1.11328 -1.83594,-2.53581 -1.83594,-4.26758 0,-1.01562 0.23112,-1.94335 0.69336,-2.7832 0.46224,-0.83984 1.06771,-1.51367 1.81641,-2.02149 0.74869,-0.5078 1.59179,-0.89191 2.52929,-1.15234 0.6901,-0.18228 1.73177,-0.35806 3.125,-0.52735 2.83853,-0.33853 4.92838,-0.74217 6.26954,-1.21093 0.013,-0.48176 0.0195,-0.78775 0.0195,-0.91797 -2e-5,-1.43228 -0.33205,-2.44139 -0.9961,-3.02735 -0.89845,-0.79425 -2.23308,-1.19138 -4.0039,-1.1914 -1.65366,2e-5 -2.87436,0.28973 -3.66211,0.86914 -0.78777,0.57944 -1.37045,1.60483 -1.74805,3.07617 l -3.4375,-0.46875 c 0.3125,-1.47134 0.82682,-2.65949 1.54297,-3.56445 0.71614,-0.90493 1.7513,-1.60155 3.10547,-2.08985 1.35416,-0.48826 2.92317,-0.7324 4.70703,-0.73242 1.77082,2e-5 3.20962,0.20836 4.31641,0.625 1.10675,0.41669 1.92055,0.94078 2.4414,1.57227 0.52082,0.63153 0.8854,1.42905 1.09375,2.39258 0.11717,0.59897 0.17576,1.6797 0.17578,3.24218 l 0,4.6875 c -2e-5,3.26824 0.0748,5.33529 0.22461,6.20117 0.14972,0.86589 0.44595,1.69597 0.88867,2.49024 l -3.67187,0 c -0.3646,-0.72917 -0.59897,-1.58203 -0.70313,-2.55859 z m -0.29296,-7.85157 c -1.27606,0.52085 -3.19012,0.96355 -5.74219,1.32813 -1.44532,0.20834 -2.46746,0.44271 -3.06641,0.70312 -0.59896,0.26043 -1.0612,0.64129 -1.38672,1.14258 -0.32552,0.50131 -0.48828,1.05795 -0.48828,1.66992 0,0.93751 0.35481,1.71876 1.06446,2.34375 0.70962,0.62501 1.74803,0.93751 3.11523,0.9375 1.35416,1e-5 2.55858,-0.29622 3.61328,-0.88867 1.05467,-0.59244 1.82941,-1.40299 2.32422,-2.43164 0.37759,-0.79426 0.56639,-1.96614 0.56641,-3.51562 z"
         style=""
         id="path3088" />
      <path
         d="m 233.50781,257.20419 -7.89062,-20.74219 3.71093,0 4.45313,12.42188 c 0.48176,1.34115 0.92447,2.73438 1.32812,4.17968 0.31249,-1.09374 0.74869,-2.40884 1.3086,-3.94531 l 4.60937,-12.65625 3.61328,0 -7.85156,20.74219 z"
         style=""
         id="path3090" />
      <path
         d="m 261.28125,254.6456 c -1.3021,1.10677 -2.55535,1.88802 -3.75977,2.34375 -1.20443,0.45572 -2.49675,0.68359 -3.87695,0.68359 -2.27865,0 -4.02995,-0.55664 -5.25391,-1.66992 -1.22396,-1.11328 -1.83593,-2.53581 -1.83593,-4.26758 0,-1.01562 0.23112,-1.94335 0.69336,-2.7832 0.46223,-0.83984 1.0677,-1.51367 1.8164,-2.02149 0.7487,-0.5078 1.59179,-0.89191 2.5293,-1.15234 0.6901,-0.18228 1.73176,-0.35806 3.125,-0.52735 2.83853,-0.33853 4.92837,-0.74217 6.26953,-1.21093 0.013,-0.48176 0.0195,-0.78775 0.0195,-0.91797 -1e-5,-1.43228 -0.33204,-2.44139 -0.99609,-3.02735 -0.89845,-0.79425 -2.23309,-1.19138 -4.00391,-1.1914 -1.65365,2e-5 -2.87435,0.28973 -3.66211,0.86914 -0.78776,0.57944 -1.37045,1.60483 -1.74804,3.07617 l -3.4375,-0.46875 c 0.31249,-1.47134 0.82682,-2.65949 1.54296,-3.56445 0.71615,-0.90493 1.7513,-1.60155 3.10547,-2.08985 1.35416,-0.48826 2.92317,-0.7324 4.70703,-0.73242 1.77083,2e-5 3.20963,0.20836 4.31641,0.625 1.10676,0.41669 1.92056,0.94078 2.44141,1.57227 0.52081,0.63153 0.8854,1.42905 1.09375,2.39258 0.11717,0.59897 0.17576,1.6797 0.17578,3.24218 l 0,4.6875 c -2e-5,3.26824 0.0748,5.33529 0.22461,6.20117 0.14972,0.86589 0.44594,1.69597 0.88867,2.49024 l -3.67188,0 c -0.36459,-0.72917 -0.59897,-1.58203 -0.70312,-2.55859 z m -0.29297,-7.85157 c -1.27606,0.52085 -3.19012,0.96355 -5.74219,1.32813 -1.44532,0.20834 -2.46745,0.44271 -3.0664,0.70312 -0.59897,0.26043 -1.06121,0.64129 -1.38672,1.14258 -0.32553,0.50131 -0.48829,1.05795 -0.48828,1.66992 -1e-5,0.93751 0.35481,1.71876 1.06445,2.34375 0.70963,0.62501 1.74804,0.93751 3.11523,0.9375 1.35416,1e-5 2.55859,-0.29622 3.61329,-0.88867 1.05467,-0.59244 1.82941,-1.40299 2.32421,-2.43164 0.37759,-0.79426 0.5664,-1.96614 0.56641,-3.51562 z"
         style=""
         id="path3092" />
      <path
         d="m 269.17187,248.00497 3.57422,-0.3125 c 0.16927,1.4323 0.56315,2.60743 1.18164,3.52539 0.61849,0.91797 1.57877,1.66016 2.88086,2.22656 1.30208,0.56641 2.76692,0.84962 4.39453,0.84961 1.4453,1e-5 2.72134,-0.21484 3.82813,-0.64453 1.10675,-0.42968 1.93032,-1.01887 2.4707,-1.76758 0.54035,-0.74869 0.81053,-1.56574 0.81055,-2.45117 -2e-5,-0.89843 -0.26044,-1.68293 -0.78125,-2.35351 -0.52085,-0.67057 -1.38023,-1.23372 -2.57813,-1.68946 -0.76824,-0.29946 -2.46746,-0.76496 -5.09765,-1.39648 -2.63022,-0.6315 -4.47267,-1.2272 -5.52735,-1.78711 -1.36719,-0.71613 -2.38607,-1.6048 -3.05664,-2.66602 -0.67057,-1.06118 -1.00586,-2.24933 -1.00586,-3.56445 0,-1.44529 0.41016,-2.7962 1.23047,-4.05273 0.82031,-1.25649 2.01823,-2.21026 3.59375,-2.86133 1.57552,-0.65102 3.32682,-0.97654 5.25391,-0.97656 2.12238,2e-5 3.99412,0.34182 5.61523,1.02539 1.62108,0.68362 2.86782,1.68948 3.74024,3.01757 0.87237,1.32815 1.34112,2.83206 1.40625,4.51172 l -3.63281,0.27344 c -0.19534,-1.80987 -0.85614,-3.17706 -1.98243,-4.10156 -1.12631,-0.92446 -2.78972,-1.3867 -4.99023,-1.38672 -2.29168,2e-5 -3.9616,0.41995 -5.00977,1.25976 -1.04818,0.83987 -1.57227,1.85224 -1.57226,3.03711 -1e-5,1.02867 0.37109,1.87502 1.11328,2.53907 0.72916,0.66408 2.63345,1.34442 5.71289,2.04101 3.07941,0.69663 5.19204,1.30536 6.33789,1.82617 1.66665,0.76825 2.89711,1.74155 3.69141,2.91993 0.79424,1.17839 1.19138,2.53581 1.1914,4.07226 -2e-5,1.52345 -0.43622,2.95899 -1.30859,4.30664 -0.87242,1.34766 -2.12567,2.39584 -3.75977,3.14453 -1.63413,0.7487 -3.47332,1.12305 -5.51757,1.12305 -2.59116,0 -4.76238,-0.3776 -6.51368,-1.13281 -1.7513,-0.75521 -3.125,-1.89128 -4.12109,-3.40821 -0.9961,-1.51692 -1.52018,-3.23241 -1.57227,-5.14648 z"
         style=""
         id="path3094" />
      <path
         d="m 310.26562,249.60653 3.45704,0.44922 c -0.37763,2.38282 -1.34442,4.24805 -2.90039,5.5957 -1.55601,1.34766 -3.46681,2.02149 -5.73243,2.02149 -2.83855,0 -5.12044,-0.92773 -6.8457,-2.7832 -1.72526,-1.85547 -2.58789,-4.51497 -2.58789,-7.97852 0,-2.23957 0.37109,-4.1992 1.11328,-5.87891 0.74219,-1.67967 1.87174,-2.93943 3.38867,-3.77929 1.51692,-0.83983 3.16731,-1.25975 4.95117,-1.25977 2.2526,2e-5 4.09504,0.56968 5.52735,1.70899 1.43227,1.13934 2.35024,2.75717 2.7539,4.85351 l -3.41796,0.52735 c -0.32554,-1.39322 -0.90171,-2.44139 -1.72852,-3.14454 -0.82684,-0.7031 -1.82618,-1.05467 -2.99805,-1.05468 -1.77084,1e-5 -3.20964,0.63478 -4.3164,1.90429 -1.10678,1.26955 -1.66016,3.27801 -1.66016,6.02539 0,2.78647 0.53385,4.81121 1.60156,6.07422 1.0677,1.26303 2.46093,1.89454 4.17969,1.89453 1.3802,1e-5 2.53254,-0.42317 3.45703,-1.26953 0.92447,-0.84635 1.5104,-2.14843 1.75781,-3.90625 z"
         style=""
         id="path3096" />
      <path
         d="m 316.69141,257.20419 0,-20.74219 3.16406,0 0,3.14453 c 0.80728,-1.47133 1.55273,-2.44138 2.23633,-2.91015 0.68358,-0.46873 1.43553,-0.70311 2.25586,-0.70313 1.18488,2e-5 2.38931,0.37763 3.61328,1.13281 l -1.21094,3.26172 c -0.85939,-0.50779 -1.71876,-0.7617 -2.57813,-0.76172 -0.76823,2e-5 -1.45834,0.23114 -2.07031,0.69336 -0.61198,0.46226 -1.04818,1.10353 -1.30859,1.92383 -0.39063,1.25002 -0.58594,2.6172 -0.58594,4.10156 l 0,10.85938 z"
         style=""
         id="path3098" />
      <path
         d="m 330.10937,232.61435 0,-4.04297 3.51563,0 0,4.04297 z m 0,24.58984 0,-20.74219 3.51563,0 0,20.74219 z"
         style=""
         id="path3100" />
      <path
         d="m 338.99609,265.15341 0,-28.69141 3.20313,0 0,2.69531 c 0.7552,-1.05466 1.60806,-1.84568 2.55859,-2.37304 0.95051,-0.52733 2.10286,-0.791 3.45703,-0.79102 1.77082,2e-5 3.33332,0.45575 4.6875,1.36719 1.35415,0.91148 2.37629,2.19728 3.06641,3.85742 0.69008,1.66017 1.03514,3.47983 1.03516,5.45899 -2e-5,2.1224 -0.38088,4.0332 -1.14258,5.73242 -0.76174,1.69922 -1.86851,3.0013 -3.32031,3.90625 -1.45184,0.90495 -2.97853,1.35742 -4.58008,1.35742 -1.17189,0 -2.22332,-0.2474 -3.1543,-0.74219 -0.931,-0.49479 -1.69597,-1.11979 -2.29492,-1.875 l 0,10.09766 z m 3.1836,-18.20313 c -10e-6,2.66928 0.54036,4.64194 1.62109,5.91797 1.08072,1.27605 2.38931,1.91407 3.92578,1.91406 1.56249,1e-5 2.90038,-0.6608 4.01367,-1.98242 1.11327,-1.32161 1.66991,-3.36913 1.66993,-6.14258 -2e-5,-2.64321 -0.54364,-4.62238 -1.63086,-5.9375 -1.08726,-1.31508 -2.38608,-1.97263 -3.89649,-1.97265 -1.4974,2e-5 -2.82227,0.69989 -3.97461,2.09961 -1.15235,1.39975 -1.72852,3.43425 -1.72851,6.10351 z"
         style=""
         id="path3102" />
      <path
         d="m 368.9375,254.05966 0.50781,3.10547 c -0.98959,0.20833 -1.87501,0.3125 -2.65625,0.3125 -1.27605,0 -2.26563,-0.20183 -2.96875,-0.60547 -0.70313,-0.40365 -1.19792,-0.93425 -1.48437,-1.5918 -0.28646,-0.65755 -0.42969,-2.04101 -0.42969,-4.15039 l 0,-11.93359 -2.57813,0 0,-2.73438 2.57813,0 0,-5.13672 3.49609,-2.10937 0,7.24609 3.53516,0 0,2.73438 -3.53516,0 0,12.1289 c 0,1.00261 0.0618,1.64714 0.18555,1.9336 0.12369,0.28646 0.32551,0.51432 0.60547,0.68359 0.27994,0.16927 0.68033,0.25391 1.20117,0.25391 0.39062,0 0.90494,-0.0456 1.54297,-0.13672 z"
         style=""
         id="path3104" />
    </g>
    <g
       transform="matrix(2.9433761,0,0,2.9433761,-276.90648,-766.87798)"
       style="font-size:40px;font-style:normal;font-weight:normal;line-height:125%;letter-spacing:0px;word-spacing:0px;fill:#ffffff;fill-opacity:1;stroke:none;font-family:Sans"
       id="flowRoot3013">
      <path
         d="m 158.80469,441.48544 0,-28.63281 10.80078,0 c 1.90102,3e-5 3.35285,0.0912 4.35547,0.27343 1.40623,0.23441 2.58461,0.68037 3.53515,1.33789 0.9505,0.65758 1.71548,1.57881 2.29493,2.76368 0.5794,1.18492 0.86911,2.487 0.86914,3.90625 -3e-5,2.43491 -0.77477,4.49546 -2.32422,6.18164 -1.5495,1.68621 -4.34898,2.52931 -8.39844,2.52929 l -7.34375,0 0,11.64063 z m 3.78906,-15.01953 7.40234,0 c 2.4479,10e-6 4.18618,-0.45572 5.21485,-1.36719 1.02862,-0.91144 1.54295,-2.19399 1.54297,-3.84766 -2e-5,-1.19789 -0.30276,-2.22328 -0.90821,-3.07617 -0.60549,-0.85284 -1.40301,-1.41599 -2.39258,-1.68945 -0.63803,-0.16925 -1.81642,-0.25388 -3.53515,-0.25391 l -7.32422,0 z"
         style=""
         id="path3079" />
      <path
         d="m 185.64062,441.48544 0,-28.63281 3.78907,0 0,11.75781 14.88281,0 0,-11.75781 3.78906,0 0,28.63281 -3.78906,0 0,-13.49609 -14.88281,0 0,13.49609 z"
         style=""
         id="path3081" />
      <path
         d="m 214.42969,441.48544 0,-28.63281 10.80078,0 c 1.90102,3e-5 3.35285,0.0912 4.35547,0.27343 1.40623,0.23441 2.58461,0.68037 3.53515,1.33789 0.9505,0.65758 1.71548,1.57881 2.29493,2.76368 0.5794,1.18492 0.86911,2.487 0.86914,3.90625 -3e-5,2.43491 -0.77477,4.49546 -2.32422,6.18164 -1.5495,1.68621 -4.34898,2.52931 -8.39844,2.52929 l -7.34375,0 0,11.64063 z m 3.78906,-15.01953 7.40234,0 c 2.4479,10e-6 4.18618,-0.45572 5.21485,-1.36719 1.02862,-0.91144 1.54295,-2.19399 1.54297,-3.84766 -2e-5,-1.19789 -0.30276,-2.22328 -0.90821,-3.07617 -0.60549,-0.85284 -1.40301,-1.41599 -2.39258,-1.68945 -0.63803,-0.16925 -1.81642,-0.25388 -3.53515,-0.25391 l -7.32422,0 z"
         style=""
         id="path3083" />
    </g>
    <g
       transform="matrix(2.9273614,0,0,2.9273614,-315.77123,-1088.7401)"
       style="font-size:40px;font-style:normal;font-weight:normal;line-height:125%;letter-spacing:0px;word-spacing:0px;fill:#ffffff;fill-opacity:1;stroke:none;font-family:Sans"
       id="flowRoot3025">
      <path
         d="m 156.35937,595.75888 3.78907,0.95703 c -0.7943,3.11198 -2.22333,5.48503 -4.28711,7.11914 -2.06382,1.63411 -4.58661,2.45117 -7.56836,2.45117 -3.08595,0 -5.59571,-0.62825 -7.5293,-1.88477 -1.9336,-1.2565 -3.40495,-3.07616 -4.41406,-5.45898 -1.00912,-2.3828 -1.51367,-4.94139 -1.51367,-7.67578 0,-2.98175 0.56966,-5.58266 1.70898,-7.80274 1.13932,-2.22002 2.76041,-3.90622 4.86328,-5.05859 2.10286,-1.15231 4.41731,-1.72849 6.94336,-1.72851 2.86457,2e-5 5.27342,0.72919 7.22656,2.1875 1.95311,1.45835 3.31378,3.50913 4.08204,6.15234 l -3.73047,0.87891 c -0.66409,-2.08332 -1.62763,-3.60024 -2.89063,-4.55079 -1.26304,-0.95049 -2.85158,-1.42575 -4.76562,-1.42578 -2.20054,3e-5 -4.03973,0.52737 -5.51758,1.58203 -1.47787,1.05471 -2.51628,2.47073 -3.11524,4.24805 -0.59896,1.77736 -0.89844,3.61004 -0.89843,5.49805 -1e-5,2.43491 0.35481,4.56055 1.06445,6.37695 0.70963,1.81641 1.81314,3.17383 3.31055,4.07227 1.49738,0.89844 3.11847,1.34766 4.86328,1.34765 2.12238,10e-6 3.91925,-0.61197 5.39062,-1.83593 1.47134,-1.22396 2.46743,-3.04036 2.98828,-5.44922 z"
         style=""
         id="path3072" />
      <path
         d="m 171.76953,601.16903 0,-7.85156 -7.79297,0 0,-3.28125 7.79297,0 0,-7.79297 3.32031,0 0,7.79297 7.79297,0 0,3.28125 -7.79297,0 0,7.85156 z"
         style=""
         id="path3074" />
      <path
         d="m 195.12891,601.16903 0,-7.85156 -7.79297,0 0,-3.28125 7.79297,0 0,-7.79297 3.32031,0 0,7.79297 7.79297,0 0,3.28125 -7.79297,0 0,7.85156 z"
         style=""
         id="path3076" />
    </g>
    <g
       style="font-size:117.74539948px;font-style:normal;font-weight:normal;line-height:125%;letter-spacing:0px;word-spacing:0px;fill:#ffffff;fill-opacity:1;stroke:none;font-family:Sans"
       id="text3033">
      <path
         d="m 587.85716,495.82409 11.15362,2.81715 c -2.33813,9.16055 -6.54468,16.14593 -12.61969,20.95615 -6.07514,4.81024 -13.5013,7.21536 -22.27849,7.21536 -9.08391,0 -16.47173,-1.84935 -22.1635,-5.54806 -5.69181,-3.6987 -10.02294,-9.05512 -12.99339,-16.06926 -2.97047,-7.0141 -4.4557,-14.54566 -4.45569,-22.5947 -10e-6,-8.77719 1.67686,-16.43332 5.03062,-22.9684 3.35374,-6.53495 8.12564,-11.4985 14.31573,-14.89065 6.19003,-3.392 13.00293,-5.08804 20.43871,-5.08812 8.43224,8e-5 15.52302,2.14648 21.27236,6.4392 5.74922,4.29287 9.75455,10.32962 12.01601,18.11025 l -10.98113,2.58718 c -1.95483,-6.13251 -4.79114,-10.59778 -8.50895,-13.39584 -3.71793,-2.79791 -8.39401,-4.1969 -14.02826,-4.19698 -6.47757,8e-5 -11.89148,1.55239 -16.24174,4.65693 -4.35031,3.10468 -7.40702,7.27291 -9.17011,12.5047 -1.76313,5.2319 -2.64469,10.62664 -2.64467,16.18424 -2e-5,7.16748 1.04443,13.42461 3.13336,18.77142 2.08889,5.34686 5.33723,9.34261 9.74504,11.98726 4.40775,2.64469 9.17966,3.96702 14.31573,3.96701 6.2475,1e-5 11.53684,-1.80143 15.86803,-5.40433 4.33106,-3.60287 7.2632,-8.9497 8.79641,-16.04051 z"
         style=""
         id="path3067" />
      <path
         d="m 609.64695,526.81275 5.00188,-24.49196 -9.71629,0 0,-8.56644 11.44108,0 4.25447,-20.86991 -15.69555,0 0,-8.56644 17.42034,0 5.00188,-24.66444 8.62393,0 -5.00188,24.66444 18.11025,0 5.00188,-24.66444 8.68143,0 -5.00188,24.66444 9.94626,0 0,8.56644 -11.67105,0 -4.31196,20.86991 15.98301,0 0,8.56644 -17.7078,0 -5.00188,24.49196 -8.62393,0 4.94439,-24.49196 -18.05276,0 -5.00188,24.49196 z m 15.3506,-33.0584 18.05276,0 4.31197,-20.86991 -18.11026,0 z"
         style=""
         id="path3069" />
    </g>
    <g
       style="font-size:67.26490784px;font-style:normal;font-weight:normal;line-height:125%;letter-spacing:0px;word-spacing:0px;fill:#ffffff;fill-opacity:1;stroke:none;font-family:Sans"
       id="text3037">
      <path
         d="m 733.34713,795.04956 0,-48.14959 34.81484,0 0,5.68205 -28.44307,0 0,14.74704 26.63664,0 0,5.6492 -26.63664,0 0,16.38926 29.55977,0 0,5.68204 z"
         style=""
         id="path3054" />
      <path
         d="m 777.3255,795.04956 0,-34.88053 5.32076,0 0,5.28791 c 1.35755,-2.47423 2.6111,-4.10549 3.76066,-4.89378 1.14953,-0.78823 2.41403,-1.18236 3.7935,-1.18239 1.99253,3e-5 4.01792,0.63502 6.07618,1.90496 l -2.03634,5.48498 c -1.44517,-0.85392 -2.89031,-1.28089 -4.33543,-1.28092 -1.29189,3e-5 -2.45239,0.38868 -3.48149,1.16597 -1.02913,0.77734 -1.76265,1.85572 -2.20056,3.23515 -0.65689,2.10205 -0.98534,4.40114 -0.98533,6.89728 l 0,18.26137 z"
         style=""
         id="path3056" />
      <path
         d="m 799.72524,795.04956 0,-48.14959 5.91196,0 0,48.14959 z"
         style=""
         id="path3058" />
      <path
         d="m 837.5946,790.74697 c -2.18964,1.86117 -4.29714,3.17494 -6.32251,3.9413 -2.02541,0.76637 -4.1986,1.14955 -6.51957,1.14955 -3.83184,0 -6.77686,-0.93606 -8.83509,-2.80818 -2.05824,-1.87211 -3.08736,-4.26426 -3.08735,-7.17645 -10e-6,-1.70789 0.38865,-3.26799 1.16596,-4.6803 0.77731,-1.41229 1.79548,-2.54541 3.05451,-3.39938 1.25902,-0.85393 2.6768,-1.49986 4.25333,-1.9378 1.16048,-0.30653 2.91217,-0.60213 5.25507,-0.8868 4.77333,-0.56927 8.28766,-1.24805 10.54298,-2.03634 0.0219,-0.81013 0.0328,-1.32469 0.0328,-1.54367 -3e-5,-2.40855 -0.55838,-4.1055 -1.67506,-5.09085 -1.51085,-1.33564 -3.7552,-2.00347 -6.73306,-2.0035 -2.78082,3e-5 -4.83358,0.48722 -6.15828,1.46157 -1.32473,0.9744 -2.30458,2.69872 -2.93956,5.17296 l -5.78057,-0.78826 c 0.5255,-2.47424 1.39039,-4.47226 2.59469,-5.99407 1.20428,-1.52175 2.94502,-2.69319 5.22222,-3.51433 2.27719,-0.82107 4.91567,-1.23162 7.91545,-1.23165 2.97786,3e-5 5.39737,0.35037 7.25857,1.05101 1.86114,0.70071 3.22965,1.58203 4.10552,2.64396 0.87582,1.06199 1.48891,2.40313 1.83928,4.02341 0.19703,1.00725 0.29556,2.82463 0.2956,5.45214 l 0,7.8826 c -4e-5,5.49594 0.12587,8.97195 0.37771,10.42804 0.25177,1.45609 0.7499,2.85197 1.49441,4.18763 l -6.17471,0 c -0.61312,-1.22618 -1.00725,-2.66038 -1.18239,-4.30259 z m -0.49267,-13.20336 c -2.14584,0.87586 -5.36457,1.62032 -9.65619,2.2334 -2.43048,0.35035 -4.14933,0.74448 -5.15654,1.18239 -1.00723,0.43794 -1.78454,1.0784 -2.33193,1.92139 -0.54742,0.84301 -0.82112,1.77907 -0.82111,2.80818 -10e-6,1.57652 0.59666,2.89029 1.79001,3.9413 1.19333,1.05102 2.93954,1.57652 5.23865,1.57652 2.27718,0 4.30257,-0.49813 6.07617,-1.49441 1.77357,-0.99627 3.07638,-2.3593 3.90846,-4.0891 0.63496,-1.33566 0.95246,-3.30631 0.95248,-5.91196 z"
         style=""
         id="path3060" />
      <path
         d="m 852.27595,795.04956 0,-34.88053 5.32076,0 0,4.95947 c 2.56183,-3.83179 6.26227,-5.7477 11.10133,-5.74773 2.10201,3e-5 4.03434,0.37774 5.797,1.13312 1.76261,0.75545 3.08185,1.74625 3.95773,2.9724 0.87581,1.22621 1.4889,2.68231 1.83927,4.36828 0.21893,1.09483 0.32841,3.01074 0.32844,5.74773 l 0,21.44726 -5.91195,0 0,-21.21735 c -3e-5,-2.40855 -0.22994,-4.2095 -0.68973,-5.40287 -0.45984,-1.19331 -1.27547,-2.14579 -2.44689,-2.85744 -1.17147,-0.7116 -2.54545,-1.06741 -4.12195,-1.06744 -2.51807,3e-5 -4.69126,0.79924 -6.51957,2.39763 -1.82834,1.59844 -2.7425,4.63105 -2.74249,9.09784 l 0,19.04963 z"
         style=""
         id="path3062" />
      <path
         d="m 888.63447,797.93985 5.74773,0.85395 c 0.24085,1.77358 0.90868,3.06545 2.0035,3.87561 1.46703,1.0948 3.47052,1.6422 6.01049,1.64221 2.73699,-10e-6 4.84997,-0.54741 6.33893,-1.64221 1.48891,-1.09481 2.49613,-2.62754 3.02166,-4.59818 0.30652,-1.20429 0.44885,-3.73329 0.42698,-7.58701 -2.58377,3.04356 -5.8025,4.56534 -9.6562,4.56534 -4.79526,0 -8.50665,-1.72979 -11.13418,-5.18938 -2.62754,-3.45958 -3.9413,-7.60889 -3.9413,-12.44795 0,-3.32819 0.60214,-6.39912 1.80643,-9.2128 1.20428,-2.81362 2.9505,-4.98681 5.23865,-6.51957 2.28813,-1.53269 4.97588,-2.29906 8.06325,-2.29909 4.11645,3e-5 7.51035,1.66414 10.1817,4.99231 l 0,-4.20405 5.45213,0 0,30.15097 c -3e-5,5.43024 -0.55291,9.27848 -1.65863,11.54473 -1.10578,2.26624 -2.85747,4.05625 -5.25507,5.37003 -2.39765,1.31375 -5.34815,1.97063 -8.85151,1.97065 -4.16028,-2e-5 -7.52133,-0.93607 -10.08317,-2.80818 -2.56185,-1.87213 -3.79898,-4.69125 -3.71139,-8.45738 z m 4.89379,-20.9546 c -1e-5,4.57631 0.90868,7.91546 2.72606,10.01748 1.81737,2.10204 4.09456,3.15305 6.8316,3.15305 2.7151,0 4.99229,-1.04554 6.83159,-3.13662 1.83925,-2.09107 2.75888,-5.37002 2.75891,-9.83684 -3e-5,-4.26972 -0.94703,-7.48845 -2.84102,-9.65619 -1.89404,-2.16769 -4.17671,-3.25155 -6.84802,-3.25158 -2.62755,3e-5 -4.86095,1.06747 -6.70021,3.20231 -1.83929,2.1349 -2.75892,5.30436 -2.75891,9.50839 z"
         style=""
         id="path3064" />
    </g>
    <g
       style="font-size:74.02014923px;font-style:normal;font-weight:normal;line-height:125%;letter-spacing:0px;word-spacing:0px;fill:#ffffff;fill-opacity:1;stroke:none;font-family:Sans"
       id="text3041">
      <path
         d="m 764.29274,517.5 0,-52.98513 7.01167,0 0,46.73245 26.09499,0 0,6.25268 z"
         style=""
         id="path3047" />
      <path
         d="m 830.1085,517.5 0,-5.63825 c -2.98782,4.33712 -7.04784,6.50567 -12.18007,6.50567 -2.26496,0 -4.3793,-0.43371 -6.34304,-1.30113 -1.96376,-0.86742 -3.42151,-1.95773 -4.37326,-3.27091 -0.95176,-1.31318 -1.6204,-2.92153 -2.00591,-4.82505 -0.26506,-1.27703 -0.39758,-3.30101 -0.39757,-6.07196 l 0,-23.78187 6.50567,0 0,21.28803 c -10e-6,3.39742 0.13252,5.68645 0.39757,6.8671 0.40961,1.71076 1.27703,3.05406 2.60227,4.02991 1.32522,0.97585 2.96368,1.46378 4.9154,1.46377 1.95169,10e-6 3.78291,-0.49997 5.49369,-1.49992 1.71072,-0.99994 2.9215,-2.36131 3.63233,-4.08412 0.71078,-1.72278 1.06618,-4.22265 1.06621,-7.4996 l 0,-20.56517 6.50568,0 0,38.3835 z"
         style=""
         id="path3049" />
      <path
         d="m 871.2027,512.76531 c -2.40954,2.04809 -4.72869,3.49379 -6.95746,4.33712 -2.22882,0.84333 -4.62026,1.26499 -7.17432,1.26499 -4.21665,0 -7.45744,-1.03006 -9.72237,-3.09019 -2.26495,-2.06013 -3.39742,-4.69252 -3.39741,-7.89717 -10e-6,-1.87941 0.42768,-3.59618 1.28306,-5.15033 0.85537,-1.55412 1.97579,-2.80104 3.36127,-3.74076 1.38546,-0.93969 2.94561,-1.6505 4.68047,-2.13242 1.27703,-0.33731 3.20463,-0.66259 5.78283,-0.97585 5.2527,-0.62645 9.11996,-1.3734 11.60179,-2.24085 0.0241,-0.89149 0.0361,-1.45772 0.0361,-1.6987 -3e-5,-2.65043 -0.61446,-4.5178 -1.84328,-5.60211 -1.66258,-1.46977 -4.13233,-2.20467 -7.40924,-2.2047 -3.06009,3e-5 -5.31901,0.53615 -6.77675,1.60834 -1.45776,1.07227 -2.53602,2.96975 -3.23476,5.69247 l -6.36111,-0.86742 c 0.57828,-2.72272 1.53003,-4.92139 2.85527,-6.59604 1.32522,-1.67457 3.24078,-2.96366 5.74668,-3.86726 2.50588,-0.90353 5.40933,-1.35531 8.71038,-1.35535 3.27691,4e-5 5.93941,0.38556 7.98752,1.15657 2.04806,0.77108 3.554,1.7409 4.51784,2.90948 0.96377,1.16865 1.63843,2.64447 2.02398,4.42747 0.21682,1.10841 0.32525,3.1083 0.32529,5.99968 l 0,8.67424 c -4e-5,6.04788 0.13851,9.87297 0.41564,11.47529 0.27706,1.60233 0.82522,3.13839 1.64449,4.60819 l -6.79482,0 c -0.67469,-1.34932 -1.1084,-2.92755 -1.30113,-4.73469 z m -0.54214,-14.52934 c -2.36135,0.96382 -5.90333,1.78305 -10.62594,2.4577 -2.67458,0.38554 -4.56604,0.81925 -5.6744,1.30113 -1.10839,0.48192 -1.96376,1.1867 -2.56613,2.11435 -0.60239,0.92767 -0.90357,1.95774 -0.90356,3.09019 -10e-6,1.73486 0.65658,3.18056 1.96977,4.33712 1.31317,1.15657 3.23475,1.73485 5.76475,1.73485 2.50587,0 4.73467,-0.54816 6.68639,-1.64449 1.95168,-1.09632 3.38534,-2.59624 4.30098,-4.49976 0.69873,-1.46979 1.04811,-3.63835 1.04814,-6.50568 z"
         style=""
         id="path3051" />
    </g>
    <g
       style="font-size:84.41043854px;font-style:normal;font-weight:normal;line-height:125%;letter-spacing:0px;word-spacing:0px;fill:#ffffff;fill-opacity:1;stroke:none;font-family:Sans"
       id="text3045">
      <path
         d="m 46.557114,966.90934 c -4e-6,-10.0292 2.692774,-17.88085 8.078343,-23.55497 5.385544,-5.67401 12.337308,-8.51105 20.855313,-8.51111 5.577865,6e-5 10.606216,1.33271 15.085069,3.99796 4.478756,2.66536 7.892814,6.38166 10.242181,11.14893 2.34926,4.76737 3.52391,10.17353 3.52397,16.21851 -6e-5,6.12748 -1.23654,11.60921 -3.70944,16.4452 -2.473017,4.83603 -5.976376,8.49738 -10.510088,10.98408 -4.533807,2.4867 -9.424771,3.73005 -14.672908,3.73005 -5.68784,0 -10.771146,-1.37387 -15.249933,-4.12161 -4.478822,-2.74773 -7.872272,-6.49838 -10.18036,-11.25197 -2.308103,-4.75357 -3.462151,-9.78192 -3.462147,-15.08507 z m 8.243207,0.12364 c -1.2e-5,7.28153 1.957747,13.01742 5.873285,17.2077 3.915501,4.1903 8.827073,6.28545 14.734732,6.28544 6.017502,10e-6 10.970291,-2.11574 14.85838,-6.34726 3.887995,-4.2315 5.832016,-10.2353 5.832069,-18.01141 -5.3e-5,-4.91841 -0.831242,-9.21175 -2.49357,-12.88001 -1.662429,-3.66818 -4.094173,-6.51209 -7.295238,-8.53172 -3.201152,-2.01953 -6.793813,-3.02933 -10.777993,-3.02938 -5.660363,5e-5 -10.530719,1.94408 -14.611084,5.83207 -4.080402,3.88809 -6.120593,10.37961 -6.120581,19.47457 z"
         style=""
         id="path3024" />
      <path
         d="m 120.49868,996.33759 -6.88308,0 0,-60.42271 7.41889,0 0,21.55598 c 3.1324,-3.92921 7.13035,-5.89384 11.99387,-5.89389 2.69275,5e-5 5.24127,0.54272 7.64557,1.62804 2.40423,1.08539 4.3826,2.61038 5.93511,4.57498 1.55243,1.96466 2.7683,4.33458 3.64762,7.10976 0.87923,2.77524 1.31887,5.74279 1.31891,8.90266 -4e-5,7.50134 -1.85476,13.29905 -5.56416,17.39317 -3.70948,4.09413 -8.16081,6.14119 -13.354,6.14119 -5.16576,0 -9.21867,-2.15697 -12.15873,-6.47092 z m -0.0824,-22.21545 c -1e-5,5.24819 0.7144,9.04007 2.14323,11.37563 2.33556,3.81936 5.49545,5.72903 9.47969,5.72903 3.2423,0 6.04499,-1.40821 8.40807,-4.22465 2.36302,-2.81641 3.54455,-7.01358 3.54458,-12.59149 -3e-5,-5.71527 -1.13347,-9.93304 -3.40032,-12.65333 -2.26691,-2.72022 -5.00778,-4.08035 -8.2226,-4.08038 -3.24235,3e-5 -6.04504,1.40825 -8.40807,4.22464 -2.36307,2.81646 -3.54459,6.88997 -3.54458,12.22055 z"
         style=""
         id="path3026" />
      <path
         d="m 160.60188,944.52903 0,-8.61415 7.41888,0 0,8.61415 z m -9.39726,68.78957 1.40135,-6.3061 c 1.48378,0.3847 2.65156,0.5771 3.50336,0.5771 1.51125,0 2.63782,-0.5015 3.37972,-1.5044 0.74188,-1.003 1.11282,-3.5103 1.11283,-7.52195 l 0,-45.99709 7.41888,0 0,46.16196 c -1e-5,5.38558 -0.70068,9.13618 -2.10201,11.25198 -1.78604,2.7477 -4.75359,4.1216 -8.90267,4.1216 -2.00584,0 -3.943,-0.2611 -5.81146,-0.7831 z"
         style=""
         id="path3028" />
      <path
         d="m 209.40166,982.2417 7.66618,0.94797 c -1.20904,4.47882 -3.44844,7.9547 -6.71821,10.42766 -3.26984,2.47296 -7.44639,3.70944 -12.52967,3.70944 -6.40225,0 -11.47868,-1.9715 -15.22933,-5.9145 -3.75066,-3.94299 -5.62599,-9.4728 -5.62599,-16.58945 0,-7.36391 1.89593,-13.07919 5.68782,-17.14587 3.79186,-4.06661 8.7103,-6.09993 14.75534,-6.09998 5.85264,5e-5 10.6337,1.99215 14.34318,5.97633 3.7094,3.98425 5.56412,9.58962 5.56416,16.81614 -4e-5,0.43966 -0.0138,1.09911 -0.0412,1.97837 l -32.6431,0 c 0.27477,4.80855 1.6349,8.49051 4.08039,11.0459 2.44547,2.5554 5.49545,3.83309 9.14996,3.83309 2.72023,0 5.04207,-0.71441 6.96551,-2.14324 1.92338,-1.42881 3.44838,-3.70943 4.57498,-6.84186 z m -24.35867,-11.99386 24.4411,0 c -0.32976,-3.68194 -1.26399,-6.44341 -2.80269,-8.28443 -2.36308,-2.85761 -5.4268,-4.28643 -9.19117,-4.28646 -3.40721,3e-5 -6.27173,1.14034 -8.59355,3.42093 -2.32184,2.28065 -3.60641,5.33063 -3.85369,9.14996 z"
         style=""
         id="path3030" />
      <path
         d="m 254.9866,980.30455 7.29524,0.94797 c -0.79689,5.02836 -2.83708,8.96449 -6.12058,11.80839 -3.28358,2.84391 -7.31588,4.26586 -12.09691,4.26586 -5.99008,0 -10.80548,-1.95776 -14.44622,-5.87328 -3.64076,-3.91552 -5.46113,-9.52776 -5.46113,-16.83675 0,-4.72608 0.78311,-8.86142 2.34932,-12.40603 1.5662,-3.54454 3.94986,-6.20297 7.15098,-7.9753 3.2011,-1.77225 6.68385,-2.65839 10.44827,-2.65844 4.75355,5e-5 8.64159,1.20218 11.66413,3.60641 3.02247,2.4043 4.95963,5.81836 5.81146,10.24218 l -7.2128,1.11283 c -0.68697,-2.94004 -1.90284,-5.15197 -3.64762,-6.63578 -1.74484,-1.48374 -3.85373,-2.22563 -6.32666,-2.22566 -3.73694,3e-5 -6.77319,1.33955 -9.10875,4.01856 -2.33558,2.67907 -3.50337,6.91745 -3.50336,12.71515 -1e-5,5.88017 1.12656,10.15289 3.37972,12.81818 2.25312,2.66531 5.1932,3.99796 8.82023,3.99796 2.91257,0 5.34431,-0.89301 7.29524,-2.67905 1.95086,-1.78601 3.18734,-4.53375 3.70944,-8.2432 z"
         style=""
         id="path3032" />
      <path
         d="m 284.827,989.7018 1.07162,6.55335 c -2.0883,0.43964 -3.95676,0.65946 -5.60538,0.65946 -2.6928,0 -4.78107,-0.4259 -6.26484,-1.2777 -1.48378,-0.85179 -2.52792,-1.97149 -3.13242,-3.3591 -0.6045,-1.3876 -0.90676,-4.30707 -0.90675,-8.75841 l 0,-25.183 -5.44052,0 0,-5.77024 5.44052,0 0,-10.83982 7.37767,-4.45133 0,15.29115 7.4601,0 0,5.77024 -7.4601,0 0,25.59516 c -10e-6,2.11577 0.1305,3.47589 0.39155,4.08039 0.26102,0.60451 0.68692,1.08536 1.2777,1.44256 0.59075,0.35721 1.43568,0.53581 2.53479,0.53581 0.8243,0 1.90965,-0.0962 3.25606,-0.28852 z"
         style=""
         id="path3034" />
      <path
         d="m 292.08104,944.4466 0,-8.53172 7.41889,0 0,8.53172 z m 0,51.89099 0,-43.77143 7.41889,0 0,43.77143 z"
         style=""
         id="path3036" />
      <path
         d="m 322.99305,996.33759 -16.65128,-43.77143 7.83105,0 9.39725,26.21339 c 1.01665,2.83019 1.95087,5.77026 2.80269,8.82024 0.65944,-2.30809 1.57993,-5.0833 2.76148,-8.32564 l 9.72698,-26.70799 7.62497,0 -16.56885,43.77143 z"
         style=""
         id="path3038" />
      <path
         d="m 383.00361,982.2417 7.66618,0.94797 c -1.20905,4.47882 -3.44845,7.9547 -6.71822,10.42766 -3.26983,2.47296 -7.44639,3.70944 -12.52967,3.70944 -6.40224,0 -11.47868,-1.9715 -15.22932,-5.9145 -3.75067,-3.94299 -5.626,-9.4728 -5.62599,-16.58945 -1e-5,-7.36391 1.89593,-13.07919 5.68781,-17.14587 3.79186,-4.06661 8.7103,-6.09993 14.75534,-6.09998 5.85265,5e-5 10.6337,1.99215 14.34318,5.97633 3.7094,3.98425 5.56412,9.58962 5.56416,16.81614 -4e-5,0.43966 -0.0138,1.09911 -0.0412,1.97837 l -32.6431,0 c 0.27476,4.80855 1.63489,8.49051 4.08039,11.0459 2.44546,2.5554 5.49545,3.83309 9.14996,3.83309 2.72023,0 5.04206,-0.71441 6.96551,-2.14324 1.92338,-1.42881 3.44837,-3.70943 4.57498,-6.84186 z m -24.35868,-11.99386 24.44111,0 c -0.32977,-3.68194 -1.264,-6.44341 -2.80269,-8.28443 -2.36309,-2.85761 -5.42681,-4.28643 -9.19118,-4.28646 -3.40721,3e-5 -6.27172,1.14034 -8.59354,3.42093 -2.32185,2.28065 -3.60642,5.33063 -3.8537,9.14996 z"
         style=""
         id="path3040" />
      <path
         d="m 397.14069,978.20253 0,-7.4601 22.79247,0 0,7.4601 z"
         style=""
         id="path3042" />
      <path
         d="m 472.27753,975.15254 7.99591,2.01959 c -1.67618,6.5671 -4.69181,11.57484 -9.04692,15.02324 -4.35521,3.44841 -9.67894,5.17262 -15.97121,5.17262 -6.51216,0 -11.80842,-1.32579 -15.88878,-3.97735 -4.0804,-2.65156 -7.18534,-6.49152 -9.31483,-11.51988 -2.1295,-5.02834 -3.19425,-10.42763 -3.19424,-16.1979 -1e-5,-6.29228 1.20213,-11.78088 3.6064,-16.46581 2.40426,-4.68484 5.82519,-8.24315 10.26279,-10.67495 4.43757,-2.43169 9.32167,-3.64756 14.6523,-3.64762 6.04498,6e-5 11.12829,1.53879 15.24994,4.61619 4.12155,3.07752 6.99293,7.4052 8.61415,12.98305 l -7.87226,1.85473 c -1.4014,-4.39633 -3.43472,-7.59744 -6.09998,-9.60334 -2.66534,-2.00579 -6.01757,-3.00872 -10.05671,-3.00877 -4.6437,5e-5 -8.52487,1.11289 -11.64353,3.3385 -3.1187,2.22571 -5.31001,5.21387 -6.57396,8.96449 -1.26397,3.75069 -1.89595,7.61813 -1.89593,11.60231 -2e-5,5.13829 0.74874,9.62396 2.24627,13.45704 1.4975,3.8331 3.8262,6.69761 6.98612,8.59354 3.15987,1.89594 6.5808,2.84391 10.26279,2.8439 4.47877,10e-6 8.27064,-1.29142 11.37563,-3.8743 3.10489,-2.58286 5.20691,-6.41595 6.30605,-11.49928 z"
         style=""
         id="path3044" />
    </g>
    <g
       style="font-size:116.77198029px;font-style:normal;font-weight:normal;line-height:125%;letter-spacing:0px;word-spacing:0px;fill:#ffffff;fill-opacity:1;stroke:none;font-family:Sans"
       id="text3049">
      <path
         d="m 644.27291,975.32854 9.97808,-1.36842 c 0.26606,6.38599 1.46343,10.75733 3.5921,13.11404 2.12864,2.35674 5.07454,3.5351 8.83773,3.53509 2.77482,10e-6 5.16956,-0.63669 7.18421,-1.91009 2.01458,-1.27338 3.40201,-3.00291 4.16228,-5.1886 0.7602,-2.18565 1.14031,-5.67322 1.14035,-10.46272 l 0,-57.58774 11.06141,0 0,56.96055 c -5e-5,6.99417 -0.84581,12.41084 -2.53728,16.25 -1.69157,3.83919 -4.37139,6.76609 -8.03948,8.78071 -3.66816,2.01462 -7.97299,3.02194 -12.91448,3.02194 -7.33628,0 -12.9525,-2.10966 -16.84869,-6.32896 -3.8962,-4.21929 -5.76828,-10.49122 -5.61623,-18.8158 z"
         style=""
         id="path3015" />
      <path
         d="m 746.50541,991.57855 c -3.80121,3.231 -7.45984,5.5117 -10.97588,6.84211 -3.51612,1.33041 -7.28878,1.99564 -11.31799,1.99564 -6.65207,0 -11.76464,-1.62503 -15.33772,-4.87503 -3.57311,-3.24999 -5.35966,-7.40277 -5.35966,-12.45834 0,-2.96489 0.67471,-5.67322 2.02413,-8.125 1.34941,-2.45173 3.11695,-4.41883 5.30263,-5.90132 2.18566,-1.48242 4.64692,-2.60377 7.38378,-3.36404 2.0146,-0.53213 5.05553,-1.04528 9.12281,-1.53947 8.28652,-0.98827 14.38739,-2.16663 18.30264,-3.53509 0.038,-1.40639 0.057,-2.29967 0.057,-2.67983 -5e-5,-4.18124 -0.96935,-7.12714 -2.9079,-8.83772 -2.62285,-2.31866 -6.51905,-3.47802 -11.6886,-3.47807 -4.82752,5e-5 -8.39111,0.84581 -10.6908,2.53728 -2.29972,1.69157 -4.00075,4.68499 -5.10307,8.98027 l -10.03509,-1.36842 c 0.91227,-4.29528 2.41373,-7.76384 4.50439,-10.40571 2.09063,-2.64176 5.11256,-4.67538 9.06579,-6.10088 3.9532,-1.42538 8.5336,-2.1381 13.74123,-2.13816 5.16956,6e-5 9.36985,0.60825 12.60089,1.82456 3.23094,1.21644 5.60667,2.74641 7.12719,4.58992 1.52042,1.84362 2.58474,4.17184 3.19299,6.98465 0.34205,1.74859 0.5131,4.90356 0.51316,9.46492 l 0,13.68421 c -6e-5,9.54096 0.21851,15.57531 0.6557,18.10308 0.43707,2.52779 1.30184,4.95103 2.5943,7.26974 l -10.71931,0 c -1.06437,-2.12865 -1.74858,-4.61842 -2.05263,-7.4693 z m -0.85526,-22.92106 c -3.72519,1.52049 -9.31291,2.81289 -16.76317,3.87719 -4.21932,0.60822 -7.20324,1.29243 -8.95176,2.05263 -1.74855,0.76026 -3.09797,1.8721 -4.04824,3.33553 -0.95031,1.46347 -1.42546,3.08847 -1.42544,4.875 -2e-5,2.73686 1.0358,5.01756 3.10746,6.84211 2.07161,1.82457 5.10304,2.73685 9.0943,2.73685 3.95318,0 7.46926,-0.86476 10.54825,-2.5943 3.07891,-1.72953 5.3406,-4.09575 6.78509,-7.09869 1.10229,-2.3187 1.65346,-5.73975 1.65351,-10.26316 z"
         style=""
         id="path3017" />
      <path
         d="m 788.81245,999.04785 -23.0351,-60.55266 10.83334,0 13,36.26318 c 1.40641,3.91522 2.69881,7.98247 3.8772,12.20176 0.91225,-3.19297 2.18564,-7.03215 3.82017,-11.51755 l 13.45615,-36.94739 10.54825,0 -22.92106,60.55266 z"
         style=""
         id="path3019" />
      <path
         d="m 869.89142,991.57855 c -3.80121,3.231 -7.45983,5.5117 -10.97588,6.84211 -3.51611,1.33041 -7.28877,1.99564 -11.31798,1.99564 -6.65207,0 -11.76464,-1.62503 -15.33773,-4.87503 -3.57311,-3.24999 -5.35966,-7.40277 -5.35965,-12.45834 -10e-6,-2.96489 0.6747,-5.67322 2.02412,-8.125 1.34941,-2.45173 3.11695,-4.41883 5.30264,-5.90132 2.18566,-1.48242 4.64691,-2.60377 7.38377,-3.36404 2.0146,-0.53213 5.05553,-1.04528 9.12281,-1.53947 8.28652,-0.98827 14.38739,-2.16663 18.30264,-3.53509 0.038,-1.40639 0.057,-2.29967 0.057,-2.67983 -5e-5,-4.18124 -0.96935,-7.12714 -2.9079,-8.83772 -2.62285,-2.31866 -6.51904,-3.47802 -11.6886,-3.47807 -4.82751,5e-5 -8.39111,0.84581 -10.69079,2.53728 -2.29973,1.69157 -4.00075,4.68499 -5.10308,8.98027 l -10.03509,-1.36842 c 0.91228,-4.29528 2.41374,-7.76384 4.50439,-10.40571 2.09063,-2.64176 5.11256,-4.67538 9.06579,-6.10088 3.9532,-1.42538 8.53361,-2.1381 13.74124,-2.13816 5.16955,6e-5 9.36984,0.60825 12.60088,1.82456 3.23095,1.21644 5.60668,2.74641 7.1272,4.58992 1.52041,1.84362 2.58474,4.17184 3.19298,6.98465 0.34205,1.74859 0.5131,4.90356 0.51316,9.46492 l 0,13.68421 c -6e-5,9.54096 0.21851,15.57531 0.6557,18.10308 0.43708,2.52779 1.30184,4.95103 2.5943,7.26974 l -10.7193,0 c -1.06438,-2.12865 -1.74859,-4.61842 -2.05264,-7.4693 z m -0.85526,-22.92106 c -3.72519,1.52049 -9.31291,2.81289 -16.76316,3.87719 -4.21933,0.60822 -7.20325,1.29243 -8.95176,2.05263 -1.74856,0.76026 -3.09797,1.8721 -4.04825,3.33553 -0.95031,1.46347 -1.42545,3.08847 -1.42544,4.875 -10e-6,2.73686 1.0358,5.01756 3.10746,6.84211 2.07162,1.82457 5.10305,2.73685 9.0943,2.73685 3.95319,0 7.46927,-0.86476 10.54825,-2.5943 3.07891,-1.72953 5.3406,-4.09575 6.78509,-7.09869 1.1023,-2.3187 1.65346,-5.73975 1.65351,-10.26316 z"
         style=""
         id="path3021" />
    </g>
  </g>
</svg>
