<?xml version="1.0" encoding="UTF-8" standalone="no"?>
<!-- Created with Inkscape (http://www.inkscape.org/) -->

<svg
   xmlns:dc="http://purl.org/dc/elements/1.1/"
   xmlns:cc="http://creativecommons.org/ns#"
   xmlns:rdf="http://www.w3.org/1999/02/22-rdf-syntax-ns#"
   xmlns:svg="http://www.w3.org/2000/svg"
   xmlns="http://www.w3.org/2000/svg"
   xmlns:sodipodi="http://sodipodi.sourceforge.net/DTD/sodipodi-0.dtd"
   xmlns:inkscape="http://www.inkscape.org/namespaces/inkscape"
   width="1052.3622"
   height="744.09003"
   id="svg3012"
   version="1.1"
   inkscape:version="0.48.5 r10040"
   sodipodi:docname="carousel_polyglot.svg"
   inkscape:export-filename="C:\Users\Alex\scm\Tavendo\organize\marketing\azure\language_mix.png"
   inkscape:export-xdpi="90"
   inkscape:export-ydpi="90">
  <defs
     id="defs3014" />
  <sodipodi:namedview
     id="base"
     pagecolor="#ffffff"
     bordercolor="#666666"
     borderopacity="1.0"
     inkscape:pageopacity="1"
     inkscape:pageshadow="2"
     inkscape:zoom="0.24748737"
     inkscape:cx="524.84578"
     inkscape:cy="791.33258"
     inkscape:document-units="px"
     inkscape:current-layer="g4356"
     showgrid="false"
     inkscape:window-width="1050"
     inkscape:window-height="1658"
     inkscape:window-x="-8"
     inkscape:window-y="-8"
     inkscape:window-maximized="1"
     showguides="true"
     inkscape:guide-bbox="true">
    <sodipodi:guide
       orientation="1,0"
       position="332.14286,256.42857"
       id="guide3130" />
    <sodipodi:guide
       orientation="1,0"
       position="725,224.28571"
       id="guide3132" />
    <sodipodi:guide
       orientation="0,1"
       position="547.85714,349.28571"
       id="guide3134" />
    <sodipodi:guide
       orientation="0,1"
       position="533.57143,411.42857"
       id="guide3136" />
  </sodipodi:namedview>
  <metadata
     id="metadata3017">
    <rdf:RDF>
      <cc:Work
         rdf:about="">
        <dc:format>image/svg+xml</dc:format>
        <dc:type
           rdf:resource="http://purl.org/dc/dcmitype/StillImage" />
        <dc:title />
      </cc:Work>
    </rdf:RDF>
  </metadata>
  <g
     inkscape:label="Layer 1"
     inkscape:groupmode="layer"
     id="layer1"
     transform="translate(0,-308.27216)">
    <g
       id="g4356"
       transform="matrix(1.2403781,0,0,1.2403781,191.13571,270.42046)">
      <path
         id="path4358"
         d="M -131.29637,39.158567"
         style="fill:#ffffff;stroke:#000000;stroke-width:1px;stroke-linecap:butt;stroke-linejoin:miter;stroke-miterlimit:4;stroke-opacity:1;stroke-dasharray:none"
         inkscape:connector-curvature="0" />
      <path
         id="path4368"
         d="M -131.29637,39.158567"
         style="fill:#ffffff;stroke:#000000;stroke-width:1px;stroke-linecap:butt;stroke-linejoin:miter;stroke-miterlimit:4;stroke-opacity:1;stroke-dasharray:none"
         inkscape:connector-curvature="0" />
      <path
         id="path4370"
         d="m 7.5337093,171.01294 -68.4737813,0 0,-39.45053 68.4737813,0 0,39.45053 z m -73.5869963,-44.27848 0,49.10643 78.727266,0 0,-49.10643 -78.727266,0"
         style="fill:#ffffff;fill-opacity:1;fill-rule:nonzero;stroke:none"
         inkscape:connector-curvature="0" />
      <path
         id="path4374"
         d="m -19.872031,201.20765 -12.498972,0 c -2.516026,0 -3.841674,-1.92051 -2.975944,-4.32115 0.838675,-2.40064 2.94889,-4.34782 4.734456,-4.34782 l 8.84667,0 c 1.75852,0 3.89579,1.94718 4.78857,4.34782 0.86573,2.40064 -0.40581,4.32115 -2.89478,4.32115 z m 33.08709,-20.61883 -79.863534,0 -22.427802,24.96666 125.611926,0 -23.32059,-24.96666"
         style="fill:#ffffff;fill-opacity:1;fill-rule:nonzero;stroke:none"
         inkscape:connector-curvature="0" />
      <path
         id="path4376"
         d="M -131.29637,39.158567"
         style="fill:#ffffff;stroke:#000000;stroke-width:1px;stroke-linecap:butt;stroke-linejoin:miter;stroke-miterlimit:4;stroke-opacity:1;stroke-dasharray:none"
         inkscape:connector-curvature="0" />
      <path
         id="path4378"
         d="m 598.8017,117.07358 -56.96295,0 0,65.72226 56.96295,0 0,-65.72226 z m -28.48148,74.68682 c 1.66433,0 3.00653,-1.33799 3.00653,-2.97035 0,-1.65911 -1.3422,-2.9971 -3.00653,-2.9971 -1.66432,0 -3.00652,1.33799 -3.00652,2.9971 0,1.63236 1.3422,2.97035 3.00652,2.97035 m 32.96443,2.99711 -65.92885,0 c -2.49649,0 -4.50979,-2.007 -4.50979,-4.49566 l 0,-77.68393 c 0,-2.48867 2.0133,-4.49566 4.50979,-4.49566 l 65.92885,0 c 2.49649,0 4.50979,2.00699 4.50979,4.49566 l 0,77.68393 c 0,2.48866 -2.0133,4.49566 -4.50979,4.49566"
         style="fill:#ffffff;fill-opacity:1;fill-rule:evenodd;stroke:none"
         inkscape:connector-curvature="0" />
      <path
         id="path4380"
         d="M -131.29637,39.158567"
         style="fill:#ffffff;stroke:#000000;stroke-width:1px;stroke-linecap:butt;stroke-linejoin:miter;stroke-miterlimit:4;stroke-opacity:1;stroke-dasharray:none"
         inkscape:connector-curvature="0" />
      <path
         id="path4382"
         d="m -45.132046,450.13589 c 0.161295,0.34931 0.322589,0.5374 0.430119,0.56427 0.10753,-0.0269 0.268825,-0.21496 0.43012,-0.56427 0.08065,-0.16122 0.161295,-0.32244 0.241943,-0.5374 0.241943,-0.75236 0.483885,-1.88089 0.483885,-3.35874 0,-1.50472 -0.21506,-2.63326 -0.483885,-3.35874 -0.08065,-0.24183 -0.161295,-0.42992 -0.241943,-0.56427 -0.161295,-0.34931 -0.349472,-0.5374 -0.43012,-0.56427 -0.10753,0.0537 -0.241941,0.21496 -0.430119,0.56427 -0.08065,0.16122 -0.161295,0.32244 -0.241942,0.56427 -0.241944,0.72548 -0.483886,1.85402 -0.483886,3.35874 0,1.47785 0.241942,2.60638 0.510768,3.35874 0.05376,0.18809 0.134413,0.37618 0.21506,0.5374 m 4.274316,-3.89614 c 0,-1.23602 -0.725827,-2.28395 -1.801127,-2.90196 0.21506,0.88671 0.295707,1.90777 0.295707,2.90196 0,0.99419 -0.10753,1.98837 -0.295707,2.87508 1.0753,-0.59114 1.801127,-1.66593 1.801127,-2.87508 m -5.860383,2.87508 c -0.21506,-0.88671 -0.32259,-1.88089 -0.32259,-2.87508 0,-0.99419 0.10753,-2.01525 0.32259,-2.90196 -1.102183,0.61801 -1.82801,1.66594 -1.82801,2.90196 0,1.20915 0.725827,2.28394 1.82801,2.87508 m 32.554696,21.09291 c -0.349467,-0.21496 -0.752705,-0.34931 -1.209708,-0.34931 -0.376355,0 -0.725826,0.10748 -1.021534,0.24183 -0.134413,0.0537 -0.241943,0.13435 -0.349473,0.21496 -0.483885,0.32244 -0.752709,0.83297 -0.779591,1.42411 l 0,0.0269 c 0,0.24183 0.05376,0.48366 0.134411,0.67175 0.21506,0.48365 0.591415,0.85983 1.129066,1.07479 0.188177,0.0806 0.403237,0.10748 0.618296,0.13435 0.08065,0.0269 0.188178,0.0269 0.268825,0.0269 0.698946,0 1.317238,-0.29557 1.720478,-0.75236 0.0807,-0.13435 0.1613,-0.24183 0.24194,-0.37617 0.10753,-0.24183 0.188181,-0.48366 0.188181,-0.77923 0,-0.51053 -0.241941,-0.96732 -0.591411,-1.31663 -0.10753,-0.0806 -0.21506,-0.16122 -0.34948,-0.24183 m 2.177492,2.98256 c 0.21506,-0.42992 0.34947,-0.91357 0.34947,-1.4241 0,-0.96732 -0.457,-1.85403 -1.209709,-2.44517 -0.0807,-0.0537 -0.134422,-0.10748 -0.215062,-0.16122 -0.645181,-0.42992 -1.424776,-0.69862 -2.285016,-0.69862 -0.725827,0 -1.371008,0.18809 -1.93554,0.48366 -0.08065,0.0537 -0.161294,0.0806 -0.241941,0.13435 -0.967771,0.59114 -1.586068,1.58533 -1.586068,2.687 0,0.24183 0.02688,0.42992 0.08065,0.67175 0,0 0.02688,0.0269 0.02688,0.0537 0.32259,1.28975 1.478538,2.31081 2.930193,2.55264 l 0.05376,0 c 0.21506,0.0269 0.430119,0.0537 0.672062,0.0537 1.39789,0 2.634493,-0.69862 3.252792,-1.71968 0.0269,-0.0537 0.0538,-0.13435 0.10753,-0.18809 m 23.468435,-1.18227 c -0.188172,1.55845 -1.5054216,2.66012 -2.9839536,2.57951 -5.7259764,-0.16122 -11.3981907,-0.32244 -17.0166378,-0.96732 -0.1613,0.51053 -0.43012,0.96732 -0.72583,1.39724 4.8388551,2.57951 9.83899987,4.32606 15.6725146,5.48147 1.5323016,0.21496 2.2850132,1.37037 1.7473636,2.68699 -2.5269636,6.69062 -7.82281833,9.96875 -15.1617466,11.93026 -1.8548916,0.32244 -3.6291432,-0.56427 -4.0861422,-1.90777 -1.720482,-4.99781 -3.360314,-9.96875 -4.408738,-15.07404 -0.483884,0 -0.940886,-0.0537 -1.39789,-0.13435 -1.129064,5.02468 -1.317242,9.86127 -0.618297,15.23526 0.268825,1.31663 -0.806475,2.28395 -2.446307,2.17647 -6.639976,-0.5374 -13.656307,-3.00944 -17.634917,-7.95351 -0.994652,-1.23601 -0.698945,-3.09004 0.591415,-4.00362 4.785084,-3.43935 9.597051,-6.74435 14.86602,-9.51196 -0.161295,-0.40305 -0.268825,-0.8061 -0.349473,-1.23602 -5.941031,0.56427 -11.344412,2.04212 -17.016619,4.46042 -1.424772,0.75235 -2.849544,0.18809 -3.172134,-1.37037 -1.236595,-6.07261 0.349472,-12.73636 4.220551,-17.84165 0.914005,-1.18227 2.742015,-1.45097 4.08614,-0.64487 5.000144,2.98256 9.892758,6.04573 14.32837,9.61944 0.430119,-0.32244 0.887122,-0.61801 1.397889,-0.83297 -2.553837,-4.89033 -5.994796,-8.94769 -10.56482,-12.92445 -1.317243,-0.94044 -1.371008,-2.39142 0.10753,-3.22439 6.398034,-3.46622 14.758496,-3.51996 21.6404222,-1.23602 1.5323019,0.51053 2.3118919,1.90777 1.8011319,3.14379 -1.7742519,4.94407 -3.5753835,9.80753 -5.9141561,14.4829 0.510762,0.29557 0.967771,0.61801 1.397891,0.99419 4.3012051,-3.41249 7.6077483,-7.30863 10.56483147,-12.09148 0.67205993,-1.31663 2.15060153,-1.82716 3.44096313,-0.99419 6.2098564,4.05736 8.5217584,11.15103 7.6346284,17.76104 m 3.924844,-0.37618 c 0,-15.26213 -13.9251356,-27.64918 -31.103074,-27.64918 -17.204797,0 -31.129928,12.38705 -31.129928,27.64918 0,15.289 13.925131,27.67604 31.129928,27.67604 17.1779384,0 31.103074,-12.38704 31.103074,-27.67604 m -61.695348,-21.1735 c 0.403237,0.8061 0.914006,1.28976 1.586067,1.28976 0.672063,0 1.182831,-0.51053 1.559185,-1.28976 2.016187,-0.59114 3.467842,-2.25708 3.467842,-4.24545 0,-1.96151 -1.451655,-3.65431 -3.467842,-4.24545 -0.376354,-0.8061 -0.887122,-1.28976 -1.559185,-1.28976 -0.672061,0 -1.18283,0.51053 -1.586067,1.28976 -1.989304,0.59114 -3.467841,2.28394 -3.467841,4.27232 0,1.9615 1.478537,3.65431 3.467841,4.21858 m 68.093396,-10.3718 0,63.1175 c 0,0.99419 -0.887122,1.77342 -1.989302,1.77342 l -2.365664,0 -4.328084,0 -57.636101,0 -4.354965,0 -2.338777,0 c -1.102182,0 -1.989303,-0.77923 -1.989303,-1.77342 l 0,-63.1175 c 0,-0.99419 0.887121,-1.77342 1.989303,-1.77342 l 71.023591,0 c 1.0753,-0.0269 1.989302,0.77923 1.989302,1.77342 m -4.354966,65.93885 -4.328084,0 c -0.645182,4.54102 4.328084,4.54102 4.328084,0 z m -66.31915,0 4.328082,0 c 0.64518,4.54102 -4.328082,4.54102 -4.328082,0 z"
         style="fill:#ffffff;fill-opacity:1;fill-rule:nonzero;stroke:none"
         inkscape:connector-curvature="0" />
      <path
         id="path4384"
         d="M -131.29637,39.158567"
         style="fill:#ffffff;stroke:#000000;stroke-width:1px;stroke-linecap:butt;stroke-linejoin:miter;stroke-miterlimit:4;stroke-opacity:1;stroke-dasharray:none"
         inkscape:connector-curvature="0" />
      <path
         id="path4386"
         d="m 610.02318,484.87488 -12.81393,0 c -2.31027,0 -4.19072,-1.88146 -4.19072,-4.19296 0,-2.31151 1.88045,-4.19297 4.19072,-4.19297 l 12.81393,0 c 2.31027,0 4.19072,1.88146 4.19072,4.19297 0,2.3115 -1.88045,4.19296 -4.19072,4.19296 z m -26.89045,-0.86009 -29.81858,0 c -1.45064,0 -2.63263,-1.18263 -2.63263,-2.63405 0,-1.45141 1.18199,-2.63404 2.63263,-2.63404 l 29.81858,0 c 1.4775,0 2.6595,1.18263 2.6595,2.63404 0,1.45142 -1.182,2.63405 -2.6595,2.63405 z m -45.26514,0.86009 -12.81394,0 c -2.31026,0 -4.19072,-1.88146 -4.19072,-4.19296 0,-2.31151 1.88046,-4.19297 4.19072,-4.19297 l 12.81394,0 c 2.31026,0 4.19071,1.88146 4.19071,4.19297 0,2.3115 -1.88045,4.19296 -4.19071,4.19296 z m -6.01745,-39.56442 c 3.81463,-10.80495 6.90394,-14.11095 13.10943,-14.11095 l 46.39342,0 c 6.17862,0 9.61716,3.68229 13.10943,14.0572 l 7.0114,14.21846 c -2.28341,-0.83322 -4.80859,-1.31702 -7.46808,-1.31702 l -72.63914,0 c -2.39086,0 -4.6474,0.37629 -6.76963,1.07512 l 7.25317,-13.92281 z m 91.17502,29.3239 c 0,-2.17711 -0.51041,-4.24672 -1.39691,-6.15506 -0.0806,-0.4838 -0.18804,-0.96761 -0.32236,-1.45141 l -9.5903,-23.84079 -0.0806,-0.21502 c -3.35795,-10.0255 -8.13967,-19.29841 -20.28201,-19.29841 l -46.39342,0 c -12.41098,0 -16.8166,9.51481 -20.25514,19.24465 l -10.04698,23.89455 c -1.45064,2.33838 -2.28341,4.9993 -2.28341,7.82149 l 0,7.41833 c 0,1.15576 0.13432,2.25776 0.40295,3.35975 -0.26863,0.64508 -0.40295,1.3439 -0.40295,2.09649 l 0,22.03996 c 0,3.22536 2.63263,5.85941 5.85626,5.85941 l 12.14234,0 c 3.22363,0 5.85627,-2.63405 5.85627,-5.85941 l 0,-11.01998 63.63984,0 0,11.01998 c 0,3.22536 2.60576,5.85941 5.85626,5.85941 l 11.44389,0 c 3.22363,0 5.85626,-2.63405 5.85626,-5.85941 l 0,-22.06684 c 0,-0.72571 -0.16118,-1.42453 -0.40296,-2.06961 0.26864,-1.10199 0.40296,-2.20399 0.40296,-3.35975 l 0,-7.41833"
         style="fill:#ffffff;fill-opacity:1;fill-rule:nonzero;stroke:none"
         inkscape:connector-curvature="0" />
      <path
         id="path4388"
         d="M -131.29637,39.158567"
         style="fill:#ffffff;stroke:#000000;stroke-width:1px;stroke-linecap:butt;stroke-linejoin:miter;stroke-miterlimit:4;stroke-opacity:1;stroke-dasharray:none"
         inkscape:connector-curvature="0" />
      <path
         id="path4390"
         d="m 404.19942,70.323586 5.18286,-0.690384 c 0.13388,3.246674 0.765,5.448441 1.85512,6.64262 1.10925,1.194179 2.63924,1.791269 4.58998,1.791269 1.4535,0 2.69662,-0.317204 3.72936,-0.970271 1.05188,-0.634407 1.77862,-1.511382 2.16112,-2.612266 0.40162,-1.119543 0.59287,-2.873493 0.59287,-5.299169 l 0,-29.164091 5.73748,0 0,28.846887 c 0,3.52656 -0.43987,6.26944 -1.30049,8.228639 -0.87975,1.940541 -2.27587,3.414606 -4.18836,4.440854 -1.89337,1.026247 -4.13099,1.530041 -6.69373,1.530041 -3.80586,0 -6.73197,-1.063565 -8.74009,-3.209356 -2.02724,-2.127131 -3.00261,-5.317828 -2.92612,-9.534773 z"
         style="fill:#ffffff;fill-opacity:1;fill-rule:nonzero;stroke:none"
         inkscape:connector-curvature="0" />
      <path
         id="path4392"
         d="m 457.27111,78.552226 c -1.96987,1.641996 -3.88236,2.798857 -5.69923,3.470583 -1.836,0.671726 -3.78674,1.007588 -5.87136,1.007588 -3.46161,0 -6.11997,-0.820998 -7.97509,-2.462994 -1.85512,-1.641996 -2.77312,-3.750468 -2.77312,-6.306758 0,-1.511383 0.34425,-2.873493 1.05187,-4.123649 0.6885,-1.231497 1.6065,-2.220427 2.75399,-2.985448 1.12838,-0.746361 2.40975,-1.306133 3.82499,-1.697973 1.05187,-0.261227 2.62012,-0.522453 4.74298,-0.78368 4.30311,-0.503794 7.45873,-1.100884 9.48597,-1.791268 0.0382,-0.709044 0.0382,-1.156861 0.0382,-1.343452 0,-2.127131 -0.49725,-3.619855 -1.51087,-4.478171 -1.35787,-1.17552 -3.38511,-1.772609 -6.0626,-1.772609 -2.50537,0 -4.36049,0.429158 -5.54623,1.287474 -1.20487,0.858316 -2.08462,2.369699 -2.65837,4.552807 l -5.20198,-0.690385 c 0.47812,-2.183108 1.24312,-3.937058 2.33324,-5.28051 1.09012,-1.324792 2.65837,-2.369699 4.70473,-3.078743 2.04637,-0.727702 4.43699,-1.082224 7.1336,-1.082224 2.67749,0 4.85774,0.298544 6.54073,0.914293 1.68299,0.615749 2.90699,1.399429 3.71024,2.332381 0.78412,0.932952 1.33874,2.108472 1.64474,3.52656 0.17212,0.895634 0.26775,2.481653 0.26775,4.795375 l 0,6.941165 c 0,4.832693 0.11475,7.874118 0.34425,9.161592 0.2295,1.287475 0.66937,2.500313 1.33874,3.675833 l -5.56535,0 c -0.5355,-1.082225 -0.89887,-2.332381 -1.05187,-3.787787 z m -0.459,-11.605927 c -1.93162,0.78368 -4.81948,1.436747 -8.68272,1.977859 -2.19937,0.298545 -3.74849,0.653067 -4.64736,1.026247 -0.91799,0.39184 -1.60649,0.951612 -2.10374,1.697974 -0.49725,0.746362 -0.74587,1.56736 -0.74587,2.462994 0,1.380769 0.5355,2.53763 1.60649,3.470583 1.09012,0.914293 2.65837,1.380769 4.72386,1.380769 2.04637,0 3.88236,-0.429158 5.46973,-1.306133 1.60649,-0.876975 2.77311,-2.071154 3.53811,-3.601196 0.57375,-1.17552 0.8415,-2.910812 0.8415,-5.187215 z"
         style="fill:#ffffff;fill-opacity:1;fill-rule:nonzero;stroke:none"
         inkscape:connector-curvature="0" />
      <path
         id="path4394"
         d="m 479.22653,82.340013 -11.95308,-30.656815 5.62273,0 6.7511,18.360503 c 0.72674,1.977859 1.39612,4.049013 2.00811,6.176144 0.47813,-1.604678 1.12837,-3.563878 1.96987,-5.821622 l 6.99973,-18.715025 5.46973,0 -11.89571,30.656815 z"
         style="fill:#ffffff;fill-opacity:1;fill-rule:nonzero;stroke:none"
         inkscape:connector-curvature="0" />
      <path
         id="path4396"
         d="m 521.30137,78.552226 c -1.96986,1.641996 -3.86323,2.798857 -5.69922,3.470583 -1.81687,0.671726 -3.76762,1.007588 -5.87136,1.007588 -3.44249,0 -6.10085,-0.820998 -7.95597,-2.462994 -1.85512,-1.641996 -2.77311,-3.750468 -2.77311,-6.306758 0,-1.511383 0.34424,-2.873493 1.03274,-4.123649 0.70762,-1.231497 1.62562,-2.220427 2.75399,-2.985448 1.1475,-0.746361 2.40974,-1.306133 3.84411,-1.697973 1.03275,-0.261227 2.62012,-0.522453 4.72386,-0.78368 4.30311,-0.503794 7.47785,-1.100884 9.50509,-1.791268 0.0191,-0.709044 0.0383,-1.156861 0.0383,-1.343452 0,-2.127131 -0.51637,-3.619855 -1.51087,-4.478171 -1.35787,-1.17552 -3.38511,-1.772609 -6.08173,-1.772609 -2.50536,0 -4.34136,0.429158 -5.54623,1.287474 -1.18574,0.858316 -2.06549,2.369699 -2.63924,4.552807 l -5.20198,-0.690385 c 0.459,-2.183108 1.24312,-3.937058 2.33324,-5.28051 1.071,-1.324792 2.63924,-2.369699 4.70474,-3.078743 2.04636,-0.727702 4.41786,-1.082224 7.1336,-1.082224 2.67749,0 4.85773,0.298544 6.54072,0.914293 1.66387,0.615749 2.90699,1.399429 3.69111,2.332381 0.78413,0.932952 1.33875,2.108472 1.66387,3.52656 0.17213,0.895634 0.26775,2.481653 0.26775,4.795375 l 0,6.941165 c 0,4.832693 0.11475,7.874118 0.32513,9.161592 0.22949,1.287475 0.68849,2.500313 1.35787,3.675833 l -5.56536,0 c -0.55462,-1.082225 -0.89887,-2.332381 -1.071,-3.787787 z M 520.8615,66.946299 c -1.93162,0.78368 -4.83861,1.436747 -8.70184,1.977859 -2.18024,0.298545 -3.72936,0.653067 -4.64736,1.026247 -0.89887,0.39184 -1.60649,0.951612 -2.10374,1.697974 -0.47813,0.746362 -0.72675,1.56736 -0.72675,2.462994 0,1.380769 0.5355,2.53763 1.60649,3.470583 1.071,0.914293 2.63924,1.380769 4.72386,1.380769 2.04637,0 3.86324,-0.429158 5.46973,-1.306133 1.6065,-0.876975 2.77312,-2.071154 3.51899,-3.601196 0.57375,-1.17552 0.86062,-2.910812 0.86062,-5.187215 z"
         style="fill:#ffffff;fill-opacity:1;fill-rule:nonzero;stroke:none"
         inkscape:connector-curvature="0" />
      <path
         id="path4398"
         d="m 533.25446,68.737567 5.43148,-0.447817 c 0.24862,2.108473 0.84149,3.843764 1.77862,5.205874 0.93712,1.362111 2.39061,2.444336 4.36048,3.283993 1.98899,0.839657 4.20748,1.268815 6.6746,1.268815 2.18024,0 4.11186,-0.317204 5.79485,-0.951612 1.683,-0.634407 2.92612,-1.511382 3.74849,-2.612266 0.80325,-1.119543 1.224,-2.332381 1.224,-3.638514 0,-1.324793 -0.40163,-2.481654 -1.18575,-3.470583 -0.78412,-0.98893 -2.08462,-1.828587 -3.90149,-2.500312 -1.16662,-0.447817 -3.74848,-1.138202 -7.72647,-2.071155 -3.99711,-0.932952 -6.77022,-1.809927 -8.37672,-2.630925 -2.06549,-1.063566 -3.61461,-2.369699 -4.62823,-3.937059 -1.01362,-1.56736 -1.52999,-3.339969 -1.52999,-5.28051 0,-2.127132 0.63112,-4.12365 1.87424,-5.989554 1.24312,-1.847246 3.04086,-3.265334 5.43148,-4.235604 2.39062,-0.951612 5.04898,-1.436747 7.97509,-1.436747 3.21299,0 6.04348,0.503795 8.49147,1.511383 2.46712,1.007589 4.36049,2.500312 5.68011,4.459512 1.31962,1.977859 2.02724,4.198286 2.12287,6.679939 l -5.50798,0.39184 c -0.28688,-2.668244 -1.28137,-4.683421 -3.00262,-6.06419 -1.70212,-1.362111 -4.22661,-2.033836 -7.55435,-2.033836 -3.48073,0 -6.00522,0.615748 -7.59259,1.847245 -1.58737,1.250157 -2.39062,2.74288 -2.39062,4.496831 0,1.530042 0.57375,2.780198 1.70212,3.750468 1.09012,0.98893 3.97798,1.996518 8.64447,3.022766 4.66648,1.026247 7.87947,1.921882 9.60071,2.705562 2.52449,1.119542 4.39874,2.574948 5.60361,4.310239 1.20487,1.735292 1.79774,3.750469 1.79774,6.026873 0,2.239085 -0.65025,4.366217 -1.96987,6.362735 -1.33874,1.996518 -3.23211,3.545219 -5.69923,4.646102 -2.48624,1.100884 -5.25935,1.660655 -8.35759,1.660655 -3.93974,0 -7.22922,-0.559771 -9.88759,-1.679314 -2.63924,-1.119543 -4.72386,-2.798857 -6.23473,-5.037942 -1.51087,-2.239086 -2.29499,-4.776716 -2.39061,-7.612892 z"
         style="fill:#ffffff;fill-opacity:1;fill-rule:nonzero;stroke:none"
         inkscape:connector-curvature="0" />
      <path
         id="path4400"
         d="m 595.52523,71.107266 5.24023,0.671726 c -0.57375,3.52656 -2.02724,6.26944 -4.39873,8.265958 -2.35237,1.996518 -5.24023,2.985447 -8.68272,2.985447 -4.30311,0 -7.76472,-1.36211 -10.36571,-4.10499 -2.62012,-2.74288 -3.92061,-6.679939 -3.92061,-11.792518 0,-3.32131 0.55462,-6.213462 1.68299,-8.695116 1.12837,-2.481653 2.83049,-4.347557 5.12548,-5.579055 2.31412,-1.250156 4.80036,-1.865904 7.5161,-1.865904 3.40424,0 6.19648,0.839657 8.37672,2.518971 2.16112,1.679314 3.55724,4.086331 4.16923,7.183733 l -5.18285,0.765021 c -0.49725,-2.052495 -1.35787,-3.601196 -2.62012,-4.646103 -1.24312,-1.026247 -2.77311,-1.548701 -4.55173,-1.548701 -2.67749,0 -4.85773,0.932953 -6.5216,2.817517 -1.683,1.865904 -2.52449,4.832693 -2.52449,8.900365 0,4.123649 0.80324,7.109097 2.42886,8.975002 1.6065,1.865904 3.72936,2.798857 6.33035,2.798857 2.08462,0 3.84412,-0.615749 5.24024,-1.865905 1.39612,-1.250156 2.29499,-3.172038 2.65836,-5.784305 z"
         style="fill:#ffffff;fill-opacity:1;fill-rule:nonzero;stroke:none"
         inkscape:connector-curvature="0" />
      <path
         id="path4402"
         d="m 605.25982,82.340013 0,-30.656815 4.80036,0 0,4.646103 c 1.22399,-2.183108 2.35236,-3.601196 3.38511,-4.31024 1.03275,-0.690384 2.18024,-1.026247 3.42336,-1.026247 1.79775,0 3.61461,0.559771 5.46973,1.660655 l -1.83599,4.832693 c -1.3005,-0.746362 -2.60099,-1.119543 -3.90149,-1.119543 -1.16662,0 -2.21849,0.335863 -3.13648,1.007589 -0.93713,0.690385 -1.58737,1.641996 -1.989,2.854834 -0.59287,1.847246 -0.87974,3.862423 -0.87974,6.06419 l 0,16.046781 z"
         style="fill:#ffffff;fill-opacity:1;fill-rule:nonzero;stroke:none"
         inkscape:connector-curvature="0" />
      <path
         id="path4404"
         d="m 625.58962,45.992189 0,-5.970895 5.33586,0 0,5.970895 z m 0,36.347824 0,-30.656815 5.33586,0 0,30.656815 z"
         style="fill:#ffffff;fill-opacity:1;fill-rule:nonzero;stroke:none"
         inkscape:connector-curvature="0" />
      <path
         id="path4406"
         d="m 639.05357,94.095212 0,-42.412014 4.85773,0 0,3.974377 c 1.1475,-1.5487 2.448,-2.72422 3.88237,-3.5079 1.43437,-0.765021 3.17473,-1.156861 5.24023,-1.156861 2.67749,0 5.04898,0.671725 7.09535,2.015177 2.04636,1.343451 3.59548,3.246674 4.64735,5.709668 1.05188,2.444335 1.56825,5.131238 1.56825,8.060708 0,3.13472 -0.57375,5.970895 -1.72125,8.471208 -1.16662,2.518971 -2.83049,4.440853 -5.02985,5.784304 -2.19937,1.324793 -4.51349,1.996518 -6.94235,1.996518 -1.77862,0 -3.36599,-0.354522 -4.78123,-1.082224 -1.41525,-0.746362 -2.58187,-1.660656 -3.48074,-2.780198 l 0,14.927237 z m 4.83861,-26.906346 c 0,3.937059 0.80325,6.86653 2.44799,8.751094 1.64475,1.884563 3.61461,2.817516 5.94785,2.817516 2.3715,0 4.39874,-0.970271 6.08173,-2.929471 1.683,-1.940541 2.52449,-4.981965 2.52449,-9.068297 0,-3.918399 -0.82237,-6.84787 -2.46711,-8.788411 -1.64475,-1.940541 -3.61461,-2.910811 -5.90961,-2.910811 -2.25674,0 -4.26486,1.026248 -6.00522,3.097402 -1.7595,2.071154 -2.62012,5.075261 -2.62012,9.030978 z"
         style="fill:#ffffff;fill-opacity:1;fill-rule:nonzero;stroke:none"
         inkscape:connector-curvature="0" />
      <path
         id="path4408"
         d="m 684.43703,77.69391 0.765,4.590126 c -1.51087,0.317203 -2.84961,0.466476 -4.03536,0.466476 -1.93162,0 -3.42336,-0.298545 -4.49436,-0.895635 -1.071,-0.597089 -1.81687,-1.380769 -2.23762,-2.351039 -0.43987,-0.970271 -0.65024,-3.022766 -0.65024,-6.138827 l 0,-17.651458 -3.92061,0 0,-4.030355 3.92061,0 0,-7.594232 5.27848,-3.116061 0,10.710293 5.3741,0 0,4.030355 -5.3741,0 0,17.931344 c 0,1.492724 0.0956,2.444335 0.28687,2.873493 0.19125,0.410499 0.49725,0.746362 0.918,1.007589 0.42075,0.242567 1.03274,0.37318 1.81687,0.37318 0.59287,0 1.37699,-0.07464 2.35236,-0.205249 z"
         style="fill:#ffffff;fill-opacity:1;fill-rule:nonzero;stroke:none"
         inkscape:connector-curvature="0" />
      <path
         id="path4410"
         d="M -131.29637,39.158567"
         style="fill:#ffffff;stroke:#000000;stroke-width:1px;stroke-linecap:butt;stroke-linejoin:miter;stroke-miterlimit:4;stroke-opacity:1;stroke-dasharray:none"
         inkscape:connector-curvature="0" />
      <path
         id="path4412"
         d="m -35.346659,88.65228 9.412268,2.371851 c -1.9721,7.649221 -5.527841,13.519549 -10.637356,17.522049 -5.139395,4.03215 -11.384358,6.04822 -18.794649,6.04822 -7.649333,0 -13.894296,-1.5417 -18.705009,-4.65475 -4.780833,-3.08341 -8.426218,-7.56028 -10.936155,-13.430612 -2.509937,-5.870333 -3.764906,-12.185387 -3.764906,-18.915516 0,-7.323091 1.40437,-13.756738 4.242989,-19.211996 2.83862,-5.455258 6.842567,-9.605999 12.071603,-12.45222 5.229036,-2.846222 10.966036,-4.269333 17.240879,-4.269333 7.111489,0 13.08753,1.808537 17.928123,5.395962 4.840593,3.587426 8.217061,8.62761 10.129391,15.150201 l -9.262865,2.164315 c -1.643411,-5.129129 -4.033828,-8.864795 -7.171249,-11.206998 -3.137422,-2.342204 -7.081609,-3.498481 -11.832562,-3.498481 -5.438197,0 -10.009868,1.27487 -13.685134,3.883907 -3.675265,2.609036 -6.244963,6.077869 -7.738973,10.465794 -1.49401,4.387925 -2.211135,8.894443 -2.211135,13.549201 0,5.988925 0.866526,11.206998 2.629458,15.683868 1.762932,4.47687 4.511911,7.827108 8.217057,10.050718 3.705145,2.19396 7.738973,3.32059 12.071602,3.32059 5.258917,0 9.740947,-1.51205 13.386332,-4.53616 3.645386,-3.024112 6.125443,-7.471334 7.410291,-13.43061 z"
         style="fill:#ffffff;fill-opacity:1;fill-rule:nonzero;stroke:none"
         inkscape:connector-curvature="0" />
      <path
         id="path4414"
         d="m -16.970331,114.5944 4.21311,-20.486862 -8.18718,0 0,-7.174851 9.65131,0 3.5856203,-17.462756 -13.2369303,0 0,-7.17485 14.7010603,0 4.21311,-20.635108 7.26089,0 -4.21311,20.635108 15.2687897,0 4.21311,-20.635108 7.32065,0 -4.21311,20.635108 8.39634,0 0,7.17485 -9.86047,0 -3.61551,17.462756 13.47598,0 0,7.174851 -14.94011,0 -4.21311,20.486862 -7.2608897,0 4.15335,-20.486862 -15.20902,0 -4.24299,20.486862 z m 12.9381303,-27.661713 15.2388997,0 3.61551,-17.462756 -15.26878973,0 z"
         style="fill:#ffffff;fill-opacity:1;fill-rule:nonzero;stroke:none"
         inkscape:connector-curvature="0" />
      <path
         id="path4416"
         d="M -131.29637,39.158567"
         style="fill:#ffffff;stroke:#000000;stroke-width:1px;stroke-linecap:butt;stroke-linejoin:miter;stroke-miterlimit:4;stroke-opacity:1;stroke-dasharray:none"
         inkscape:connector-curvature="0" />
      <path
         id="path4418"
         d="m 534.18903,585.40802 8.68415,2.16655 c -1.80342,7.04814 -5.07732,12.42338 -9.8217,16.12571 -4.71663,3.70233 -10.51532,5.56721 -17.34057,5.56721 -7.07495,0 -12.84589,-1.42609 -17.25733,-4.27825 -4.43919,-2.85217 -7.82407,-6.96587 -10.12689,-12.36853 -2.30283,-5.40266 -3.46812,-11.18927 -3.46812,-17.38725 0,-6.74647 1.30401,-12.64278 3.91203,-17.66149 2.60803,-5.04614 6.32584,-8.85817 11.15346,-11.46352 4.82761,-2.63277 10.12689,-3.92173 15.92558,-3.92173 6.5478,0 12.06904,1.64548 16.56371,4.93645 4.46693,3.31838 7.57436,7.95315 9.35004,13.95916 l -8.54544,1.97457 c -1.52597,-4.71704 -3.74556,-8.14513 -6.63103,-10.31167 -2.88547,-2.13913 -6.5478,-3.20869 -10.9315,-3.20869 -5.04957,0 -9.2668,1.17926 -12.65168,3.56521 -3.38487,2.38594 -5.77094,5.59463 -7.13044,9.62606 -1.38724,4.03143 -2.05312,8.19998 -2.05312,12.47823 0,5.51236 0.8046,10.31168 2.44155,14.42538 1.60921,4.1137 4.13399,7.21269 7.57436,9.24211 3.44037,2.02943 7.15819,3.04414 11.15346,3.04414 4.85536,0 8.98935,-1.37123 12.34648,-4.16855 3.38488,-2.76989 5.65996,-6.88359 6.853,-12.3411 z"
         style="fill:#ffffff;fill-opacity:1;fill-rule:nonzero;stroke:none"
         inkscape:connector-curvature="0" />
      <path
         id="path4420"
         d="m 569.5083,597.66685 0,-17.77119 -17.83998,0 0,-7.45952 17.83998,0 0,-17.63406 7.62985,0 0,17.63406 17.83998,0 0,7.45952 -17.83998,0 0,17.77119 z"
         style="fill:#ffffff;fill-opacity:1;fill-rule:nonzero;stroke:none"
         inkscape:connector-curvature="0" />
      <path
         id="path4422"
         d="m 623.05598,597.66685 0,-17.77119 -17.86773,0 0,-7.45952 17.86773,0 0,-17.63406 7.62985,0 0,17.63406 17.83998,0 0,7.45952 -17.83998,0 0,17.77119 z"
         style="fill:#ffffff;fill-opacity:1;fill-rule:nonzero;stroke:none"
         inkscape:connector-curvature="0" />
      <path
         id="path4424"
         d="M -131.29637,39.158567"
         style="fill:#ffffff;stroke:#000000;stroke-width:1px;stroke-linecap:butt;stroke-linejoin:miter;stroke-miterlimit:4;stroke-opacity:1;stroke-dasharray:none"
         inkscape:connector-curvature="0" />
      <path
         id="path4426"
         d="m -111.80561,586.27766 7.83995,-1.06292 c 0.20907,4.93743 1.16729,8.31478 2.83981,10.13203 1.672522,1.83439 3.989665,2.74302 6.934005,2.74302 2.177768,0 4.07678,-0.49718 5.644772,-1.47438 1.585414,-0.99434 2.683007,-2.33156 3.275361,-4.01166 0.609773,-1.69725 0.90595,-4.38884 0.90595,-8.09191 l 0,-44.55694 8.693644,0 0,44.05976 c 0,5.41747 -0.662042,9.60058 -2.003545,12.56647 -1.324082,2.98303 -3.432161,5.24602 -6.306811,6.80611 -2.892074,1.5601 -6.271968,2.33157 -10.157104,2.33157 -5.766725,0 -10.191942,-1.62867 -13.240812,-4.90315 -3.06629,-3.25733 -4.54717,-8.10905 -4.42522,-14.538 z"
         style="fill:#ffffff;fill-opacity:1;fill-rule:nonzero;stroke:none"
         inkscape:connector-curvature="0" />
      <path
         id="path4428"
         d="m -31.437327,598.84412 c -2.996606,2.48586 -5.871257,4.25168 -8.623954,5.28031 -2.77012,1.02863 -5.731882,1.54295 -8.90271,1.54295 -5.22664,0 -9.251151,-1.2515 -12.056114,-3.77165 -2.804964,-2.50301 -4.216157,-5.72606 -4.216157,-9.63486 0,-2.28014 0.540087,-4.38883 1.585414,-6.27466 1.062751,-1.90297 2.456522,-3.42877 4.181313,-4.56027 1.707368,-1.14864 3.641224,-2.02298 5.801568,-2.60587 1.585414,-0.41145 3.972247,-0.80576 7.160497,-1.20007 6.515878,-0.75433 11.324386,-1.66296 14.390681,-2.72588 0.03484,-1.09721 0.05227,-1.78296 0.05227,-2.07441 0,-3.24019 -0.766574,-5.52032 -2.2823,-6.8404 -2.073233,-1.78297 -5.122106,-2.69159 -9.198884,-2.69159 -3.798026,0 -6.585566,0.65147 -8.397469,1.97154 -1.811901,1.30294 -3.153404,3.61736 -4.00709,6.94327 l -7.892225,-1.06292 c 0.714308,-3.32591 1.899012,-6.00035 3.536692,-8.04047 1.637681,-2.05727 4.024514,-3.61736 7.125653,-4.73171 3.118562,-1.09721 6.707521,-1.64582 10.801721,-1.64582 4.059356,0 7.369561,0.46289 9.913193,1.4058 2.526209,0.94291 4.407799,2.12584 5.592504,3.54878 1.202128,1.42295 2.038389,3.2402 2.508788,5.40032 0.278754,1.35437 0.400709,3.80595 0.400709,7.32044 l 0,10.59492 c 0,7.37186 0.17422,12.05214 0.522663,14.00654 0.348442,1.9544 1.027906,3.82309 2.038389,5.62319 l -8.432312,0 c -0.836261,-1.64581 -1.358926,-3.58307 -1.602836,-5.77748 z m -0.679462,-17.72677 c -2.926919,1.16578 -7.317296,2.16013 -13.171131,2.98303 -3.310205,0.48003 -5.662194,1.01149 -7.038542,1.59438 -1.376349,0.5829 -2.439098,1.45723 -3.188251,2.58873 -0.731728,1.1315 -1.115015,2.383 -1.115015,3.77165 0,2.1087 0.818839,3.87452 2.439097,5.28032 1.637681,1.42294 4.024514,2.12584 7.160497,2.12584 3.101139,0 5.871258,-0.66861 8.292935,-2.00584 2.404253,-1.33722 4.181311,-3.17161 5.331171,-5.50318 0.853686,-1.78296 1.289239,-4.44026 1.289239,-7.93762 z"
         style="fill:#ffffff;fill-opacity:1;fill-rule:nonzero;stroke:none"
         inkscape:connector-curvature="0" />
      <path
         id="path4430"
         d="m 1.8215404,604.6216 -18.1190344,-46.83707 8.5194249,0 10.2268091,28.04739 c 1.097592,3.01732 2.1080716,6.17179 3.0488732,9.42913 0.71431,-2.46872 1.7073716,-5.43461 2.9966132,-8.89767 l 10.5752416,-28.57885 8.29294,0 -18.0145016,46.83707 z"
         style="fill:#ffffff;fill-opacity:1;fill-rule:nonzero;stroke:none"
         inkscape:connector-curvature="0" />
      <path
         id="path4432"
         d="m 65.551776,598.84412 c -2.996614,2.48586 -5.871268,4.25168 -8.62397,5.28031 -2.770124,1.02863 -5.731888,1.54295 -8.902722,1.54295 -5.226646,0 -9.25116,-1.2515 -12.056124,-3.77165 -2.804974,-2.50301 -4.216166,-5.72606 -4.216166,-9.63486 0,-2.28014 0.540092,-4.38883 1.585422,-6.27466 1.062752,-1.90297 2.456524,-3.42877 4.181316,-4.56027 1.707372,-1.14864 3.641224,-2.02298 5.801576,-2.60587 1.585412,-0.41145 3.972246,-0.80576 7.1605,-1.20007 6.515888,-0.75433 11.324404,-1.66296 14.390698,-2.72588 0.0348,-1.09721 0.0523,-1.78296 0.0523,-2.07441 0,-3.24019 -0.766572,-5.52032 -2.282304,-6.8404 -2.073232,-1.78297 -5.139536,-2.69159 -9.1989,-2.69159 -3.798026,0 -6.585568,0.65147 -8.397472,1.97154 -1.811902,1.30294 -3.153414,3.61736 -4.007094,6.94327 l -7.89224,-1.06292 c 0.71431,-3.32591 1.899012,-6.00035 3.536694,-8.04047 1.637682,-2.05727 4.024526,-3.61736 7.12567,-4.73171 3.118564,-1.09721 6.707528,-1.64582 10.801732,-1.64582 4.059356,0 7.36957,0.46289 9.913202,1.4058 2.526214,0.94291 4.407806,2.12584 5.592508,3.54878 1.202132,1.42295 2.038392,3.2402 2.508794,5.40032 0.27876,1.35437 0.40071,3.80595 0.40071,7.32044 l 0,10.59492 c 0,7.37186 0.17422,12.05214 0.52266,14.00654 0.34845,1.9544 1.027912,3.82309 2.038392,5.62319 l -8.43232,0 c -0.83626,-1.64581 -1.358922,-3.58307 -1.602832,-5.77748 z m -0.67947,-17.72677 c -2.926914,1.16578 -7.3173,2.16013 -13.171146,2.98303 -3.310206,0.48003 -5.662198,1.01149 -7.03855,1.59438 -1.376352,0.5829 -2.439102,1.45723 -3.188254,2.58873 -0.73173,1.1315 -1.11502,2.383 -1.11502,3.77165 0,2.1087 0.81884,3.87452 2.439102,5.28032 1.637682,1.42294 4.024516,2.12584 7.160508,2.12584 3.101144,0 5.871268,-0.66861 8.292942,-2.00584 2.404262,-1.33722 4.181314,-3.17161 5.331186,-5.50318 0.85368,-1.78296 1.289232,-4.44026 1.289232,-7.93762 z"
         style="fill:#ffffff;fill-opacity:1;fill-rule:nonzero;stroke:none"
         inkscape:connector-curvature="0" />
      <path
         id="path4372"
         d="m 37.239046,204.92071 c 0,-1.33368 -1.10921,-2.40064 -2.46192,-2.40064 l -122.33838,0 c -1.352702,0 -2.461918,1.06696 -2.461918,2.40064 0,1.28035 1.109216,2.3473 2.461918,2.3473 l 122.33838,0 c 1.35271,0 2.46192,-1.06695 2.46192,-2.3473"
         style="fill:#ffffff;fill-opacity:1;fill-rule:nonzero;stroke:none"
         inkscape:connector-curvature="0" />
      <path
         id="path4434"
         d="m 32.588366,237.12071 61.98797,47.13587"
         style="fill:#ffffff;stroke:#ffffff;stroke-width:6.80069827999999980px;stroke-linecap:round;stroke-linejoin:round;stroke-opacity:1;stroke-dasharray:none"
         inkscape:connector-curvature="0" />
      <path
         id="path4436"
         d="m 27.116536,249.78408 -13.13238,-26.89012 29.39153,5.54999 -16.25915,21.34013 z"
         style="fill:#ffffff;fill-opacity:1;fill-rule:evenodd;stroke:none"
         inkscape:connector-curvature="0" />
      <path
         id="path4438"
         d="m 100.04817,271.59321 13.13238,26.89012 -29.391524,-5.55 16.259144,-21.34012 z"
         style="fill:#ffffff;fill-opacity:1;fill-rule:evenodd;stroke:none"
         inkscape:connector-curvature="0" />
      <path
         id="path4440"
         d="M 510.99666,237.34723 449.08685,284.4831"
         style="fill:#ffffff;stroke:#ffffff;stroke-width:6.80069827999999980px;stroke-linecap:round;stroke-linejoin:round;stroke-opacity:1;stroke-dasharray:none"
         inkscape:connector-curvature="0" />
      <path
         id="path4442"
         d="m 516.46848,250.0106 13.21055,-26.89012 -29.46969,5.54999 16.25914,21.34013 z"
         style="fill:#ffffff;fill-opacity:1;fill-rule:evenodd;stroke:none"
         inkscape:connector-curvature="0" />
      <path
         id="path4444"
         d="m 443.61503,271.81973 -13.21055,26.89012 29.46969,-5.55 -16.25914,-21.34012 z"
         style="fill:#ffffff;fill-opacity:1;fill-rule:evenodd;stroke:none"
         inkscape:connector-curvature="0" />
      <path
         id="path4446"
         d="M 510.99666,410.25057 449.08685,363.03653"
         style="fill:#ffffff;stroke:#ffffff;stroke-width:6.80069827999999980px;stroke-linecap:round;stroke-linejoin:round;stroke-opacity:1;stroke-dasharray:none"
         inkscape:connector-curvature="0" />
      <path
         id="path4448"
         d="m 516.46848,397.50903 13.21055,26.96829 -29.46969,-5.62817 16.25914,-21.34012 z"
         style="fill:#ffffff;fill-opacity:1;fill-rule:evenodd;stroke:none"
         inkscape:connector-curvature="0" />
      <path
         id="path4450"
         d="m 443.61503,375.6999 -13.21055,-26.89012 29.46969,5.55 -16.25914,21.34012 z"
         style="fill:#ffffff;fill-opacity:1;fill-rule:evenodd;stroke:none"
         inkscape:connector-curvature="0" />
      <path
         id="path4452"
         d="M 33.279403,410.72315 95.267451,363.50911"
         style="fill:#ffffff;stroke:#ffffff;stroke-width:6.80069827999999980px;stroke-linecap:round;stroke-linejoin:round;stroke-opacity:1;stroke-dasharray:none"
         inkscape:connector-curvature="0" />
      <path
         id="path4454"
         d="M 27.807567,397.98161 14.675174,424.9499 44.066737,419.32173 27.807567,397.98161 z"
         style="fill:#ffffff;fill-opacity:1;fill-rule:evenodd;stroke:none"
         inkscape:connector-curvature="0" />
      <path
         id="path4456"
         d="m 100.73929,376.17248 13.13239,-26.89012 -29.391553,5.55 16.259163,21.34012 z"
         style="fill:#ffffff;fill-opacity:1;fill-rule:evenodd;stroke:none"
         inkscape:connector-curvature="0" />
      <g
         transform="matrix(1.847522,0,0,1.847522,-204.93666,223.40382)"
         id="g3077">
        <g
           transform="translate(-11.222756,-5.230502)"
           id="g4058">
          <path
             style="fill:#333333;fill-opacity:1;fill-rule:evenodd"
             inkscape:connector-curvature="0"
             id="path96"
             d="m 236.566,26.372 v 64.89 h 64.812 v -64.89 h -64.812 z" />
          <path
             style="fill:#ffe100;fill-rule:evenodd"
             inkscape:connector-curvature="0"
             id="path98"
             d="m 236.566,40.192 v 6.4031 h 15.305 l 10.151,10.151 4.6852,-4.6852 -12.025,-12.025 -18.116,0.15617 z" />
          <path
             style="fill:#ffe100;fill-rule:evenodd"
             inkscape:connector-curvature="0"
             id="path100"
             d="m 275.846,61.272 -4.6071,4.6852 11.557,11.635 h 18.585 V 71.111 h -15.695 l -9.8389,-9.8389 z" />
          <path
             style="fill:#ffe100;fill-rule:evenodd"
             inkscape:connector-curvature="0"
             id="path102"
             d="M 283.266,40.032 252.422,71.11 H 236.57 v 6.5593 h 18.507 l 31.078,-31.078 h 15.227 V 40.032 h -18.116 z" />
        </g>
        <path
           d="m 302.29418,112.13664 c 13.04,0 23.582,-10.542 23.582,-23.582 v 0 -63.093999 c 0,-13.04 -10.542,-23.66 -23.582,-23.66 v 0 h -90.737 c -13.04,0 -23.582,10.62 -23.582,23.66 v 0 63.093999 c 0,13.04 10.542,23.582 23.582,23.582 v 0 h 90.737 z"
           id="path8-7"
           inkscape:connector-curvature="0"
           style="fill:none;stroke:#ffe100;stroke-width:3.59200001px;stroke-linecap:round;stroke-linejoin:round;stroke-opacity:1" />
      </g>
    </g>
  </g>
</svg>
