<?xml version="1.0" encoding="UTF-8" standalone="no"?>
<!-- Created with Inkscape (http://www.inkscape.org/) -->

<svg
   xmlns:dc="http://purl.org/dc/elements/1.1/"
   xmlns:cc="http://creativecommons.org/ns#"
   xmlns:rdf="http://www.w3.org/1999/02/22-rdf-syntax-ns#"
   xmlns:svg="http://www.w3.org/2000/svg"
   xmlns="http://www.w3.org/2000/svg"
   xmlns:sodipodi="http://sodipodi.sourceforge.net/DTD/sodipodi-0.dtd"
   xmlns:inkscape="http://www.inkscape.org/namespaces/inkscape"
   width="1047.375"
   height="822.6875"
   id="svg3569"
   version="1.1"
   inkscape:version="0.48.5 r10040"
   sodipodi:docname="iot_overview.svg"
   inkscape:export-filename="C:\Users\Alex\scm\Tavendo\organize\marketing\azure\iot_connected.png"
   inkscape:export-xdpi="90"
   inkscape:export-ydpi="90">
  <defs
     id="defs3571" />
  <sodipodi:namedview
     id="base"
     pagecolor="#ffffff"
     bordercolor="#666666"
     borderopacity="1.0"
     inkscape:pageopacity="0.0"
     inkscape:pageshadow="2"
     inkscape:zoom="0.63429568"
     inkscape:cx="923.15714"
     inkscape:cy="604.79047"
     inkscape:document-units="px"
     inkscape:current-layer="g3796"
     showgrid="false"
     fit-margin-top="10"
     fit-margin-right="10"
     fit-margin-bottom="10"
     fit-margin-left="10"
     inkscape:window-width="1050"
     inkscape:window-height="1658"
     inkscape:window-x="-8"
     inkscape:window-y="-8"
     inkscape:window-maximized="1" />
  <metadata
     id="metadata3574">
    <rdf:RDF>
      <cc:Work
         rdf:about="">
        <dc:format>image/svg+xml</dc:format>
        <dc:type
           rdf:resource="http://purl.org/dc/dcmitype/StillImage" />
        <dc:title />
      </cc:Work>
    </rdf:RDF>
  </metadata>
  <g
     inkscape:label="Layer 1"
     inkscape:groupmode="layer"
     id="layer1"
     transform="translate(-85.293015,-343.45153)">
    <g
       id="g3796"
       transform="translate(93.324265,351.48278)">
      <path
         id="path3936"
         d="m 216.89199,275.20602 135.9423,44.29679"
         style="fill:none;stroke:#ffffff;stroke-width:4.01112603999999970px;stroke-linecap:round;stroke-linejoin:round;stroke-opacity:1;stroke-dasharray:none"
         inkscape:connector-curvature="0" />
      <path
         id="path3930"
         d="m 145.85458,133.26938 224.73529,163.9236"
         style="fill:none;stroke:#ffffff;stroke-width:3.73476266999999980px;stroke-linecap:round;stroke-linejoin:round;stroke-opacity:1;stroke-dasharray:none"
         inkscape:connector-curvature="0" />
      <path
         id="path3922"
         d="M 500.28124,104.27737 510.4432,291.02298"
         style="fill:none;stroke:#ffffff;stroke-width:3.59577130999999990px;stroke-linecap:round;stroke-linejoin:round;stroke-opacity:1;stroke-dasharray:none"
         inkscape:connector-curvature="0" />
      <path
         id="path3832"
         d="m 594.86566,543.97768 106.23159,88.56541"
         style="fill:none;stroke:#ffffff;stroke-width:3.59577130999999990px;stroke-linecap:round;stroke-linejoin:round;stroke-opacity:1;stroke-dasharray:none"
         inkscape:connector-curvature="0" />
      <path
         id="path3834"
         d="M 429.38201,291.02298 323.15041,174.08224"
         style="fill:none;stroke:#ffffff;stroke-width:3.59577130999999990px;stroke-linecap:round;stroke-linejoin:round;stroke-opacity:1;stroke-dasharray:none"
         inkscape:connector-curvature="0" />
      <path
         id="path3836"
         d="m 1003.8456,504.97138 c 13.0542,0 23.6852,-10.55281 23.6852,-23.60703 l 0,0 0,-123.11608 c 0,-13.05422 -10.631,-23.60702 -23.6852,-23.60702 l -165.64002,0 c -13.05421,0 -23.68519,10.5528 -23.68519,23.60702 l 0,0 0,123.11608 c 0,13.05422 10.63098,23.60703 23.68519,23.60703 l 0,0 165.64002,0 z"
         style="fill:#4d4d4d;fill-opacity:1;fill-rule:evenodd;stroke:none"
         inkscape:connector-curvature="0" />
      <path
         id="path3838"
         d="m 1003.8456,504.97138 c 13.0542,0 23.6852,-10.55281 23.6852,-23.60703 l 0,0 0,-123.11608 c 0,-13.05422 -10.631,-23.60702 -23.6852,-23.60702 l -165.64002,0 c -13.05421,0 -23.68519,10.5528 -23.68519,23.60702 l 0,0 0,123.11608 c 0,13.05422 10.63098,23.60703 23.68519,23.60703 l 0,0 165.64002,0 z"
         style="fill:none;stroke:#ffffff;stroke-width:3.59577130999999990px;stroke-linecap:round;stroke-linejoin:round;stroke-opacity:1;stroke-dasharray:none"
         inkscape:connector-curvature="0" />
      <text
         id="text3840"
         style="font-size:40.02249908000000300px;font-style:normal;font-weight:normal;text-align:start;text-anchor:start;fill:#ffffff;font-family:Arial"
         y="431.49258"
         x="849.22742"
         xml:space="preserve">browser</text>
      <path
         id="path3842"
         d="m 193.07729,504.97138 c 13.05421,0 23.60702,-10.55281 23.60702,-23.60703 l 0,0 0,-123.11608 c 0,-13.05422 -10.55281,-23.60702 -23.60702,-23.60702 l -165.71816,0 c -13.054213,0 -23.6070207,10.5528 -23.6070207,23.60702 l 0,0 0,123.11608 c 0,13.05422 10.5528077,23.60703 23.6070207,23.60703 l 0,0 165.71816,0 z"
         style="fill:#4d4d4d;fill-opacity:1;fill-rule:evenodd;stroke:none"
         inkscape:connector-curvature="0" />
      <path
         id="path3844"
         d="m 193.07729,504.97138 c 13.05421,0 23.60702,-10.55281 23.60702,-23.60703 l 0,0 0,-123.11608 c 0,-13.05422 -10.55281,-23.60702 -23.60702,-23.60702 l -165.71816,0 c -13.054213,0 -23.6070207,10.5528 -23.6070207,23.60702 l 0,0 0,123.11608 c 0,13.05422 10.5528077,23.60703 23.6070207,23.60703 l 0,0 165.71816,0 z"
         style="fill:none;stroke:#ffffff;stroke-width:3.59577130999999990px;stroke-linecap:round;stroke-linejoin:round;stroke-opacity:1;stroke-dasharray:none"
         inkscape:connector-curvature="0" />
      <text
         id="text3846"
         style="font-size:40.02249908000000300px;font-style:normal;font-weight:normal;text-align:start;text-anchor:start;fill:#ffffff;font-family:Arial"
         y="431.49258"
         x="51.278828"
         xml:space="preserve">mobile</text>
      <path
         id="path3848"
         d="m 417.50033,802.87322 c 13.05421,0 23.60702,-10.55281 23.60702,-23.60702 l 0,0 0,-123.11609 c 0,-13.05421 -10.55281,-23.60702 -23.60702,-23.60702 l 0,0 -165.71816,0 c -13.05422,0 -23.68519,10.55281 -23.68519,23.60702 l 0,0 0,123.11609 c 0,13.05421 10.63097,23.60702 23.68519,23.60702 l 0,0 165.71816,0 z"
         style="fill:#000000;fill-opacity:1;fill-rule:evenodd;stroke:none"
         inkscape:connector-curvature="0" />
      <path
         id="path3850"
         d="m 417.50033,802.87322 c 13.05421,0 23.60702,-10.55281 23.60702,-23.60702 l 0,0 0,-123.11609 c 0,-13.05421 -10.55281,-23.60702 -23.60702,-23.60702 l 0,0 -165.71816,0 c -13.05422,0 -23.68519,10.55281 -23.68519,23.60702 l 0,0 0,123.11609 c 0,13.05421 10.63097,23.60702 23.68519,23.60702 l 0,0 165.71816,0 z"
         style="fill:none;stroke:#ffffff;stroke-width:3.59577130999999990px;stroke-linecap:round;stroke-linejoin:round;stroke-opacity:1;stroke-dasharray:none"
         inkscape:connector-curvature="0" />
      <text
         id="text3852"
         style="font-size:40.02249908000000300px;font-style:normal;font-weight:normal;text-align:start;text-anchor:start;fill:#ffffff;font-family:Arial"
         y="729.15991"
         x="278.9068"
         xml:space="preserve">server</text>
      <path
         id="path3854"
         d="m 843.13022,202.45756 c 13.05422,0 23.68519,-10.5528 23.68519,-23.60702 l 0,0 0,-123.116083 c 0,-13.054214 -10.63097,-23.68519 -23.68519,-23.68519 l 0,0 -165.63999,0 c -13.05421,0 -23.68519,10.630976 -23.68519,23.68519 l 0,0 0,123.116083 c 0,13.05422 10.63098,23.60702 23.68519,23.60702 l 0,0 165.63999,0 z"
         style="fill:#808080;fill-opacity:1;fill-rule:evenodd;stroke:none"
         inkscape:connector-curvature="0" />
      <path
         id="path3856"
         d="m 843.13022,202.45756 c 13.05422,0 23.68519,-10.5528 23.68519,-23.60702 l 0,0 0,-123.116083 c 0,-13.054214 -10.63097,-23.68519 -23.68519,-23.68519 l 0,0 -165.63999,0 c -13.05421,0 -23.68519,10.630976 -23.68519,23.68519 l 0,0 0,123.116083 c 0,13.05422 10.63098,23.60702 23.68519,23.60702 l 0,0 165.63999,0 z"
         style="fill:none;stroke:#ffffff;stroke-width:3.59577130999999990px;stroke-linecap:round;stroke-linejoin:round;stroke-opacity:1;stroke-dasharray:none"
         inkscape:connector-curvature="0" />
      <text
         id="text3858"
         style="font-size:40.02249908000000300px;font-style:normal;font-weight:normal;text-align:start;text-anchor:start;fill:#ffffff;font-family:Arial"
         y="128.82242"
         x="667.87543"
         xml:space="preserve">IoT device</text>
      <path
         id="path3860"
         d="m 814.52039,419.76723 -144.32383,1.17253"
         style="fill:none;stroke:#ffffff;stroke-width:3.69127940999999990px;stroke-linecap:round;stroke-linejoin:round;stroke-opacity:1;stroke-dasharray:none"
         inkscape:connector-curvature="0" />
      <path
         id="path3862"
         d="m 334.7024,632.48194 97.96284,-84.54548"
         style="fill:none;stroke:#ffffff;stroke-width:3.71806145000000000px;stroke-linecap:round;stroke-linejoin:round;stroke-opacity:1;stroke-dasharray:none"
         inkscape:connector-curvature="0" />
      <path
         id="path3864"
         d="m 216.68431,419.76723 127.61005,1.17253"
         style="fill:none;stroke:#ffffff;stroke-width:3.67954683000000000px;stroke-linecap:round;stroke-linejoin:round;stroke-opacity:1;stroke-dasharray:none"
         inkscape:connector-curvature="0" />
      <path
         id="path3866"
         d="m 703.59866,202.45756 -108.733,88.56542"
         style="fill:none;stroke:#ffffff;stroke-width:3.59577130999999990px;stroke-linecap:round;stroke-linejoin:round;stroke-opacity:1;stroke-dasharray:none"
         inkscape:connector-curvature="0" />
      <path
         id="path3868"
         d="m 783.95633,802.87322 c 13.05422,0 23.60703,-10.55281 23.60703,-23.60702 l 0,0 0,-123.11609 c 0,-13.05421 -10.55281,-23.60702 -23.60703,-23.60702 l 0,0 -165.71816,0 c -13.05421,0 -23.60702,10.55281 -23.60702,23.60702 l 0,0 0,123.11609 c 0,13.05421 10.55281,23.60702 23.60702,23.60702 l 0,0 165.71816,0 z"
         style="fill:#000000;fill-opacity:1;fill-rule:evenodd;stroke:none"
         inkscape:connector-curvature="0" />
      <path
         id="path3870"
         d="m 783.95633,802.87322 c 13.05422,0 23.60703,-10.55281 23.60703,-23.60702 l 0,0 0,-123.11609 c 0,-13.05421 -10.55281,-23.60702 -23.60703,-23.60702 l 0,0 -165.71816,0 c -13.05421,0 -23.60702,10.55281 -23.60702,23.60702 l 0,0 0,123.11609 c 0,13.05421 10.55281,23.60702 23.60702,23.60702 l 0,0 165.71816,0 z"
         style="fill:none;stroke:#ffffff;stroke-width:3.59577130999999990px;stroke-linecap:round;stroke-linejoin:round;stroke-opacity:1;stroke-dasharray:none"
         inkscape:connector-curvature="0" />
      <text
         id="text3872"
         style="font-size:40.02249908000000300px;font-style:normal;font-weight:normal;text-align:start;text-anchor:start;fill:#ffffff;font-family:Arial"
         y="729.15991"
         x="619.09802"
         xml:space="preserve">database</text>
      <path
         id="path3874"
         d="m 406.00949,174.08224 c 13.05422,0 23.68519,-10.55281 23.68519,-23.60702 l 0,0 0,-123.11609 c 0,-13.054213 -10.63097,-23.6070207 -23.68519,-23.6070207 l 0,0 -165.71816,0 c -13.05421,0 -23.60702,10.5528077 -23.60702,23.6070207 l 0,0 0,123.11609 c 0,13.05421 10.55281,23.60702 23.60702,23.60702 l 0,0 165.71816,0 z"
         style="fill:#808080;fill-opacity:1;fill-rule:evenodd;stroke:none"
         inkscape:connector-curvature="0" />
      <path
         id="path3876"
         d="m 406.00949,174.08224 c 13.05422,0 23.68519,-10.55281 23.68519,-23.60702 l 0,0 0,-123.11609 c 0,-13.054213 -10.63097,-23.6070207 -23.68519,-23.6070207 l 0,0 -165.71816,0 c -13.05421,0 -23.60702,10.5528077 -23.60702,23.6070207 l 0,0 0,123.11609 c 0,13.05421 10.55281,23.60702 23.60702,23.60702 l 0,0 165.71816,0 z"
         style="fill:none;stroke:#ffffff;stroke-width:3.59577130999999990px;stroke-linecap:round;stroke-linejoin:round;stroke-opacity:1;stroke-dasharray:none"
         inkscape:connector-curvature="0" />
      <text
         id="text3878"
         style="font-size:40.02249908000000300px;font-style:normal;font-weight:normal;text-align:start;text-anchor:start;fill:#ffffff;font-family:Arial"
         y="101.30695"
         x="231.38007"
         xml:space="preserve">IoT device</text>
      <path
         id="path3928"
         d="M 883.08722,249.73711 660.99021,320.05517"
         style="fill:none;stroke:#ffffff;stroke-width:3.88310981000000010px;stroke-linecap:round;stroke-linejoin:round;stroke-opacity:1;stroke-dasharray:none"
         inkscape:connector-curvature="0" />
      <path
         id="path3946"
         d="M 583.06215,202.37939 561.8002,291.02298"
         style="fill:none;stroke:#ffffff;stroke-width:3.59577130999999990px;stroke-linecap:round;stroke-linejoin:round;stroke-opacity:1;stroke-dasharray:none"
         inkscape:connector-curvature="0" />
      <path
         id="path3924"
         d="m 479.01929,104.27737 42.60207,0 c 7.81689,0 14.14858,-6.331684 14.14858,-14.226747 0,0 0,0 0,0 l 0,-24.779555 c 0,-7.816895 -6.33169,-14.148579 -14.14858,-14.148579 l 0,0 -42.60207,0 c -7.8169,0 -14.14858,6.331684 -14.14858,14.148579 l 0,0 0,24.779555 c 0,7.895063 6.33168,14.226747 14.14858,14.226747 z"
         style="fill:#808080;fill-opacity:1;fill-rule:evenodd;stroke:none"
         inkscape:connector-curvature="0" />
      <path
         id="path3926"
         d="m 479.01929,104.27737 42.60207,0 c 7.81689,0 14.14858,-6.331684 14.14858,-14.226747 0,0 0,0 0,0 l 0,-24.779555 c 0,-7.816895 -6.33169,-14.148579 -14.14858,-14.148579 l 0,0 -42.60207,0 c -7.8169,0 -14.14858,6.331684 -14.14858,14.148579 l 0,0 0,24.779555 c 0,7.895063 6.33168,14.226747 14.14858,14.226747 z"
         style="fill:none;stroke:#ffffff;stroke-width:2.03239249999999980px;stroke-linecap:round;stroke-linejoin:round;stroke-opacity:1;stroke-dasharray:none"
         inkscape:connector-curvature="0" />
      <path
         id="path3932"
         d="m 159.93366,301.65395 42.60207,0 c 7.8169,0 14.14858,-6.40985 14.14858,-14.22674 0,0 0,0 0,0 l 0,-24.77956 c 0,-7.81689 -6.33168,-14.22675 -14.14858,-14.22675 l 0,0 -42.60207,0 c -7.8169,0 -14.14858,6.40986 -14.14858,14.22675 l 0,24.77956 c 0,7.81689 6.33168,14.22674 14.14858,14.22674 z"
         style="fill:#808080;fill-opacity:1;fill-rule:evenodd;stroke:none"
         inkscape:connector-curvature="0" />
      <path
         id="path3934"
         d="m 159.93366,301.65395 42.60207,0 c 7.8169,0 14.14858,-6.40985 14.14858,-14.22674 0,0 0,0 0,0 l 0,-24.77956 c 0,-7.81689 -6.33168,-14.22675 -14.14858,-14.22675 l 0,0 -42.60207,0 c -7.8169,0 -14.14858,6.40986 -14.14858,14.22675 l 0,24.77956 c 0,7.81689 6.33168,14.22674 14.14858,14.22674 z"
         style="fill:none;stroke:#ffffff;stroke-width:2.03239249999999980px;stroke-linecap:round;stroke-linejoin:round;stroke-opacity:1;stroke-dasharray:none"
         inkscape:connector-curvature="0" />
      <path
         id="path3938"
         d="m 897.37947,276.24905 42.52391,0 c 7.89506,0 14.22674,-6.40986 14.22674,-14.22675 0,0 0,0 0,0 l 0,-24.77956 c 0,-7.89506 -6.33168,-14.22674 -14.22674,-14.22674 l 0,0 -42.52391,0 c -7.81689,0 -14.14858,6.33168 -14.14858,14.22674 l 0,0 0,24.77956 c 0,7.81689 6.33169,14.22675 14.14858,14.22675 z"
         style="fill:#808080;fill-opacity:1;fill-rule:evenodd;stroke:none"
         inkscape:connector-curvature="0" />
      <path
         id="path3940"
         d="m 897.37947,276.24905 42.52391,0 c 7.89506,0 14.22674,-6.40986 14.22674,-14.22675 0,0 0,0 0,0 l 0,-24.77956 c 0,-7.89506 -6.33168,-14.22674 -14.22674,-14.22674 l 0,0 -42.52391,0 c -7.81689,0 -14.14858,6.33168 -14.14858,14.22674 l 0,0 0,24.77956 c 0,7.81689 6.33169,14.22675 14.14858,14.22675 z"
         style="fill:none;stroke:#ffffff;stroke-width:2.03239249999999980px;stroke-linecap:round;stroke-linejoin:round;stroke-opacity:1;stroke-dasharray:none"
         inkscape:connector-curvature="0" />
      <path
         id="path3942"
         d="m 89.034427,159.77732 42.602073,0 c 7.8169,0 14.14858,-6.33168 14.14858,-14.14858 0,0 0,0 0,0 l 0,0 0,-24.77955 c 0,-7.89507 -6.33168,-14.22675 -14.14858,-14.22675 l -42.602073,0 c -7.816895,0 -14.148579,6.33168 -14.148579,14.22675 l 0,0 0,24.77955 c 0,7.8169 6.331684,14.14858 14.148579,14.14858 z"
         style="fill:#808080;fill-opacity:1;fill-rule:evenodd;stroke:none"
         inkscape:connector-curvature="0" />
      <path
         id="path3944"
         d="m 89.034427,159.77732 42.602073,0 c 7.8169,0 14.14858,-6.33168 14.14858,-14.14858 0,0 0,0 0,0 l 0,0 0,-24.77955 c 0,-7.89507 -6.33168,-14.22675 -14.14858,-14.22675 l -42.602073,0 c -7.816895,0 -14.148579,6.33168 -14.148579,14.22675 l 0,0 0,24.77955 c 0,7.8169 6.331684,14.14858 14.148579,14.14858 z"
         style="fill:none;stroke:#ffffff;stroke-width:2.03239249999999980px;stroke-linecap:round;stroke-linejoin:round;stroke-opacity:1;stroke-dasharray:none"
         inkscape:connector-curvature="0" />
      <path
         id="path3948"
         d="m 561.8002,202.37939 42.5239,0 c 7.8169,0 14.14858,-6.40985 14.14858,-14.22674 0,0 0,0 0,0 l 0,0 0,-24.77956 c 0,-7.81689 -6.33168,-14.22675 -14.14858,-14.22675 l 0,0 -42.5239,0 c -7.89507,0 -14.22675,6.40986 -14.22675,14.22675 l 0,24.77956 c 0,7.81689 6.33168,14.22674 14.22675,14.22674 z"
         style="fill:#808080;fill-opacity:1;fill-rule:evenodd;stroke:none"
         inkscape:connector-curvature="0" />
      <path
         id="path3950"
         d="m 561.8002,202.37939 42.5239,0 c 7.8169,0 14.14858,-6.40985 14.14858,-14.22674 0,0 0,0 0,0 l 0,0 0,-24.77956 c 0,-7.81689 -6.33168,-14.22675 -14.14858,-14.22675 l 0,0 -42.5239,0 c -7.89507,0 -14.22675,6.40986 -14.22675,14.22675 l 0,24.77956 c 0,7.81689 6.33168,14.22674 14.22675,14.22674 z"
         style="fill:none;stroke:#ffffff;stroke-width:2.03239249999999980px;stroke-linecap:round;stroke-linejoin:round;stroke-opacity:1;stroke-dasharray:none"
         inkscape:connector-curvature="0" />
      <g
         transform="matrix(2.2916258,0,0,2.2916258,-81.97373,288.19147)"
         id="g3077">
        <g
           transform="translate(-11.222756,-5.230502)"
           id="g4058">
          <path
             style="fill:#333333;fill-opacity:1;fill-rule:evenodd"
             inkscape:connector-curvature="0"
             id="path96"
             d="m 236.566,26.372 v 64.89 h 64.812 v -64.89 h -64.812 z" />
          <path
             style="fill:#ffe100;fill-rule:evenodd"
             inkscape:connector-curvature="0"
             id="path98"
             d="m 236.566,40.192 v 6.4031 h 15.305 l 10.151,10.151 4.6852,-4.6852 -12.025,-12.025 -18.116,0.15617 z" />
          <path
             style="fill:#ffe100;fill-rule:evenodd"
             inkscape:connector-curvature="0"
             id="path100"
             d="m 275.846,61.272 -4.6071,4.6852 11.557,11.635 h 18.585 V 71.111 h -15.695 l -9.8389,-9.8389 z" />
          <path
             style="fill:#ffe100;fill-rule:evenodd"
             inkscape:connector-curvature="0"
             id="path102"
             d="M 283.266,40.032 252.422,71.11 H 236.57 v 6.5593 h 18.507 l 31.078,-31.078 h 15.227 V 40.032 h -18.116 z" />
        </g>
        <path
           d="m 302.29418,112.13664 c 13.04,0 23.582,-10.542 23.582,-23.582 v 0 -63.093999 c 0,-13.04 -10.542,-23.66 -23.582,-23.66 v 0 h -90.737 c -13.04,0 -23.582,10.62 -23.582,23.66 v 0 63.093999 c 0,13.04 10.542,23.582 23.582,23.582 v 0 h 90.737 z"
           id="path8-7"
           inkscape:connector-curvature="0"
           style="fill:none;stroke:#ffe100;stroke-width:3.59200001px;stroke-linecap:round;stroke-linejoin:round;stroke-opacity:1" />
      </g>
    </g>
  </g>
</svg>
