<?xml version="1.0" encoding="UTF-8" standalone="no"?>
<!-- Created with Inkscape (http://www.inkscape.org/) -->

<svg
   xmlns:dc="http://purl.org/dc/elements/1.1/"
   xmlns:cc="http://creativecommons.org/ns#"
   xmlns:rdf="http://www.w3.org/1999/02/22-rdf-syntax-ns#"
   xmlns:svg="http://www.w3.org/2000/svg"
   xmlns="http://www.w3.org/2000/svg"
   xmlns:sodipodi="http://sodipodi.sourceforge.net/DTD/sodipodi-0.dtd"
   xmlns:inkscape="http://www.inkscape.org/namespaces/inkscape"
   width="954"
   height="782.5625"
   id="svg3107"
   version="1.1"
   inkscape:version="0.48.5 r10040"
   sodipodi:docname="New document 3">
  <defs
     id="defs3109">
    <clipPath
       id="clipEmfPath1"
       clipPathUnits="userSpaceOnUse">
      <rect
         id="rect3120"
         height="152.58578"
         width="188.85617"
         y="247.63921"
         x="335.18842" />
    </clipPath>
  </defs>
  <sodipodi:namedview
     id="base"
     pagecolor="#ffffff"
     bordercolor="#666666"
     borderopacity="1.0"
     inkscape:pageopacity="0.0"
     inkscape:pageshadow="2"
     inkscape:zoom="0.35"
     inkscape:cx="1471.9989"
     inkscape:cy="-188.72416"
     inkscape:document-units="px"
     inkscape:current-layer="layer1"
     showgrid="false"
     fit-margin-top="50"
     fit-margin-left="50"
     fit-margin-right="50"
     fit-margin-bottom="50"
     inkscape:window-width="1618"
     inkscape:window-height="1028"
     inkscape:window-x="1042"
     inkscape:window-y="-8"
     inkscape:window-maximized="1" />
  <metadata
     id="metadata3112">
    <rdf:RDF>
      <cc:Work
         rdf:about="">
        <dc:format>image/svg+xml</dc:format>
        <dc:type
           rdf:resource="http://purl.org/dc/dcmitype/StillImage" />
        <dc:title></dc:title>
      </cc:Work>
    </rdf:RDF>
  </metadata>
  <g
     inkscape:label="Layer 1"
     inkscape:groupmode="layer"
     id="layer1"
     transform="translate(1096.9989,781.78162)">
    <g
       id="g3122"
       transform="translate(-1048.8739,-733.65662)">
      <path
         id="path3124"
         d="m 65.583744,574.22906 25.952089,0 c 5.15915,0 9.458447,-4.22112 9.458447,-9.45844 0,0 0,0 0,0 l 0,-14.69576 c 0,-5.23732 -4.299297,-9.45845 -9.458447,-9.45845 l -25.952089,0 c -5.23732,0 -9.458443,4.22113 -9.458443,9.45845 l 0,14.69576 c 0,5.23732 4.221123,9.45844 9.458443,9.45844 z"
         style="fill:#595959;fill-opacity:1;fill-rule:evenodd;stroke:none"
         inkscape:connector-curvature="0" />
      <path
         id="path3126"
         d="m 65.583744,574.22906 25.952089,0 c 5.15915,0 9.458447,-4.22112 9.458447,-9.45844 0,0 0,0 0,0 l 0,-14.69576 c 0,-5.23732 -4.299297,-9.45845 -9.458447,-9.45845 l -25.952089,0 c -5.23732,0 -9.458443,4.22113 -9.458443,9.45845 l 0,14.69576 c 0,5.23732 4.221123,9.45844 9.458443,9.45844 z"
         style="fill:none;stroke:#ffffff;stroke-width:2.0323925px;stroke-linecap:round;stroke-linejoin:round;stroke-opacity:1;stroke-dasharray:none"
         inkscape:connector-curvature="0" />
      <path
         id="path3128"
         d="M 100.99428,557.42274 348.94616,392.25176"
         style="fill:none;stroke:#ffffff;stroke-width:2.0323925px;stroke-linecap:round;stroke-linejoin:round;stroke-opacity:1;stroke-dasharray:none"
         inkscape:connector-curvature="0" />
      <path
         id="path3130"
         d="m 109.20201,245.45048 224.89205,54.56193"
         style="fill:none;stroke:#ffffff;stroke-width:2.0323925px;stroke-linecap:round;stroke-linejoin:round;stroke-opacity:1;stroke-dasharray:none"
         inkscape:connector-curvature="0" />
      <path
         id="path3132"
         d="m 73.791483,262.25681 25.952089,0 c 5.237318,0 9.458438,-4.22113 9.458438,-9.45845 0,0 0,0 0,0 l 0,0 0,-14.69576 c 0,-5.23732 -4.22112,-9.45844 -9.458438,-9.45844 l -25.952089,0 c -5.159151,0 -9.458442,4.22112 -9.458442,9.45844 l 0,14.69576 c 0,5.23732 4.299291,9.45845 9.458442,9.45845 z"
         style="fill:#595959;fill-opacity:1;fill-rule:evenodd;stroke:none"
         inkscape:connector-curvature="0" />
      <path
         id="path3134"
         d="m 73.791483,262.25681 25.952089,0 c 5.237318,0 9.458438,-4.22113 9.458438,-9.45845 0,0 0,0 0,0 l 0,0 0,-14.69576 c 0,-5.23732 -4.22112,-9.45844 -9.458438,-9.45844 l -25.952089,0 c -5.159151,0 -9.458442,4.22112 -9.458442,9.45844 l 0,14.69576 c 0,5.23732 4.299291,9.45845 9.458442,9.45845 z"
         style="fill:none;stroke:#ffffff;stroke-width:2.0323925px;stroke-linecap:round;stroke-linejoin:round;stroke-opacity:1;stroke-dasharray:none"
         inkscape:connector-curvature="0" />
      <path
         id="path3136"
         d="m 213.79206,236.8519 121.86538,39.63165"
         style="fill:none;stroke:#ffffff;stroke-width:3.59577131px;stroke-linecap:round;stroke-linejoin:round;stroke-opacity:1;stroke-dasharray:none"
         inkscape:connector-curvature="0" />
      <path
         id="path3138"
         d="m 157.04141,263.42934 42.60207,0 c 7.8169,0 14.14858,-6.33168 14.14858,-14.22675 0,0 0,0 0,0 l 0,-24.77955 c 0,-7.8169 -6.33168,-14.22675 -14.14858,-14.22675 l -42.60207,0 c -7.8169,0 -14.14858,6.40985 -14.14858,14.22675 l 0,24.77955 c 0,7.89507 6.33168,14.22675 14.14858,14.22675 z"
         style="fill:#595959;fill-opacity:1;fill-rule:evenodd;stroke:none"
         inkscape:connector-curvature="0" />
      <path
         id="path3140"
         d="m 157.04141,263.42934 42.60207,0 c 7.8169,0 14.14858,-6.33168 14.14858,-14.22675 0,0 0,0 0,0 l 0,-24.77955 c 0,-7.8169 -6.33168,-14.22675 -14.14858,-14.22675 l -42.60207,0 c -7.8169,0 -14.14858,6.40985 -14.14858,14.22675 l 0,24.77955 c 0,7.89507 6.33168,14.22675 14.14858,14.22675 z"
         style="fill:none;stroke:#ffffff;stroke-width:2.0323925px;stroke-linecap:round;stroke-linejoin:round;stroke-opacity:1;stroke-dasharray:none"
         inkscape:connector-curvature="0" />
      <path
         id="path3142"
         d="m 135.23227,615.26775 25.95209,0 c 5.23732,0 9.45844,-4.22112 9.45844,-9.45844 0,0 0,0 0,0 l 0,0 0,-14.69576 c 0,-5.23732 -4.22112,-9.45844 -9.45844,-9.45844 l -25.95209,0 c -5.15915,0 -9.38027,4.22112 -9.38027,9.45844 l 0,14.69576 c 0,5.23732 4.22112,9.45844 9.38027,9.45844 z"
         style="fill:#595959;fill-opacity:1;fill-rule:evenodd;stroke:none"
         inkscape:connector-curvature="0" />
      <path
         id="path3144"
         d="m 135.23227,615.26775 25.95209,0 c 5.23732,0 9.45844,-4.22112 9.45844,-9.45844 0,0 0,0 0,0 l 0,0 0,-14.69576 c 0,-5.23732 -4.22112,-9.45844 -9.45844,-9.45844 l -25.95209,0 c -5.15915,0 -9.38027,4.22112 -9.38027,9.45844 l 0,14.69576 c 0,5.23732 4.22112,9.45844 9.38027,9.45844 z"
         style="fill:none;stroke:#ffffff;stroke-width:2.0323925px;stroke-linecap:round;stroke-linejoin:round;stroke-opacity:1;stroke-dasharray:none"
         inkscape:connector-curvature="0" />
      <path
         id="path3146"
         d="M 148.20832,581.65511 357.46658,394.59683"
         style="fill:none;stroke:#ffffff;stroke-width:2.0323925px;stroke-linecap:round;stroke-linejoin:round;stroke-opacity:1;stroke-dasharray:none"
         inkscape:connector-curvature="0" />
      <path
         id="path3148"
         d="m 51.278827,390.3757 25.87392,0 c 5.237319,0 9.458442,-4.22112 9.458442,-9.45844 0,0 0,0 0,0 l 0,-14.69576 c 0,-5.23732 -4.221123,-9.45844 -9.458442,-9.45844 l -25.87392,0 c -5.237319,0 -9.458442,4.22112 -9.458442,9.45844 l 0,14.69576 c 0,5.23732 4.221123,9.45844 9.458442,9.45844 z"
         style="fill:#595959;fill-opacity:1;fill-rule:evenodd;stroke:none"
         inkscape:connector-curvature="0" />
      <path
         id="path3150"
         d="m 51.278827,390.3757 25.87392,0 c 5.237319,0 9.458442,-4.22112 9.458442,-9.45844 0,0 0,0 0,0 l 0,-14.69576 c 0,-5.23732 -4.221123,-9.45844 -9.458442,-9.45844 l -25.87392,0 c -5.237319,0 -9.458442,4.22112 -9.458442,9.45844 l 0,14.69576 c 0,5.23732 4.221123,9.45844 9.458442,9.45844 z"
         style="fill:none;stroke:#ffffff;stroke-width:2.0323925px;stroke-linecap:round;stroke-linejoin:round;stroke-opacity:1;stroke-dasharray:none"
         inkscape:connector-curvature="0" />
      <path
         id="path3152"
         d="M 86.611189,373.56938 334.09406,337.84617"
         style="fill:none;stroke:#ffffff;stroke-width:2.0323925px;stroke-linecap:round;stroke-linejoin:round;stroke-opacity:1;stroke-dasharray:none"
         inkscape:connector-curvature="0" />
      <path
         id="path3154"
         d="m 178.38153,140.54776 25.87392,0 c 5.23732,0 9.45844,-4.22112 9.45844,-9.45844 0,0 0,0 0,0 l 0,-14.69576 c 0,-5.23732 -4.22112,-9.45845 -9.45844,-9.45845 l -25.87392,0 c -5.23732,0 -9.45844,4.22113 -9.45844,9.45845 l 0,14.69576 c 0,5.23732 4.22112,9.45844 9.45844,9.45844 z"
         style="fill:#595959;fill-opacity:1;fill-rule:evenodd;stroke:none"
         inkscape:connector-curvature="0" />
      <path
         id="path3156"
         d="m 178.38153,140.54776 25.87392,0 c 5.23732,0 9.45844,-4.22112 9.45844,-9.45844 0,0 0,0 0,0 l 0,-14.69576 c 0,-5.23732 -4.22112,-9.45845 -9.45844,-9.45845 l -25.87392,0 c -5.23732,0 -9.45844,4.22113 -9.45844,9.45845 l 0,14.69576 c 0,5.23732 4.22112,9.45844 9.45844,9.45844 z"
         style="fill:none;stroke:#ffffff;stroke-width:2.0323925px;stroke-linecap:round;stroke-linejoin:round;stroke-opacity:1;stroke-dasharray:none"
         inkscape:connector-curvature="0" />
      <path
         id="path3158"
         d="M 213.71389,123.74144 359.81165,250.4533"
         style="fill:none;stroke:#ffffff;stroke-width:2.0323925px;stroke-linecap:round;stroke-linejoin:round;stroke-opacity:1;stroke-dasharray:none"
         inkscape:connector-curvature="0" />
      <path
         id="path3160"
         d="m 339.09688,596.35087 25.87392,0 c 5.23732,0 9.45844,-4.22112 9.45844,-9.45844 0,0 0,0 0,0 l 0,-14.69576 c 0,-5.23732 -4.22112,-9.45845 -9.45844,-9.45845 l -25.87392,0 c -5.23732,0 -9.45845,4.22113 -9.45845,9.45845 l 0,14.69576 c 0,5.23732 4.22113,9.45844 9.45845,9.45844 z"
         style="fill:#595959;fill-opacity:1;fill-rule:evenodd;stroke:none"
         inkscape:connector-curvature="0" />
      <path
         id="path3162"
         d="m 339.09688,596.35087 25.87392,0 c 5.23732,0 9.45844,-4.22112 9.45844,-9.45844 0,0 0,0 0,0 l 0,-14.69576 c 0,-5.23732 -4.22112,-9.45845 -9.45844,-9.45845 l -25.87392,0 c -5.23732,0 -9.45845,4.22113 -9.45845,9.45845 l 0,14.69576 c 0,5.23732 4.22113,9.45844 9.45845,9.45844 z"
         style="fill:none;stroke:#ffffff;stroke-width:2.0323925px;stroke-linecap:round;stroke-linejoin:round;stroke-opacity:1;stroke-dasharray:none"
         inkscape:connector-curvature="0" />
      <path
         id="path3164"
         d="M 351.99475,562.73822 390.53204,396.9419"
         style="fill:none;stroke:#ffffff;stroke-width:2.0323925px;stroke-linecap:round;stroke-linejoin:round;stroke-opacity:1;stroke-dasharray:none"
         inkscape:connector-curvature="0" />
      <path
         id="path3166"
         d="m 447.28269,683.43107 25.87393,0 c 5.23731,0 9.45844,-4.22112 9.45844,-9.38027 0,0 0,0 0,0 l 0,-14.77393 c 0,-5.15915 -4.22113,-9.45844 -9.45844,-9.45844 l -25.87393,0 c -5.23731,0 -9.45844,4.29929 -9.45844,9.45844 l 0,14.77393 c 0,5.15915 4.22113,9.38027 9.45844,9.38027 z"
         style="fill:#595959;fill-opacity:1;fill-rule:evenodd;stroke:none"
         inkscape:connector-curvature="0" />
      <path
         id="path3168"
         d="m 447.28269,683.43107 25.87393,0 c 5.23731,0 9.45844,-4.22112 9.45844,-9.38027 0,0 0,0 0,0 l 0,-14.77393 c 0,-5.15915 -4.22113,-9.45844 -9.45844,-9.45844 l -25.87393,0 c -5.23731,0 -9.45844,4.29929 -9.45844,9.45844 l 0,14.77393 c 0,5.15915 4.22113,9.38027 9.45844,9.38027 z"
         style="fill:none;stroke:#ffffff;stroke-width:2.0323925px;stroke-linecap:round;stroke-linejoin:round;stroke-opacity:1;stroke-dasharray:none"
         inkscape:connector-curvature="0" />
      <path
         id="path3170"
         d="M 460.18057,649.81843 437.82425,396.9419"
         style="fill:none;stroke:#ffffff;stroke-width:2.0323925px;stroke-linecap:round;stroke-linejoin:round;stroke-opacity:1;stroke-dasharray:none"
         inkscape:connector-curvature="0" />
      <path
         id="path3172"
         d="m 547.02627,660.52757 25.95209,0 c 5.23732,0 9.45844,-4.22112 9.45844,-9.45844 0,0 0,0 0,0 l 0,-14.69576 c 0,-5.23732 -4.22112,-9.45844 -9.45844,-9.45844 l -25.95209,0 c -5.15915,0 -9.45845,4.22112 -9.45845,9.45844 l 0,14.69576 c 0,5.23732 4.2993,9.45844 9.45845,9.45844 z"
         style="fill:#595959;fill-opacity:1;fill-rule:evenodd;stroke:none"
         inkscape:connector-curvature="0" />
      <path
         id="path3174"
         d="m 547.02627,660.52757 25.95209,0 c 5.23732,0 9.45844,-4.22112 9.45844,-9.45844 0,0 0,0 0,0 l 0,-14.69576 c 0,-5.23732 -4.22112,-9.45844 -9.45844,-9.45844 l -25.95209,0 c -5.15915,0 -9.45845,4.22112 -9.45845,9.45844 l 0,14.69576 c 0,5.23732 4.2993,9.45844 9.45845,9.45844 z"
         style="fill:none;stroke:#ffffff;stroke-width:2.0323925px;stroke-linecap:round;stroke-linejoin:round;stroke-opacity:1;stroke-dasharray:none"
         inkscape:connector-curvature="0" />
      <path
         id="path3176"
         d="M 560.00231,626.91493 485.03829,396.9419"
         style="fill:none;stroke:#ffffff;stroke-width:2.0323925px;stroke-linecap:round;stroke-linejoin:round;stroke-opacity:1;stroke-dasharray:none"
         inkscape:connector-curvature="0" />
      <path
         id="path3178"
         d="m 707.74161,588.92482 25.95209,0 c 5.23732,0 9.45845,-4.22112 9.45845,-9.45844 0,0 0,0 0,0 l 0,0 0,-14.69576 c 0,-5.23732 -4.22113,-9.45845 -9.45845,-9.45845 l -25.95209,0 c -5.15915,0 -9.45844,4.22113 -9.45844,9.45845 l 0,14.69576 c 0,5.23732 4.29929,9.45844 9.45844,9.45844 z"
         style="fill:#595959;fill-opacity:1;fill-rule:evenodd;stroke:none"
         inkscape:connector-curvature="0" />
      <path
         id="path3180"
         d="m 707.74161,588.92482 25.95209,0 c 5.23732,0 9.45845,-4.22112 9.45845,-9.45844 0,0 0,0 0,0 l 0,0 0,-14.69576 c 0,-5.23732 -4.22113,-9.45845 -9.45845,-9.45845 l -25.95209,0 c -5.15915,0 -9.45844,4.22113 -9.45844,9.45845 l 0,14.69576 c 0,5.23732 4.29929,9.45844 9.45844,9.45844 z"
         style="fill:none;stroke:#ffffff;stroke-width:2.0323925px;stroke-linecap:round;stroke-linejoin:round;stroke-opacity:1;stroke-dasharray:none"
         inkscape:connector-curvature="0" />
      <path
         id="path3182"
         d="M 698.28317,572.1185 506.37842,389.82852"
         style="fill:none;stroke:#ffffff;stroke-width:2.0323925px;stroke-linecap:round;stroke-linejoin:round;stroke-opacity:1;stroke-dasharray:none"
         inkscape:connector-curvature="0" />
      <path
         id="path3184"
         d="m 797.08872,399.83415 25.87392,0 c 5.23732,0 9.45844,-4.22113 9.45844,-9.45845 0,0 0,0 0,0 l 0,-14.69576 c 0,-5.23732 -4.22112,-9.45844 -9.45844,-9.45844 l 0,0 -25.87392,0 c -5.23732,0 -9.45845,4.22112 -9.45845,9.45844 l 0,0 0,14.69576 c 0,5.23732 4.22113,9.45845 9.45845,9.45845 z"
         style="fill:#595959;fill-opacity:1;fill-rule:evenodd;stroke:none"
         inkscape:connector-curvature="0" />
      <path
         id="path3186"
         d="m 797.08872,399.83415 25.87392,0 c 5.23732,0 9.45844,-4.22113 9.45844,-9.45845 0,0 0,0 0,0 l 0,-14.69576 c 0,-5.23732 -4.22112,-9.45844 -9.45844,-9.45844 l 0,0 -25.87392,0 c -5.23732,0 -9.45845,4.22112 -9.45845,9.45844 l 0,0 0,14.69576 c 0,5.23732 4.22113,9.45845 9.45845,9.45845 z"
         style="fill:none;stroke:#ffffff;stroke-width:2.0323925px;stroke-linecap:round;stroke-linejoin:round;stroke-opacity:1;stroke-dasharray:none"
         inkscape:connector-curvature="0" />
      <path
         id="path3188"
         d="M 787.63027,383.02782 520.52699,330.81097"
         style="fill:none;stroke:#ffffff;stroke-width:2.0323925px;stroke-linecap:round;stroke-linejoin:round;stroke-opacity:1;stroke-dasharray:none"
         inkscape:connector-curvature="0" />
      <path
         id="path3190"
         d="m 688.9029,182.36815 25.87392,0 c 5.23732,0 9.45844,-4.22113 9.45844,-9.45845 0,0 0,0 0,0 l 0,0 0,-14.69576 c 0,-5.23732 -4.22112,-9.45844 -9.45844,-9.45844 l -25.87392,0 c -5.23732,0 -9.45844,4.22112 -9.45844,9.45844 l 0,14.69576 c 0,5.23732 4.22112,9.45845 9.45844,9.45845 z"
         style="fill:#595959;fill-opacity:1;fill-rule:evenodd;stroke:none"
         inkscape:connector-curvature="0" />
      <path
         id="path3192"
         d="m 688.9029,182.36815 25.87392,0 c 5.23732,0 9.45844,-4.22113 9.45844,-9.45845 0,0 0,0 0,0 l 0,0 0,-14.69576 c 0,-5.23732 -4.22112,-9.45844 -9.45844,-9.45844 l -25.87392,0 c -5.23732,0 -9.45844,4.22112 -9.45844,9.45844 l 0,14.69576 c 0,5.23732 4.22112,9.45845 9.45844,9.45845 z"
         style="fill:none;stroke:#ffffff;stroke-width:2.0323925px;stroke-linecap:round;stroke-linejoin:round;stroke-opacity:1;stroke-dasharray:none"
         inkscape:connector-curvature="0" />
      <path
         id="path3194"
         d="M 679.44446,165.56182 513.41362,262.25681"
         style="fill:none;stroke:#ffffff;stroke-width:2.0323925px;stroke-linecap:round;stroke-linejoin:round;stroke-opacity:1;stroke-dasharray:none"
         inkscape:connector-curvature="0" />
      <path
         id="path3196"
         d="m 798.10491,237.08641 25.95209,0 c 5.15915,0 9.45844,-4.22113 9.45844,-9.45845 0,0 0,0 0,0 l 0,-14.69576 c 0,-5.23732 -4.29929,-9.45844 -9.45844,-9.45844 l 0,0 -25.95209,0 c -5.23732,0 -9.45844,4.22112 -9.45844,9.45844 l 0,14.69576 c 0,5.23732 4.22112,9.45845 9.45844,9.45845 z"
         style="fill:#595959;fill-opacity:1;fill-rule:evenodd;stroke:none"
         inkscape:connector-curvature="0" />
      <path
         id="path3198"
         d="m 798.10491,237.08641 25.95209,0 c 5.15915,0 9.45844,-4.22113 9.45844,-9.45845 0,0 0,0 0,0 l 0,-14.69576 c 0,-5.23732 -4.29929,-9.45844 -9.45844,-9.45844 l 0,0 -25.95209,0 c -5.23732,0 -9.45844,4.22112 -9.45844,9.45844 l 0,14.69576 c 0,5.23732 4.22112,9.45845 9.45844,9.45845 z"
         style="fill:none;stroke:#ffffff;stroke-width:2.0323925px;stroke-linecap:round;stroke-linejoin:round;stroke-opacity:1;stroke-dasharray:none"
         inkscape:connector-curvature="0" />
      <path
         id="path3200"
         d="M 788.64647,220.28008 520.52699,281.17369"
         style="fill:none;stroke:#ffffff;stroke-width:2.0323925px;stroke-linecap:round;stroke-linejoin:round;stroke-opacity:1;stroke-dasharray:none"
         inkscape:connector-curvature="0" />
      <path
         id="path3202"
         d="M 95.522449,122.17806 350.3532,254.98709"
         style="fill:none;stroke:#ffffff;stroke-width:3.59577131px;stroke-linecap:round;stroke-linejoin:round;stroke-opacity:1;stroke-dasharray:none"
         inkscape:connector-curvature="0" />
      <path
         id="path3204"
         d="m 73.791483,122.17806 43.383767,0 c 7.89506,0 14.22674,-6.33169 14.22674,-14.14858 0,0 0,0 0,0 l 0,-25.483076 c 0,-7.816894 -6.33168,-14.148578 -14.22674,-14.148578 l -43.383767,0 c -7.816895,0 -14.148579,6.331684 -14.148579,14.148578 l 0,0 0,25.483076 c 0,7.81689 6.331684,14.14858 14.148579,14.14858 z"
         style="fill:#595959;fill-opacity:1;fill-rule:evenodd;stroke:none"
         inkscape:connector-curvature="0" />
      <path
         id="path3206"
         d="m 73.791483,122.17806 43.383767,0 c 7.89506,0 14.22674,-6.33169 14.22674,-14.14858 0,0 0,0 0,0 l 0,-25.483076 c 0,-7.816894 -6.33168,-14.148578 -14.22674,-14.148578 l -43.383767,0 c -7.816895,0 -14.148579,6.331684 -14.148579,14.148578 l 0,0 0,25.483076 c 0,7.81689 6.331684,14.14858 14.148579,14.14858 z"
         style="fill:none;stroke:#ffffff;stroke-width:2.0323925px;stroke-linecap:round;stroke-linejoin:round;stroke-opacity:1;stroke-dasharray:none"
         inkscape:connector-curvature="0" />
      <path
         id="path3208"
         d="M 73.791483,307.75113 334.09406,318.92929"
         style="fill:none;stroke:#ffffff;stroke-width:3.59577131px;stroke-linecap:round;stroke-linejoin:round;stroke-opacity:1;stroke-dasharray:none"
         inkscape:connector-curvature="0" />
      <path
         id="path3210"
         d="m 17.118999,334.32857 42.523905,0 c 7.816894,0 14.148579,-6.33168 14.148579,-14.22675 0,0 0,0 0,0 l 0,-24.77955 c 0,-7.8169 -6.331685,-14.14858 -14.148579,-14.14858 l -42.523905,0 c -7.8950637,0 -14.2267481,6.33168 -14.2267481,14.14858 l 0,24.77955 c 0,7.89507 6.3316844,14.22675 14.2267481,14.22675 z"
         style="fill:#595959;fill-opacity:1;fill-rule:evenodd;stroke:none"
         inkscape:connector-curvature="0" />
      <path
         id="path3212"
         d="m 17.118999,334.32857 42.523905,0 c 7.816894,0 14.148579,-6.33168 14.148579,-14.22675 0,0 0,0 0,0 l 0,-24.77955 c 0,-7.8169 -6.331685,-14.14858 -14.148579,-14.14858 l -42.523905,0 c -7.8950637,0 -14.2267481,6.33168 -14.2267481,14.14858 l 0,24.77955 c 0,7.89507 6.3316844,14.22675 14.2267481,14.22675 z"
         style="fill:none;stroke:#ffffff;stroke-width:2.0323925px;stroke-linecap:round;stroke-linejoin:round;stroke-opacity:1;stroke-dasharray:none"
         inkscape:connector-curvature="0" />
      <path
         id="path3214"
         d="M 633.95013,378.57219 522.87206,356.76306"
         style="fill:none;stroke:#ffffff;stroke-width:3.59577131px;stroke-linecap:round;stroke-linejoin:round;stroke-opacity:1;stroke-dasharray:none"
         inkscape:connector-curvature="0" />
      <path
         id="path3216"
         d="m 648.17688,405.14963 42.5239,0 c 7.8169,0 14.14858,-6.33168 14.14858,-14.14857 0,0 0,0 0,0 l 0,-24.85773 c 0,-7.81689 -6.33168,-14.14858 -14.14858,-14.14858 l -42.5239,0 c -7.81689,0 -14.22675,6.33169 -14.22675,14.14858 l 0,0 0,24.85773 c 0,7.81689 6.40986,14.14857 14.22675,14.14857 z"
         style="fill:#595959;fill-opacity:1;fill-rule:evenodd;stroke:none"
         inkscape:connector-curvature="0" />
      <path
         id="path3218"
         d="m 648.17688,405.14963 42.5239,0 c 7.8169,0 14.14858,-6.33168 14.14858,-14.14857 0,0 0,0 0,0 l 0,-24.85773 c 0,-7.81689 -6.33168,-14.14858 -14.14858,-14.14858 l -42.5239,0 c -7.81689,0 -14.22675,6.33169 -14.22675,14.14858 l 0,0 0,24.85773 c 0,7.81689 6.40986,14.14857 14.22675,14.14857 z"
         style="fill:none;stroke:#ffffff;stroke-width:2.0323925px;stroke-linecap:round;stroke-linejoin:round;stroke-opacity:1;stroke-dasharray:none"
         inkscape:connector-curvature="0" />
      <path
         id="path3220"
         d="m 626.91493,246.23217 -108.733,20.71477"
         style="fill:none;stroke:#ffffff;stroke-width:3.59577131px;stroke-linecap:round;stroke-linejoin:round;stroke-opacity:1;stroke-dasharray:none"
         inkscape:connector-curvature="0" />
      <path
         id="path3222"
         d="m 641.06351,272.80961 42.5239,0 c 7.8169,0 14.22675,-6.33168 14.22675,-14.14858 0,0 0,0 0,0 l 0,0 0,-24.85772 c 0,-7.81689 -6.40985,-14.14858 -14.22675,-14.14858 l -42.5239,0 c -7.8169,0 -14.14858,6.33169 -14.14858,14.14858 l 0,0 0,24.85772 c 0,7.8169 6.33168,14.14858 14.14858,14.14858 z"
         style="fill:#595959;fill-opacity:1;fill-rule:evenodd;stroke:none"
         inkscape:connector-curvature="0" />
      <path
         id="path3224"
         d="m 641.06351,272.80961 42.5239,0 c 7.8169,0 14.22675,-6.33168 14.22675,-14.14858 0,0 0,0 0,0 l 0,0 0,-24.85772 c 0,-7.81689 -6.40985,-14.14858 -14.22675,-14.14858 l -42.5239,0 c -7.8169,0 -14.14858,6.33169 -14.14858,14.14858 l 0,0 0,24.85772 c 0,7.8169 6.33168,14.14858 14.14858,14.14858 z"
         style="fill:none;stroke:#ffffff;stroke-width:2.0323925px;stroke-linecap:round;stroke-linejoin:round;stroke-opacity:1;stroke-dasharray:none"
         inkscape:connector-curvature="0" />
      <path
         id="path3226"
         d="M 652.86702,116.86257 494.49674,247.32654"
         style="fill:none;stroke:#ffffff;stroke-width:3.59577131px;stroke-linecap:round;stroke-linejoin:round;stroke-opacity:1;stroke-dasharray:none"
         inkscape:connector-curvature="0" />
      <path
         id="path3228"
         d="m 631.60506,116.86257 42.52391,0 c 7.89506,0 14.22675,-6.33168 14.22675,-14.14858 0,0 0,0 0,0 l 0,-24.857722 c 0,-7.816895 -6.33169,-14.148579 -14.22675,-14.148579 l 0,0 -42.52391,0 c -7.81689,0 -14.14858,6.331684 -14.14858,14.148579 l 0,0 0,24.857722 c 0,7.8169 6.33169,14.14858 14.14858,14.14858 z"
         style="fill:#595959;fill-opacity:1;fill-rule:evenodd;stroke:none"
         inkscape:connector-curvature="0" />
      <path
         id="path3230"
         d="m 631.60506,116.86257 42.52391,0 c 7.89506,0 14.22675,-6.33168 14.22675,-14.14858 0,0 0,0 0,0 l 0,-24.857722 c 0,-7.816895 -6.33169,-14.148579 -14.22675,-14.148579 l 0,0 -42.52391,0 c -7.81689,0 -14.14858,6.331684 -14.14858,14.148579 l 0,0 0,24.857722 c 0,7.8169 6.33169,14.14858 14.14858,14.14858 z"
         style="fill:none;stroke:#ffffff;stroke-width:2.0323925px;stroke-linecap:round;stroke-linejoin:round;stroke-opacity:1;stroke-dasharray:none"
         inkscape:connector-curvature="0" />
      <path
         id="path3232"
         d="m 424.14469,64.802054 4.22112,182.524486"
         style="fill:none;stroke:#ffffff;stroke-width:3.59577131px;stroke-linecap:round;stroke-linejoin:round;stroke-opacity:1;stroke-dasharray:none"
         inkscape:connector-curvature="0" />
      <path
         id="path3234"
         d="m 402.88273,64.802054 42.52391,0 c 7.81689,0 14.22675,-6.331684 14.22675,-14.148579 0,0 0,0 0,0 l 0,0 0,-24.857724 c 0,-7.816894 -6.40986,-14.148578 -14.22675,-14.148578 l 0,0 -42.52391,0 c -7.81689,0 -14.14857,6.331684 -14.14857,14.148578 l 0,0 0,24.857724 c 0,7.816895 6.33168,14.148579 14.14857,14.148579 z"
         style="fill:#595959;fill-opacity:1;fill-rule:evenodd;stroke:none"
         inkscape:connector-curvature="0" />
      <path
         id="path3236"
         d="m 402.88273,64.802054 42.52391,0 c 7.81689,0 14.22675,-6.331684 14.22675,-14.148579 0,0 0,0 0,0 l 0,0 0,-24.857724 c 0,-7.816894 -6.40986,-14.148578 -14.22675,-14.148578 l 0,0 -42.52391,0 c -7.81689,0 -14.14857,6.331684 -14.14857,14.148578 l 0,0 0,24.857724 c 0,7.816895 6.33168,14.148579 14.14857,14.148579 z"
         style="fill:none;stroke:#ffffff;stroke-width:2.0323925px;stroke-linecap:round;stroke-linejoin:round;stroke-opacity:1;stroke-dasharray:none"
         inkscape:connector-curvature="0" />
      <path
         id="path3238"
         d="M 246.38851,531.62698 371.61516,399.28696"
         style="fill:none;stroke:#ffffff;stroke-width:3.59577131px;stroke-linecap:round;stroke-linejoin:round;stroke-opacity:1;stroke-dasharray:none"
         inkscape:connector-curvature="0" />
      <path
         id="path3240"
         d="m 225.04839,584.78187 42.60207,0 c 7.8169,0 14.14858,-6.33169 14.14858,-14.14858 0,0 0,0 0,0 l 0,0 0,-24.85773 c 0,-7.81689 -6.33168,-14.14858 -14.14858,-14.14858 l -42.60207,0 c -7.8169,0 -14.14858,6.33169 -14.14858,14.14858 l 0,24.85773 c 0,7.81689 6.33168,14.14858 14.14858,14.14858 z"
         style="fill:#595959;fill-opacity:1;fill-rule:evenodd;stroke:none"
         inkscape:connector-curvature="0" />
      <path
         id="path3242"
         d="m 225.04839,584.78187 42.60207,0 c 7.8169,0 14.14858,-6.33169 14.14858,-14.14858 0,0 0,0 0,0 l 0,0 0,-24.85773 c 0,-7.81689 -6.33168,-14.14858 -14.14858,-14.14858 l -42.60207,0 c -7.8169,0 -14.14858,6.33169 -14.14858,14.14858 l 0,24.85773 c 0,7.81689 6.33168,14.14858 14.14858,14.14858 z"
         style="fill:none;stroke:#ffffff;stroke-width:2.0323925px;stroke-linecap:round;stroke-linejoin:round;stroke-opacity:1;stroke-dasharray:none"
         inkscape:connector-curvature="0" />
      <path
         id="path3244"
         d="m 783.95633,298.29269 -261.08427,1.71972"
         style="fill:none;stroke:#ffffff;stroke-width:3.59577131px;stroke-linecap:round;stroke-linejoin:round;stroke-opacity:1;stroke-dasharray:none"
         inkscape:connector-curvature="0" />
      <path
         id="path3246"
         d="m 798.10491,324.87013 42.52391,0 c 7.89506,0 14.22675,-6.33169 14.22675,-14.14858 0,0 0,0 0,0 l 0,-24.85772 c 0,-7.8169 -6.33169,-14.14858 -14.22675,-14.14858 l 0,0 -42.52391,0 c -7.81689,0 -14.14858,6.33168 -14.14858,14.14858 l 0,0 0,24.85772 c 0,7.81689 6.33169,14.14858 14.14858,14.14858 z"
         style="fill:#595959;fill-opacity:1;fill-rule:evenodd;stroke:none"
         inkscape:connector-curvature="0" />
      <path
         id="path3248"
         d="m 798.10491,324.87013 42.52391,0 c 7.89506,0 14.22675,-6.33169 14.22675,-14.14858 0,0 0,0 0,0 l 0,-24.85772 c 0,-7.8169 -6.33169,-14.14858 -14.22675,-14.14858 l 0,0 -42.52391,0 c -7.81689,0 -14.14858,6.33168 -14.14858,14.14858 l 0,0 0,24.85772 c 0,7.81689 6.33169,14.14858 14.14858,14.14858 z"
         style="fill:none;stroke:#ffffff;stroke-width:2.0323925px;stroke-linecap:round;stroke-linejoin:round;stroke-opacity:1;stroke-dasharray:none"
         inkscape:connector-curvature="0" />
      <path
         id="path3250"
         d="M 639.73463,479.64464 513.41362,385.13838"
         style="fill:none;stroke:#ffffff;stroke-width:3.59577131px;stroke-linecap:round;stroke-linejoin:round;stroke-opacity:1;stroke-dasharray:none"
         inkscape:connector-curvature="0" />
      <path
         id="path3252"
         d="m 618.47268,532.87769 42.52391,0 c 7.89506,0 14.22674,-6.33169 14.22674,-14.22675 0,0 0,0 0,0 l 0,-24.77955 c 0,-7.8169 -6.33168,-14.22675 -14.22674,-14.22675 l -42.52391,0 c -7.81689,0 -14.14858,6.40985 -14.14858,14.22675 l 0,24.77955 c 0,7.89506 6.33169,14.22675 14.14858,14.22675 z"
         style="fill:#595959;fill-opacity:1;fill-rule:evenodd;stroke:none"
         inkscape:connector-curvature="0" />
      <path
         id="path3254"
         d="m 618.47268,532.87769 42.52391,0 c 7.89506,0 14.22674,-6.33169 14.22674,-14.22675 0,0 0,0 0,0 l 0,-24.77955 c 0,-7.8169 -6.33168,-14.22675 -14.22674,-14.22675 l -42.52391,0 c -7.81689,0 -14.14858,6.40985 -14.14858,14.22675 l 0,24.77955 c 0,7.89506 6.33169,14.22675 14.14858,14.22675 z"
         style="fill:none;stroke:#ffffff;stroke-width:2.0323925px;stroke-linecap:round;stroke-linejoin:round;stroke-opacity:1;stroke-dasharray:none"
         inkscape:connector-curvature="0" />
      <path
         id="path3256"
         d="M 736.66412,468.46648 520.52699,373.33487"
         style="fill:none;stroke:#ffffff;stroke-width:3.59577131px;stroke-linecap:round;stroke-linejoin:round;stroke-opacity:1;stroke-dasharray:none"
         inkscape:connector-curvature="0" />
      <path
         id="path3258"
         d="m 750.8127,495.04392 42.60208,0 c 7.81689,0 14.14858,-6.33169 14.14858,-14.14858 0,0 0,0 0,0 l 0,-24.85772 c 0,-7.8169 -6.33169,-14.14858 -14.14858,-14.14858 l -42.60208,0 c -7.81689,0 -14.14858,6.33168 -14.14858,14.14858 l 0,0 0,24.85772 c 0,7.81689 6.33169,14.14858 14.14858,14.14858 z"
         style="fill:#595959;fill-opacity:1;fill-rule:evenodd;stroke:none"
         inkscape:connector-curvature="0" />
      <path
         id="path3260"
         d="m 750.8127,495.04392 42.60208,0 c 7.81689,0 14.14858,-6.33169 14.14858,-14.14858 0,0 0,0 0,0 l 0,-24.85772 c 0,-7.8169 -6.33169,-14.14858 -14.14858,-14.14858 l -42.60208,0 c -7.81689,0 -14.14858,6.33168 -14.14858,14.14858 l 0,0 0,24.85772 c 0,7.81689 6.33169,14.14858 14.14858,14.14858 z"
         style="fill:none;stroke:#ffffff;stroke-width:2.0323925px;stroke-linecap:round;stroke-linejoin:round;stroke-opacity:1;stroke-dasharray:none"
         inkscape:connector-curvature="0" />
      <path
         id="path3262"
         d="M 136.32664,468.46648 338.54969,379.43205"
         style="fill:none;stroke:#ffffff;stroke-width:3.59577131px;stroke-linecap:round;stroke-linejoin:round;stroke-opacity:1;stroke-dasharray:none"
         inkscape:connector-curvature="0" />
      <path
         id="path3264"
         d="m 79.575985,495.04392 42.602075,0 c 7.81689,0 14.14858,-6.33169 14.14858,-14.14858 0,0 0,0 0,0 l 0,0 0,-24.85772 c 0,-7.8169 -6.33169,-14.14858 -14.14858,-14.14858 l -42.602075,0 c -7.816895,0 -14.148579,6.33168 -14.148579,14.14858 l 0,0 0,24.85772 c 0,7.81689 6.331684,14.14858 14.148579,14.14858 z"
         style="fill:#595959;fill-opacity:1;fill-rule:evenodd;stroke:none"
         inkscape:connector-curvature="0" />
      <path
         id="path3266"
         d="m 79.575985,495.04392 42.602075,0 c 7.81689,0 14.14858,-6.33169 14.14858,-14.14858 0,0 0,0 0,0 l 0,0 0,-24.85772 c 0,-7.8169 -6.33169,-14.14858 -14.14858,-14.14858 l -42.602075,0 c -7.816895,0 -14.148579,6.33168 -14.148579,14.14858 l 0,0 0,24.85772 c 0,7.81689 6.331684,14.14858 14.148579,14.14858 z"
         style="fill:none;stroke:#ffffff;stroke-width:2.0323925px;stroke-linecap:round;stroke-linejoin:round;stroke-opacity:1;stroke-dasharray:none"
         inkscape:connector-curvature="0" />
      <path
         id="path3268"
         d="m 403.42992,465.41789 6.01901,-66.13093"
         style="fill:none;stroke:#ffffff;stroke-width:3.59577131px;stroke-linecap:round;stroke-linejoin:round;stroke-opacity:1;stroke-dasharray:none"
         inkscape:connector-curvature="0" />
      <path
         id="path3270"
         d="m 382.16796,518.65094 42.52391,0 c 7.81689,0 14.14858,-6.40985 14.14858,-14.22675 0,0 0,0 0,0 l 0,-24.77955 c 0,-7.89507 -6.33169,-14.22675 -14.14858,-14.22675 l 0,0 -42.52391,0 c -7.89506,0 -14.22674,6.33168 -14.22674,14.22675 l 0,24.77955 c 0,7.8169 6.33168,14.22675 14.22674,14.22675 z"
         style="fill:#595959;fill-opacity:1;fill-rule:evenodd;stroke:none"
         inkscape:connector-curvature="0" />
      <path
         id="path3272"
         d="m 382.16796,518.65094 42.52391,0 c 7.81689,0 14.14858,-6.40985 14.14858,-14.22675 0,0 0,0 0,0 l 0,-24.77955 c 0,-7.89507 -6.33169,-14.22675 -14.14858,-14.22675 l 0,0 -42.52391,0 c -7.89506,0 -14.22674,6.33168 -14.22674,14.22675 l 0,24.77955 c 0,7.8169 6.33168,14.22675 14.22674,14.22675 z"
         style="fill:none;stroke:#ffffff;stroke-width:2.0323925px;stroke-linecap:round;stroke-linejoin:round;stroke-opacity:1;stroke-dasharray:none"
         inkscape:connector-curvature="0" />
      <path
         id="path3274"
         d="m 312.51944,154.69634 69.33585,92.6302"
         style="fill:none;stroke:#ffffff;stroke-width:3.59577131px;stroke-linecap:round;stroke-linejoin:round;stroke-opacity:1;stroke-dasharray:none"
         inkscape:connector-curvature="0" />
      <path
         id="path3276"
         d="m 291.25748,154.69634 42.52391,0 c 7.89506,0 14.22675,-6.33169 14.22675,-14.14858 0,0 0,0 0,0 l 0,0 0,-24.85772 c 0,-7.8169 -6.33169,-14.14858 -14.22675,-14.14858 l -42.52391,0 c -7.81689,0 -14.14858,6.33168 -14.14858,14.14858 l 0,0 0,24.85772 c 0,7.81689 6.33169,14.14858 14.14858,14.14858 z"
         style="fill:#595959;fill-opacity:1;fill-rule:evenodd;stroke:none"
         inkscape:connector-curvature="0" />
      <path
         id="path3278"
         d="m 291.25748,154.69634 42.52391,0 c 7.89506,0 14.22675,-6.33169 14.22675,-14.14858 0,0 0,0 0,0 l 0,0 0,-24.85772 c 0,-7.8169 -6.33169,-14.14858 -14.22675,-14.14858 l -42.52391,0 c -7.81689,0 -14.14858,6.33168 -14.14858,14.14858 l 0,0 0,24.85772 c 0,7.81689 6.33169,14.14858 14.14858,14.14858 z"
         style="fill:none;stroke:#ffffff;stroke-width:2.0323925px;stroke-linecap:round;stroke-linejoin:round;stroke-opacity:1;stroke-dasharray:none"
         inkscape:connector-curvature="0" />
      <path
         id="path3280"
         d="M 230.83289,383.3405 334.09406,356.76306"
         style="fill:none;stroke:#ffffff;stroke-width:3.59577131px;stroke-linecap:round;stroke-linejoin:round;stroke-opacity:1;stroke-dasharray:none"
         inkscape:connector-curvature="0" />
      <path
         id="path3282"
         d="m 174.16041,409.91794 42.5239,0 c 7.8169,0 14.14858,-6.33168 14.14858,-14.14858 0,0 0,0 0,0 l 0,-24.77955 c 0,-7.89507 -6.33168,-14.22675 -14.14858,-14.22675 l -42.5239,0 c -7.8169,0 -14.22675,6.33168 -14.22675,14.22675 l 0,0 0,24.77955 c 0,7.8169 6.40985,14.14858 14.22675,14.14858 z"
         style="fill:#595959;fill-opacity:1;fill-rule:evenodd;stroke:none"
         inkscape:connector-curvature="0" />
      <path
         id="path3284"
         d="m 174.16041,409.91794 42.5239,0 c 7.8169,0 14.14858,-6.33168 14.14858,-14.14858 0,0 0,0 0,0 l 0,-24.77955 c 0,-7.89507 -6.33168,-14.22675 -14.14858,-14.22675 l -42.5239,0 c -7.8169,0 -14.22675,6.33168 -14.22675,14.22675 l 0,0 0,24.77955 c 0,7.8169 6.40985,14.14858 14.22675,14.14858 z"
         style="fill:none;stroke:#ffffff;stroke-width:2.0323925px;stroke-linecap:round;stroke-linejoin:round;stroke-opacity:1;stroke-dasharray:none"
         inkscape:connector-curvature="0" />
      <path
         id="path3286"
         d="m 505.04954,102.71399 25.87392,0 c 5.23732,0 9.45845,-4.221121 9.45845,-9.45844 0,0 0,0 0,0 l 0,-14.695762 c 0,-5.237319 -4.22113,-9.458442 -9.45845,-9.458442 l -25.87392,0 c -5.23732,0 -9.45844,4.221123 -9.45844,9.458442 l 0,0 0,14.695762 c 0,5.237319 4.22112,9.45844 9.45844,9.45844 z"
         style="fill:#595959;fill-opacity:1;fill-rule:evenodd;stroke:none"
         inkscape:connector-curvature="0" />
      <path
         id="path3288"
         d="m 505.04954,102.71399 25.87392,0 c 5.23732,0 9.45845,-4.221121 9.45845,-9.45844 0,0 0,0 0,0 l 0,-14.695762 c 0,-5.237319 -4.22113,-9.458442 -9.45845,-9.458442 l -25.87392,0 c -5.23732,0 -9.45844,4.221123 -9.45844,9.458442 l 0,0 0,14.695762 c 0,5.237319 4.22112,9.45844 9.45844,9.45844 z"
         style="fill:none;stroke:#ffffff;stroke-width:2.0323925px;stroke-linecap:round;stroke-linejoin:round;stroke-opacity:1;stroke-dasharray:none"
         inkscape:connector-curvature="0" />
      <path
         id="path3290"
         d="M 518.02559,102.71399 456.74114,247.32654"
         style="fill:none;stroke:#ffffff;stroke-width:2.0323925px;stroke-linecap:round;stroke-linejoin:round;stroke-opacity:1;stroke-dasharray:none"
         inkscape:connector-curvature="0" />
      <path
         id="path3292"
         d="m 580.63891,36.504897 25.95209,0 c 5.23732,0 9.45844,-4.221123 9.45844,-9.458443 0,0 0,0 0,0 l 0,0 0,-14.695761 c 0,-5.2373191 -4.22112,-9.4584421 -9.45844,-9.4584421 l 0,0 -25.95209,0 c -5.15915,0 -9.45844,4.221123 -9.45844,9.4584421 l 0,0 0,14.695761 c 0,5.23732 4.29929,9.458443 9.45844,9.458443 z"
         style="fill:#595959;fill-opacity:1;fill-rule:evenodd;stroke:none"
         inkscape:connector-curvature="0" />
      <path
         id="path3294"
         d="m 580.63891,36.504897 25.95209,0 c 5.23732,0 9.45844,-4.221123 9.45844,-9.458443 0,0 0,0 0,0 l 0,0 0,-14.695761 c 0,-5.2373191 -4.22112,-9.4584421 -9.45844,-9.4584421 l 0,0 -25.95209,0 c -5.15915,0 -9.45844,4.221123 -9.45844,9.4584421 l 0,0 0,14.695761 c 0,5.23732 4.29929,9.458443 9.45844,9.458443 z"
         style="fill:none;stroke:#ffffff;stroke-width:2.0323925px;stroke-linecap:round;stroke-linejoin:round;stroke-opacity:1;stroke-dasharray:none"
         inkscape:connector-curvature="0" />
      <path
         id="path3296"
         d="M 593.61496,36.504897 466.19958,247.32654"
         style="fill:none;stroke:#ffffff;stroke-width:2.0323925px;stroke-linecap:round;stroke-linejoin:round;stroke-opacity:1;stroke-dasharray:none"
         inkscape:connector-curvature="0" />
      <path
         id="path3298"
         d="m 314.8645,36.504897 25.95209,0 c 5.23732,0 9.45845,-4.221123 9.45845,-9.458443 0,0 0,0 0,0 l 0,0 0,-14.695761 c 0,-5.2373191 -4.22113,-9.4584421 -9.45845,-9.4584421 l 0,0 -25.95209,0 c -5.15915,0 -9.38027,4.221123 -9.38027,9.4584421 l 0,0 0,14.695761 c 0,5.23732 4.22112,9.458443 9.38027,9.458443 z"
         style="fill:#595959;fill-opacity:1;fill-rule:evenodd;stroke:none"
         inkscape:connector-curvature="0" />
      <path
         id="path3300"
         d="m 314.8645,36.504897 25.95209,0 c 5.23732,0 9.45845,-4.221123 9.45845,-9.458443 0,0 0,0 0,0 l 0,0 0,-14.695761 c 0,-5.2373191 -4.22113,-9.4584421 -9.45845,-9.4584421 l 0,0 -25.95209,0 c -5.15915,0 -9.38027,4.221123 -9.38027,9.4584421 l 0,0 0,14.695761 c 0,5.23732 4.22112,9.458443 9.38027,9.458443 z"
         style="fill:none;stroke:#ffffff;stroke-width:2.0323925px;stroke-linecap:round;stroke-linejoin:round;stroke-opacity:1;stroke-dasharray:none"
         inkscape:connector-curvature="0" />
      <path
         id="path3302"
         d="M 327.84055,36.504897 409.44893,247.32654"
         style="fill:none;stroke:#ffffff;stroke-width:2.0323925px;stroke-linecap:round;stroke-linejoin:round;stroke-opacity:1;stroke-dasharray:none"
         inkscape:connector-curvature="0" />
      <path
         id="path3304"
         d="m 741.35426,76.371058 25.95209,0 c 5.23732,0 9.45844,-4.221123 9.45844,-9.458442 0,0 0,0 0,0 l 0,0 0,-14.695762 c 0,-5.237319 -4.22112,-9.458442 -9.45844,-9.458442 l -25.95209,0 c -5.15915,0 -9.38027,4.221123 -9.38027,9.458442 l 0,0 0,14.695762 c 0,5.237319 4.22112,9.458442 9.38027,9.458442 z"
         style="fill:#595959;fill-opacity:1;fill-rule:evenodd;stroke:none"
         inkscape:connector-curvature="0" />
      <path
         id="path3306"
         d="m 741.35426,76.371058 25.95209,0 c 5.23732,0 9.45844,-4.221123 9.45844,-9.458442 0,0 0,0 0,0 l 0,0 0,-14.695762 c 0,-5.237319 -4.22112,-9.458442 -9.45844,-9.458442 l -25.95209,0 c -5.15915,0 -9.38027,4.221123 -9.38027,9.458442 l 0,0 0,14.695762 c 0,5.237319 4.22112,9.458442 9.38027,9.458442 z"
         style="fill:none;stroke:#ffffff;stroke-width:2.0323925px;stroke-linecap:round;stroke-linejoin:round;stroke-opacity:1;stroke-dasharray:none"
         inkscape:connector-curvature="0" />
      <path
         id="path3308"
         d="M 754.33031,76.371058 503.95518,252.79836"
         style="fill:none;stroke:#ffffff;stroke-width:2.0323925px;stroke-linecap:round;stroke-linejoin:round;stroke-opacity:1;stroke-dasharray:none"
         inkscape:connector-curvature="0" />
      <path
         id="path3310"
         d="m 518.72911,187.68363 -43.07109,59.64291"
         style="fill:none;stroke:#ffffff;stroke-width:3.59577131px;stroke-linecap:round;stroke-linejoin:round;stroke-opacity:1;stroke-dasharray:none"
         inkscape:connector-curvature="0" />
      <path
         id="path3312"
         d="m 497.38899,187.68363 42.60207,0 c 7.8169,0 14.14858,-6.33168 14.14858,-14.14858 0,0 0,0 0,0 l 0,0 0,-24.77955 c 0,-7.89506 -6.33168,-14.22675 -14.14858,-14.22675 l -42.60207,0 c -7.8169,0 -14.14858,6.33169 -14.14858,14.22675 l 0,0 0,24.77955 c 0,7.8169 6.33168,14.14858 14.14858,14.14858 z"
         style="fill:#595959;fill-opacity:1;fill-rule:evenodd;stroke:none"
         inkscape:connector-curvature="0" />
      <path
         id="path3314"
         d="m 497.38899,187.68363 42.60207,0 c 7.8169,0 14.14858,-6.33168 14.14858,-14.14858 0,0 0,0 0,0 l 0,0 0,-24.77955 c 0,-7.89506 -6.33168,-14.22675 -14.14858,-14.22675 l -42.60207,0 c -7.8169,0 -14.14858,6.33169 -14.14858,14.22675 l 0,0 0,24.77955 c 0,7.8169 6.33168,14.14858 14.14858,14.14858 z"
         style="fill:none;stroke:#ffffff;stroke-width:2.0323925px;stroke-linecap:round;stroke-linejoin:round;stroke-opacity:1;stroke-dasharray:none"
         inkscape:connector-curvature="0" />
      <path
         id="path3316"
         d="M 0,0"
         clip-path="url(#clipEmfPath1)"
         style="fill:none;stroke:#000000;stroke-width:1px;stroke-linecap:butt;stroke-linejoin:miter;stroke-miterlimit:4;stroke-opacity:1;stroke-dasharray:none"
         inkscape:connector-curvature="0" />
      <path
         id="path3318"
         d="m 387.02251,275.65067 0,85.9581 85.79597,0 0,-85.9581 -85.79597,0 z"
         style="fill:#333333;fill-opacity:1;fill-rule:evenodd;stroke:none"
         inkscape:connector-curvature="0" />
      <path
         id="path3320"
         d="m 387.02251,293.94961 0,8.49258 20.26455,0 13.46279,13.41923 6.19195,-6.19349 -15.90204,-15.906 -24.01725,0.18768 z"
         style="fill:#ffe100;fill-opacity:1;fill-rule:evenodd;stroke:none"
         inkscape:connector-curvature="0" />
      <path
         id="path3322"
         d="m 439.04423,321.86722 -6.09812,6.19349 15.29222,15.4368 24.62706,0 0,-8.58643 -20.78055,0 -13.04061,-13.04386 z"
         style="fill:#ffe100;fill-opacity:1;fill-rule:evenodd;stroke:none"
         inkscape:connector-curvature="0" />
      <path
         id="path3324"
         d="m 448.84815,293.76193 -40.81055,41.14915 -21.01509,0 0,8.68027 24.53324,0 41.13891,-41.14916 20.17073,0 0,-8.68026 -24.01724,0 z"
         style="fill:#ffe100;fill-opacity:1;fill-rule:evenodd;stroke:none"
         inkscape:connector-curvature="0" />
      <path
         id="path3326"
         d="m 488.90815,396.14215 c 17.2624,0 31.24118,-13.93535 31.24118,-31.20204 l 0,0 0,-83.56516 c 0,-17.26669 -13.97878,-31.3428 -31.24118,-31.3428 l 0,0 -120.13311,0 c -17.26239,0 -31.19427,14.07611 -31.19427,31.3428 l 0,0 0,83.56516 c 0,17.26669 13.93188,31.20204 31.19427,31.20204 l 0,0 120.13311,0 z"
         style="fill:none;stroke:#ffe100;stroke-width:4.7377758px;stroke-linecap:round;stroke-linejoin:round;stroke-opacity:1;stroke-dasharray:none"
         inkscape:connector-curvature="0" />
    </g>
  </g>
</svg>
