<?xml version="1.0" encoding="UTF-8" standalone="no"?>
<svg
   xmlns:dc="http://purl.org/dc/elements/1.1/"
   xmlns:cc="http://creativecommons.org/ns#"
   xmlns:rdf="http://www.w3.org/1999/02/22-rdf-syntax-ns#"
   xmlns:svg="http://www.w3.org/2000/svg"
   xmlns="http://www.w3.org/2000/svg"
   xmlns:sodipodi="http://sodipodi.sourceforge.net/DTD/sodipodi-0.dtd"
   xmlns:inkscape="http://www.inkscape.org/namespaces/inkscape"
   version="1.1"
   viewBox="0 0 509.72 468.09"
   id="svg2"
   inkscape:version="0.48.5 r10040"
   width="100%"
   height="100%"
   sodipodi:docname="pubsub_publish.svg">
  <metadata
     id="metadata260">
    <rdf:RDF>
      <cc:Work
         rdf:about="">
        <dc:format>image/svg+xml</dc:format>
        <dc:type
           rdf:resource="http://purl.org/dc/dcmitype/StillImage" />
      </cc:Work>
    </rdf:RDF>
  </metadata>
  <defs
     id="defs258" />
  <sodipodi:namedview
     pagecolor="#ffffff"
     bordercolor="#666666"
     borderopacity="1"
     objecttolerance="10"
     gridtolerance="10"
     guidetolerance="10"
     inkscape:pageopacity="0"
     inkscape:pageshadow="2"
     inkscape:window-width="1618"
     inkscape:window-height="1028"
     id="namedview256"
     showgrid="false"
     inkscape:zoom="0.71301331"
     inkscape:cx="220.97203"
     inkscape:cy="133.44646"
     inkscape:window-x="1042"
     inkscape:window-y="-8"
     inkscape:window-maximized="1"
     inkscape:current-layer="g4" />
  <g
     transform="translate(32.011 -206.88)"
     id="g4">
    <path
       d="m88.965 668.93c13.04 0 23.582-10.542 23.582-23.582v-63.172c0-13.04-10.542-23.582-23.582-23.582h-90.737c-13.04 0-23.582 10.542-23.582 23.582v63.172c0 13.04 10.542 23.582 23.582 23.582h90.737z"
       fill-rule="evenodd"
       fill="#595959"
       id="path6"
       style="stroke:none" />
    <path
       stroke-linejoin="round"
       d="m88.965 668.93c13.04 0 23.582-10.542 23.582-23.582v0-63.172c0-13.04-10.542-23.582-23.582-23.582v0h-90.737c-13.04 0-23.582 10.542-23.582 23.582v0 63.172c0 13.04 10.542 23.582 23.582 23.582v0h90.737z"
       stroke="#000"
       stroke-linecap="round"
       stroke-width="3.592px"
       fill="none"
       id="path8"
       style="stroke:none" />
    <g
       fill="#fff"
       id="g10">
      <path
         d="m23.338 607.24 6.5257-16.992h2.4225l6.9546 16.992h-2.5616l-1.9821-5.1464h-7.1053l-1.8661 5.1464zm4.903-6.9778h5.7607l-1.7734-4.7059c-0.54092-1.4295-0.94274-2.6041-1.2055-3.5236-0.21637 1.0896-0.5216 2.1714-0.91569 3.2455z"
         id="path12" />
      <path
         d="m40.794 611.96v-17.027h1.9009v1.5996c0.44818-0.62591 0.95432-1.0953 1.5184-1.4083 0.56409-0.31294 1.248-0.46942 2.0516-0.46943 1.0509 0.00001 1.9782 0.27047 2.7818 0.81137 0.80363 0.54092 1.4102 1.304 1.8198 2.2892 0.40954 0.98524 0.61431 2.0651 0.61432 3.2397-0.000012 1.2596-0.22604 2.3935-0.67807 3.402-0.45206 1.0084-1.1089 1.7812-1.9705 2.3182-0.8616 0.53704-1.7676 0.80557-2.7181 0.80557-0.69546 0-1.3194-0.14682-1.8719-0.44046-0.55251-0.29364-1.0065-0.66455-1.3619-1.1127v5.9925zm1.8893-10.803c-0.000003 1.5841 0.32068 2.7548 0.96205 3.5121 0.64136 0.75728 1.418 1.1359 2.3298 1.1359 0.92727 0.00001 1.7213-0.39216 2.3819-1.1765 0.66068-0.78432 0.99102-1.9994 0.99103-3.6454-0.00001-1.5686-0.32262-2.7432-0.96785-3.5237-0.64524-0.78044-1.416-1.1707-2.3124-1.1707-0.88865 0.00001-1.6749 0.41535-2.3588 1.246-0.68387 0.83069-1.0258 2.0381-1.0258 3.6222z"
         id="path14" />
      <path
         d="m54.008 611.96v-17.027h1.9009v1.5996c0.44818-0.62591 0.95432-1.0953 1.5184-1.4083 0.56409-0.31294 1.248-0.46942 2.0516-0.46943 1.0509 0.00001 1.9782 0.27047 2.7818 0.81137 0.80363 0.54092 1.4102 1.304 1.8198 2.2892 0.40954 0.98524 0.61431 2.0651 0.61432 3.2397-0.000012 1.2596-0.22604 2.3935-0.67807 3.402-0.45206 1.0084-1.1089 1.7812-1.9705 2.3182-0.8616 0.53704-1.7676 0.80557-2.7181 0.80557-0.69546 0-1.3194-0.14682-1.8719-0.44046-0.55251-0.29364-1.0065-0.66455-1.3619-1.1127v5.9925zm1.8893-10.803c-0.000003 1.5841 0.32068 2.7548 0.96205 3.5121 0.64136 0.75728 1.418 1.1359 2.3298 1.1359 0.92727 0.00001 1.7213-0.39216 2.3819-1.1765 0.66068-0.78432 0.99102-1.9994 0.99103-3.6454-0.00001-1.5686-0.32262-2.7432-0.96785-3.5237-0.64524-0.78044-1.416-1.1707-2.3124-1.1707-0.88865 0.00001-1.6749 0.41535-2.3588 1.246-0.68387 0.83069-1.0258 2.0381-1.0258 3.6222z"
         id="path16" />
    </g>
    <g
       fill="#fff"
       id="g18">
      <path
         d="m-2.6521 628.77 2.2486 0.56795c-0.47138 1.8468-1.3195 3.2551-2.5442 4.2249-1.2248 0.96978-2.722 1.4547-4.4915 1.4547-1.8314 0-3.3208-0.37284-4.4683-1.1185-1.1475-0.74568-2.0207-1.8256-2.6196-3.2397-0.59887-1.4141-0.8983-2.9325-0.8983-4.5552-0.000001-1.7695 0.33807-3.3131 1.0142-4.6306 0.67614-1.3175 1.6382-2.3182 2.8862-3.0021 1.248-0.68385 2.6215-1.0258 4.1206-1.0258 1.7 0.00002 3.1296 0.43275 4.2887 1.2982 1.1591 0.86548 1.9666 2.0825 2.4225 3.6512l-2.2139 0.52159c-0.39411-1.2364-0.96593-2.1366-1.7155-2.7007-0.74956-0.56408-1.6923-0.84613-2.8282-0.84614-1.3059 0.00001-2.3974 0.31297-3.2744 0.93887-0.87706 0.62592-1.4933 1.4663-1.8488 2.521-0.35546 1.0548-0.53319 2.1424-0.53318 3.2629-0.000004 1.445 0.21057 2.7065 0.63171 3.7844 0.42113 1.078 1.076 1.8835 1.9647 2.4167 0.88863 0.53319 1.8507 0.79978 2.8862 0.79978 1.2595 0 2.3259-0.36318 3.1991-1.0896 0.87317-0.72637 1.4643-1.8043 1.7734-3.2339z"
         id="path20" />
      <path
         d="m1.3352 628.57c-8e-7 -2.2796 0.63364-3.968 1.9009-5.0653 1.0586-0.91181 2.3491-1.3677 3.8714-1.3677 1.6923 0.00001 3.0755 0.55445 4.1496 1.6633 1.0741 1.1089 1.6111 2.6408 1.6111 4.5958-0.000012 1.5841-0.23763 2.8301-0.71284 3.7381-0.47524 0.90796-1.1668 1.6131-2.0748 2.1154-0.90797 0.50227-1.899 0.75341-2.9731 0.75341-1.7232 0-3.116-0.5525-4.1785-1.6575s-1.5938-2.6968-1.5938-4.7755zm2.1443 0c-0.0000029 1.5764 0.34386 2.7567 1.0316 3.541 0.68773 0.78432 1.5532 1.1765 2.5964 1.1765 1.0355 0.00001 1.897-0.39409 2.5848-1.1823 0.68772-0.78819 1.0316-1.9898 1.0316-3.6048-0.00001-1.5223-0.34581-2.6756-1.0374-3.4599-0.6916-0.78431-1.5513-1.1765-2.579-1.1765-1.0432 0.00001-1.9087 0.39024-2.5964 1.1707-0.68773 0.78047-1.0316 1.9589-1.0316 3.5352z"
         id="path22" />
      <path
         d="m15.325 634.73v-12.31h1.8661v1.7271c0.38636-0.60272 0.90023-1.0876 1.5416-1.4547 0.64136-0.36704 1.3716-0.55056 2.1907-0.55057 0.91182 0.00001 1.6594 0.18933 2.2429 0.56796 0.5834 0.37865 0.99488 0.90797 1.2344 1.588 0.97363-1.4373 2.2409-2.1559 3.8018-2.1559 1.2209 0.00001 2.1598 0.33808 2.8166 1.0142 0.6568 0.67615 0.98522 1.7174 0.98523 3.1238v8.4498h-2.0748v-7.7544c-0.000016-0.83454-0.06763-1.4353-0.20284-1.8024-0.13524-0.36704-0.38059-0.66261-0.73603-0.88671-0.35547-0.22408-0.77275-0.33613-1.2518-0.33614-0.86547 0.00001-1.5841 0.28785-2.1559 0.86353-0.57183 0.57569-0.85774 1.4972-0.85773 2.7644v7.1516h-2.0864v-7.9978c-0.000009-0.92726-0.17001-1.6227-0.51-2.0864-0.34001-0.46363-0.89638-0.69545-1.6691-0.69546-0.58728 0.00001-1.1301 0.15456-1.6285 0.46364-0.49842 0.3091-0.85967 0.76115-1.0838 1.3561-0.2241 0.59501-0.33614 1.4528-0.33614 2.5732v6.3866z"
         id="path24" />
      <path
         d="m35.123 639.45v-17.027h1.9009v1.5996c0.44818-0.6259 0.95432-1.0953 1.5184-1.4083 0.56409-0.31294 1.248-0.46942 2.0516-0.46943 1.0509 0.00001 1.9782 0.27047 2.7818 0.81137 0.80363 0.54092 1.4102 1.304 1.8198 2.2892 0.40954 0.98525 0.61431 2.0651 0.61432 3.2397-0.000013 1.2596-0.22604 2.3935-0.67807 3.402-0.45206 1.0084-1.1089 1.7812-1.9705 2.3182-0.8616 0.53704-1.7676 0.80557-2.7181 0.80557-0.69546 0-1.3194-0.14682-1.8719-0.44046-0.55251-0.29364-1.0065-0.66455-1.3619-1.1127v5.9925zm1.889-10.81c-0.000004 1.5841 0.32068 2.7548 0.96205 3.5121 0.64136 0.75728 1.418 1.1359 2.3298 1.1359 0.92727 0.00001 1.7213-0.39216 2.3819-1.1765 0.66068-0.78432 0.99102-1.9994 0.99103-3.6454-0.00001-1.5686-0.32262-2.7432-0.96785-3.5237-0.64524-0.78044-1.416-1.1707-2.3124-1.1707-0.88865 0.00001-1.6749 0.41535-2.3588 1.246-0.68387 0.83069-1.0258 2.0381-1.0258 3.6222z"
         id="path26" />
      <path
         d="m47.56 628.57c-0.000001-2.2796 0.63364-3.968 1.9009-5.0653 1.0586-0.91181 2.3491-1.3677 3.8714-1.3677 1.6923 0.00001 3.0755 0.55445 4.1496 1.6633 1.0741 1.1089 1.6111 2.6408 1.6111 4.5958-0.000012 1.5841-0.23763 2.8301-0.71284 3.7381-0.47524 0.90796-1.1668 1.6131-2.0748 2.1154-0.90797 0.50227-1.899 0.75341-2.9731 0.75341-1.7232 0-3.116-0.5525-4.1785-1.6575s-1.5938-2.6968-1.5938-4.7755zm2.1443 0c-0.000003 1.5764 0.34386 2.7567 1.0316 3.541 0.68773 0.78432 1.5532 1.1765 2.5964 1.1765 1.0355 0.00001 1.897-0.39409 2.5848-1.1823 0.68772-0.78819 1.0316-1.9898 1.0316-3.6048-0.00001-1.5223-0.34581-2.6756-1.0374-3.4599-0.6916-0.78431-1.5513-1.1765-2.579-1.1765-1.0432 0.00001-1.9087 0.39024-2.5964 1.1707-0.68773 0.78047-1.0316 1.9589-1.0316 3.5352z"
         id="path28" />
      <path
         d="m61.55 634.73v-12.31h1.8777v1.7502c0.90409-1.3523 2.21-2.0284 3.9177-2.0284 0.74181 0.00001 1.4237 0.13331 2.0458 0.39989 0.62204 0.2666 1.0876 0.61626 1.3967 1.049 0.30908 0.43274 0.52545 0.94661 0.64909 1.5416 0.07726 0.38637 0.1159 1.0625 0.11591 2.0284v7.5689h-2.0864v-7.4878c-0.000009-0.85-0.08115-1.4856-0.24341-1.9067-0.16228-0.42113-0.45012-0.75727-0.86353-1.0084-0.41342-0.25113-0.89831-0.3767-1.4547-0.37671-0.88865 0.00001-1.6556 0.28206-2.3008 0.84614-0.64524 0.5641-0.96785 1.6343-0.96785 3.2107v6.7228z"
         id="path30" />
      <path
         d="m83.191 630.76 2.1559 0.26659c-0.34001 1.2596-0.96979 2.2371-1.8893 2.9325-0.91956 0.69546-2.0941 1.0432-3.5237 1.0432-1.8005 0-3.2281-0.55444-4.2829-1.6633s-1.5822-2.664-1.5822-4.6654c-0.000001-2.0709 0.53318-3.6782 1.5996-4.8218s2.4496-1.7154 4.1496-1.7155c1.6459 0.00001 2.9905 0.56024 4.0337 1.6807s1.5648 2.6968 1.5648 4.7291c-0.000012 0.12364-0.0039 0.3091-0.01159 0.55636h-9.1801c0.07727 1.3523 0.45977 2.3878 1.1475 3.1064 0.68773 0.71865 1.5455 1.078 2.5732 1.078 0.765 0.00001 1.418-0.2009 1.9589-0.60273 0.5409-0.40181 0.96977-1.0432 1.2866-1.9241zm-6.8503-3.373h6.8734c-0.09274-1.0354-0.35547-1.812-0.78819-2.3298-0.66456-0.80363-1.5262-1.2054-2.5848-1.2055-0.95819 0.00001-1.7638 0.3207-2.4167 0.96205-0.65296 0.64138-1.0142 1.4991-1.0838 2.5732z"
         id="path32" />
      <path
         d="m87.978 634.73v-12.31h1.8777v1.7502c0.90409-1.3523 2.21-2.0284 3.9177-2.0284 0.74181 0.00001 1.4237 0.13331 2.0458 0.39989 0.62204 0.2666 1.0876 0.61626 1.3967 1.049 0.30908 0.43274 0.52545 0.94661 0.6491 1.5416 0.07726 0.38637 0.1159 1.0625 0.11591 2.0284v7.5689h-2.0864v-7.4878c-0.00001-0.85-0.08115-1.4856-0.24341-1.9067-0.16228-0.42113-0.45012-0.75727-0.86353-1.0084-0.41342-0.25113-0.89831-0.3767-1.4547-0.37671-0.88865 0.00001-1.6556 0.28206-2.3008 0.84614-0.64524 0.5641-0.96785 1.6343-0.96785 3.2107v6.7228z"
         id="path34" />
      <path
         d="m105.75 632.86 0.30136 1.843c-0.58728 0.12364-1.1127 0.18546-1.5764 0.18546-0.75728 0-1.3446-0.11977-1.7618-0.35932-0.41727-0.23955-0.71091-0.55444-0.88091-0.94467-0.17-0.39022-0.255-1.2112-0.255-2.4631v-7.0821h-1.53v-1.6227h1.53v-3.0484l2.0748-1.2518v4.3002h2.098v1.6227h-2.098v7.198c0 0.59501 0.0367 0.97751 0.11012 1.1475 0.0734 0.17 0.19318 0.30523 0.35932 0.40568 0.16613 0.10046 0.40375 0.15069 0.71284 0.15069 0.23182 0 0.53705-0.0271 0.91569-0.0811z"
         id="path36" />
    </g>
    <path
       d="m 441.23001,510.81 c 13.04,0 23.582,-10.542 23.582,-23.582 v -62.313 c 0,-13.04 -10.542,-23.66 -23.582,-23.66 h -89.721 c -13.04,0 -23.66,10.62 -23.66,23.66 v 62.313 c 0,13.04 10.62,23.582 23.66,23.582 h 89.721 z"
       id="path38"
       style="fill:#595959;fill-rule:evenodd;stroke:none"
       inkscape:connector-curvature="0" />
    <path
       stroke-linejoin="round"
       d="m446.84 510.81c13.04 0 23.582-10.542 23.582-23.582v0-62.313c0-13.04-10.542-23.66-23.582-23.66h-89.721c-13.04 0-23.66 10.62-23.66 23.66v62.313c0 13.04 10.62 23.582 23.66 23.582h89.721z"
       stroke="#000"
       stroke-linecap="round"
       stroke-width="3.592px"
       fill="none"
       id="path40"
       style="stroke:none" />
    <g
       fill="#fff"
       id="g42">
      <path
         d="m380.66 448.57 6.5257-16.992h2.4225l6.9546 16.992h-2.5616l-1.982-5.1464h-7.1053l-1.8662 5.1464zm4.903-6.9778h5.7607l-1.7734-4.7059c-0.54092-1.4295-0.94274-2.6041-1.2055-3.5237-0.21637 1.0896-0.5216 2.1714-0.91569 3.2455z"
         id="path44" />
      <path
         d="m398.12 453.29v-17.027h1.9009v1.5996c0.44818-0.6259 0.95432-1.0953 1.5184-1.4083 0.56409-0.31295 1.248-0.46942 2.0516-0.46944 1.0509 0.00002 1.9782 0.27047 2.7818 0.81137 0.80363 0.54092 1.4102 1.304 1.8198 2.2892 0.40954 0.98524 0.61431 2.0651 0.61432 3.2397-0.00001 1.2596-0.22603 2.3935-0.67807 3.402-0.45206 1.0084-1.1089 1.7811-1.9705 2.3182-0.86161 0.53705-1.7676 0.80557-2.7181 0.80557-0.69546 0-1.3194-0.14682-1.8719-0.44045-0.55251-0.29364-1.0065-0.66455-1.3619-1.1127v5.9925zm1.8893-10.803c-0.00001 1.5841 0.32068 2.7548 0.96205 3.5121 0.64136 0.75728 1.418 1.1359 2.3298 1.1359 0.92727 0 1.7212-0.39216 2.382-1.1765 0.66067-0.78432 0.99102-1.9994 0.99103-3.6454-0.00001-1.5686-0.32263-2.7432-0.96785-3.5236-0.64524-0.78045-1.416-1.1707-2.3124-1.1707-0.88865 0.00001-1.6749 0.41535-2.3588 1.246-0.68387 0.8307-1.0258 2.0381-1.0258 3.6222z"
         id="path46" />
      <path
         d="m411.33 453.29v-17.027h1.9009v1.5996c0.44818-0.6259 0.95432-1.0953 1.5184-1.4083 0.56409-0.31295 1.248-0.46942 2.0516-0.46944 1.0509 0.00002 1.9782 0.27047 2.7818 0.81137 0.80363 0.54092 1.4102 1.304 1.8198 2.2892 0.40954 0.98524 0.61431 2.0651 0.61432 3.2397-0.00001 1.2596-0.22603 2.3935-0.67807 3.402-0.45206 1.0084-1.1089 1.7811-1.9705 2.3182-0.86161 0.53705-1.7676 0.80557-2.7181 0.80557-0.69546 0-1.3194-0.14682-1.8719-0.44045-0.55251-0.29364-1.0065-0.66455-1.3619-1.1127v5.9925zm1.8893-10.803c-0.00001 1.5841 0.32068 2.7548 0.96205 3.5121 0.64136 0.75728 1.418 1.1359 2.3298 1.1359 0.92727 0 1.7212-0.39216 2.382-1.1765 0.66067-0.78432 0.99102-1.9994 0.99103-3.6454-0.00001-1.5686-0.32263-2.7432-0.96785-3.5236-0.64524-0.78045-1.416-1.1707-2.3124-1.1707-0.88865 0.00001-1.6749 0.41535-2.3588 1.246-0.68387 0.8307-1.0258 2.0381-1.0258 3.6222z"
         id="path48" />
    </g>
    <g
       fill="#fff"
       id="g50">
      <path
         d="m355.92 471.35 2.2486 0.56796c-0.47138 1.8468-1.3194 3.2551-2.5442 4.2249-1.2248 0.96978-2.722 1.4547-4.4915 1.4547-1.8314 0-3.3208-0.37284-4.4683-1.1185-1.1475-0.74569-2.0207-1.8256-2.6196-3.2397-0.59887-1.4141-0.8983-2.9325-0.8983-4.5552 0-1.7696 0.33807-3.3131 1.0142-4.6306 0.67614-1.3175 1.6382-2.3182 2.8862-3.0021 1.248-0.68385 2.6215-1.0258 4.1206-1.0258 1.7 0.00002 3.1296 0.43275 4.2887 1.2982 1.1591 0.86547 1.9666 2.0825 2.4225 3.6512l-2.2139 0.5216c-0.39411-1.2364-0.96593-2.1366-1.7155-2.7007-0.74957-0.56408-1.6923-0.84612-2.8282-0.84614-1.3059 0.00002-2.3974 0.31297-3.2744 0.93887-0.87706 0.62593-1.4933 1.4663-1.8488 2.521-0.35546 1.0548-0.53319 2.1424-0.53319 3.2629 0 1.445 0.21057 2.7065 0.63171 3.7844 0.42114 1.078 1.076 1.8835 1.9647 2.4167 0.88864 0.53318 1.8507 0.79977 2.8862 0.79977 1.2596 0 2.3259-0.36318 3.1991-1.0896 0.87318-0.72636 1.4643-1.8043 1.7734-3.2339z"
         id="path52" />
      <path
         d="m359.91 471.15c0-2.2796 0.63363-3.968 1.9009-5.0652 1.0586-0.91181 2.3491-1.3677 3.8714-1.3677 1.6923 0.00002 3.0755 0.55445 4.1496 1.6633 1.0741 1.1089 1.6111 2.6408 1.6111 4.5958-0.00001 1.5841-0.23762 2.8301-0.71284 3.7381-0.47524 0.90796-1.1668 1.6131-2.0748 2.1154-0.90796 0.50228-1.899 0.75341-2.9731 0.75341-1.7232 0-3.116-0.5525-4.1786-1.6575-1.0625-1.105-1.5938-2.6968-1.5938-4.7755zm2.1443 0c-0.00001 1.5764 0.34386 2.7567 1.0316 3.541 0.68773 0.78432 1.5532 1.1765 2.5964 1.1765 1.0354 0 1.897-0.39409 2.5848-1.1823 0.68772-0.78818 1.0316-1.9898 1.0316-3.6048-0.00001-1.5223-0.3458-2.6756-1.0374-3.4599-0.6916-0.78431-1.5513-1.1765-2.579-1.1765-1.0432 0.00001-1.9086 0.39024-2.5964 1.1707-0.68773 0.78046-1.0316 1.9589-1.0316 3.5352z"
         id="path54" />
      <path
         d="m373.9 477.31v-12.31h1.8662v1.727c0.38636-0.60272 0.90022-1.0876 1.5416-1.4547 0.64136-0.36703 1.3716-0.55055 2.1907-0.55057 0.91181 0.00002 1.6594 0.18934 2.2428 0.56796 0.58341 0.37865 0.99488 0.90797 1.2344 1.588 0.97363-1.4373 2.2409-2.1559 3.8018-2.1559 1.2209 0.00002 2.1598 0.33809 2.8166 1.0142 0.6568 0.67615 0.98521 1.7174 0.98523 3.1238v8.4498h-2.0748v-7.7544c-0.00002-0.83454-0.0676-1.4353-0.20285-1.8024-0.13524-0.36703-0.38058-0.6626-0.73602-0.88671-0.35547-0.22408-0.77275-0.33612-1.2518-0.33613-0.86547 0.00001-1.5841 0.28785-2.1559 0.86352-0.57183 0.5757-0.85774 1.4972-0.85773 2.7644v7.1516h-2.0864v-7.9978c-0.00001-0.92727-0.17001-1.6227-0.51-2.0864-0.34001-0.46362-0.89637-0.69544-1.6691-0.69545-0.58728 0.00001-1.1301 0.15455-1.6285 0.46363-0.49842 0.30911-0.85967 0.76115-1.0838 1.3562-0.22409 0.59501-0.33614 1.4527-0.33613 2.5732v6.3866z"
         id="path56" />
      <path
         d="m393.7 482.02v-17.027h1.9009v1.5996c0.44818-0.6259 0.95432-1.0953 1.5184-1.4083 0.56409-0.31295 1.248-0.46942 2.0516-0.46944 1.0509 0.00002 1.9782 0.27047 2.7818 0.81137 0.80363 0.54092 1.4102 1.304 1.8198 2.2892 0.40953 0.98524 0.61431 2.0651 0.61432 3.2397-0.00001 1.2596-0.22604 2.3935-0.67807 3.402-0.45206 1.0084-1.1089 1.7811-1.9705 2.3182-0.8616 0.53705-1.7676 0.80557-2.7181 0.80557-0.69547 0-1.3194-0.14682-1.872-0.44045-0.5525-0.29364-1.0065-0.66455-1.3619-1.1127v5.9925zm1.8893-10.803c0 1.5841 0.32068 2.7548 0.96205 3.5121 0.64136 0.75728 1.418 1.1359 2.3298 1.1359 0.92727 0 1.7212-0.39216 2.3819-1.1765 0.66068-0.78432 0.99102-1.9994 0.99103-3.6454-0.00001-1.5686-0.32263-2.7432-0.96785-3.5236-0.64524-0.78045-1.416-1.1707-2.3124-1.1707-0.88864 0.00001-1.6749 0.41535-2.3588 1.246-0.68387 0.8307-1.0258 2.0381-1.0258 3.6222z"
         id="path58" />
      <path
         d="m406.13 471.15c0-2.2796 0.63363-3.968 1.9009-5.0652 1.0586-0.91181 2.3491-1.3677 3.8714-1.3677 1.6923 0.00002 3.0755 0.55445 4.1496 1.6633 1.0741 1.1089 1.6111 2.6408 1.6111 4.5958-0.00001 1.5841-0.23762 2.8301-0.71284 3.7381-0.47524 0.90796-1.1668 1.6131-2.0748 2.1154-0.90797 0.50228-1.899 0.75341-2.9731 0.75341-1.7232 0-3.116-0.5525-4.1786-1.6575-1.0625-1.105-1.5938-2.6968-1.5938-4.7755zm2.1443 0c-0.00001 1.5764 0.34386 2.7567 1.0316 3.541 0.68773 0.78432 1.5532 1.1765 2.5964 1.1765 1.0354 0 1.897-0.39409 2.5848-1.1823 0.68772-0.78818 1.0316-1.9898 1.0316-3.6048-0.00001-1.5223-0.3458-2.6756-1.0374-3.4599-0.6916-0.78431-1.5513-1.1765-2.579-1.1765-1.0432 0.00001-1.9086 0.39024-2.5964 1.1707-0.68773 0.78046-1.0316 1.9589-1.0316 3.5352z"
         id="path60" />
      <path
         d="m420.12 477.31v-12.31h1.8777v1.7502c0.90409-1.3523 2.21-2.0284 3.9177-2.0284 0.74182 0.00002 1.4238 0.13331 2.0458 0.39989 0.62204 0.26661 1.0876 0.61627 1.3967 1.049 0.30908 0.43275 0.52545 0.94661 0.6491 1.5416 0.0773 0.38638 0.1159 1.0625 0.11591 2.0284v7.5689h-2.0864v-7.4878c-0.00001-0.84999-0.0811-1.4856-0.24341-1.9067-0.16228-0.42113-0.45012-0.75727-0.86353-1.0084s-0.8983-0.37669-1.4547-0.3767c-0.88865 0.00001-1.6556 0.28205-2.3008 0.84614-0.64524 0.5641-0.96785 1.6343-0.96785 3.2107v6.7228z"
         id="path62" />
      <path
         d="m441.76 473.34 2.1559 0.26659c-0.34001 1.2596-0.96979 2.2371-1.8893 2.9325-0.91956 0.69545-2.0941 1.0432-3.5236 1.0432-1.8005 0-3.2281-0.55443-4.2829-1.6633s-1.5822-2.664-1.5822-4.6654c0-2.0709 0.53318-3.6782 1.5996-4.8218s2.4496-1.7154 4.1496-1.7155c1.6459 0.00002 2.9905 0.56025 4.0337 1.6807 1.0432 1.1205 1.5648 2.6968 1.5648 4.7291-0.00001 0.12364-0.004 0.3091-0.0116 0.55637h-9.18c0.0773 1.3523 0.45977 2.3877 1.1475 3.1064 0.68773 0.71864 1.5455 1.078 2.5732 1.078 0.765 0 1.418-0.20091 1.9589-0.60273 0.54091-0.40182 0.96977-1.0432 1.2866-1.9241zm-6.8503-3.373h6.8734c-0.0927-1.0354-0.35546-1.812-0.78818-2.3298-0.66456-0.80363-1.5262-1.2054-2.5848-1.2055-0.95819 0.00001-1.7638 0.32069-2.4167 0.96205-0.65296 0.64137-1.0142 1.4991-1.0838 2.5732z"
         id="path64" />
      <path
         d="m446.55 477.31v-12.31h1.8777v1.7502c0.90409-1.3523 2.21-2.0284 3.9178-2.0284 0.74181 0.00002 1.4238 0.13331 2.0458 0.39989 0.62204 0.26661 1.0876 0.61627 1.3967 1.049 0.30908 0.43275 0.52544 0.94661 0.64909 1.5416 0.0773 0.38638 0.1159 1.0625 0.11591 2.0284v7.5689h-2.0864v-7.4878c-0.00001-0.84999-0.0811-1.4856-0.24341-1.9067-0.16228-0.42113-0.45012-0.75727-0.86352-1.0084-0.41342-0.25113-0.89831-0.37669-1.4547-0.3767-0.88865 0.00001-1.6556 0.28205-2.3008 0.84614-0.64523 0.5641-0.96785 1.6343-0.96785 3.2107v6.7228z"
         id="path66" />
      <path
         d="m464.32 475.44 0.30136 1.843c-0.58728 0.12363-1.1127 0.18545-1.5764 0.18545-0.75728 0-1.3446-0.11977-1.7618-0.35932-0.41727-0.23954-0.71091-0.55443-0.88091-0.94466s-0.255-1.2113-0.255-2.4631v-7.0821h-1.53v-1.6227h1.53v-3.0484l2.0748-1.2518v4.3002h2.098v1.6227h-2.098v7.198c0 0.595 0.0367 0.9775 0.11012 1.1475 0.0734 0.17001 0.19318 0.30523 0.35932 0.40569 0.16613 0.10045 0.40374 0.15068 0.71284 0.15068 0.23182 0 0.53704-0.027 0.91569-0.0811z"
         id="path68" />
    </g>
    <path
       d="m449.18 321.91c13.04 0 23.582-10.542 23.582-23.582v-62.313c0-13.04-10.542-23.582-23.582-23.582h-89.721c-13.04 0-23.582 10.542-23.582 23.582v62.313c0 13.04 10.542 23.582 23.582 23.582h89.721z"
       fill-rule="evenodd"
       fill="#595959"
       id="path108"
       style="stroke:none" />
    <path
       stroke-linejoin="round"
       d="m449.18 321.91c13.04 0 23.582-10.542 23.582-23.582v0-62.313c0-13.04-10.542-23.582-23.582-23.582v0h-89.721c-13.04 0-23.582 10.542-23.582 23.582v0 62.313c0 13.04 10.542 23.582 23.582 23.582v0h89.721z"
       stroke="#000"
       stroke-linecap="round"
       stroke-width="3.592px"
       fill="none"
       id="path110"
       style="stroke:none" />
    <g
       fill="#fff"
       id="g112">
      <path
         d="m383.16 259.91 6.5257-16.992h2.4225l6.9546 16.992h-2.5616l-1.982-5.1464h-7.1053l-1.8662 5.1464zm4.903-6.9778h5.7607l-1.7734-4.7059c-0.54092-1.4295-0.94274-2.6041-1.2055-3.5236-0.21638 1.0896-0.5216 2.1714-0.91569 3.2455z"
         id="path114" />
      <path
         d="m400.62 264.63v-17.027h1.9009v1.5996c0.44818-0.62591 0.95431-1.0953 1.5184-1.4083 0.56409-0.31294 1.248-0.46942 2.0516-0.46943 1.0509 0.00001 1.9782 0.27047 2.7818 0.81137 0.80363 0.54092 1.4102 1.304 1.8198 2.2892 0.40954 0.98524 0.61431 2.0651 0.61432 3.2397-0.00001 1.2596-0.22603 2.3935-0.67807 3.402-0.45206 1.0084-1.1089 1.7812-1.9705 2.3182-0.86161 0.53704-1.7676 0.80557-2.7181 0.80557-0.69546 0-1.3194-0.14682-1.8719-0.44046-0.55251-0.29364-1.0065-0.66455-1.3619-1.1127v5.9925zm1.8893-10.803c0 1.5841 0.32068 2.7548 0.96206 3.5121 0.64136 0.75728 1.418 1.1359 2.3298 1.1359 0.92727 0.00001 1.7212-0.39216 2.382-1.1765 0.66067-0.78432 0.99101-1.9994 0.99102-3.6454-0.00001-1.5686-0.32262-2.7432-0.96784-3.5237-0.64524-0.78044-1.416-1.1707-2.3124-1.1707-0.88865 0.00001-1.6749 0.41535-2.3588 1.246-0.68388 0.83069-1.0258 2.0381-1.0258 3.6222z"
         id="path116" />
      <path
         d="m413.83 264.63v-17.027h1.9009v1.5996c0.44818-0.62591 0.95431-1.0953 1.5184-1.4083 0.56409-0.31294 1.248-0.46942 2.0516-0.46943 1.0509 0.00001 1.9782 0.27047 2.7818 0.81137 0.80363 0.54092 1.4102 1.304 1.8198 2.2892 0.40954 0.98524 0.61431 2.0651 0.61432 3.2397-0.00001 1.2596-0.22603 2.3935-0.67807 3.402-0.45206 1.0084-1.1089 1.7812-1.9705 2.3182-0.86161 0.53704-1.7676 0.80557-2.7181 0.80557-0.69546 0-1.3194-0.14682-1.8719-0.44046-0.55251-0.29364-1.0065-0.66455-1.3619-1.1127v5.9925zm1.8893-10.803c0 1.5841 0.32068 2.7548 0.96206 3.5121 0.64136 0.75728 1.418 1.1359 2.3298 1.1359 0.92727 0.00001 1.7212-0.39216 2.382-1.1765 0.66067-0.78432 0.99101-1.9994 0.99102-3.6454-0.00001-1.5686-0.32262-2.7432-0.96784-3.5237-0.64524-0.78044-1.416-1.1707-2.3124-1.1707-0.88865 0.00001-1.6749 0.41535-2.3588 1.246-0.68388 0.83069-1.0258 2.0381-1.0258 3.6222z"
         id="path118" />
    </g>
    <g
       fill="#fff"
       id="g120">
      <path
         d="m358.42 282.69 2.2486 0.56795c-0.47138 1.8468-1.3195 3.2551-2.5442 4.2249-1.2248 0.96978-2.722 1.4547-4.4915 1.4547-1.8314 0-3.3208-0.37284-4.4683-1.1185-1.1475-0.74568-2.0207-1.8256-2.6196-3.2397-0.59887-1.4141-0.8983-2.9325-0.8983-4.5552 0-1.7695 0.33807-3.3131 1.0142-4.6306 0.67614-1.3175 1.6382-2.3182 2.8862-3.0021 1.248-0.68385 2.6215-1.0258 4.1206-1.0258 1.7 0.00001 3.1296 0.43274 4.2887 1.2982 1.1591 0.86548 1.9666 2.0825 2.4225 3.6512l-2.2139 0.52159c-0.39411-1.2364-0.96593-2.1366-1.7155-2.7007-0.74956-0.56408-1.6923-0.84613-2.8282-0.84614-1.3059 0.00001-2.3974 0.31297-3.2744 0.93887-0.87706 0.62592-1.4933 1.4663-1.8488 2.521-0.35546 1.0548-0.53319 2.1424-0.53319 3.2629 0 1.445 0.21057 2.7065 0.63171 3.7844 0.42113 1.078 1.076 1.8835 1.9647 2.4167 0.88863 0.53319 1.8507 0.79978 2.8862 0.79978 1.2595 0 2.3259-0.36318 3.1991-1.0896 0.87317-0.72637 1.4643-1.8043 1.7734-3.2339z"
         id="path122" />
      <path
         d="m362.41 282.49c0-2.2796 0.63364-3.968 1.9009-5.0653 1.0586-0.91181 2.3491-1.3677 3.8714-1.3677 1.6923 0.00001 3.0755 0.55445 4.1496 1.6633 1.0741 1.1089 1.6111 2.6408 1.6111 4.5958-0.00001 1.5841-0.23762 2.8301-0.71284 3.7381-0.47524 0.90796-1.1668 1.6131-2.0748 2.1154-0.90796 0.50227-1.899 0.75341-2.9731 0.75341-1.7232 0-3.116-0.5525-4.1786-1.6575-1.0625-1.105-1.5938-2.6968-1.5938-4.7755zm2.1443 0c0 1.5764 0.34387 2.7567 1.0316 3.541 0.68773 0.78433 1.5532 1.1765 2.5964 1.1765 1.0354 0.00001 1.897-0.39409 2.5848-1.1823 0.68772-0.78819 1.0316-1.9898 1.0316-3.6048-0.00001-1.5223-0.3458-2.6756-1.0374-3.4599-0.6916-0.78431-1.5513-1.1765-2.579-1.1765-1.0432 0.00001-1.9086 0.39024-2.5964 1.1707-0.68773 0.78047-1.0316 1.9589-1.0316 3.5352z"
         id="path124" />
      <path
         d="m376.4 288.65v-12.31h1.8662v1.7271c0.38636-0.60272 0.90022-1.0876 1.5416-1.4547 0.64137-0.36703 1.3716-0.55056 2.1907-0.55057 0.91181 0.00001 1.6594 0.18933 2.2428 0.56796 0.5834 0.37865 0.99488 0.90797 1.2344 1.588 0.97363-1.4373 2.2409-2.1559 3.8018-2.1559 1.2209 0.00001 2.1598 0.33808 2.8166 1.0142 0.6568 0.67615 0.98521 1.7174 0.98523 3.1238v8.4498h-2.0748v-7.7544c-0.00001-0.83454-0.0676-1.4353-0.20284-1.8024-0.13524-0.36704-0.38058-0.66261-0.73602-0.88671-0.35548-0.22408-0.77275-0.33613-1.2518-0.33614-0.86547 0.00001-1.5841 0.28785-2.1559 0.86353-0.57183 0.57569-0.85774 1.4972-0.85773 2.7644v7.1516h-2.0864v-7.9978c-0.00001-0.92726-0.17001-1.6227-0.51-2.0864-0.34001-0.46363-0.89638-0.69545-1.6691-0.69546-0.58728 0.00001-1.1301 0.15456-1.6285 0.46364-0.49842 0.3091-0.85967 0.76115-1.0838 1.3561-0.22409 0.59501-0.33614 1.4528-0.33614 2.5732v6.3866z"
         id="path126" />
      <path
         d="m396.2 293.37v-17.027h1.9009v1.5996c0.44818-0.6259 0.95432-1.0953 1.5184-1.4083 0.56408-0.31294 1.248-0.46942 2.0516-0.46943 1.0509 0.00001 1.9782 0.27047 2.7818 0.81137 0.80363 0.54092 1.4102 1.304 1.8198 2.2892 0.40954 0.98525 0.61431 2.0651 0.61433 3.2397-0.00002 1.2596-0.22604 2.3935-0.67808 3.402-0.45205 1.0084-1.1089 1.7812-1.9705 2.3182-0.86161 0.53704-1.7676 0.80557-2.7181 0.80557-0.69547 0-1.3194-0.14682-1.872-0.44046-0.5525-0.29364-1.0065-0.66455-1.3619-1.1127v5.9925zm1.8893-10.803c-0.00001 1.5841 0.32068 2.7548 0.96205 3.5121 0.64136 0.75728 1.418 1.1359 2.3298 1.1359 0.92727 0.00001 1.7213-0.39215 2.382-1.1765 0.66067-0.78432 0.99102-1.9994 0.99103-3.6454-0.00001-1.5686-0.32263-2.7432-0.96785-3.5237-0.64524-0.78044-1.416-1.1707-2.3124-1.1707-0.88865 0.00001-1.6749 0.41535-2.3588 1.246-0.68387 0.83069-1.0258 2.0381-1.0258 3.6222z"
         id="path128" />
      <path
         d="m408.63 282.49c-0.00001-2.2796 0.63363-3.968 1.9009-5.0653 1.0586-0.91181 2.3491-1.3677 3.8714-1.3677 1.6923 0.00001 3.0755 0.55445 4.1496 1.6633 1.0741 1.1089 1.6111 2.6408 1.6111 4.5958-0.00001 1.5841-0.23762 2.8301-0.71284 3.7381-0.47524 0.90796-1.1668 1.6131-2.0748 2.1154-0.90796 0.50227-1.899 0.75341-2.9731 0.75341-1.7232 0-3.116-0.5525-4.1786-1.6575-1.0625-1.105-1.5938-2.6968-1.5938-4.7755zm2.1443 0c0 1.5764 0.34387 2.7567 1.0316 3.541 0.68773 0.78433 1.5532 1.1765 2.5964 1.1765 1.0354 0.00001 1.897-0.39409 2.5848-1.1823 0.68772-0.78819 1.0316-1.9898 1.0316-3.6048-0.00001-1.5223-0.3458-2.6756-1.0374-3.4599-0.6916-0.78431-1.5513-1.1765-2.579-1.1765-1.0432 0.00001-1.9086 0.39024-2.5964 1.1707-0.68773 0.78047-1.0316 1.9589-1.0316 3.5352z"
         id="path130" />
      <path
         d="m422.62 288.65v-12.31h1.8777v1.7502c0.9041-1.3523 2.21-2.0284 3.9178-2.0284 0.74182 0.00001 1.4238 0.13331 2.0458 0.39989 0.62204 0.2666 1.0876 0.61626 1.3967 1.049 0.30908 0.43274 0.52545 0.94661 0.6491 1.5416 0.0773 0.38637 0.11589 1.0625 0.11591 2.0284v7.5689h-2.0864v-7.4878c-0.00001-0.85-0.0811-1.4856-0.24341-1.9067-0.16228-0.42113-0.45012-0.75726-0.86353-1.0084-0.41342-0.25113-0.8983-0.3767-1.4547-0.37671-0.88865 0.00001-1.6556 0.28206-2.3008 0.84614-0.64524 0.5641-0.96785 1.6343-0.96785 3.2107v6.7228z"
         id="path132" />
      <path
         d="m444.26 284.69 2.1559 0.26659c-0.34001 1.2596-0.96979 2.2371-1.8893 2.9325-0.91956 0.69546-2.0941 1.0432-3.5236 1.0432-1.8005 0-3.2281-0.55444-4.2829-1.6633s-1.5822-2.664-1.5822-4.6654c-0.00001-2.0709 0.53318-3.6782 1.5996-4.8218s2.4496-1.7154 4.1496-1.7155c1.6459 0.00001 2.9905 0.56024 4.0337 1.6807s1.5648 2.6968 1.5648 4.7291c-0.00001 0.12364-0.004 0.3091-0.0116 0.55636h-9.18c0.0773 1.3523 0.45977 2.3878 1.1475 3.1064 0.68773 0.71865 1.5455 1.078 2.5732 1.078 0.765 0.00001 1.418-0.2009 1.9589-0.60273 0.54091-0.40181 0.96977-1.0432 1.2866-1.9241zm-6.8503-3.373h6.8734c-0.0927-1.0354-0.35546-1.812-0.78818-2.3298-0.66456-0.80363-1.5262-1.2054-2.5848-1.2055-0.95819 0.00001-1.7638 0.3207-2.4167 0.96205-0.65296 0.64138-1.0142 1.4991-1.0838 2.5732z"
         id="path134" />
      <path
         d="m449.05 288.65v-12.31h1.8777v1.7502c0.90409-1.3523 2.21-2.0284 3.9177-2.0284 0.74182 0.00001 1.4238 0.13331 2.0458 0.39989 0.62204 0.2666 1.0876 0.61626 1.3967 1.049 0.30909 0.43274 0.52545 0.94661 0.6491 1.5416 0.0773 0.38637 0.1159 1.0625 0.11591 2.0284v7.5689h-2.0864v-7.4878c-0.00001-0.85-0.0811-1.4856-0.24341-1.9067-0.16228-0.42113-0.45012-0.75726-0.86352-1.0084-0.41342-0.25113-0.89831-0.3767-1.4547-0.37671-0.88865 0.00001-1.6556 0.28206-2.3008 0.84614-0.64523 0.5641-0.96785 1.6343-0.96785 3.2107v6.7228z"
         id="path136" />
      <path
         d="m466.82 286.78 0.30136 1.843c-0.58728 0.12364-1.1127 0.18546-1.5764 0.18546-0.75728 0-1.3446-0.11977-1.7618-0.35932-0.41727-0.23955-0.71091-0.55444-0.88091-0.94467-0.17-0.39022-0.255-1.2112-0.255-2.4631v-7.0821h-1.53v-1.6227h1.53v-3.0484l2.0748-1.2518v4.3002h2.098v1.6227h-2.098v7.198c0 0.59501 0.0367 0.97751 0.11012 1.1475 0.0734 0.17 0.19317 0.30523 0.35932 0.40568 0.16613 0.10046 0.40374 0.15069 0.71284 0.15069 0.23182 0 0.53704-0.027 0.91569-0.0811z"
         id="path138" />
    </g>
    <path
       d="m 445.19,668.54 c 13.04,0 23.582,-10.542 23.582,-23.582 v -62.313 c 0,-13.04 -10.542,-23.66 -23.582,-23.66 h -89.721 c -13.04,0 -23.66,10.62 -23.66,23.66 v 62.313 c 0,13.04 10.62,23.582 23.66,23.582 h 89.721 z"
       id="path142"
       inkscape:connector-curvature="0"
       style="fill:#595959;fill-rule:evenodd" />
    <path
       d="m 445.19,668.54 c 13.04,0 23.582,-10.542 23.582,-23.582 v 0 -62.313 c 0,-13.04 -10.542,-23.66 -23.582,-23.66 v 0 h -89.721 c -13.04,0 -23.66,10.62 -23.66,23.66 v 0 62.313 c 0,13.04 10.62,23.582 23.66,23.582 v 0 h 89.721 z"
       id="path144"
       style="fill:none;stroke:none"
       inkscape:connector-curvature="0" />
    <g
       id="g146"
       transform="translate(140,0)"
       style="fill:#ffffff">
      <path
         d="m 239.48,607.24 6.5257,-16.992 h 2.4225 l 6.9546,16.992 h -2.5616 l -1.9821,-5.1464 h -7.1053 l -1.8661,5.1464 z m 4.903,-6.9778 h 5.7607 l -1.7734,-4.7059 c -0.54092,-1.4295 -0.94274,-2.6041 -1.2055,-3.5236 -0.21637,1.0896 -0.5216,2.1714 -0.91568,3.2455 z"
         id="path148"
         inkscape:connector-curvature="0" />
      <path
         d="m 256.94,611.96 v -17.027 h 1.9009 v 1.5996 c 0.44818,-0.62591 0.95432,-1.0953 1.5184,-1.4083 0.56409,-0.31294 1.248,-0.46942 2.0516,-0.46943 1.0509,1e-5 1.9782,0.27047 2.7818,0.81137 0.80363,0.54092 1.4102,1.304 1.8198,2.2892 0.40953,0.98524 0.61431,2.0651 0.61432,3.2397 -1e-5,1.2596 -0.22604,2.3935 -0.67807,3.402 -0.45206,1.0084 -1.1089,1.7812 -1.9705,2.3182 -0.8616,0.53704 -1.7676,0.80557 -2.7181,0.80557 -0.69547,0 -1.3194,-0.14682 -1.8719,-0.44046 -0.55251,-0.29364 -1.0065,-0.66455 -1.3619,-1.1127 v 5.9925 z m 1.8893,-10.803 c 0,1.5841 0.32068,2.7548 0.96205,3.5121 0.64136,0.75728 1.418,1.1359 2.3298,1.1359 0.92727,1e-5 1.7212,-0.39216 2.3819,-1.1765 0.66068,-0.78432 0.99102,-1.9994 0.99103,-3.6454 -10e-6,-1.5686 -0.32263,-2.7432 -0.96785,-3.5237 -0.64524,-0.78044 -1.416,-1.1707 -2.3124,-1.1707 -0.88864,1e-5 -1.6749,0.41535 -2.3588,1.246 -0.68387,0.83069 -1.0258,2.0381 -1.0258,3.6222 z"
         id="path150"
         inkscape:connector-curvature="0" />
      <path
         d="m 270.15,611.96 v -17.027 h 1.9009 v 1.5996 c 0.44818,-0.62591 0.95432,-1.0953 1.5184,-1.4083 0.56409,-0.31294 1.248,-0.46942 2.0516,-0.46943 1.0509,1e-5 1.9782,0.27047 2.7818,0.81137 0.80363,0.54092 1.4102,1.304 1.8198,2.2892 0.40953,0.98524 0.61431,2.0651 0.61432,3.2397 -10e-6,1.2596 -0.22604,2.3935 -0.67807,3.402 -0.45206,1.0084 -1.1089,1.7812 -1.9705,2.3182 -0.8616,0.53704 -1.7676,0.80557 -2.7181,0.80557 -0.69547,0 -1.3194,-0.14682 -1.8719,-0.44046 -0.55251,-0.29364 -1.0065,-0.66455 -1.3619,-1.1127 v 5.9925 z m 1.8893,-10.803 c 0,1.5841 0.32068,2.7548 0.96205,3.5121 0.64136,0.75728 1.418,1.1359 2.3298,1.1359 0.92727,1e-5 1.7212,-0.39216 2.3819,-1.1765 0.66068,-0.78432 0.99102,-1.9994 0.99103,-3.6454 -10e-6,-1.5686 -0.32263,-2.7432 -0.96785,-3.5237 -0.64524,-0.78044 -1.416,-1.1707 -2.3124,-1.1707 -0.88864,1e-5 -1.6749,0.41535 -2.3588,1.246 -0.68387,0.83069 -1.0258,2.0381 -1.0258,3.6222 z"
         id="path152"
         inkscape:connector-curvature="0" />
    </g>
    <g
       id="g154"
       transform="translate(140,0)"
       style="fill:#ffffff">
      <path
         d="m 213.49,628.77 2.2486,0.56795 c -0.47138,1.8468 -1.3195,3.2551 -2.5442,4.2249 -1.2248,0.96978 -2.722,1.4547 -4.4915,1.4547 -1.8314,0 -3.3208,-0.37284 -4.4683,-1.1185 -1.1475,-0.74568 -2.0207,-1.8256 -2.6196,-3.2397 -0.59887,-1.4141 -0.8983,-2.9325 -0.8983,-4.5552 0,-1.7695 0.33807,-3.3131 1.0142,-4.6306 0.67614,-1.3175 1.6382,-2.3182 2.8862,-3.0021 1.248,-0.68385 2.6215,-1.0258 4.1206,-1.0258 1.7,2e-5 3.1296,0.43275 4.2887,1.2982 1.1591,0.86548 1.9666,2.0825 2.4225,3.6512 l -2.2139,0.52159 c -0.39411,-1.2364 -0.96593,-2.1366 -1.7155,-2.7007 -0.74956,-0.56408 -1.6923,-0.84613 -2.8282,-0.84614 -1.3059,10e-6 -2.3974,0.31297 -3.2744,0.93887 -0.87706,0.62592 -1.4933,1.4663 -1.8488,2.521 -0.35546,1.0548 -0.53319,2.1424 -0.53319,3.2629 0,1.445 0.21057,2.7065 0.63171,3.7844 0.42114,1.078 1.076,1.8835 1.9647,2.4167 0.88863,0.53319 1.8507,0.79978 2.8862,0.79978 1.2596,0 2.3259,-0.36318 3.1991,-1.0896 0.87317,-0.72637 1.4643,-1.8043 1.7734,-3.2339 z"
         id="path156"
         inkscape:connector-curvature="0" />
      <path
         d="m 217.48,628.57 c -1e-5,-2.2796 0.63363,-3.968 1.9009,-5.0653 1.0586,-0.91181 2.3491,-1.3677 3.8714,-1.3677 1.6923,1e-5 3.0755,0.55445 4.1496,1.6633 1.0741,1.1089 1.6111,2.6408 1.6111,4.5958 -1e-5,1.5841 -0.23762,2.8301 -0.71284,3.7381 -0.47524,0.90796 -1.1668,1.6131 -2.0748,2.1154 -0.90796,0.50227 -1.899,0.75341 -2.9731,0.75341 -1.7232,0 -3.116,-0.5525 -4.1786,-1.6575 -1.0625,-1.105 -1.5938,-2.6968 -1.5938,-4.7755 z m 2.1443,0 c -1e-5,1.5764 0.34386,2.7567 1.0316,3.541 0.68773,0.78432 1.5532,1.1765 2.5964,1.1765 1.0354,10e-6 1.897,-0.39409 2.5848,-1.1823 0.68772,-0.78819 1.0316,-1.9898 1.0316,-3.6048 -1e-5,-1.5223 -0.3458,-2.6756 -1.0374,-3.4599 -0.6916,-0.78431 -1.5513,-1.1765 -2.579,-1.1765 -1.0432,10e-6 -1.9086,0.39024 -2.5964,1.1707 -0.68773,0.78047 -1.0316,1.9589 -1.0316,3.5352 z"
         id="path158"
         inkscape:connector-curvature="0" />
      <path
         d="m 231.47,634.73 v -12.31 h 1.8662 v 1.7271 c 0.38636,-0.60272 0.90022,-1.0876 1.5416,-1.4547 0.64136,-0.36704 1.3716,-0.55056 2.1907,-0.55057 0.91181,10e-6 1.6594,0.18933 2.2428,0.56796 0.5834,0.37865 0.99488,0.90797 1.2344,1.588 0.97363,-1.4373 2.2409,-2.1559 3.8018,-2.1559 1.2209,10e-6 2.1598,0.33808 2.8166,1.0142 0.6568,0.67615 0.98521,1.7174 0.98523,3.1238 v 8.4498 h -2.0748 v -7.7544 c -1e-5,-0.83454 -0.0676,-1.4353 -0.20284,-1.8024 -0.13524,-0.36704 -0.38058,-0.66261 -0.73602,-0.88671 -0.35548,-0.22408 -0.77275,-0.33613 -1.2518,-0.33614 -0.86547,1e-5 -1.5841,0.28785 -2.1559,0.86353 -0.57183,0.57569 -0.85774,1.4972 -0.85773,2.7644 v 7.1516 h -2.0864 v -7.9978 c -1e-5,-0.92726 -0.17001,-1.6227 -0.51,-2.0864 -0.34001,-0.46363 -0.89638,-0.69545 -1.6691,-0.69546 -0.58728,10e-6 -1.1301,0.15456 -1.6285,0.46364 -0.49842,0.3091 -0.85967,0.76115 -1.0838,1.3561 -0.22409,0.59501 -0.33614,1.4528 -0.33614,2.5732 v 6.3866 z"
         id="path160"
         inkscape:connector-curvature="0" />
      <path
         d="m 251.27,639.45 v -17.027 h 1.9009 v 1.5996 c 0.44818,-0.6259 0.95432,-1.0953 1.5184,-1.4083 0.56409,-0.31294 1.248,-0.46942 2.0516,-0.46943 1.0509,10e-6 1.9782,0.27047 2.7818,0.81137 0.80363,0.54092 1.4102,1.304 1.8198,2.2892 0.40953,0.98525 0.6143,2.0651 0.61432,3.2397 -2e-5,1.2596 -0.22604,2.3935 -0.67808,3.402 -0.45205,1.0084 -1.1089,1.7812 -1.9705,2.3182 -0.8616,0.53704 -1.7676,0.80557 -2.7181,0.80557 -0.69547,0 -1.3194,-0.14682 -1.872,-0.44046 -0.5525,-0.29364 -1.0065,-0.66455 -1.3619,-1.1127 v 5.9925 z m 1.8893,-10.803 c 0,1.5841 0.32068,2.7548 0.96205,3.5121 0.64136,0.75728 1.418,1.1359 2.3298,1.1359 0.92727,1e-5 1.7213,-0.39216 2.382,-1.1765 0.66068,-0.78432 0.99102,-1.9994 0.99103,-3.6454 -1e-5,-1.5686 -0.32263,-2.7432 -0.96785,-3.5237 -0.64524,-0.78044 -1.416,-1.1707 -2.3124,-1.1707 -0.88864,1e-5 -1.6749,0.41535 -2.3588,1.246 -0.68387,0.83069 -1.0258,2.0381 -1.0258,3.6222 z"
         id="path162"
         inkscape:connector-curvature="0" />
      <path
         d="m 263.7,628.57 c -10e-6,-2.2796 0.63363,-3.968 1.9009,-5.0653 1.0586,-0.91181 2.3491,-1.3677 3.8714,-1.3677 1.6923,1e-5 3.0755,0.55445 4.1496,1.6633 1.0741,1.1089 1.6111,2.6408 1.6111,4.5958 -1e-5,1.5841 -0.23762,2.8301 -0.71284,3.7381 -0.47524,0.90796 -1.1668,1.6131 -2.0748,2.1154 -0.90796,0.50227 -1.899,0.75341 -2.9731,0.75341 -1.7232,0 -3.116,-0.5525 -4.1786,-1.6575 -1.0625,-1.105 -1.5938,-2.6968 -1.5938,-4.7755 z m 2.1443,0 c -10e-6,1.5764 0.34386,2.7567 1.0316,3.541 0.68773,0.78432 1.5532,1.1765 2.5964,1.1765 1.0354,10e-6 1.897,-0.39409 2.5848,-1.1823 0.68772,-0.78819 1.0316,-1.9898 1.0316,-3.6048 -1e-5,-1.5223 -0.3458,-2.6756 -1.0374,-3.4599 -0.6916,-0.78431 -1.5513,-1.1765 -2.579,-1.1765 -1.0432,10e-6 -1.9086,0.39024 -2.5964,1.1707 -0.68773,0.78047 -1.0316,1.9589 -1.0316,3.5352 z"
         id="path164"
         inkscape:connector-curvature="0" />
      <path
         d="m 277.69,634.73 v -12.31 h 1.8777 v 1.7502 c 0.90409,-1.3523 2.21,-2.0284 3.9177,-2.0284 0.74182,10e-6 1.4238,0.13331 2.0458,0.39989 0.62204,0.2666 1.0876,0.61626 1.3967,1.049 0.30908,0.43274 0.52545,0.94661 0.6491,1.5416 0.0773,0.38637 0.1159,1.0625 0.11591,2.0284 v 7.5689 h -2.0864 v -7.4878 c -1e-5,-0.85 -0.0811,-1.4856 -0.24341,-1.9067 -0.16228,-0.42113 -0.45012,-0.75727 -0.86353,-1.0084 -0.41342,-0.25113 -0.8983,-0.3767 -1.4547,-0.37671 -0.88865,10e-6 -1.6556,0.28206 -2.3008,0.84614 -0.64524,0.5641 -0.96785,1.6343 -0.96785,3.2107 v 6.7228 z"
         id="path166"
         inkscape:connector-curvature="0" />
      <path
         d="m 299.33,630.76 2.1559,0.26659 c -0.34001,1.2596 -0.96979,2.2371 -1.8893,2.9325 -0.91956,0.69546 -2.0941,1.0432 -3.5236,1.0432 -1.8005,0 -3.2281,-0.55444 -4.2829,-1.6633 -1.0548,-1.10886 -1.5822,-2.664 -1.5822,-4.6654 0,-2.0709 0.53318,-3.6782 1.5996,-4.8218 1.06642,-1.1436 2.4496,-1.7154 4.1496,-1.7155 1.6459,10e-6 2.9905,0.56024 4.0337,1.6807 1.0432,1.12046 1.5648,2.6968 1.5648,4.7291 -1e-5,0.12364 -0.004,0.3091 -0.0116,0.55636 h -9.18 c 0.0773,1.3523 0.45977,2.3878 1.1475,3.1064 0.68773,0.71865 1.5455,1.078 2.5732,1.078 0.765,1e-5 1.418,-0.2009 1.9589,-0.60273 0.54091,-0.40181 0.96977,-1.0432 1.2866,-1.9241 z m -6.8503,-3.373 h 6.8734 c -0.0927,-1.0354 -0.35546,-1.812 -0.78818,-2.3298 -0.66456,-0.80363 -1.5262,-1.2054 -2.5848,-1.2055 -0.95819,10e-6 -1.7638,0.3207 -2.4167,0.96205 -0.65296,0.64138 -1.0142,1.4991 -1.0838,2.5732 z"
         id="path168"
         inkscape:connector-curvature="0" />
      <path
         d="m 304.12,634.73 v -12.31 h 1.8777 v 1.7502 c 0.90409,-1.3523 2.21,-2.0284 3.9178,-2.0284 0.74181,10e-6 1.4237,0.13331 2.0458,0.39989 0.62204,0.2666 1.0876,0.61626 1.3967,1.049 0.30909,0.43274 0.52545,0.94661 0.6491,1.5416 0.0773,0.38637 0.1159,1.0625 0.11591,2.0284 v 7.5689 h -2.0864 v -7.4878 c -10e-6,-0.85 -0.0811,-1.4856 -0.24341,-1.9067 -0.16228,-0.42113 -0.45012,-0.75727 -0.86352,-1.0084 -0.41342,-0.25113 -0.89831,-0.3767 -1.4547,-0.37671 -0.88865,10e-6 -1.6556,0.28206 -2.3008,0.84614 -0.64523,0.5641 -0.96785,1.6343 -0.96785,3.2107 v 6.7228 z"
         id="path170"
         inkscape:connector-curvature="0" />
      <path
         d="m 321.89,632.86 0.30136,1.843 c -0.58728,0.12364 -1.1127,0.18546 -1.5764,0.18546 -0.75728,0 -1.3446,-0.11977 -1.7618,-0.35932 -0.41727,-0.23955 -0.71091,-0.55444 -0.88091,-0.94467 -0.17,-0.39022 -0.255,-1.2112 -0.255,-2.4631 v -7.0821 h -1.53 v -1.6227 h 1.53 v -3.0484 l 2.0748,-1.2518 v 4.3002 h 2.098 v 1.6227 h -2.098 v 7.198 c 0,0.59501 0.0367,0.97751 0.11012,1.1475 0.0734,0.17 0.19318,0.30523 0.35932,0.40568 0.16613,0.10046 0.40374,0.15069 0.71284,0.15069 0.23182,0 0.53704,-0.0271 0.91569,-0.0811 z"
         id="path172"
         inkscape:connector-curvature="0" />
    </g>
    <path
       d="M 31.189533,543.11047 57.17346,478.20208"
       id="path176"
       inkscape:connector-curvature="0"
       style="fill:#ffffff;stroke:#ffffff;stroke-width:6.33086728999999960px;stroke-linecap:round;stroke-linejoin:round;stroke-opacity:1" />
    <path
       d="m 47.259,474.61 17.726,-15.77 1.952,23.58 -19.678,-7.81 z"
       id="path178"
       inkscape:connector-curvature="0"
       style="fill:#ffffff;fill-rule:evenodd" />
    <g
       fill="#3475cd"
       transform="matrix(.37461 -.92718 .92718 .37461 0 0)"
       id="g180"
       style="fill:#ffffff">
      <path
         fill="#3475cd"
         d="m-498.53 205.81v-16.992h6.4098c1.1282 0.00002 1.9898 0.0541 2.5848 0.16227 0.83453 0.13911 1.5339 0.40377 2.098 0.79398 0.56408 0.39025 1.0181 0.93696 1.3619 1.6401 0.34385 0.7032 0.51579 1.4759 0.5158 2.3182-0.00001 1.445-0.45979 2.6679-1.3793 3.6685-0.91956 1.0007-2.5809 1.501-4.9841 1.501h-4.3582v6.9082zm2.2486-8.9135h4.393c1.4527 0.00001 2.4843-0.27045 3.0948-0.81137 0.61044-0.5409 0.91567-1.302 0.91569-2.2834-0.00002-0.7109-0.17968-1.3194-0.53898-1.8256-0.35934-0.50613-0.83263-0.84033-1.4199-1.0026-0.37865-0.10044-1.078-0.15067-2.098-0.15068h-4.3466z"
         id="path182"
         style="fill:#ffffff" />
    </g>
    <g
       fill="#3475cd"
       transform="matrix(.37461 -.92718 .92718 .37461 0 0)"
       id="g184"
       style="fill:#ffffff">
      <path
         fill="#3475cd"
         d="m-474.49 205.98v-1.8082c-0.95819 1.3909-2.2602 2.0864-3.9062 2.0864-0.72638 0-1.4044-0.13909-2.0342-0.41728-0.62978-0.27818-1.0973-0.62784-1.4025-1.049-0.30523-0.42114-0.51966-0.93693-0.6433-1.5474-0.085-0.40955-0.1275-1.0586-0.1275-1.9473v-7.6269h2.0864v6.8271c0 1.0896 0.0425 1.8236 0.1275 2.2023 0.13136 0.54864 0.40954 0.97944 0.83455 1.2924 0.425 0.31296 0.95045 0.46944 1.5764 0.46944 0.62591 0 1.2132-0.16034 1.7618-0.48103 0.54863-0.32068 0.93693-0.75727 1.1649-1.3098 0.22795-0.5525 0.34193-1.3542 0.34194-2.4051v-6.5953h2.0864v12.31z"
         id="path186"
         style="fill:#ffffff" />
    </g>
    <g
       fill="#3475cd"
       transform="matrix(.37461 -.92718 .92718 .37461 0 0)"
       id="g188"
       style="fill:#ffffff">
      <path
         fill="#3475cd"
         d="m-468.8 205.25h-1.9357v-16.992h2.0864v6.0621c0.88091-1.105 2.0052-1.6575 3.373-1.6575 0.75727 0.00002 1.474 0.15263 2.1501 0.45785 0.67613 0.30524 1.2325 0.7341 1.6691 1.2866 0.43658 0.55251 0.77852 1.219 1.0258 1.9994 0.24727 0.78047 0.3709 1.615 0.37091 2.5036-0.00001 2.1096-0.5216 3.74-1.5648 4.8914s-2.295 1.727-3.7555 1.727c-1.4527 0-2.5925-0.60659-3.4193-1.8198zm-0.0232-6.2475c0 1.4759 0.20091 2.5423 0.60273 3.1991 0.65682 1.0741 1.5455 1.6112 2.6659 1.6112 0.91182 0 1.7-0.39602 2.3646-1.1881 0.66454-0.79205 0.99682-1.9724 0.99683-3.541-0.00001-1.6073-0.31877-2.7934-0.95626-3.5584-0.63751-0.76499-1.4083-1.1475-2.3124-1.1475-0.91183 0.00001-1.7 0.39603-2.3646 1.1881-0.66455 0.79206-0.99682 1.9376-0.99682 3.4367z"
         id="path190"
         style="fill:#ffffff" />
    </g>
    <g
       fill="#3475cd"
       transform="matrix(.37461 -.92718 .92718 .37461 0 0)"
       id="g192"
       style="fill:#ffffff">
      <path
         fill="#3475cd"
         d="m-457.32 205.2v-16.992h2.0864v16.992z"
         id="path194"
         style="fill:#ffffff" />
    </g>
    <g
       fill="#3475cd"
       transform="matrix(.37461 -.92718 .92718 .37461 0 0)"
       id="g196"
       style="fill:#ffffff">
      <path
         fill="#3475cd"
         d="m-451.69 191.05v-2.3993h2.0864v2.3993zm0 14.593v-12.31h2.0864v12.31z"
         id="path198"
         style="fill:#ffffff" />
    </g>
    <g
       fill="#3475cd"
       transform="matrix(.37461 -.92718 .92718 .37461 0 0)"
       id="g200"
       style="fill:#ffffff">
      <path
         fill="#3475cd"
         d="m-447.43 201.26 2.0632-0.32454c0.1159 0.82682 0.43852 1.4605 0.96784 1.9009 0.52932 0.44046 1.2692 0.66068 2.2197 0.66068 0.95818 0 1.6691-0.19511 2.1327-0.58534 0.46363-0.39023 0.69545-0.84807 0.69546-1.3735-0.00001-0.47136-0.20478-0.84228-0.61432-1.1127-0.28592-0.18545-0.99683-0.42113-2.1327-0.70705-1.53-0.38636-2.5906-0.72056-3.1817-1.0026-0.59114-0.28204-1.0393-0.67227-1.3446-1.1707-0.30523-0.49841-0.45785-1.049-0.45785-1.6517 0-0.54863 0.12557-1.0567 0.37671-1.5242 0.25114-0.46749 0.59307-0.85579 1.0258-1.1649 0.32455-0.23954 0.76693-0.44238 1.3272-0.60853 0.56022-0.16612 1.161-0.24919 1.8024-0.2492 0.96591 0.00001 1.814 0.1391 2.5442 0.41727 0.73022 0.2782 1.2692 0.6549 1.6169 1.1301 0.34772 0.47524 0.58727 1.1108 0.71864 1.9067l-2.04 0.27818c-0.0927-0.63363-0.36126-1.1282-0.80557-1.4836-0.44433-0.35544-1.0722-0.53317-1.8835-0.53318-0.9582 0.00001-1.6421 0.15842-2.0516 0.47523-0.40955 0.31683-0.61432 0.68774-0.61432 1.1127 0 0.27047 0.085 0.51388 0.255 0.73023 0.17 0.22411 0.43659 0.40956 0.79978 0.55637 0.20863 0.0773 0.82296 0.25501 1.843 0.53319 1.4759 0.3941 2.5056 0.71671 3.089 0.96784 0.5834 0.25115 1.0412 0.61626 1.3735 1.0954 0.33226 0.4791 0.4984 1.0741 0.49841 1.785-0.00001 0.69546-0.20285 1.3504-0.60852 1.9647-0.4057 0.61432-0.99104 1.0896-1.756 1.4257-0.76501 0.33614-1.6305 0.50421-2.5964 0.50421-1.5996 0-2.8186-0.33228-3.657-0.99683-0.83841-0.66455-1.3735-1.6498-1.6054-2.9557z"
         id="path202"
         style="fill:#ffffff" />
    </g>
    <path
       d="M 177.4483,350.95381 303.91673,270.07327"
       id="path208"
       inkscape:connector-curvature="0"
       style="fill:#ffffff;stroke:#ffffff;stroke-width:6.45834589000000040px;stroke-linecap:round;stroke-linejoin:round;stroke-opacity:1" />
    <path
       d="m 296.57,261.97 23.582,-2.4988 -12.182,20.302 -11.401,-17.804 z"
       id="path210"
       inkscape:connector-curvature="0"
       style="fill:#ffffff;fill-rule:evenodd" />
    <g
       id="g4061"
       transform="translate(6,-4)"
       style="fill:#ffffff">
      <g
         style="fill:#ffffff"
         id="g212"
         transform="matrix(0.8480481,-0.52991926,0.52991926,0.8480481,-20,34)">
        <path
           style="fill:#ffffff"
           inkscape:connector-curvature="0"
           id="path214"
           d="m 41.972,359.53 v -16.992 h 12.286 v 2.0052 H 44.22 v 5.2044 h 9.4003 v 1.9936 H 44.22 v 5.7839 h 10.432 v 2.0052 z" />
      </g>
      <g
         style="fill:#ffffff"
         id="g216"
         transform="matrix(0.8480481,-0.52991926,0.52991926,0.8480481,-20,34)">
        <path
           style="fill:#ffffff"
           inkscape:connector-curvature="0"
           id="path218"
           d="m 60.308,358.73 -4.6828,-12.31 h 2.2023 l 2.6427,7.3719 c 0.2859,0.79592 0.54863,1.6227 0.78819,2.4805 0.18545,-0.64909 0.44431,-1.4296 0.7766,-2.3414 l 2.7355,-7.511 h 2.1443 l -4.6596,12.31 z" />
      </g>
      <g
         style="fill:#ffffff"
         id="g220"
         transform="matrix(0.8480481,-0.52991926,0.52991926,0.8480481,-20,34)">
        <path
           style="fill:#ffffff"
           inkscape:connector-curvature="0"
           id="path222"
           d="m 77.102,354.77 2.1559,0.2666 c -0.34001,1.2596 -0.96979,2.2371 -1.8893,2.9325 -0.91956,0.69546 -2.0941,1.0432 -3.5237,1.0432 -1.8005,0 -3.2281,-0.55443 -4.2829,-1.6633 -1.0548,-1.10887 -1.5822,-2.664 -1.5822,-4.6654 0,-2.0709 0.53318,-3.6782 1.5996,-4.8218 1.06642,-1.1436 2.4496,-1.7154 4.1496,-1.7155 1.6459,1e-5 2.9905,0.56024 4.0337,1.6807 1.0432,1.12046 1.5648,2.6968 1.5648,4.7291 -1.2e-5,0.12364 -0.0039,0.3091 -0.01159,0.55637 h -9.1801 c 0.07727,1.3523 0.45977,2.3877 1.1475,3.1064 0.68773,0.71864 1.5455,1.078 2.5732,1.078 0.765,0 1.418,-0.20091 1.9589,-0.60273 0.5409,-0.40182 0.96977,-1.0432 1.2866,-1.9241 z m -6.8503,-3.373 h 6.8734 c -0.09274,-1.0354 -0.35547,-1.812 -0.78819,-2.3298 -0.66456,-0.80363 -1.5262,-1.2054 -2.5848,-1.2055 -0.95819,2e-5 -1.7638,0.3207 -2.4167,0.96206 -0.65296,0.64137 -1.0142,1.4991 -1.0838,2.5732 z" />
      </g>
      <g
         style="fill:#ffffff"
         id="g224"
         transform="matrix(0.8480481,-0.52991926,0.52991926,0.8480481,-20,34)">
        <path
           style="fill:#ffffff"
           inkscape:connector-curvature="0"
           id="path226"
           d="m 81.522,359.39 v -12.31 h 1.8777 v 1.7502 c 0.90409,-1.3523 2.21,-2.0284 3.9177,-2.0284 0.74181,10e-6 1.4237,0.13331 2.0458,0.39989 0.62204,0.2666 1.0876,0.61626 1.3967,1.049 0.30908,0.43274 0.52545,0.94661 0.64909,1.5416 0.07726,0.38638 0.1159,1.0625 0.11591,2.0284 v 7.5689 h -2.0864 v -7.4878 c -9e-6,-0.85 -0.08115,-1.4856 -0.24341,-1.9067 -0.16228,-0.42113 -0.45012,-0.75726 -0.86353,-1.0084 -0.41342,-0.25113 -0.89831,-0.3767 -1.4547,-0.37671 -0.88865,10e-6 -1.6556,0.28206 -2.3008,0.84614 -0.64524,0.56411 -0.96785,1.6343 -0.96785,3.2107 v 6.7228 z" />
      </g>
      <g
         style="fill:#ffffff"
         id="g228"
         transform="matrix(0.8480481,-0.52991926,0.52991926,0.8480481,-20,34)">
        <path
           style="fill:#ffffff"
           inkscape:connector-curvature="0"
           id="path230"
           d="m 98.526,356.47 0.30137,1.843 c -0.58728,0.12363 -1.1127,0.18545 -1.5764,0.18545 -0.75728,0 -1.3446,-0.11977 -1.7618,-0.35932 -0.41728,-0.23954 -0.71092,-0.55443 -0.88091,-0.94466 -0.17,-0.39023 -0.255,-1.2113 -0.255,-2.4631 v -7.0821 h -1.53 v -1.6227 h 1.53 v -3.0484 l 2.0748,-1.2518 v 4.3003 h 2.098 v 1.6227 h -2.098 v 7.198 c -4e-6,0.595 0.0367,0.9775 0.11012,1.1475 0.07341,0.17 0.19318,0.30523 0.35932,0.40569 0.16613,0.10045 0.40375,0.15068 0.71284,0.15068 0.23181,0 0.53704,-0.027 0.91569,-0.0811 z" />
      </g>
    </g>
    <path
       d="m 179.46009,402.82624 124.41485,39.7627"
       id="path232"
       inkscape:connector-curvature="0"
       style="fill:#ffffff;stroke:#ffffff;stroke-width:6.48191261000000020px;stroke-linecap:round;stroke-linejoin:round;stroke-opacity:1" />
    <path
       d="m 305.2,432.36 16.945,16.554 -23.426,3.592 6.4812,-20.146 z"
       id="path234"
       inkscape:connector-curvature="0"
       style="fill:#ffffff;fill-rule:evenodd" />
    <g
       id="g4049"
       transform="matrix(0.9997763,-0.02115066,0.02115066,0.9997763,-22.570662,-0.51355232)"
       style="fill:#ffffff">
      <g
         style="fill:#ffffff"
         id="g236"
         transform="matrix(0.95105652,0.30901699,-0.30901699,0.95105652,-12,28)">
        <path
           style="fill:#ffffff"
           inkscape:connector-curvature="0"
           id="path238"
           d="m 343.1,287.22 v -16.992 h 12.286 v 2.0052 h -10.038 v 5.2044 h 9.4003 v 1.9936 h -9.4003 v 5.7839 h 10.432 v 2.0052 z" />
      </g>
      <g
         style="fill:#ffffff"
         id="g240"
         transform="matrix(0.95105652,0.30901699,-0.30901699,0.95105652,-12,28)">
        <path
           style="fill:#ffffff"
           inkscape:connector-curvature="0"
           id="path242"
           d="m 362.01,287.34 -4.6828,-12.31 h 2.2023 l 2.6428,7.3719 c 0.2859,0.79591 0.54863,1.6227 0.78818,2.4805 0.18545,-0.6491 0.44432,-1.4296 0.7766,-2.3414 l 2.7355,-7.511 h 2.1443 l -4.6596,12.31 z" />
      </g>
      <g
         style="fill:#ffffff"
         id="g244"
         transform="matrix(0.95105652,0.30901699,-0.30901699,0.95105652,-12,28)">
        <path
           style="fill:#ffffff"
           inkscape:connector-curvature="0"
           id="path246"
           d="m 378.87,283.46 2.1559,0.26659 c -0.34001,1.2596 -0.96979,2.2371 -1.8893,2.9325 -0.91956,0.69546 -2.0941,1.0432 -3.5236,1.0432 -1.8005,0 -3.2281,-0.55443 -4.2829,-1.6633 -1.0548,-1.10887 -1.5822,-2.664 -1.5822,-4.6654 0,-2.0709 0.53319,-3.6782 1.5996,-4.8218 1.06641,-1.1436 2.4496,-1.7155 4.1496,-1.7155 1.6459,10e-6 2.9905,0.56024 4.0336,1.6807 1.0432,1.1205 1.5648,2.6968 1.5648,4.7291 -2e-5,0.12364 -0.004,0.3091 -0.0116,0.55637 h -9.18 c 0.0773,1.3523 0.45978,2.3877 1.1475,3.1064 0.68773,0.71864 1.5455,1.078 2.5732,1.078 0.76499,0 1.418,-0.20091 1.9589,-0.60273 0.5409,-0.40182 0.96977,-1.0432 1.2866,-1.9241 z m -6.8503,-3.373 h 6.8734 c -0.0927,-1.0354 -0.35547,-1.812 -0.78819,-2.3298 -0.66455,-0.80363 -1.5262,-1.2054 -2.5848,-1.2055 -0.9582,1e-5 -1.7638,0.32069 -2.4167,0.96205 -0.65296,0.64137 -1.0142,1.4991 -1.0838,2.5732 z" />
      </g>
      <g
         style="fill:#ffffff"
         id="g248"
         transform="matrix(0.95105652,0.30901699,-0.30901699,0.95105652,-12,28)">
        <path
           style="fill:#ffffff"
           inkscape:connector-curvature="0"
           id="path250"
           d="m 383.49,287.13 v -12.31 h 1.8777 v 1.7502 c 0.90409,-1.3523 2.21,-2.0284 3.9178,-2.0284 0.74181,10e-6 1.4238,0.13331 2.0458,0.39989 0.62204,0.2666 1.0876,0.61626 1.3967,1.049 0.30908,0.43274 0.52544,0.94661 0.64909,1.5416 0.0773,0.38638 0.1159,1.0625 0.11591,2.0284 v 7.5689 h -2.0864 v -7.4878 c -1e-5,-0.85 -0.0811,-1.4856 -0.24341,-1.9067 -0.16228,-0.42113 -0.45012,-0.75726 -0.86352,-1.0084 -0.41342,-0.25113 -0.89831,-0.3767 -1.4547,-0.37671 -0.88865,10e-6 -1.6556,0.28206 -2.3008,0.84614 -0.64523,0.56411 -0.96785,1.6343 -0.96785,3.2107 v 6.7228 z" />
      </g>
      <g
         style="fill:#ffffff"
         id="g252"
         transform="matrix(0.95105652,0.30901699,-0.30901699,0.95105652,-12,28)">
        <path
           style="fill:#ffffff"
           inkscape:connector-curvature="0"
           id="path254"
           d="m 401.08,284.97 0.30137,1.843 c -0.58729,0.12364 -1.1127,0.18546 -1.5764,0.18546 -0.75728,0 -1.3446,-0.11978 -1.7618,-0.35932 -0.41728,-0.23955 -0.71092,-0.55444 -0.88092,-0.94467 -0.17,-0.39022 -0.255,-1.2112 -0.255,-2.4631 v -7.0821 h -1.53 v -1.6227 h 1.53 v -3.0484 l 2.0748,-1.2518 v 4.3002 h 2.098 v 1.6227 h -2.098 v 7.198 c 0,0.59501 0.0367,0.97751 0.11012,1.1475 0.0734,0.17 0.19318,0.30523 0.35932,0.40568 0.16613,0.10046 0.40375,0.15069 0.71284,0.15068 0.23182,10e-6 0.53705,-0.027 0.91569,-0.0811 z" />
      </g>
    </g>
    <g
       transform="translate(-161.93205,335.89007)"
       id="g3077">
      <g
         transform="translate(-11.222756,-5.230502)"
         id="g4058">
        <path
           style="fill:#333333;fill-opacity:1;fill-rule:evenodd"
           inkscape:connector-curvature="0"
           id="path96"
           d="m 236.566,26.372 v 64.89 h 64.812 v -64.89 h -64.812 z" />
        <path
           style="fill:#ffe100;fill-rule:evenodd"
           inkscape:connector-curvature="0"
           id="path98"
           d="m 236.566,40.192 v 6.4031 h 15.305 l 10.151,10.151 4.6852,-4.6852 -12.025,-12.025 -18.116,0.15617 z" />
        <path
           style="fill:#ffe100;fill-rule:evenodd"
           inkscape:connector-curvature="0"
           id="path100"
           d="m 275.846,61.272 -4.6071,4.6852 11.557,11.635 h 18.585 V 71.111 h -15.695 l -9.8389,-9.8389 z" />
        <path
           style="fill:#ffe100;fill-rule:evenodd"
           inkscape:connector-curvature="0"
           id="path102"
           d="M 283.266,40.032 252.422,71.11 H 236.57 v 6.5593 h 18.507 l 31.078,-31.078 h 15.227 V 40.032 h -18.116 z" />
      </g>
      <path
         d="m 302.29418,112.13664 c 13.04,0 23.582,-10.542 23.582,-23.582 v 0 -63.093999 c 0,-13.04 -10.542,-23.66 -23.582,-23.66 v 0 h -90.737 c -13.04,0 -23.582,10.62 -23.582,23.66 v 0 63.093999 c 0,13.04 10.542,23.582 23.582,23.582 v 0 h 90.737 z"
         id="path8-7"
         inkscape:connector-curvature="0"
         style="fill:none;stroke:#ffe100;stroke-width:3.59200001px;stroke-linecap:round;stroke-linejoin:round;stroke-opacity:1" />
    </g>
  </g>
</svg>
