<?xml version="1.0" encoding="UTF-8" standalone="no"?>
<svg xmlns:rdf="http://www.w3.org/1999/02/22-rdf-syntax-ns#" xmlns="http://www.w3.org/2000/svg" version="1.1" xmlns:cc="http://creativecommons.org/ns#" xmlns:dc="http://purl.org/dc/elements/1.1/" viewBox="0 0 509.72 468.09">
<g transform="translate(-95.132 -298.3)">
<path d="m214.93 761.32c13.04 0 23.582-10.542 23.582-23.582v-63.172c0-13.04-10.542-23.582-23.582-23.582h-90.737c-13.04 0-23.582 10.542-23.582 23.582v63.172c0 13.04 10.542 23.582 23.582 23.582h90.737z" fill-rule="evenodd" fill="#595959"/>
<path stroke-linejoin="round" d="m214.93 761.32c13.04 0 23.582-10.542 23.582-23.582v0-63.172c0-13.04-10.542-23.582-23.582-23.582v0h-90.737c-13.04 0-23.582 10.542-23.582 23.582v0 63.172c0 13.04 10.542 23.582 23.582 23.582v0h90.737z" stroke="#000" stroke-linecap="round" stroke-width="3.592px" fill="none"/>
<g fill="#fff">
<path d="m149.3 699.63 6.5257-16.992h2.4225l6.9546 16.992h-2.5616l-1.982-5.1464h-7.1053l-1.8662 5.1464zm4.903-6.9778h5.7607l-1.7734-4.7059c-0.54092-1.4295-0.94274-2.6041-1.2055-3.5237-0.21637 1.0896-0.5216 2.1714-0.91569 3.2455z"/>
<path d="m166.76 704.35v-17.027h1.9009v1.5996c0.44818-0.6259 0.95432-1.0953 1.5184-1.4083 0.56409-0.31295 1.248-0.46943 2.0516-0.46944 1.0509 0.00001 1.9782 0.27047 2.7818 0.81137 0.80363 0.54092 1.4102 1.304 1.8198 2.2892 0.40954 0.98524 0.61431 2.0651 0.61432 3.2397-0.00001 1.2596-0.22603 2.3935-0.67807 3.402-0.45206 1.0084-1.1089 1.7812-1.9705 2.3182-0.86161 0.53705-1.7676 0.80557-2.7181 0.80557-0.69546 0-1.3194-0.14682-1.8719-0.44046-0.55251-0.29363-1.0065-0.66454-1.3619-1.1127v5.9925zm1.8893-10.803c-0.00001 1.5841 0.32068 2.7548 0.96205 3.5121 0.64136 0.75728 1.418 1.1359 2.3298 1.1359 0.92727 0 1.7212-0.39216 2.382-1.1765 0.66067-0.78432 0.99101-1.9994 0.99102-3.6454-0.00001-1.5686-0.32262-2.7432-0.96784-3.5236-0.64524-0.78045-1.416-1.1707-2.3124-1.1707-0.88865 0.00001-1.6749 0.41535-2.3588 1.246-0.68387 0.83069-1.0258 2.0381-1.0258 3.6222z"/>
<path d="m179.97 704.35v-17.027h1.9009v1.5996c0.44818-0.6259 0.95432-1.0953 1.5184-1.4083 0.56409-0.31295 1.248-0.46943 2.0516-0.46944 1.0509 0.00001 1.9782 0.27047 2.7818 0.81137 0.80363 0.54092 1.4102 1.304 1.8198 2.2892 0.40954 0.98524 0.61431 2.0651 0.61432 3.2397-0.00001 1.2596-0.22603 2.3935-0.67807 3.402-0.45206 1.0084-1.1089 1.7812-1.9705 2.3182-0.86161 0.53705-1.7676 0.80557-2.7181 0.80557-0.69546 0-1.3194-0.14682-1.8719-0.44046-0.55251-0.29363-1.0065-0.66454-1.3619-1.1127v5.9925zm1.8893-10.803c-0.00001 1.5841 0.32067 2.7548 0.96205 3.5121 0.64136 0.75728 1.418 1.1359 2.3298 1.1359 0.92727 0 1.7212-0.39216 2.382-1.1765 0.66067-0.78432 0.99101-1.9994 0.99102-3.6454-0.00001-1.5686-0.32262-2.7432-0.96784-3.5236-0.64524-0.78045-1.416-1.1707-2.3124-1.1707-0.88865 0.00001-1.6749 0.41535-2.3588 1.246-0.68387 0.83069-1.0258 2.0381-1.0258 3.6222z"/>
</g>
<g fill="#fff">
<path d="m123.31 721.16 2.2486 0.56796c-0.47138 1.8468-1.3195 3.2551-2.5442 4.2249-1.2248 0.96977-2.722 1.4547-4.4915 1.4547-1.8314 0-3.3208-0.37284-4.4683-1.1185-1.1475-0.74568-2.0207-1.8256-2.6196-3.2397-0.59887-1.4141-0.8983-2.9325-0.8983-4.5552 0-1.7696 0.33807-3.3131 1.0142-4.6306 0.67614-1.3175 1.6382-2.3182 2.8862-3.0021 1.248-0.68385 2.6215-1.0258 4.1206-1.0258 1.7 0.00002 3.1296 0.43275 4.2887 1.2982 1.1591 0.86547 1.9666 2.0825 2.4225 3.6512l-2.2139 0.5216c-0.39411-1.2364-0.96593-2.1366-1.7155-2.7007-0.74956-0.56408-1.6923-0.84612-2.8282-0.84614-1.3059 0.00002-2.3974 0.31297-3.2744 0.93887-0.87706 0.62593-1.4933 1.4663-1.8488 2.521-0.35546 1.0548-0.53319 2.1424-0.53319 3.2628 0 1.445 0.21057 2.7065 0.63171 3.7845s1.076 1.8835 1.9647 2.4167c0.88864 0.53318 1.8507 0.79977 2.8862 0.79977 1.2596 0 2.3259-0.36318 3.1991-1.0896 0.87317-0.72636 1.4643-1.8043 1.7734-3.2339z"/>
<path d="m127.3 720.96c-0.00001-2.2796 0.63363-3.968 1.9009-5.0652 1.0586-0.91181 2.3491-1.3677 3.8714-1.3677 1.6923 0.00002 3.0755 0.55445 4.1496 1.6633 1.0741 1.1089 1.6111 2.6408 1.6111 4.5958-0.00001 1.5841-0.23762 2.8301-0.71284 3.7381-0.47524 0.90796-1.1668 1.6131-2.0748 2.1154-0.90796 0.50227-1.899 0.75341-2.9731 0.75341-1.7232 0-3.116-0.5525-4.1786-1.6575-1.0625-1.105-1.5938-2.6968-1.5938-4.7755zm2.1443 0c-0.00001 1.5764 0.34386 2.7567 1.0316 3.541 0.68773 0.78433 1.5532 1.1765 2.5964 1.1765 1.0354 0 1.897-0.39409 2.5848-1.1823 0.68772-0.78818 1.0316-1.9898 1.0316-3.6048-0.00001-1.5223-0.3458-2.6756-1.0374-3.4599-0.6916-0.78431-1.5513-1.1765-2.579-1.1765-1.0432 0.00001-1.9086 0.39024-2.5964 1.1707-0.68773 0.78046-1.0316 1.9589-1.0316 3.5352z"/>
<path d="m141.29 727.12v-12.31h1.8662v1.727c0.38636-0.60272 0.90022-1.0876 1.5416-1.4547 0.64136-0.36703 1.3716-0.55055 2.1907-0.55057 0.91181 0.00002 1.6594 0.18933 2.2428 0.56796 0.5834 0.37865 0.99488 0.90797 1.2344 1.588 0.97363-1.4373 2.2409-2.1559 3.8018-2.1559 1.2209 0.00002 2.1598 0.33809 2.8166 1.0142 0.6568 0.67615 0.98521 1.7174 0.98523 3.1238v8.4498h-2.0748v-7.7544c-0.00002-0.83454-0.0676-1.4353-0.20285-1.8024-0.13524-0.36704-0.38058-0.6626-0.73602-0.88671-0.35548-0.22408-0.77275-0.33612-1.2518-0.33614-0.86547 0.00002-1.5841 0.28786-2.1559 0.86353-0.57183 0.5757-0.85774 1.4972-0.85773 2.7644v7.1516h-2.0864v-7.9978c-0.00001-0.92727-0.17001-1.6227-0.51-2.0864-0.34001-0.46363-0.89638-0.69544-1.6691-0.69546-0.58728 0.00002-1.1301 0.15456-1.6285 0.46364-0.49842 0.30911-0.85967 0.76115-1.0838 1.3562-0.22409 0.59501-0.33614 1.4527-0.33614 2.5732v6.3866z"/>
<path d="m161.09 731.84v-17.027h1.9009v1.5996c0.44818-0.6259 0.95432-1.0953 1.5184-1.4083 0.56409-0.31295 1.248-0.46942 2.0516-0.46944 1.0509 0.00002 1.9782 0.27047 2.7818 0.81137 0.80363 0.54092 1.4102 1.304 1.8198 2.2892 0.40953 0.98524 0.6143 2.0651 0.61432 3.2397-0.00002 1.2596-0.22604 2.3935-0.67808 3.402-0.45205 1.0084-1.1089 1.7811-1.9705 2.3182-0.8616 0.53705-1.7676 0.80557-2.7181 0.80557-0.69547 0-1.3194-0.14682-1.872-0.44045-0.5525-0.29364-1.0065-0.66455-1.3619-1.1127v5.9925zm1.8893-10.803c0 1.5841 0.32068 2.7548 0.96205 3.5121 0.64136 0.75728 1.418 1.1359 2.3298 1.1359 0.92727 0 1.7213-0.39216 2.382-1.1765 0.66068-0.78431 0.99102-1.9994 0.99103-3.6454-0.00001-1.5686-0.32263-2.7432-0.96785-3.5236-0.64524-0.78045-1.416-1.1707-2.3124-1.1707-0.88864 0.00001-1.6749 0.41535-2.3588 1.246-0.68387 0.83069-1.0258 2.0381-1.0258 3.6222z"/>
<path d="m173.53 720.96c-0.00001-2.2796 0.63363-3.968 1.9009-5.0652 1.0586-0.91181 2.3491-1.3677 3.8714-1.3677 1.6923 0.00002 3.0755 0.55445 4.1496 1.6633 1.0741 1.1089 1.6111 2.6408 1.6111 4.5958-0.00001 1.5841-0.23762 2.8301-0.71284 3.7381-0.47524 0.90796-1.1668 1.6131-2.0748 2.1154-0.90796 0.50227-1.899 0.75341-2.9731 0.75341-1.7232 0-3.116-0.5525-4.1786-1.6575-1.0625-1.105-1.5938-2.6968-1.5938-4.7755zm2.1443 0c-0.00001 1.5764 0.34386 2.7567 1.0316 3.541 0.68773 0.78433 1.5532 1.1765 2.5964 1.1765 1.0354 0 1.897-0.39409 2.5848-1.1823 0.68772-0.78818 1.0316-1.9898 1.0316-3.6048-0.00001-1.5223-0.3458-2.6756-1.0374-3.4599-0.6916-0.78431-1.5513-1.1765-2.579-1.1765-1.0432 0.00001-1.9086 0.39024-2.5964 1.1707-0.68773 0.78046-1.0316 1.9589-1.0316 3.5352z"/>
<path d="m187.52 727.12v-12.31h1.8777v1.7502c0.90409-1.3523 2.21-2.0284 3.9177-2.0284 0.74182 0.00002 1.4238 0.13331 2.0458 0.39989 0.62204 0.26661 1.0876 0.61627 1.3967 1.049 0.30908 0.43274 0.52545 0.94661 0.6491 1.5416 0.0773 0.38638 0.1159 1.0625 0.11591 2.0284v7.5689h-2.0864v-7.4878c-0.00001-0.85-0.0811-1.4856-0.24341-1.9067-0.16228-0.42113-0.45012-0.75727-0.86353-1.0084-0.41342-0.25113-0.8983-0.37669-1.4547-0.37671-0.88865 0.00002-1.6556 0.28206-2.3008 0.84615-0.64524 0.5641-0.96785 1.6343-0.96785 3.2107v6.7228z"/>
<path d="m209.16 723.15 2.1559 0.26659c-0.34001 1.2596-0.96979 2.2371-1.8893 2.9325-0.91956 0.69545-2.0941 1.0432-3.5236 1.0432-1.8005 0-3.2281-0.55443-4.2829-1.6633s-1.5822-2.664-1.5822-4.6654c0-2.0709 0.53318-3.6782 1.5996-4.8218s2.4496-1.7154 4.1496-1.7155c1.6459 0.00002 2.9905 0.56025 4.0337 1.6807 1.0432 1.1205 1.5648 2.6968 1.5648 4.7291-0.00001 0.12364-0.004 0.3091-0.0116 0.55637h-9.18c0.0773 1.3523 0.45977 2.3877 1.1475 3.1064 0.68773 0.71864 1.5455 1.078 2.5732 1.078 0.765 0 1.418-0.20091 1.9589-0.60273 0.54091-0.40182 0.96977-1.0432 1.2866-1.9241zm-6.8503-3.373h6.8734c-0.0927-1.0354-0.35546-1.812-0.78818-2.3298-0.66456-0.80363-1.5262-1.2054-2.5848-1.2055-0.95819 0.00001-1.7638 0.32069-2.4167 0.96205-0.65296 0.64137-1.0142 1.4991-1.0838 2.5732z"/>
<path d="m213.94 727.12v-12.31h1.8777v1.7502c0.90409-1.3523 2.21-2.0284 3.9178-2.0284 0.74181 0.00002 1.4237 0.13331 2.0458 0.39989 0.62204 0.26661 1.0876 0.61627 1.3967 1.049 0.30909 0.43274 0.52545 0.94661 0.6491 1.5416 0.0773 0.38638 0.1159 1.0625 0.11591 2.0284v7.5689h-2.0864v-7.4878c-0.00001-0.85-0.0811-1.4856-0.24341-1.9067-0.16228-0.42113-0.45012-0.75727-0.86352-1.0084-0.41342-0.25113-0.89831-0.37669-1.4547-0.37671-0.88865 0.00002-1.6556 0.28206-2.3008 0.84615-0.64523 0.5641-0.96785 1.6343-0.96785 3.2107v6.7228z"/>
<path d="m231.71 725.25 0.30136 1.843c-0.58728 0.12363-1.1127 0.18545-1.5764 0.18545-0.75728 0-1.3446-0.11977-1.7618-0.35932-0.41727-0.23954-0.71091-0.55443-0.88091-0.94466s-0.255-1.2113-0.255-2.4631v-7.0821h-1.53v-1.6227h1.53v-3.0484l2.0748-1.2518v4.3002h2.098v1.6227h-2.098v7.198c0 0.595 0.0367 0.9775 0.11012 1.1475 0.0734 0.17001 0.19318 0.30523 0.35932 0.40569 0.16613 0.10045 0.40374 0.15068 0.71284 0.15068 0.23182 0 0.53704-0.027 0.91569-0.0811z"/>
</g>
<path d="m572.8 603.2c13.04 0 23.582-10.542 23.582-23.582v-62.313c0-13.04-10.542-23.66-23.582-23.66h-89.721c-13.04 0-23.66 10.62-23.66 23.66v62.313c0 13.04 10.62 23.582 23.66 23.582h89.721z" fill-rule="evenodd" fill="#595959"/>
<path stroke-linejoin="round" d="m572.8 603.2c13.04 0 23.582-10.542 23.582-23.582v0-62.313c0-13.04-10.542-23.66-23.582-23.66h-89.721c-13.04 0-23.66 10.62-23.66 23.66v62.313c0 13.04 10.62 23.582 23.66 23.582h89.721z" stroke="#000" stroke-linecap="round" stroke-width="3.592px" fill="none"/>
<g fill="#fff">
<path d="m506.63 540.96 6.5257-16.992h2.4225l6.9546 16.992h-2.5616l-1.9821-5.1464h-7.1053l-1.8662 5.1464zm4.903-6.9778h5.7607l-1.7734-4.7059c-0.54093-1.4295-0.94275-2.6041-1.2055-3.5236-0.21637 1.0896-0.5216 2.1714-0.91568 3.2455z"/>
<path d="m524.08 545.68v-17.027h1.9009v1.5996c0.44818-0.6259 0.95432-1.0953 1.5184-1.4083 0.56409-0.31294 1.248-0.46942 2.0516-0.46943 1.0509 0.00001 1.9782 0.27047 2.7818 0.81136 0.80363 0.54093 1.4102 1.304 1.8198 2.2892 0.40953 0.98524 0.61431 2.0651 0.61432 3.2397-0.00001 1.2596-0.22604 2.3935-0.67807 3.402-0.45206 1.0084-1.1089 1.7812-1.9705 2.3182-0.8616 0.53705-1.7676 0.80558-2.7181 0.80558-0.69546 0-1.3194-0.14682-1.8719-0.44046-0.55251-0.29364-1.0065-0.66455-1.3619-1.1127v5.9925zm1.8893-10.803c0 1.5841 0.32068 2.7548 0.96205 3.5121 0.64136 0.75728 1.418 1.1359 2.3298 1.1359 0.92727 0 1.7212-0.39216 2.3819-1.1765 0.66068-0.78432 0.99102-1.9994 0.99103-3.6454-0.00001-1.5686-0.32262-2.7432-0.96784-3.5237-0.64524-0.78045-1.416-1.1707-2.3124-1.1707-0.88865 0.00001-1.6749 0.41536-2.3588 1.246-0.68387 0.8307-1.0258 2.0381-1.0258 3.6222z"/>
<path d="m537.3 545.68v-17.027h1.9009v1.5996c0.44818-0.6259 0.95432-1.0953 1.5184-1.4083 0.56409-0.31294 1.248-0.46942 2.0516-0.46943 1.0509 0.00001 1.9782 0.27047 2.7818 0.81136 0.80363 0.54093 1.4102 1.304 1.8198 2.2892 0.40953 0.98524 0.61431 2.0651 0.61432 3.2397-0.00001 1.2596-0.22604 2.3935-0.67807 3.402-0.45206 1.0084-1.1089 1.7812-1.9705 2.3182-0.8616 0.53705-1.7676 0.80558-2.7181 0.80558-0.69546 0-1.3194-0.14682-1.8719-0.44046-0.55251-0.29364-1.0065-0.66455-1.3619-1.1127v5.9925zm1.8893-10.803c0 1.5841 0.32068 2.7548 0.96205 3.5121 0.64136 0.75728 1.418 1.1359 2.3298 1.1359 0.92727 0 1.7212-0.39216 2.3819-1.1765 0.66068-0.78432 0.99102-1.9994 0.99103-3.6454-0.00001-1.5686-0.32262-2.7432-0.96785-3.5237-0.64523-0.78045-1.416-1.1707-2.3124-1.1707-0.88865 0.00001-1.6749 0.41536-2.3588 1.246-0.68387 0.8307-1.0258 2.0381-1.0258 3.6222z"/>
</g>
<g fill="#fff">
<path d="m481.89 563.74 2.2486 0.56796c-0.47139 1.8468-1.3195 3.2551-2.5442 4.2249-1.2248 0.96978-2.722 1.4547-4.4915 1.4547-1.8314 0-3.3208-0.37285-4.4683-1.1185-1.1475-0.74569-2.0207-1.8256-2.6196-3.2397-0.59887-1.4141-0.89831-2.9325-0.89831-4.5552 0-1.7696 0.33807-3.3131 1.0142-4.6306 0.67614-1.3175 1.6382-2.3182 2.8862-3.0021 1.248-0.68385 2.6215-1.0258 4.1206-1.0258 1.7 0.00002 3.1296 0.43275 4.2887 1.2982 1.1591 0.86548 1.9666 2.0825 2.4225 3.6512l-2.2139 0.52159c-0.39411-1.2364-0.96593-2.1366-1.7155-2.7007-0.74956-0.56408-1.6923-0.84613-2.8282-0.84615-1.3059 0.00002-2.3974 0.31298-3.2744 0.93887-0.87705 0.62593-1.4933 1.4663-1.8488 2.521-0.35546 1.0548-0.53318 2.1424-0.53318 3.2629 0 1.445 0.21056 2.7065 0.63171 3.7844 0.42113 1.078 1.076 1.8835 1.9647 2.4167 0.88863 0.53319 1.8507 0.79978 2.8862 0.79978 1.2595 0 2.3259-0.36319 3.1991-1.0896 0.87317-0.72636 1.4643-1.8043 1.7734-3.2339z"/>
<path d="m485.88 563.54c0-2.2796 0.63364-3.968 1.9009-5.0653 1.0586-0.91181 2.3491-1.3677 3.8714-1.3677 1.6923 0.00001 3.0755 0.55444 4.1496 1.6633s1.6111 2.6408 1.6112 4.5958c-0.00001 1.5841-0.23763 2.8301-0.71285 3.7381-0.47524 0.90796-1.1668 1.6131-2.0748 2.1154-0.90797 0.50228-1.899 0.75342-2.9731 0.75342-1.7232 0-3.116-0.55251-4.1786-1.6575-1.0625-1.105-1.5938-2.6968-1.5938-4.7755zm2.1443 0c0 1.5764 0.34386 2.7567 1.0316 3.541 0.68772 0.78432 1.5532 1.1765 2.5964 1.1765 1.0354 0 1.897-0.39409 2.5848-1.1823 0.68772-0.78818 1.0316-1.9898 1.0316-3.6048-0.00001-1.5223-0.34581-2.6756-1.0374-3.4599-0.69161-0.78432-1.5513-1.1765-2.579-1.1765-1.0432 0.00001-1.9087 0.39024-2.5964 1.1707-0.68774 0.78047-1.0316 1.9589-1.0316 3.5352z"/>
<path d="m499.87 569.7v-12.31h1.8661v1.727c0.38636-0.60271 0.90023-1.0876 1.5416-1.4547 0.64136-0.36704 1.3716-0.55056 2.1907-0.55057 0.91181 0.00001 1.6594 0.18933 2.2428 0.56795 0.5834 0.37865 0.99488 0.90797 1.2344 1.588 0.97363-1.4373 2.2409-2.1559 3.8018-2.1559 1.2209 0.00001 2.1598 0.33808 2.8166 1.0142 0.65681 0.67615 0.98522 1.7174 0.98524 3.1238v8.4498h-2.0748v-7.7544c-0.00001-0.83454-0.0676-1.4353-0.20284-1.8024-0.13524-0.36704-0.38059-0.66261-0.73603-0.88671-0.35547-0.22408-0.77274-0.33613-1.2518-0.33614-0.86547 0.00001-1.5841 0.28785-2.1559 0.86353-0.57184 0.57569-0.85775 1.4972-0.85774 2.7644v7.1516h-2.0864v-7.9978c-0.00001-0.92727-0.17001-1.6227-0.51-2.0864-0.34001-0.46363-0.89638-0.69545-1.6691-0.69546-0.58729 0.00001-1.1301 0.15456-1.6285 0.46364-0.49842 0.3091-0.85967 0.76115-1.0838 1.3561-0.2241 0.59501-0.33614 1.4527-0.33614 2.5732v6.3866z"/>
<path d="m519.66 574.41v-17.027h1.9009v1.5996c0.44818-0.6259 0.95431-1.0953 1.5184-1.4083 0.56409-0.31294 1.248-0.46942 2.0516-0.46943 1.0509 0.00001 1.9782 0.27047 2.7818 0.81136 0.80363 0.54093 1.4102 1.304 1.8198 2.2892 0.40954 0.98524 0.61431 2.0651 0.61432 3.2397-0.00001 1.2596-0.22603 2.3935-0.67807 3.402-0.45206 1.0084-1.1089 1.7812-1.9705 2.3182-0.86161 0.53705-1.7676 0.80558-2.7181 0.80558-0.69546 0-1.3194-0.14682-1.8719-0.44046-0.55251-0.29364-1.0065-0.66455-1.3619-1.1127v5.9925zm1.8893-10.803c0 1.5841 0.32068 2.7548 0.96206 3.5121 0.64136 0.75728 1.418 1.1359 2.3298 1.1359 0.92727 0 1.7212-0.39216 2.382-1.1765 0.66067-0.78432 0.99101-1.9994 0.99102-3.6454-0.00001-1.5686-0.32262-2.7432-0.96784-3.5237-0.64524-0.78045-1.416-1.1707-2.3124-1.1707-0.88865 0.00001-1.6749 0.41536-2.3588 1.246-0.68388 0.8307-1.0258 2.0381-1.0258 3.6222z"/>
<path d="m532.1 563.54c0-2.2796 0.63364-3.968 1.9009-5.0653 1.0586-0.91181 2.3491-1.3677 3.8714-1.3677 1.6923 0.00001 3.0755 0.55444 4.1496 1.6633s1.6111 2.6408 1.6112 4.5958c-0.00001 1.5841-0.23763 2.8301-0.71285 3.7381-0.47524 0.90796-1.1668 1.6131-2.0748 2.1154-0.90797 0.50228-1.899 0.75342-2.9731 0.75342-1.7232 0-3.116-0.55251-4.1786-1.6575-1.0625-1.105-1.5938-2.6968-1.5938-4.7755zm2.1443 0c0 1.5764 0.34386 2.7567 1.0316 3.541 0.68772 0.78432 1.5532 1.1765 2.5964 1.1765 1.0354 0 1.897-0.39409 2.5848-1.1823 0.68772-0.78818 1.0316-1.9898 1.0316-3.6048-0.00001-1.5223-0.34581-2.6756-1.0374-3.4599-0.69161-0.78432-1.5513-1.1765-2.579-1.1765-1.0432 0.00001-1.9087 0.39024-2.5964 1.1707-0.68774 0.78047-1.0316 1.9589-1.0316 3.5352z"/>
<path d="m546.09 569.7v-12.31h1.8777v1.7502c0.90409-1.3523 2.21-2.0284 3.9178-2.0284 0.74181 0.00001 1.4238 0.13331 2.0458 0.39989 0.62204 0.2666 1.0876 0.61626 1.3967 1.049 0.30908 0.43274 0.52545 0.9466 0.64909 1.5416 0.0773 0.38637 0.1159 1.0625 0.11591 2.0284v7.5689h-2.0864v-7.4878c-0.00001-0.84999-0.0811-1.4856-0.24341-1.9067-0.16228-0.42113-0.45013-0.75727-0.86353-1.0084-0.41342-0.25112-0.89831-0.37669-1.4547-0.3767-0.88864 0.00001-1.6556 0.28206-2.3008 0.84614-0.64524 0.5641-0.96785 1.6343-0.96785 3.2107v6.7228z"/>
<path d="m567.73 565.73 2.1559 0.26659c-0.34001 1.2596-0.96979 2.2371-1.8893 2.9325-0.91956 0.69546-2.0941 1.0432-3.5237 1.0432-1.8005 0-3.2281-0.55444-4.2829-1.6633s-1.5822-2.664-1.5822-4.6654c0-2.0709 0.53319-3.6782 1.5996-4.8218s2.4496-1.7154 4.1496-1.7155c1.6459 0.00001 2.9905 0.56024 4.0336 1.6807 1.0432 1.1205 1.5648 2.6968 1.5648 4.7291-0.00001 0.12365-0.004 0.3091-0.0116 0.55637h-9.18c0.0773 1.3523 0.45978 2.3877 1.1475 3.1064 0.68773 0.71864 1.5455 1.078 2.5732 1.078 0.76499 0 1.418-0.20091 1.9589-0.60273s0.96977-1.0432 1.2866-1.9241zm-6.8503-3.373h6.8734c-0.0927-1.0354-0.35547-1.812-0.78819-2.3298-0.66455-0.80363-1.5262-1.2054-2.5848-1.2055-0.9582 0.00001-1.7638 0.32069-2.4167 0.96205-0.65296 0.64138-1.0142 1.4991-1.0838 2.5732z"/>
<path d="m572.52 569.7v-12.31h1.8777v1.7502c0.90409-1.3523 2.21-2.0284 3.9178-2.0284 0.74182 0.00001 1.4238 0.13331 2.0458 0.39989 0.62204 0.2666 1.0876 0.61626 1.3967 1.049 0.30908 0.43274 0.52545 0.9466 0.6491 1.5416 0.0773 0.38637 0.11589 1.0625 0.11591 2.0284v7.5689h-2.0864v-7.4878c-0.00001-0.84999-0.0812-1.4856-0.24341-1.9067-0.16228-0.42113-0.45013-0.75727-0.86353-1.0084-0.41342-0.25112-0.89831-0.37669-1.4547-0.3767-0.88865 0.00001-1.6556 0.28206-2.3008 0.84614-0.64524 0.5641-0.96785 1.6343-0.96785 3.2107v6.7228z"/>
<path d="m590.29 567.83 0.30137 1.843c-0.58728 0.12364-1.1127 0.18546-1.5764 0.18546-0.75728 0-1.3446-0.11978-1.7618-0.35932-0.41728-0.23955-0.71092-0.55444-0.88091-0.94467-0.17001-0.39023-0.25501-1.2112-0.25501-2.4631v-7.0821h-1.53v-1.6227h1.53v-3.0484l2.0748-1.2518v4.3002h2.098v1.6227h-2.098v7.198c-0.00001 0.59501 0.0367 0.97751 0.11011 1.1475 0.0734 0.17 0.19318 0.30523 0.35932 0.40568 0.16614 0.10046 0.40375 0.15068 0.71285 0.15068 0.23181 0 0.53704-0.027 0.91568-0.0811z"/>
</g>
<path d="m288.8 553.69c13.04 0 23.582-10.542 23.582-23.582v-95.734c0-13.04-10.542-23.582-23.582-23.582h-139.31c-13.04 0-23.66 10.542-23.66 23.582v95.734c0 13.04 10.62 23.582 23.66 23.582h139.31z" fill-rule="evenodd" fill="#ffe100"/>
<path stroke-linejoin="round" d="m288.8 553.69c13.04 0 23.582-10.542 23.582-23.582v0-95.734c0-13.04-10.542-23.582-23.582-23.582v0h-139.31c-13.04 0-23.66 10.542-23.66 23.582v0 95.734c0 13.04 10.62 23.582 23.66 23.582v0h139.31z" stroke="#ffc000" stroke-linecap="round" stroke-width="5.2318px" fill="none"/>
<path d="m162.38 531.43c-2.1864 0.46852-4.2167 0.62469-6.1688 0.62469-0.78086 0-1.5617 0-2.2645-0.0781-0.70277-0.0781-1.4836-0.23426-2.3426-0.46852-0.85895-0.23426-1.6398-0.46852-2.1864-0.93703-0.62469-0.31235-1.1713-0.85896-1.5617-1.5617-0.39043-0.70277-0.62469-1.5617-0.62469-2.4988v-8.5114c0-3.8262 2.9673-5.7784 8.98-5.7784 1.4056 0 3.4358 0.15618 6.0908 0.6247v3.5139c-2.3426-0.62469-4.3728-0.85895-6.0908-0.85895-0.6247 0-1.1713 0-1.6398 0.0781-0.39044 0-0.85896 0.15617-1.3275 0.23426-0.46852 0.15617-0.78087 0.46852-1.0151 0.78086-0.23426 0.39043-0.39043 0.78087-0.39043 1.3275v8.2772c0 1.7179 1.6398 2.5768 4.8414 2.5768 1.4056 0 3.2796-0.31234 5.7003-0.85895v3.5139z" fill-rule="evenodd"/>
<path d="m174.64 520.74h-1.4836c-1.1713 0-2.1083 0.15617-2.655 0.54661-0.62469 0.31234-0.93703 0.93703-0.93703 1.8741v8.6676h-4.2948v-14.446h4.0605v2.5768c0.0781-0.70278 0.46852-1.4056 1.2494-1.9522 0.78087-0.62469 1.6398-0.93704 2.4988-0.93704h1.5617v3.6701z" fill-rule="evenodd"/>
<path d="m191.19 522.61v4.2167c0 0.93704-0.15617 1.796-0.46852 2.4207-0.23426 0.70278-0.62469 1.1713-1.0932 1.5617-0.39043 0.39044-1.0151 0.6247-1.7179 0.85896-0.70278 0.15617-1.3275 0.31234-1.8741 0.31234-0.62469 0.0781-1.3275 0.0781-2.1083 0.0781-0.85895 0-1.5617 0-2.1864-0.0781-0.54661 0-1.1713-0.15617-1.8741-0.31234-0.70278-0.23426-1.3275-0.46852-1.7179-0.85896-0.46852-0.39043-0.85896-0.85895-1.0932-1.5617-0.31235-0.62469-0.46852-1.4836-0.46852-2.4207v-4.2167c0-1.0151 0.15617-1.8741 0.46852-2.5769 0.31234-0.70278 0.70277-1.1713 1.0932-1.5617 0.46852-0.39043 1.0151-0.70278 1.7179-0.93704 0.78087-0.15617 1.4056-0.31235 1.9522-0.39043 0.54661 0 1.2494-0.0781 2.1083-0.0781 0.78087 0 1.4836 0.0781 2.0302 0.0781 0.54661 0.0781 1.1713 0.23426 1.9522 0.39043 0.70277 0.23426 1.2494 0.54661 1.7179 0.93704 0.39043 0.39043 0.78087 0.85895 1.0932 1.5617 0.31235 0.70278 0.46852 1.5617 0.46852 2.5769zm-4.3728 4.7633v-5.4661c0-0.78087-0.15617-1.3275-0.5466-1.6398-0.39043-0.31235-1.1713-0.46852-2.3426-0.46852-1.2494 0-2.0302 0.15617-2.4207 0.46852-0.39043 0.31235-0.54661 0.85895-0.54661 1.6398v5.4661c0 0.78086 0.15618 1.2494 0.54661 1.5617 0.39043 0.31234 1.1713 0.46852 2.4207 0.46852 1.1713 0 1.9522-0.15618 2.3426-0.46852 0.39043-0.31235 0.5466-0.78087 0.5466-1.5617z" fill-rule="evenodd"/>
<path d="m206.97 526.2v1.796c0 0.70278-0.15617 1.3275-0.39043 1.796-0.31235 0.54661-0.62469 0.93704-1.0151 1.2494-0.39043 0.31235-0.93703 0.46852-1.5617 0.6247-0.70278 0.23426-1.3275 0.31234-1.9522 0.31234-0.54661 0.0781-1.2494 0.0781-2.1083 0.0781-1.5617 0-3.4358-0.15617-5.7003-0.39043v-2.8892c2.8111 0.39044 4.6852 0.6247 5.7784 0.6247 0.85895 0 1.4836-0.0781 1.9522-0.31235 0.46852-0.15617 0.70278-0.46852 0.70278-0.93704v-0.93704c0-0.39043-0.15617-0.78086-0.39043-1.0151-0.23426-0.23426-0.78087-0.31235-1.6398-0.31235h-1.8741c-1.4836 0-2.6549-0.31234-3.5139-0.93704-0.85895-0.5466-1.2494-1.4836-1.2494-2.6549v-1.7179c0-1.3275 0.62469-2.2645 1.8741-2.733 1.2494-0.46852 2.9673-0.78087 5.2318-0.78087 0.93704 0 2.6549 0.15617 5.1537 0.31235v2.733c-3.1235-0.23426-4.8414-0.31235-5.2318-0.31235-1.2494 0-1.9522 0.0781-2.2645 0.23426-0.39043 0.15617-0.5466 0.46852-0.5466 0.93704v0.78086c0 0.23426 0.15617 0.46852 0.39043 0.70278 0.23426 0.15618 0.62469 0.23426 1.1713 0.23426h1.8741c3.5139 0 5.3099 1.1713 5.3099 3.5139z" fill-rule="evenodd"/>
<path d="m222.58 526.2v1.796c0 0.70278-0.15617 1.3275-0.39043 1.796-0.31235 0.54661-0.62469 0.93704-1.0151 1.2494-0.39044 0.31235-0.93704 0.46852-1.6398 0.6247-0.62469 0.23426-1.2494 0.31234-1.8741 0.31234-0.54661 0.0781-1.3275 0.0781-2.1083 0.0781-1.5617 0-3.4358-0.15617-5.7003-0.39043v-2.8892c2.8111 0.39044 4.6852 0.6247 5.7784 0.6247 0.85895 0 1.4836-0.0781 1.9522-0.31235 0.46852-0.15617 0.70278-0.46852 0.70278-0.93704v-0.93704c0-0.39043-0.15617-0.78086-0.39043-1.0151-0.23426-0.23426-0.78087-0.31235-1.6398-0.31235h-1.8741c-1.4836 0-2.733-0.31234-3.5139-0.93704-0.85895-0.5466-1.2494-1.4836-1.2494-2.6549v-1.7179c0-1.3275 0.62469-2.2645 1.8741-2.733 1.2494-0.46852 2.9673-0.78087 5.2318-0.78087 0.93704 0 2.6549 0.15617 5.1537 0.31235v2.733c-3.1235-0.23426-4.8414-0.31235-5.2318-0.31235-1.2494 0-1.9522 0.0781-2.3426 0.23426-0.31235 0.15617-0.46852 0.46852-0.46852 0.93704v0.78086c0 0.23426 0.15617 0.46852 0.39043 0.70278 0.23426 0.15618 0.62469 0.23426 1.1713 0.23426h1.8741c3.5139 0 5.3099 1.1713 5.3099 3.5139z" fill-rule="evenodd"/>
<path d="m240.54 521.91v4.7633c0 1.9522-0.62469 3.3577-1.796 4.2167-1.1713 0.78087-3.0454 1.1713-5.7003 1.1713-2.733 0-4.6071-0.39043-5.7003-1.2494-1.0151-0.85895-1.5617-2.2645-1.5617-4.1386v-15.695h4.3728v7.8867c0.23426-0.70278 0.70278-1.0932 1.4056-1.4056 0.70278-0.23426 1.796-0.39043 3.2016-0.39043 1.2494 0 2.2645 0.15617 3.0454 0.31235 0.70278 0.23426 1.3275 0.5466 1.7179 1.0151 0.39043 0.39044 0.70277 0.93704 0.78086 1.4836 0.15617 0.46852 0.23426 1.1713 0.23426 2.0302zm-4.3728 5.3099v-5.3099c0-0.93704-0.15617-1.4836-0.46852-1.7179-0.39043-0.31234-1.2494-0.39043-2.6549-0.39043-1.1713 0-1.9522 0.15617-2.3426 0.46852-0.39044 0.31235-0.54661 0.85895-0.54661 1.6398v5.3099c0 0.85896 0.15617 1.4836 0.46852 1.7179 0.39043 0.31234 1.2494 0.46852 2.4988 0.46852s2.1083-0.15618 2.4988-0.46852c0.39043-0.23426 0.5466-0.85895 0.5466-1.7179z" fill-rule="evenodd"/>
<path d="m256.86 531.82h-4.2948v-1.3275c-0.31235 0.5466-0.78086 1.0151-1.3275 1.2494-0.62469 0.23426-1.7179 0.31235-3.2796 0.31235-1.9522 0-3.2015-0.23426-3.9043-0.85895-0.6247-0.62469-0.93704-1.8741-0.93704-3.7482 0-1.6398 0.31234-2.8892 1.0151-3.5139 0.6247-0.70278 1.796-1.0151 3.5139-1.0151h4.8414v-1.0151c0-0.85895-0.23426-1.4056-0.62469-1.7179-0.39043-0.23426-1.2494-0.39043-2.5768-0.39043-1.1713 0-2.8892 0.0781-4.9975 0.31235v-2.733c1.6398-0.15618 3.4358-0.31235 5.466-0.31235 2.655 0 4.529 0.39043 5.5442 1.0151 1.0151 0.62469 1.5617 1.8741 1.5617 3.8262v9.917zm-4.3728-3.7482v-2.733h-2.9673c-0.93704 0-1.5617 0.0781-1.796 0.31234-0.23426 0.23426-0.31234 0.78087-0.31234 1.7179 0 0.93704 0.0781 1.4836 0.31234 1.7179 0.31235 0.15617 0.93704 0.31235 1.8741 0.31235h1.1713c0.23426-0.0781 0.46852-0.0781 0.78087-0.0781 0.23426-0.0781 0.46851-0.15617 0.5466-0.23426 0.0781-0.0781 0.15617-0.23426 0.31235-0.39043 0.0781-0.15618 0.0781-0.31235 0.0781-0.62469z" fill-rule="evenodd"/>
<path d="m270.06 520.74h-1.4836c-1.1713 0-2.1083 0.15617-2.6549 0.54661-0.62469 0.31234-0.93704 0.93703-0.93704 1.8741v8.6676h-4.3728v-14.446h4.1386v2.5768c0.0781-0.70278 0.46852-1.4056 1.2494-1.9522 0.78086-0.62469 1.6398-0.93704 2.4988-0.93704h1.5617v3.6701z" fill-rule="evenodd"/>
<path d="m272.64 528.62v3.2016h3.4358v-3.2016h-3.4358z" fill-rule="evenodd"/>
<path d="m283.1 514.96h-2.6549v-2.733h2.6549v2.733zm0 16.867h-2.6549v-14.446h2.6549v14.446z" fill-rule="evenodd"/>
<path d="m300.44 522.22v4.9975c0 0.93704-0.0781 1.6398-0.31235 2.2645-0.23426 0.6247-0.46852 1.0932-0.78086 1.4836-0.39044 0.31234-0.85895 0.5466-1.4836 0.70278-0.62469 0.23426-1.2494 0.31234-1.796 0.39043h-2.1864c-1.2494 0-2.1864 0-2.8111-0.0781-0.70278-0.0781-1.3275-0.31234-2.0302-0.62469-0.62469-0.31235-1.0932-0.78086-1.4056-1.4056-0.31234-0.70278-0.39043-1.5617-0.39043-2.733v-4.9975c0-0.93703 0.0781-1.7179 0.31235-2.3426 0.23426-0.70278 0.46852-1.1713 0.85895-1.5617 0.31235-0.39044 0.78086-0.6247 1.4056-0.78087 0.62469-0.23426 1.2494-0.31235 1.796-0.39043 0.5466 0 1.2494-0.0781 2.2645-0.0781 0.93704 0 1.6398 0.0781 2.1864 0.0781 0.54661 0.0781 1.1713 0.15617 1.796 0.39043 0.6247 0.15617 1.0932 0.39043 1.4056 0.78087 0.31235 0.39043 0.62469 0.85895 0.85895 1.5617 0.23426 0.62469 0.31235 1.4056 0.31235 2.3426zm-2.733 5.388v-5.7784c0-1.3275-0.23426-2.1864-0.78087-2.4988-0.5466-0.31234-1.5617-0.46852-3.0454-0.46852-1.5617 0-2.5769 0.15618-3.1235 0.46852-0.54661 0.31235-0.78087 1.1713-0.78087 2.4988v5.7784c0 0.62469 0 1.1713 0.15617 1.5617 0.15618 0.31234 0.39044 0.62469 0.78087 0.78086 0.39043 0.15618 0.78086 0.31235 1.1713 0.31235 0.39043 0.0781 1.0151 0.0781 1.796 0.0781 0.70278 0 1.3275 0 1.7179-0.0781 0.39044 0 0.78087-0.15617 1.1713-0.31235 0.39043-0.15617 0.62469-0.46852 0.78087-0.78086 0.0781-0.39044 0.15617-0.93704 0.15617-1.5617z" fill-rule="evenodd"/>
<path d="m188.38 429.92v64.812h64.734v-64.812h-64.734z" fill-rule="evenodd"/>
<path d="m188.38 443.66v6.4812l15.227-0.0781 10.151 10.151 4.7633-4.6852-12.025-12.025-18.116 0.15617z" fill-rule="evenodd" fill="#ffe100"/>
<path d="m227.66 464.75-4.6852 4.6852 11.635 11.635h18.507v-6.4812h-15.617l-9.8389-9.8389z" fill-rule="evenodd" fill="#ffe100"/>
<path d="m235.08 443.59-30.922 31.078h-15.773v6.4812h18.507l31-31h15.227v-6.5593h-18.038z" fill-rule="evenodd" fill="#ffe100"/>
<path stroke-linejoin="round" d="m202.13 557.44-32.562 93.548" stroke="#000" stroke-linecap="round" stroke-width="3.592px" fill="none"/>
<path stroke-linejoin="round" d="m315.43 503.09 143.99 45.368" stroke="#000" stroke-linecap="round" stroke-width="3.592px" fill="none"/>
<path stroke-linejoin="round" d="m435.84 342.54-92.77 56.46" stroke="#3475cd" stroke-linecap="round" stroke-width="5.2318px" fill="none"/>
<path d="m350.88 406.73-23.66 1.9522 12.572-20.068 11.088 18.116z" fill-rule="evenodd" fill="#3475cd"/>
<g fill="#3475cd" transform="rotate(-31)">
<path fill="#3475cd" d="m82.752 495.44 2.1211-0.18546c0.10045 0.85001 0.3342 1.5474 0.70125 2.0922 0.36704 0.54478 0.93693 0.98524 1.7097 1.3214 0.77272 0.33614 1.642 0.50421 2.608 0.50421 0.85772 0 1.615-0.1275 2.2718-0.3825 0.65681-0.255 1.1456-0.60466 1.4663-1.049 0.32067-0.44432 0.48101-0.92921 0.48102-1.4547-0.000012-0.53318-0.15456-0.99875-0.46364-1.3967-0.3091-0.39795-0.81911-0.73216-1.53-1.0026-0.45592-0.17772-1.4643-0.45397-3.0252-0.82876-1.5609-0.37476-2.6543-0.72829-3.2802-1.0606-0.81137-0.42499-1.416-0.95238-1.814-1.5822-0.39796-0.62976-0.59694-1.3349-0.59694-2.1154-0.000001-0.85772 0.24341-1.6594 0.73023-2.4051 0.48682-0.74567 1.1977-1.3117 2.1327-1.6981 0.935-0.38634 1.9743-0.57953 3.118-0.57954 1.2595 0.00001 2.3703 0.20286 3.3324 0.60852 0.96204 0.4057 1.7019 1.0026 2.2197 1.7908 0.51772 0.7882 0.7959 1.6807 0.83455 2.6775l-2.1559 0.16228c-0.11592-1.0741-0.50808-1.8855-1.1765-2.4341-0.66842-0.54862-1.6556-0.82294-2.9615-0.82296-1.36 0.00002-2.351 0.24922-2.9731 0.74762-0.62205 0.49843-0.93308 1.0992-0.93307 1.8024-0.000004 0.61047 0.22022 1.1127 0.66069 1.5068 0.43272 0.39411 1.5628 0.79786 3.3904 1.2113 1.8275 0.41342 3.0813 0.77467 3.7613 1.0838 0.98908 0.45592 1.7193 1.0335 2.1907 1.7328 0.47135 0.69932 0.70703 1.5049 0.70705 2.4167-0.000015 0.9041-0.25888 1.756-0.7766 2.5558-0.51774 0.79978-1.2615 1.4218-2.2313 1.8662-0.96979 0.44432-2.0613 0.66648-3.2744 0.66648-1.5377 0-2.8263-0.22409-3.8656-0.67228-1.0393-0.44818-1.8546-1.1224-2.4457-2.0226-0.59114-0.90023-0.90216-1.9183-0.93307-3.0542z"/>
</g>
<g fill="#3475cd" transform="rotate(-31)">
<path fill="#3475cd" d="m106.53 499.84v-1.8082c-0.9582 1.3909-2.2602 2.0864-3.9062 2.0864-0.72637 0-1.4044-0.13909-2.0342-0.41727-0.62978-0.27819-1.0973-0.62785-1.4025-1.049-0.30523-0.42113-0.51966-0.93693-0.6433-1.5474-0.085-0.40954-0.1275-1.0586-0.1275-1.9473v-7.6269h2.0864v6.8271c0 1.0896 0.0425 1.8236 0.1275 2.2023 0.13136 0.54865 0.40955 0.97944 0.83455 1.2924s0.95046 0.46943 1.5764 0.46943c0.62591 0 1.2132-0.16034 1.7618-0.48102 0.54863-0.32068 0.93693-0.75728 1.1649-1.3098 0.22794-0.5525 0.34192-1.3542 0.34193-2.4051v-6.5953h2.0864v12.31z"/>
</g>
<g fill="#3475cd" transform="rotate(-31)">
<path fill="#3475cd" d="m113.24 500.28h-1.9357v-16.992h2.0864v6.0621c0.88091-1.105 2.0052-1.6575 3.373-1.6575 0.75727 0.00001 1.474 0.15263 2.1501 0.45784 0.67613 0.30524 1.2325 0.73411 1.6691 1.2866 0.43658 0.55251 0.77852 1.219 1.0258 1.9994 0.24726 0.78047 0.3709 1.615 0.37091 2.5036-0.00001 2.1096-0.5216 3.74-1.5648 4.8914s-2.295 1.7271-3.7555 1.7271c-1.4527 0-2.5925-0.6066-3.4193-1.8198zm-0.0232-6.2475c-0.00001 1.4759 0.2009 2.5423 0.60273 3.1991 0.65681 1.0741 1.5455 1.6112 2.6659 1.6111 0.91182 0.00001 1.7-0.39602 2.3646-1.1881 0.66454-0.79205 0.99681-1.9724 0.99682-3.541-0.00001-1.6073-0.31876-2.7934-0.95625-3.5584-0.63751-0.76499-1.4083-1.1475-2.3124-1.1475-0.91183 0.00001-1.7 0.39604-2.3646 1.1881-0.66455 0.79206-0.99683 1.9376-0.99682 3.4367z"/>
</g>
<g fill="#3475cd" transform="rotate(-31)">
<path fill="#3475cd" d="m123.98 495.97 2.0632-0.32455c0.11591 0.82683 0.43853 1.4605 0.96785 1.9009 0.52932 0.44046 1.2692 0.66069 2.2197 0.66069 0.95818 0 1.6691-0.19512 2.1327-0.58535 0.46363-0.39022 0.69545-0.84807 0.69546-1.3735-0.00001-0.47136-0.20478-0.84227-0.61432-1.1127-0.28592-0.18545-0.99683-0.42113-2.1327-0.70705-1.53-0.38636-2.5906-0.72057-3.1817-1.0026-0.59115-0.28204-1.0393-0.67227-1.3446-1.1707-0.30523-0.4984-0.45784-1.049-0.45784-1.6517 0-0.54863 0.12557-1.0567 0.37671-1.5242 0.25113-0.46749 0.59307-0.85579 1.0258-1.1649 0.32454-0.23953 0.76693-0.44237 1.3272-0.60852 0.56023-0.16613 1.161-0.2492 1.8024-0.24921 0.96591 0.00001 1.814 0.13911 2.5442 0.41728 0.73022 0.27819 1.2692 0.6549 1.6169 1.1301 0.34772 0.47524 0.58726 1.1108 0.71864 1.9067l-2.04 0.27819c-0.0927-0.63364-0.36126-1.1282-0.80557-1.4836-0.44433-0.35545-1.0722-0.53317-1.8835-0.53318-0.95819 0.00001-1.6421 0.15842-2.0516 0.47523-0.40955 0.31683-0.61432 0.68774-0.61432 1.1127 0 0.27046 0.085 0.51387 0.255 0.73023 0.17 0.2241 0.43659 0.40956 0.79978 0.55637 0.20863 0.0773 0.82295 0.25501 1.843 0.53318 1.4759 0.3941 2.5056 0.71672 3.089 0.96785 0.5834 0.25114 1.0412 0.61626 1.3735 1.0953 0.33226 0.4791 0.4984 1.0741 0.49841 1.785-0.00001 0.69547-0.20285 1.3504-0.60853 1.9647-0.40569 0.61433-0.99104 1.0896-1.756 1.4257-0.76501 0.33614-1.6305 0.50421-2.5964 0.50421-1.5996 0-2.8185-0.33227-3.657-0.99682-0.83842-0.66455-1.3735-1.6498-1.6054-2.9557z"/>
</g>
<g fill="#3475cd" transform="rotate(-31)">
<path fill="#3475cd" d="m144.64 494.93 2.0516 0.26659c-0.22411 1.4141-0.79786 2.521-1.7213 3.3208-0.92343 0.79978-2.0574 1.1997-3.402 1.1997-1.6846 0-3.0388-0.55057-4.0626-1.6517-1.0239-1.1011-1.5358-2.6794-1.5358-4.7349-0.00001-1.3291 0.22022-2.492 0.66068-3.4889 0.44046-0.99682 1.1108-1.7444 2.011-2.2429 0.90023-0.4984 1.8797-0.7476 2.9383-0.74762 1.3368 0.00002 2.4302 0.33809 3.2802 1.0142 0.85 0.67616 1.3948 1.6363 1.6343 2.8804l-2.0284 0.31296c-0.19319-0.82682-0.53513-1.4489-1.0258-1.8662-0.49069-0.41726-1.0838-0.6259-1.7792-0.62591-1.0509 0.00001-1.9048 0.37672-2.5616 1.1301-0.65683 0.75342-0.98524 1.9454-0.98523 3.5758-0.00001 1.6536 0.31681 2.8552 0.95046 3.6048 0.63363 0.74955 1.4604 1.1243 2.4805 1.1243 0.81909 0 1.503-0.25114 2.0516-0.75341 0.54863-0.50228 0.89635-1.275 1.0432-2.3182z"/>
</g>
<g fill="#3475cd" transform="rotate(-31)">
<path fill="#3475cd" d="m147.72 500.3v-12.31h1.8777v1.8662c0.47909-0.87318 0.92148-1.4489 1.3272-1.727 0.40568-0.27818 0.85193-0.41727 1.3388-0.41728 0.70317 0.00001 1.418 0.2241 2.1443 0.67228l-0.71864 1.9357c-0.51001-0.30136-1.02-0.45204-1.53-0.45205-0.45592 0.00001-0.86547 0.13717-1.2286 0.41148-0.36318 0.27433-0.62205 0.6549-0.77659 1.1417-0.23182 0.74183-0.34773 1.5532-0.34773 2.4341v6.4446z"/>
</g>
<g fill="#3475cd" transform="rotate(-31)">
<path fill="#3475cd" d="m155.69 484.64v-2.3993h2.0864v2.3993zm0 14.593v-12.31h2.0864v12.31z"/>
</g>
<g fill="#3475cd" transform="rotate(-31)">
<path fill="#3475cd" d="m163.17 499.67h-1.9357v-16.992h2.0864v6.0621c0.88091-1.105 2.0052-1.6575 3.373-1.6575 0.75727 0.00002 1.474 0.15263 2.1501 0.45785 0.67613 0.30524 1.2325 0.7341 1.6691 1.2866 0.43658 0.55252 0.77852 1.219 1.0258 1.9994 0.24726 0.78046 0.3709 1.615 0.37091 2.5036-0.00001 2.1096-0.5216 3.74-1.5648 4.8914s-2.295 1.727-3.7555 1.727c-1.4527 0-2.5925-0.60659-3.4193-1.8198zm-0.0232-6.2475c0 1.4759 0.20091 2.5423 0.60273 3.1991 0.65682 1.0741 1.5455 1.6112 2.6659 1.6112 0.91182 0 1.7-0.39602 2.3646-1.1881 0.66454-0.79204 0.99682-1.9724 0.99683-3.541-0.00001-1.6073-0.31877-2.7934-0.95626-3.5584-0.63751-0.76499-1.4083-1.1475-2.3124-1.1475-0.91183 0.00001-1.7 0.39603-2.3646 1.1881-0.66455 0.79206-0.99682 1.9376-0.99682 3.4367z"/>
</g>
<g fill="#3475cd" transform="rotate(-31)">
<path fill="#3475cd" d="m182.53 496.14 2.1559 0.26659c-0.34001 1.2596-0.96979 2.2371-1.8893 2.9325-0.91956 0.69546-2.0941 1.0432-3.5236 1.0432-1.8005 0-3.2281-0.55444-4.2829-1.6633s-1.5822-2.664-1.5822-4.6654c-0.00001-2.0709 0.53318-3.6782 1.5996-4.8218s2.4496-1.7154 4.1496-1.7155c1.6459 0.00001 2.9905 0.56024 4.0337 1.6807s1.5648 2.6968 1.5648 4.7291c-0.00001 0.12364-0.004 0.3091-0.0116 0.55636h-9.18c0.0773 1.3523 0.45977 2.3878 1.1475 3.1064 0.68773 0.71865 1.5455 1.078 2.5732 1.078 0.765 0.00001 1.418-0.2009 1.9589-0.60273 0.54091-0.40181 0.96977-1.0432 1.2866-1.9241zm-6.8503-3.373h6.8734c-0.0927-1.0354-0.35546-1.812-0.78818-2.3298-0.66456-0.80363-1.5262-1.2054-2.5848-1.2055-0.95819 0.00001-1.7638 0.3207-2.4167 0.96205-0.65296 0.64138-1.0142 1.4991-1.0838 2.5732z"/>
</g>
<path d="m575.15 414.3c13.04 0 23.582-10.542 23.582-23.582v-62.313c0-13.04-10.542-23.582-23.582-23.582h-89.721c-13.04 0-23.582 10.542-23.582 23.582v62.313c0 13.04 10.542 23.582 23.582 23.582h89.721z" fill-rule="evenodd" fill="#595959"/>
<path stroke-linejoin="round" d="m575.15 414.3c13.04 0 23.582-10.542 23.582-23.582v0-62.313c0-13.04-10.542-23.582-23.582-23.582v0h-89.721c-13.04 0-23.582 10.542-23.582 23.582v0 62.313c0 13.04 10.542 23.582 23.582 23.582v0h89.721z" stroke="#000" stroke-linecap="round" stroke-width="3.592px" fill="none"/>
<g fill="#fff">
<path d="m509.13 352.3 6.5257-16.992h2.4225l6.9546 16.992h-2.5616l-1.9821-5.1464h-7.1053l-1.8661 5.1464zm4.903-6.9778h5.7607l-1.7734-4.7059c-0.54092-1.4295-0.94274-2.6041-1.2055-3.5237-0.21637 1.0896-0.5216 2.1714-0.91568 3.2455z"/>
<path d="m526.58 357.02v-17.027h1.9009v1.5996c0.44818-0.6259 0.95432-1.0953 1.5184-1.4083 0.56409-0.31295 1.248-0.46943 2.0516-0.46944 1.0509 0.00001 1.9782 0.27047 2.7818 0.81137 0.80363 0.54092 1.4102 1.304 1.8198 2.2892 0.40953 0.98524 0.61431 2.0651 0.61432 3.2397-0.00001 1.2596-0.22604 2.3935-0.67807 3.402-0.45206 1.0084-1.1089 1.7812-1.9705 2.3182-0.8616 0.53705-1.7676 0.80557-2.7181 0.80557-0.69547 0-1.3194-0.14682-1.8719-0.44046-0.55251-0.29363-1.0065-0.66454-1.3619-1.1127v5.9925zm1.8893-10.803c0 1.5841 0.32068 2.7548 0.96205 3.5121 0.64136 0.75728 1.418 1.1359 2.3298 1.1359 0.92727 0 1.7212-0.39216 2.3819-1.1765 0.66068-0.78431 0.99102-1.9994 0.99103-3.6454-0.00001-1.5686-0.32263-2.7432-0.96785-3.5236-0.64524-0.78045-1.416-1.1707-2.3124-1.1707-0.88864 0.00001-1.6749 0.41535-2.3588 1.246-0.68387 0.83069-1.0258 2.0381-1.0258 3.6222z"/>
<path d="m539.8 357.02v-17.027h1.9009v1.5996c0.44818-0.6259 0.95432-1.0953 1.5184-1.4083 0.56409-0.31295 1.248-0.46943 2.0516-0.46944 1.0509 0.00001 1.9782 0.27047 2.7818 0.81137 0.80363 0.54092 1.4102 1.304 1.8198 2.2892 0.40953 0.98524 0.61431 2.0651 0.61432 3.2397-0.00001 1.2596-0.22604 2.3935-0.67807 3.402-0.45206 1.0084-1.1089 1.7812-1.9705 2.3182-0.8616 0.53705-1.7676 0.80557-2.7181 0.80557-0.69547 0-1.3194-0.14682-1.8719-0.44046-0.55251-0.29363-1.0065-0.66454-1.3619-1.1127v5.9925zm1.8893-10.803c0 1.5841 0.32068 2.7548 0.96205 3.5121 0.64136 0.75728 1.418 1.1359 2.3298 1.1359 0.92727 0 1.7212-0.39216 2.3819-1.1765 0.66068-0.78431 0.99102-1.9994 0.99103-3.6454-0.00001-1.5686-0.32263-2.7432-0.96785-3.5236-0.64524-0.78045-1.416-1.1707-2.3124-1.1707-0.88864 0.00001-1.6749 0.41535-2.3588 1.246-0.68387 0.83069-1.0258 2.0381-1.0258 3.6222z"/>
</g>
<g fill="#fff">
<path d="m484.39 375.08 2.2486 0.56796c-0.47138 1.8468-1.3194 3.2551-2.5442 4.2249-1.2248 0.96977-2.722 1.4547-4.4915 1.4547-1.8314 0-3.3208-0.37284-4.4683-1.1185-1.1475-0.74568-2.0207-1.8256-2.6196-3.2397-0.59886-1.4141-0.8983-2.9325-0.8983-4.5553 0-1.7695 0.33807-3.3131 1.0142-4.6306 0.67614-1.3175 1.6382-2.3182 2.8862-3.0021 1.248-0.68385 2.6215-1.0258 4.1206-1.0258 1.7 0.00002 3.1296 0.43274 4.2887 1.2982 1.1591 0.86547 1.9666 2.0825 2.4225 3.6512l-2.2139 0.5216c-0.3941-1.2364-0.96592-2.1366-1.7155-2.7007-0.74956-0.56408-1.6923-0.84612-2.8282-0.84614-1.3059 0.00002-2.3974 0.31297-3.2744 0.93887-0.87705 0.62592-1.4933 1.4663-1.8488 2.521-0.35546 1.0548-0.53319 2.1424-0.53318 3.2628-0.00001 1.445 0.21056 2.7065 0.63171 3.7845 0.42113 1.078 1.076 1.8835 1.9647 2.4167 0.88863 0.53319 1.8507 0.79978 2.8862 0.79978 1.2595 0 2.3259-0.36318 3.1991-1.0896 0.87317-0.72636 1.4643-1.8043 1.7734-3.2339z"/>
<path d="m488.37 374.88c0-2.2796 0.63364-3.968 1.9009-5.0652 1.0586-0.91181 2.3491-1.3677 3.8714-1.3677 1.6923 0.00001 3.0755 0.55445 4.1496 1.6633 1.0741 1.1089 1.6111 2.6408 1.6112 4.5958-0.00001 1.5841-0.23763 2.8301-0.71285 3.7381-0.47524 0.90796-1.1668 1.6131-2.0748 2.1154-0.90797 0.50227-1.899 0.75341-2.9731 0.75341-1.7232 0-3.116-0.5525-4.1786-1.6575-1.0625-1.105-1.5938-2.6968-1.5938-4.7755zm2.1443 0c0 1.5764 0.34386 2.7567 1.0316 3.541 0.68772 0.78433 1.5532 1.1765 2.5964 1.1765 1.0354 0 1.897-0.39409 2.5848-1.1823 0.68772-0.78818 1.0316-1.9898 1.0316-3.6048-0.00001-1.5223-0.34581-2.6756-1.0374-3.4599-0.69161-0.78431-1.5513-1.1765-2.579-1.1765-1.0432 0.00001-1.9087 0.39024-2.5964 1.1707-0.68774 0.78046-1.0316 1.9589-1.0316 3.5352z"/>
<path d="m502.36 381.04v-12.31h1.8662v1.727c0.38636-0.60272 0.90023-1.0876 1.5416-1.4547 0.64136-0.36703 1.3716-0.55056 2.1907-0.55057 0.91182 0.00001 1.6594 0.18933 2.2429 0.56796 0.5834 0.37865 0.99488 0.90797 1.2344 1.588 0.97363-1.4373 2.2409-2.1559 3.8018-2.1559 1.2209 0.00001 2.1598 0.33808 2.8166 1.0142 0.65681 0.67615 0.98522 1.7174 0.98523 3.1238v8.4498h-2.0748v-7.7544c-0.00002-0.83454-0.0676-1.4353-0.20284-1.8024-0.13525-0.36704-0.38059-0.66261-0.73603-0.88671-0.35547-0.22408-0.77274-0.33613-1.2518-0.33614-0.86548 0.00001-1.5841 0.28786-2.1559 0.86353-0.57184 0.5757-0.85775 1.4972-0.85774 2.7644v7.1516h-2.0864v-7.9978c-0.00001-0.92727-0.17001-1.6227-0.51-2.0864-0.34001-0.46363-0.89638-0.69545-1.6691-0.69546-0.58729 0.00001-1.1301 0.15456-1.6285 0.46364-0.49841 0.30911-0.85966 0.76115-1.0838 1.3562-0.2241 0.59501-0.33614 1.4527-0.33614 2.5732v6.3866z"/>
<path d="m522.16 385.76v-17.027h1.9009v1.5996c0.44819-0.6259 0.95432-1.0953 1.5184-1.4083 0.56409-0.31295 1.248-0.46943 2.0516-0.46944 1.0509 0.00001 1.9782 0.27047 2.7818 0.81137 0.80363 0.54092 1.4102 1.304 1.8198 2.2892 0.40954 0.98524 0.61431 2.0651 0.61432 3.2397-0.00001 1.2596-0.22603 2.3935-0.67807 3.402-0.45206 1.0084-1.1089 1.7812-1.9705 2.3182-0.8616 0.53705-1.7676 0.80557-2.7181 0.80557-0.69546 0-1.3194-0.14682-1.8719-0.44046-0.55251-0.29363-1.0065-0.66454-1.3619-1.1127v5.9925zm1.8893-10.803c0 1.5841 0.32068 2.7548 0.96205 3.5121 0.64137 0.75728 1.418 1.1359 2.3298 1.1359 0.92727 0 1.7212-0.39216 2.3819-1.1765 0.66068-0.78432 0.99102-1.9994 0.99103-3.6454-0.00001-1.5686-0.32262-2.7432-0.96784-3.5236-0.64524-0.78045-1.416-1.1707-2.3124-1.1707-0.88865 0.00001-1.6749 0.41535-2.3588 1.246-0.68387 0.83069-1.0258 2.0381-1.0258 3.6222z"/>
<path d="m534.6 374.88c0-2.2796 0.63364-3.968 1.9009-5.0652 1.0586-0.91181 2.3491-1.3677 3.8714-1.3677 1.6923 0.00001 3.0755 0.55445 4.1496 1.6633 1.0741 1.1089 1.6111 2.6408 1.6112 4.5958-0.00001 1.5841-0.23763 2.8301-0.71285 3.7381-0.47524 0.90796-1.1668 1.6131-2.0748 2.1154-0.90797 0.50227-1.899 0.75341-2.9731 0.75341-1.7232 0-3.116-0.5525-4.1786-1.6575-1.0625-1.105-1.5938-2.6968-1.5938-4.7755zm2.1443 0c0 1.5764 0.34386 2.7567 1.0316 3.541 0.68772 0.78433 1.5532 1.1765 2.5964 1.1765 1.0354 0 1.897-0.39409 2.5848-1.1823 0.68772-0.78818 1.0316-1.9898 1.0316-3.6048-0.00001-1.5223-0.34581-2.6756-1.0374-3.4599-0.69161-0.78431-1.5513-1.1765-2.579-1.1765-1.0432 0.00001-1.9087 0.39024-2.5964 1.1707-0.68774 0.78046-1.0316 1.9589-1.0316 3.5352z"/>
<path d="m548.59 381.04v-12.31h1.8777v1.7502c0.90409-1.3523 2.21-2.0284 3.9178-2.0284 0.74181 0.00001 1.4238 0.13331 2.0458 0.39989 0.62203 0.26661 1.0876 0.61627 1.3967 1.049 0.30908 0.43274 0.52544 0.94661 0.64909 1.5416 0.0773 0.38638 0.1159 1.0625 0.11591 2.0284v7.5689h-2.0864v-7.4878c-0.00001-0.85-0.0811-1.4856-0.24341-1.9067-0.16229-0.42113-0.45013-0.75727-0.86353-1.0084-0.41342-0.25113-0.89831-0.3767-1.4547-0.37671-0.88864 0.00001-1.6556 0.28206-2.3008 0.84614-0.64523 0.56411-0.96785 1.6343-0.96784 3.2107v6.7228z"/>
<path d="m570.23 377.07 2.1559 0.26659c-0.34002 1.2596-0.96979 2.2371-1.8893 2.9325-0.91956 0.69546-2.0941 1.0432-3.5237 1.0432-1.8005 0-3.2281-0.55443-4.2829-1.6633s-1.5822-2.664-1.5822-4.6654c0-2.0709 0.53318-3.6782 1.5996-4.8218s2.4496-1.7155 4.1496-1.7155c1.6459 0.00001 2.9905 0.56024 4.0337 1.6807s1.5648 2.6968 1.5648 4.7291c-0.00001 0.12364-0.004 0.3091-0.0116 0.55637h-9.18c0.0773 1.3523 0.45977 2.3877 1.1475 3.1064 0.68772 0.71864 1.5455 1.078 2.5732 1.078 0.765 0 1.418-0.20091 1.9589-0.60273s0.96977-1.0432 1.2866-1.9241zm-6.8503-3.373h6.8734c-0.0927-1.0354-0.35547-1.812-0.78819-2.3298-0.66455-0.80363-1.5262-1.2054-2.5848-1.2055-0.9582 0.00001-1.7638 0.32069-2.4167 0.96205-0.65296 0.64137-1.0142 1.4991-1.0838 2.5732z"/>
<path d="m575.02 381.04v-12.31h1.8777v1.7502c0.90409-1.3523 2.21-2.0284 3.9178-2.0284 0.74181 0.00001 1.4238 0.13331 2.0458 0.39989 0.62204 0.26661 1.0876 0.61627 1.3967 1.049 0.30908 0.43274 0.52545 0.94661 0.64909 1.5416 0.0773 0.38638 0.1159 1.0625 0.11591 2.0284v7.5689h-2.0864v-7.4878c-0.00001-0.85-0.0811-1.4856-0.24341-1.9067-0.16228-0.42113-0.45013-0.75727-0.86353-1.0084-0.41342-0.25113-0.89831-0.3767-1.4547-0.37671-0.88864 0.00001-1.6556 0.28206-2.3008 0.84614-0.64524 0.56411-0.96785 1.6343-0.96785 3.2107v6.7228z"/>
<path d="m592.79 379.17 0.30137 1.843c-0.58728 0.12363-1.1127 0.18545-1.5764 0.18545-0.75728 0-1.3446-0.11977-1.7618-0.35932-0.41728-0.23954-0.71092-0.55443-0.88091-0.94466-0.17001-0.39023-0.25501-1.2113-0.25501-2.4631v-7.0821h-1.53v-1.6227h1.53v-3.0484l2.0748-1.2518v4.3003h2.098v1.6227h-2.098v7.198c-0.00001 0.595 0.0367 0.9775 0.11011 1.1475 0.0734 0.17001 0.19318 0.30523 0.35932 0.40569 0.16613 0.10045 0.40375 0.15068 0.71285 0.15068 0.23181 0 0.53704-0.027 0.91568-0.0811z"/>
</g>
<path stroke-linejoin="round" d="m315.43 446.48 146.41-86.91" stroke="#000" stroke-linecap="round" stroke-width="3.592px" fill="none"/>
<path d="m431.15 760.93c13.04 0 23.582-10.542 23.582-23.582v-62.313c0-13.04-10.542-23.66-23.582-23.66h-89.721c-13.04 0-23.66 10.62-23.66 23.66v62.313c0 13.04 10.62 23.582 23.66 23.582h89.721z" fill-rule="evenodd" fill="#595959"/>
<path stroke-linejoin="round" d="m431.15 760.93c13.04 0 23.582-10.542 23.582-23.582v0-62.313c0-13.04-10.542-23.66-23.582-23.66v0h-89.721c-13.04 0-23.66 10.62-23.66 23.66v0 62.313c0 13.04 10.62 23.582 23.66 23.582v0h89.721z" stroke="#000" stroke-linecap="round" stroke-width="3.592px" fill="none"/>
<g fill="#fff">
<path d="m365.45 699.63 6.5257-16.992h2.4225l6.9546 16.992h-2.5616l-1.9821-5.1464h-7.1053l-1.8661 5.1464zm4.903-6.9778h5.7607l-1.7734-4.7059c-0.54092-1.4295-0.94274-2.6041-1.2055-3.5237-0.21637 1.0896-0.5216 2.1714-0.91568 3.2455z"/>
<path d="m382.9 704.35v-17.027h1.9009v1.5996c0.44818-0.6259 0.95432-1.0953 1.5184-1.4083 0.56409-0.31295 1.248-0.46943 2.0516-0.46944 1.0509 0.00001 1.9782 0.27047 2.7818 0.81137 0.80363 0.54092 1.4102 1.304 1.8198 2.2892 0.40953 0.98524 0.61431 2.0651 0.61432 3.2397-0.00001 1.2596-0.22604 2.3935-0.67807 3.402-0.45206 1.0084-1.1089 1.7812-1.9705 2.3182-0.8616 0.53705-1.7676 0.80557-2.7181 0.80557-0.69547 0-1.3194-0.14682-1.8719-0.44046-0.55251-0.29363-1.0065-0.66454-1.3619-1.1127v5.9925zm1.8893-10.803c0 1.5841 0.32068 2.7548 0.96205 3.5121 0.64136 0.75728 1.418 1.1359 2.3298 1.1359 0.92727 0 1.7212-0.39216 2.3819-1.1765 0.66068-0.78432 0.99102-1.9994 0.99103-3.6454-0.00001-1.5686-0.32263-2.7432-0.96785-3.5236-0.64524-0.78045-1.416-1.1707-2.3124-1.1707-0.88864 0.00001-1.6749 0.41535-2.3588 1.246-0.68387 0.83069-1.0258 2.0381-1.0258 3.6222z"/>
<path d="m396.12 704.35v-17.027h1.9009v1.5996c0.44818-0.6259 0.95432-1.0953 1.5184-1.4083 0.56409-0.31295 1.248-0.46943 2.0516-0.46944 1.0509 0.00001 1.9782 0.27047 2.7818 0.81137 0.80363 0.54092 1.4102 1.304 1.8198 2.2892 0.40953 0.98524 0.61431 2.0651 0.61432 3.2397-0.00001 1.2596-0.22604 2.3935-0.67807 3.402-0.45206 1.0084-1.1089 1.7812-1.9705 2.3182-0.8616 0.53705-1.7676 0.80557-2.7181 0.80557-0.69547 0-1.3194-0.14682-1.8719-0.44046-0.55251-0.29363-1.0065-0.66454-1.3619-1.1127v5.9925zm1.8893-10.803c0 1.5841 0.32068 2.7548 0.96205 3.5121 0.64136 0.75728 1.418 1.1359 2.3298 1.1359 0.92727 0 1.7212-0.39216 2.3819-1.1765 0.66068-0.78432 0.99102-1.9994 0.99103-3.6454-0.00001-1.5686-0.32263-2.7432-0.96785-3.5236-0.64524-0.78045-1.416-1.1707-2.3124-1.1707-0.88864 0.00001-1.6749 0.41535-2.3588 1.246-0.68387 0.83069-1.0258 2.0381-1.0258 3.6222z"/>
</g>
<g fill="#fff">
<path d="m339.46 721.16 2.2486 0.56796c-0.47138 1.8468-1.3194 3.2551-2.5442 4.2249-1.2248 0.96977-2.722 1.4547-4.4915 1.4547-1.8314 0-3.3208-0.37284-4.4683-1.1185-1.1475-0.74568-2.0207-1.8256-2.6196-3.2397-0.59886-1.4141-0.8983-2.9325-0.8983-4.5552 0-1.7696 0.33807-3.3131 1.0142-4.6306 0.67614-1.3175 1.6382-2.3182 2.8862-3.0021 1.248-0.68385 2.6215-1.0258 4.1206-1.0258 1.7 0.00002 3.1296 0.43275 4.2887 1.2982 1.1591 0.86547 1.9666 2.0825 2.4225 3.6512l-2.2139 0.5216c-0.3941-1.2364-0.96592-2.1366-1.7155-2.7007-0.74956-0.56408-1.6923-0.84612-2.8282-0.84614-1.3059 0.00002-2.3974 0.31297-3.2744 0.93887-0.87705 0.62593-1.4933 1.4663-1.8488 2.521-0.35546 1.0548-0.53319 2.1424-0.53318 3.2628-0.00001 1.445 0.21056 2.7065 0.63171 3.7845 0.42113 1.078 1.076 1.8835 1.9647 2.4167 0.88863 0.53318 1.8507 0.79977 2.8862 0.79977 1.2595 0 2.3259-0.36318 3.1991-1.0896 0.87317-0.72636 1.4643-1.8043 1.7734-3.2339z"/>
<path d="m343.45 720.96c0-2.2796 0.63364-3.968 1.9009-5.0652 1.0586-0.91181 2.3491-1.3677 3.8714-1.3677 1.6923 0.00002 3.0755 0.55445 4.1496 1.6633 1.0741 1.1089 1.6111 2.6408 1.6112 4.5958-0.00001 1.5841-0.23763 2.8301-0.71285 3.7381-0.47524 0.90796-1.1668 1.6131-2.0748 2.1154-0.90797 0.50227-1.899 0.75341-2.9731 0.75341-1.7232 0-3.116-0.5525-4.1786-1.6575-1.0625-1.105-1.5938-2.6968-1.5938-4.7755zm2.1443 0c0 1.5764 0.34386 2.7567 1.0316 3.541 0.68772 0.78433 1.5532 1.1765 2.5964 1.1765 1.0354 0 1.897-0.39409 2.5848-1.1823 0.68772-0.78818 1.0316-1.9898 1.0316-3.6048-0.00001-1.5223-0.34581-2.6756-1.0374-3.4599-0.69161-0.78431-1.5513-1.1765-2.579-1.1765-1.0432 0.00001-1.9087 0.39024-2.5964 1.1707-0.68774 0.78046-1.0316 1.9589-1.0316 3.5352z"/>
<path d="m357.44 727.12v-12.31h1.8662v1.727c0.38636-0.60272 0.90023-1.0876 1.5416-1.4547 0.64136-0.36703 1.3716-0.55055 2.1907-0.55057 0.91182 0.00002 1.6594 0.18933 2.2429 0.56796 0.5834 0.37865 0.99488 0.90797 1.2344 1.588 0.97363-1.4373 2.2409-2.1559 3.8018-2.1559 1.2209 0.00002 2.1598 0.33809 2.8166 1.0142 0.65681 0.67615 0.98522 1.7174 0.98523 3.1238v8.4498h-2.0748v-7.7544c-0.00002-0.83454-0.0676-1.4353-0.20284-1.8024-0.13525-0.36704-0.38059-0.6626-0.73603-0.88671-0.35547-0.22408-0.77274-0.33612-1.2518-0.33614-0.86548 0.00002-1.5841 0.28786-2.1559 0.86353-0.57184 0.5757-0.85775 1.4972-0.85774 2.7644v7.1516h-2.0864v-7.9978c-0.00001-0.92727-0.17001-1.6227-0.51-2.0864-0.34001-0.46363-0.89638-0.69544-1.6691-0.69546-0.58729 0.00002-1.1301 0.15456-1.6285 0.46364-0.49841 0.30911-0.85966 0.76115-1.0838 1.3562-0.2241 0.59501-0.33614 1.4527-0.33614 2.5732v6.3866z"/>
<path d="m377.23 731.84v-17.027h1.9009v1.5996c0.44819-0.6259 0.95432-1.0953 1.5184-1.4083 0.56409-0.31295 1.248-0.46942 2.0516-0.46944 1.0509 0.00002 1.9782 0.27047 2.7818 0.81137 0.80363 0.54092 1.4102 1.304 1.8198 2.2892 0.40954 0.98524 0.61431 2.0651 0.61432 3.2397-0.00001 1.2596-0.22603 2.3935-0.67807 3.402-0.45206 1.0084-1.1089 1.7811-1.9705 2.3182-0.8616 0.53705-1.7676 0.80557-2.7181 0.80557-0.69546 0-1.3194-0.14682-1.8719-0.44045-0.55251-0.29364-1.0065-0.66455-1.3619-1.1127v5.9925zm1.8893-10.803c0 1.5841 0.32068 2.7548 0.96205 3.5121 0.64137 0.75728 1.418 1.1359 2.3298 1.1359 0.92727 0 1.7212-0.39216 2.3819-1.1765 0.66068-0.78431 0.99102-1.9994 0.99103-3.6454-0.00001-1.5686-0.32262-2.7432-0.96784-3.5236-0.64524-0.78045-1.416-1.1707-2.3124-1.1707-0.88865 0.00001-1.6749 0.41535-2.3588 1.246-0.68387 0.83069-1.0258 2.0381-1.0258 3.6222z"/>
<path d="m389.67 720.96c0-2.2796 0.63364-3.968 1.9009-5.0652 1.0586-0.91181 2.3491-1.3677 3.8714-1.3677 1.6923 0.00002 3.0755 0.55445 4.1496 1.6633 1.0741 1.1089 1.6111 2.6408 1.6112 4.5958-0.00001 1.5841-0.23763 2.8301-0.71285 3.7381-0.47524 0.90796-1.1668 1.6131-2.0748 2.1154-0.90797 0.50227-1.899 0.75341-2.9731 0.75341-1.7232 0-3.116-0.5525-4.1786-1.6575-1.0625-1.105-1.5938-2.6968-1.5938-4.7755zm2.1443 0c0 1.5764 0.34386 2.7567 1.0316 3.541 0.68772 0.78433 1.5532 1.1765 2.5964 1.1765 1.0354 0 1.897-0.39409 2.5848-1.1823 0.68772-0.78818 1.0316-1.9898 1.0316-3.6048-0.00001-1.5223-0.34581-2.6756-1.0374-3.4599-0.69161-0.78431-1.5513-1.1765-2.579-1.1765-1.0432 0.00001-1.9087 0.39024-2.5964 1.1707-0.68774 0.78046-1.0316 1.9589-1.0316 3.5352z"/>
<path d="m403.66 727.12v-12.31h1.8777v1.7502c0.90409-1.3523 2.21-2.0284 3.9178-2.0284 0.74181 0.00002 1.4238 0.13331 2.0458 0.39989 0.62203 0.26661 1.0876 0.61627 1.3967 1.049 0.30908 0.43274 0.52544 0.94661 0.64909 1.5416 0.0773 0.38638 0.1159 1.0625 0.11591 2.0284v7.5689h-2.0864v-7.4878c-0.00001-0.85-0.0811-1.4856-0.24341-1.9067-0.16229-0.42113-0.45013-0.75727-0.86353-1.0084-0.41342-0.25113-0.89831-0.37669-1.4547-0.37671-0.88864 0.00002-1.6556 0.28206-2.3008 0.84615-0.64523 0.5641-0.96785 1.6343-0.96784 3.2107v6.7228z"/>
<path d="m425.3 723.15 2.1559 0.26659c-0.34002 1.2596-0.96979 2.2371-1.8893 2.9325-0.91956 0.69545-2.0941 1.0432-3.5237 1.0432-1.8005 0-3.2281-0.55443-4.2829-1.6633s-1.5822-2.664-1.5822-4.6654c0-2.0709 0.53319-3.6782 1.5996-4.8218s2.4496-1.7154 4.1496-1.7155c1.6459 0.00002 2.9905 0.56025 4.0337 1.6807 1.0432 1.1205 1.5648 2.6968 1.5648 4.7291-0.00001 0.12364-0.004 0.3091-0.0116 0.55637h-9.18c0.0773 1.3523 0.45977 2.3877 1.1475 3.1064 0.68773 0.71864 1.5455 1.078 2.5732 1.078 0.765 0 1.418-0.20091 1.9589-0.60273s0.96977-1.0432 1.2866-1.9241zm-6.8503-3.373h6.8734c-0.0927-1.0354-0.35547-1.812-0.78819-2.3298-0.66455-0.80363-1.5262-1.2054-2.5848-1.2055-0.9582 0.00001-1.7638 0.32069-2.4167 0.96205-0.65296 0.64137-1.0142 1.4991-1.0838 2.5732z"/>
<path d="m430.09 727.12v-12.31h1.8777v1.7502c0.90409-1.3523 2.21-2.0284 3.9178-2.0284 0.74182 0.00002 1.4238 0.13331 2.0458 0.39989 0.62204 0.26661 1.0876 0.61627 1.3967 1.049 0.30908 0.43274 0.52545 0.94661 0.64909 1.5416 0.0773 0.38638 0.1159 1.0625 0.11591 2.0284v7.5689h-2.0864v-7.4878c-0.00001-0.85-0.0812-1.4856-0.24341-1.9067-0.16228-0.42113-0.45013-0.75727-0.86353-1.0084-0.41342-0.25113-0.89831-0.37669-1.4547-0.37671-0.88864 0.00002-1.6556 0.28206-2.3008 0.84615-0.64524 0.5641-0.96785 1.6343-0.96785 3.2107v6.7228z"/>
<path d="m447.86 725.25 0.30137 1.843c-0.58728 0.12363-1.1127 0.18545-1.5764 0.18545-0.75728 0-1.3446-0.11977-1.7618-0.35932-0.41728-0.23954-0.71092-0.55443-0.88091-0.94466-0.17001-0.39023-0.25501-1.2113-0.25501-2.4631v-7.0821h-1.53v-1.6227h1.53v-3.0484l2.0748-1.2518v4.3002h2.098v1.6227h-2.098v7.198c-0.00001 0.595 0.0367 0.9775 0.11011 1.1475 0.0734 0.17001 0.19318 0.30523 0.35932 0.40569 0.16613 0.10045 0.40375 0.15068 0.71285 0.15068 0.23181 0 0.53704-0.027 0.91568-0.0811z"/>
</g>
<path stroke-linejoin="round" d="m275.29 557.44 110.96 93.938" stroke="#000" stroke-linecap="round" stroke-width="3.592px" fill="none"/>
<path stroke-linejoin="round" d="m435.84 521.99-90.89-27.65" stroke="#3475cd" stroke-linecap="round" stroke-width="5.2318px" fill="none"/>
<path d="m344.4 505.27-17.179-16.32 23.348-3.9824-6.1688 20.302z" fill-rule="evenodd" fill="#3475cd"/>
<g fill="#3475cd" transform="matrix(.95630 .29237 -.29237 .95630 0 0)">
<path fill="#3475cd" d="m461.17 347.69 2.1211-0.18546c0.10046 0.85001 0.33421 1.5474 0.70126 2.0922 0.36704 0.54478 0.93693 0.98524 1.7097 1.3214 0.77272 0.33614 1.642 0.5042 2.608 0.5042 0.85772 0 1.615-0.1275 2.2718-0.3825 0.65681-0.255 1.1456-0.60466 1.4662-1.049 0.32068-0.44432 0.48102-0.92921 0.48103-1.4547-0.00001-0.53318-0.15456-0.99875-0.46364-1.3967-0.3091-0.39795-0.81911-0.73216-1.53-1.0026-0.45592-0.17772-1.4643-0.45397-3.0252-0.82875-1.5609-0.37477-2.6543-0.7283-3.2802-1.0606-0.81137-0.42499-1.416-0.95238-1.814-1.5822-0.39796-0.62976-0.59694-1.3349-0.59694-2.1154 0-0.85772 0.24341-1.6594 0.73023-2.4051 0.48682-0.74567 1.1977-1.3117 2.1327-1.6981 0.935-0.38635 1.9743-0.57953 3.118-0.57955 1.2596 0.00002 2.3704 0.20286 3.3324 0.60852 0.96204 0.4057 1.7019 1.0026 2.2197 1.7908 0.51772 0.7882 0.7959 1.6807 0.83455 2.6775l-2.1559 0.16228c-0.11592-1.0741-0.50808-1.8854-1.1765-2.4341-0.66842-0.54862-1.6556-0.82294-2.9615-0.82296-1.36 0.00002-2.351 0.24923-2.9731 0.74762-0.62206 0.49843-0.93308 1.0992-0.93308 1.8024 0 0.61047 0.22023 1.1127 0.66069 1.5068 0.43272 0.39411 1.5628 0.79786 3.3904 1.2113 1.8275 0.41342 3.0812 0.77467 3.7613 1.0838 0.98908 0.45592 1.7193 1.0335 2.1907 1.7328 0.47135 0.69933 0.70704 1.5049 0.70705 2.4167-0.00001 0.9041-0.25888 1.756-0.77659 2.5558-0.51775 0.79978-1.2615 1.4218-2.2313 1.8662-0.96978 0.44432-2.0613 0.66648-3.2744 0.66648-1.5377 0-2.8263-0.22409-3.8656-0.67227-1.0393-0.44819-1.8546-1.1224-2.4457-2.0226-0.59114-0.90023-0.90217-1.9183-0.93307-3.0542z"/>
</g>
<g fill="#3475cd" transform="matrix(.95630 .29237 -.29237 .95630 0 0)">
<path fill="#3475cd" d="m485.53 353.55v-1.8082c-0.9582 1.3909-2.2602 2.0864-3.9062 2.0864-0.72637 0-1.4044-0.13909-2.0342-0.41727-0.62978-0.27818-1.0973-0.62785-1.4025-1.049-0.30523-0.42114-0.51966-0.93694-0.6433-1.5474-0.085-0.40954-0.1275-1.0586-0.1275-1.9473v-7.6269h2.0864v6.8271c0 1.0896 0.0425 1.8236 0.12751 2.2023 0.13136 0.54865 0.40954 0.97944 0.83455 1.2924 0.42499 0.31296 0.95045 0.46943 1.5764 0.46943 0.6259 0 1.2132-0.16034 1.7618-0.48102 0.54863-0.32068 0.93692-0.75728 1.1649-1.3098 0.22794-0.5525 0.34192-1.3542 0.34193-2.4051v-6.5953h2.0864v12.31z"/>
</g>
<g fill="#3475cd" transform="matrix(.95630 .29237 -.29237 .95630 0 0)">
<path fill="#3475cd" d="m492.43 353.48h-1.9357v-16.992h2.0864v6.0621c0.88091-1.105 2.0052-1.6575 3.373-1.6575 0.75727 0.00002 1.474 0.15263 2.1501 0.45785 0.67613 0.30524 1.2325 0.7341 1.6691 1.2866 0.43658 0.55252 0.77851 1.219 1.0258 1.9994 0.24726 0.78046 0.3709 1.615 0.37091 2.5036-0.00001 2.1096-0.52161 3.74-1.5648 4.8914s-2.295 1.727-3.7555 1.727c-1.4527 0-2.5925-0.60659-3.4193-1.8198zm-0.0232-6.2475c-0.00001 1.4759 0.2009 2.5423 0.60273 3.1991 0.65681 1.0741 1.5454 1.6112 2.6659 1.6112 0.91181 0 1.7-0.39602 2.3646-1.1881 0.66454-0.79204 0.99681-1.9724 0.99682-3.541-0.00001-1.6073-0.31876-2.7934-0.95625-3.5584-0.63752-0.76499-1.4083-1.1475-2.3124-1.1475-0.91183 0.00001-1.7 0.39603-2.3646 1.1881-0.66455 0.79206-0.99683 1.9376-0.99682 3.4367z"/>
</g>
<g fill="#3475cd" transform="matrix(.95630 .29237 -.29237 .95630 0 0)">
<path fill="#3475cd" d="m502.72 349.74 2.0632-0.32455c0.11591 0.82683 0.43852 1.4605 0.96785 1.9009 0.52931 0.44046 1.2692 0.66069 2.2197 0.66069 0.95818 0 1.6691-0.19512 2.1327-0.58535 0.46363-0.39022 0.69545-0.84807 0.69546-1.3735-0.00001-0.47136-0.20479-0.84227-0.61433-1.1127-0.28591-0.18545-0.99683-0.42113-2.1327-0.70705-1.53-0.38636-2.5906-0.72057-3.1817-1.0026-0.59114-0.28204-1.0393-0.67227-1.3446-1.1707-0.30523-0.4984-0.45784-1.049-0.45784-1.6517 0-0.54863 0.12557-1.0567 0.3767-1.5242 0.25114-0.4675 0.59307-0.85579 1.0258-1.1649 0.32454-0.23953 0.76693-0.44237 1.3272-0.60852 0.56023-0.16613 1.161-0.2492 1.8024-0.24921 0.96591 0.00001 1.814 0.13911 2.5442 0.41728 0.73022 0.27819 1.2692 0.6549 1.6169 1.1301 0.34772 0.47524 0.58726 1.1108 0.71864 1.9067l-2.04 0.27818c-0.0927-0.63363-0.36126-1.1282-0.80558-1.4836-0.44432-0.35545-1.0722-0.53317-1.8835-0.53318-0.95819 0.00001-1.6421 0.15842-2.0516 0.47523-0.40955 0.31683-0.61433 0.68774-0.61432 1.1127-0.00001 0.27046 0.085 0.51387 0.255 0.73023 0.17 0.2241 0.43659 0.40956 0.79978 0.55637 0.20863 0.0773 0.82295 0.25501 1.843 0.53318 1.4759 0.3941 2.5056 0.71672 3.089 0.96785 0.58341 0.25114 1.0412 0.61626 1.3735 1.0953 0.33227 0.4791 0.49841 1.0741 0.49842 1.785-0.00001 0.69547-0.20286 1.3504-0.60853 1.9647-0.40569 0.61433-0.99104 1.0896-1.756 1.4257-0.76501 0.33614-1.6305 0.50421-2.5964 0.50421-1.5996 0-2.8185-0.33227-3.657-0.99682-0.83842-0.66455-1.3735-1.6498-1.6054-2.9557z"/>
</g>
<g fill="#3475cd" transform="matrix(.95630 .29237 -.29237 .95630 0 0)">
<path fill="#3475cd" d="m523.44 349.2 2.0516 0.2666c-0.2241 1.4141-0.79785 2.521-1.7213 3.3208-0.92342 0.79978-2.0574 1.1997-3.402 1.1997-1.6846 0-3.0388-0.55057-4.0626-1.6517-1.0239-1.1011-1.5358-2.6794-1.5358-4.7349 0-1.3291 0.22023-2.492 0.66069-3.4889 0.44045-0.99682 1.1108-1.7444 2.011-2.2429 0.90023-0.4984 1.8797-0.7476 2.9383-0.74761 1.3368 0.00001 2.4302 0.33808 3.2802 1.0142 0.84999 0.67615 1.3948 1.6363 1.6343 2.8804l-2.0284 0.31296c-0.1932-0.82682-0.53513-1.4489-1.0258-1.8662-0.4907-0.41726-1.0838-0.6259-1.7792-0.62591-1.0509 0.00001-1.9048 0.37672-2.5616 1.1301-0.65683 0.75342-0.98524 1.9454-0.98524 3.5758 0 1.6536 0.31682 2.8552 0.95046 3.6048 0.63364 0.74955 1.4605 1.1243 2.4805 1.1243 0.81909 0 1.503-0.25114 2.0516-0.75341 0.54863-0.50227 0.89636-1.275 1.0432-2.3182z"/>
</g>
<g fill="#3475cd" transform="matrix(.95630 .29237 -.29237 .95630 0 0)">
<path fill="#3475cd" d="m526.86 352.81v-12.31h1.8777v1.8662c0.47909-0.87318 0.92147-1.4489 1.3272-1.7271 0.40568-0.27817 0.85193-0.41726 1.3388-0.41727 0.70318 0.00001 1.418 0.2241 2.1443 0.67227l-0.71864 1.9357c-0.51001-0.30135-1.02-0.45203-1.53-0.45204-0.45592 0.00001-0.86546 0.13717-1.2286 0.41148-0.36319 0.27433-0.62205 0.6549-0.7766 1.1417-0.23182 0.74183-0.34773 1.5532-0.34773 2.4341v6.4446z"/>
</g>
<g fill="#3475cd" transform="matrix(.95630 .29237 -.29237 .95630 0 0)">
<path fill="#3475cd" d="m534.8 338.42v-2.3993h2.0864v2.3993zm0 14.593v-12.31h2.0864v12.31z"/>
</g>
<g fill="#3475cd" transform="matrix(.95630 .29237 -.29237 .95630 0 0)">
<path fill="#3475cd" d="m541.86 352.74h-1.9357v-16.992h2.0864v6.0621c0.88091-1.105 2.0052-1.6575 3.373-1.6575 0.75727 0.00002 1.474 0.15263 2.1501 0.45785 0.67613 0.30524 1.2325 0.7341 1.6691 1.2866 0.43658 0.55251 0.77851 1.219 1.0258 1.9994 0.24726 0.78047 0.3709 1.615 0.37091 2.5036-0.00001 2.1096-0.52161 3.74-1.5648 4.8914s-2.295 1.727-3.7555 1.727c-1.4527 0-2.5925-0.60659-3.4193-1.8198zm-0.0232-6.2475c0 1.4759 0.20091 2.5423 0.60273 3.1991 0.65682 1.0741 1.5455 1.6111 2.6659 1.6111 0.91181 0 1.7-0.39602 2.3646-1.1881 0.66453-0.79205 0.99681-1.9724 0.99682-3.541-0.00001-1.6073-0.31876-2.7934-0.95626-3.5584-0.63751-0.76499-1.4083-1.1475-2.3124-1.1475-0.91182 0.00001-1.7 0.39603-2.3646 1.1881-0.66456 0.79206-0.99683 1.9376-0.99683 3.4367z"/>
</g>
<g fill="#3475cd" transform="matrix(.95630 .29237 -.29237 .95630 0 0)">
<path fill="#3475cd" d="m561.4 348.71 2.1559 0.26659c-0.34001 1.2596-0.96978 2.2371-1.8893 2.9325-0.91956 0.69545-2.0941 1.0432-3.5237 1.0432-1.8005 0-3.2281-0.55443-4.2829-1.6633s-1.5822-2.664-1.5822-4.6654c0-2.0709 0.53318-3.6782 1.5996-4.8218s2.4496-1.7154 4.1496-1.7155c1.6459 0.00002 2.9905 0.56025 4.0337 1.6807 1.0432 1.1205 1.5648 2.6968 1.5648 4.7291-0.00001 0.12364-0.004 0.3091-0.0116 0.55637h-9.18c0.0773 1.3523 0.45977 2.3877 1.1475 3.1064 0.68772 0.71864 1.5454 1.078 2.5732 1.078 0.765 0 1.418-0.20091 1.9589-0.60273s0.96976-1.0432 1.2866-1.9241zm-6.8503-3.373h6.8734c-0.0927-1.0354-0.35547-1.812-0.78819-2.3298-0.66456-0.80363-1.5262-1.2054-2.5848-1.2055-0.95819 0.00001-1.7638 0.32069-2.4167 0.96205-0.65296 0.64137-1.0142 1.4991-1.0838 2.5732z"/>
</g>
</g>
</svg>
