<?xml version="1.0" encoding="UTF-8" standalone="no"?>
<svg
   xmlns:dc="http://purl.org/dc/elements/1.1/"
   xmlns:cc="http://creativecommons.org/ns#"
   xmlns:rdf="http://www.w3.org/1999/02/22-rdf-syntax-ns#"
   xmlns:svg="http://www.w3.org/2000/svg"
   xmlns="http://www.w3.org/2000/svg"
   xmlns:sodipodi="http://sodipodi.sourceforge.net/DTD/sodipodi-0.dtd"
   xmlns:inkscape="http://www.inkscape.org/namespaces/inkscape"
   version="1.1"
   viewBox="0 0 514.53125 376.96875"
   id="svg2"
   inkscape:version="0.48.4 r9939"
   width="100%"
   height="100%"
   sodipodi:docname="rpc_call.svg">
  <metadata
     id="metadata208">
    <rdf:RDF>
      <cc:Work
         rdf:about="">
        <dc:format>image/svg+xml</dc:format>
        <dc:type
           rdf:resource="http://purl.org/dc/dcmitype/StillImage" />
      </cc:Work>
    </rdf:RDF>
  </metadata>
  <defs
     id="defs206" />
  <sodipodi:namedview
     pagecolor="#ffffff"
     bordercolor="#666666"
     borderopacity="1"
     objecttolerance="10"
     gridtolerance="10"
     guidetolerance="10"
     inkscape:pageopacity="0"
     inkscape:pageshadow="2"
     inkscape:window-width="1559"
     inkscape:window-height="876"
     id="namedview204"
     showgrid="false"
     inkscape:zoom="1.2286376"
     inkscape:cx="324.72088"
     inkscape:cy="217.97177"
     inkscape:window-x="41"
     inkscape:window-y="24"
     inkscape:window-maximized="1"
     inkscape:current-layer="svg2"
     fit-margin-top="0"
     fit-margin-left="0"
     fit-margin-right="0"
     fit-margin-bottom="0" />
  <path
     style="fill:#595959;fill-rule:evenodd;stroke:#ffffff;stroke-opacity:1"
     inkscape:connector-curvature="0"
     id="path6"
     d="m 116.12098,374.93075 c 13.04,0 23.582,-10.542 23.582,-23.582 v -63.094 c 0,-13.04 -10.542,-23.66 -23.582,-23.66 H 25.383984 c -13.04,0 -23.5820003,10.62 -23.5820003,23.66 v 63.094 c 0,13.04 10.5420003,23.582 23.5820003,23.582 h 90.736996 z" />
  <path
     style="fill:none;stroke:#ffffff;stroke-width:3.59200001px;stroke-linecap:round;stroke-linejoin:round;stroke-opacity:1"
     inkscape:connector-curvature="0"
     id="path8"
     d="m 116.12098,374.93075 c 13.04,0 23.582,-10.542 23.582,-23.582 v 0 -63.094 c 0,-13.04 -10.542,-23.66 -23.582,-23.66 v 0 H 25.383984 c -13.04,0 -23.5820003,10.62 -23.5820003,23.66 v 0 63.094 c 0,13.04 10.5420003,23.582 23.5820003,23.582 v 0 h 90.736996 z" />
  <g
     style="fill:#ffffff"
     id="g10"
     transform="translate(-29.319016,-81.48925)">
    <path
       inkscape:connector-curvature="0"
       id="path12"
       d="m 79.817,394.34 6.5257,-16.992 h 2.4225 l 6.9546,16.992 h -2.5616 l -1.9821,-5.1464 h -7.1053 l -1.8661,5.1464 z m 4.903,-6.9778 h 5.7607 l -1.7734,-4.7059 c -0.54092,-1.4295 -0.94274,-2.6041 -1.2055,-3.5236 -0.21637,1.0896 -0.5216,2.1714 -0.91569,3.2455 z" />
    <path
       inkscape:connector-curvature="0"
       id="path14"
       d="m 97.273,399.06 v -17.027 h 1.9009 v 1.5996 c 0.44818,-0.6259 0.95432,-1.0953 1.5184,-1.4083 0.56409,-0.31294 1.248,-0.46942 2.0516,-0.46943 1.0509,1e-5 1.9782,0.27046 2.7818,0.81136 0.80363,0.54093 1.4102,1.304 1.8198,2.2892 0.40953,0.98524 0.6143,2.0651 0.61432,3.2397 -2e-5,1.2596 -0.22604,2.3935 -0.67808,3.402 -0.45205,1.0084 -1.1089,1.7812 -1.9705,2.3182 -0.8616,0.53705 -1.7676,0.80558 -2.7181,0.80558 -0.69547,0 -1.3194,-0.14682 -1.872,-0.44046 -0.5525,-0.29364 -1.0065,-0.66455 -1.3619,-1.1127 v 5.9925 z m 1.8893,-10.803 c -4e-6,1.5841 0.32068,2.7548 0.96205,3.5121 0.64136,0.75728 1.418,1.1359 2.3298,1.1359 0.92727,0 1.7213,-0.39216 2.382,-1.1765 0.66068,-0.78432 0.99102,-1.9994 0.99103,-3.6454 -1e-5,-1.5686 -0.32263,-2.7432 -0.96785,-3.5237 -0.64524,-0.78045 -1.416,-1.1707 -2.3124,-1.1707 -0.88864,1e-5 -1.6749,0.41536 -2.3588,1.246 -0.68387,0.8307 -1.0258,2.0381 -1.0258,3.6222 z" />
    <path
       inkscape:connector-curvature="0"
       id="path16"
       d="m 110.49,399.06 v -17.027 h 1.9009 v 1.5996 c 0.44818,-0.6259 0.95432,-1.0953 1.5184,-1.4083 0.56409,-0.31294 1.248,-0.46942 2.0516,-0.46943 1.0509,1e-5 1.9782,0.27046 2.7818,0.81136 0.80363,0.54093 1.4102,1.304 1.8198,2.2892 0.40954,0.98524 0.61431,2.0651 0.61433,3.2397 -2e-5,1.2596 -0.22604,2.3935 -0.67808,3.402 -0.45205,1.0084 -1.1089,1.7812 -1.9705,2.3182 -0.86161,0.53705 -1.7676,0.80558 -2.7181,0.80558 -0.69547,0 -1.3194,-0.14682 -1.872,-0.44046 -0.5525,-0.29364 -1.0065,-0.66455 -1.3619,-1.1127 v 5.9925 z m 1.8893,-10.803 c -1e-5,1.5841 0.32068,2.7548 0.96205,3.5121 0.64136,0.75728 1.418,1.1359 2.3298,1.1359 0.92727,0 1.7213,-0.39216 2.382,-1.1765 0.66068,-0.78432 0.99102,-1.9994 0.99103,-3.6454 -1e-5,-1.5686 -0.32263,-2.7432 -0.96785,-3.5237 -0.64524,-0.78045 -1.416,-1.1707 -2.3124,-1.1707 -0.88864,1e-5 -1.6749,0.41536 -2.3588,1.246 -0.68387,0.8307 -1.0258,2.0381 -1.0258,3.6222 z" />
  </g>
  <g
     style="fill:#ffffff"
     id="g18"
     transform="translate(-29.319016,-81.48925)">
    <path
       inkscape:connector-curvature="0"
       id="path20"
       d="m 53.827,415.87 2.2486,0.56796 c -0.47138,1.8468 -1.3195,3.2551 -2.5442,4.2249 -1.2248,0.96978 -2.722,1.4547 -4.4915,1.4547 -1.8314,0 -3.3208,-0.37285 -4.4683,-1.1185 -1.1475,-0.74569 -2.0207,-1.8256 -2.6196,-3.2397 -0.59887,-1.4141 -0.8983,-2.9325 -0.8983,-4.5552 -2e-6,-1.7696 0.33807,-3.3131 1.0142,-4.6306 0.67614,-1.3175 1.6382,-2.3182 2.8862,-3.0021 1.248,-0.68385 2.6215,-1.0258 4.1206,-1.0258 1.7,2e-5 3.1296,0.43275 4.2887,1.2982 1.1591,0.86548 1.9666,2.0825 2.4225,3.6512 l -2.2139,0.52159 c -0.39411,-1.2364 -0.96593,-2.1366 -1.7155,-2.7007 -0.74956,-0.56407 -1.6923,-0.84612 -2.8282,-0.84614 -1.3059,2e-5 -2.3974,0.31298 -3.2744,0.93887 -0.87706,0.62593 -1.4933,1.4663 -1.8488,2.521 -0.35546,1.0548 -0.53319,2.1424 -0.53318,3.2629 -3e-6,1.445 0.21057,2.7065 0.63171,3.7844 0.42113,1.078 1.076,1.8835 1.9647,2.4167 0.88863,0.53319 1.8507,0.79978 2.8862,0.79978 1.2595,0 2.3259,-0.36319 3.1991,-1.0896 0.87317,-0.72636 1.4643,-1.8043 1.7734,-3.2339 z" />
    <path
       inkscape:connector-curvature="0"
       id="path22"
       d="m 57.815,415.68 c -10e-7,-2.2796 0.63364,-3.968 1.9009,-5.0653 1.0586,-0.91181 2.3491,-1.3677 3.8714,-1.3677 1.6923,10e-6 3.0755,0.55444 4.1496,1.6633 1.0741,1.10886 1.6111,2.6408 1.6111,4.5958 -1.2e-5,1.5841 -0.23763,2.8301 -0.71284,3.7381 -0.47524,0.90796 -1.1668,1.6131 -2.0748,2.1154 -0.90797,0.50228 -1.899,0.75342 -2.9731,0.75342 -1.7232,0 -3.116,-0.55251 -4.1785,-1.6575 -1.0625,-1.10499 -1.5938,-2.6968 -1.5938,-4.7755 z m 2.1443,0 c -3e-6,1.5764 0.34386,2.7567 1.0316,3.541 0.68773,0.78432 1.5532,1.1765 2.5964,1.1765 1.0355,0 1.897,-0.39409 2.5848,-1.1823 0.68772,-0.78818 1.0316,-1.9898 1.0316,-3.6048 -1.1e-5,-1.5223 -0.34581,-2.6756 -1.0374,-3.4599 -0.6916,-0.78432 -1.5513,-1.1765 -2.579,-1.1765 -1.0432,1e-5 -1.9087,0.39024 -2.5964,1.1707 -0.68773,0.78047 -1.0316,1.9589 -1.0316,3.5352 z" />
    <path
       inkscape:connector-curvature="0"
       id="path24"
       d="m 71.805,421.83 v -12.31 h 1.8661 v 1.727 c 0.38636,-0.60271 0.90023,-1.0876 1.5416,-1.4547 0.64136,-0.36704 1.3716,-0.55056 2.1907,-0.55057 0.91182,10e-6 1.6594,0.18933 2.2429,0.56795 0.5834,0.37865 0.99488,0.90797 1.2344,1.588 0.97363,-1.4373 2.2409,-2.1559 3.8018,-2.1559 1.2209,10e-6 2.1598,0.33808 2.8166,1.0142 0.6568,0.67615 0.98521,1.7174 0.98523,3.1238 v 8.4498 h -2.0748 v -7.7544 c -1.6e-5,-0.83454 -0.06763,-1.4353 -0.20284,-1.8024 -0.13524,-0.36704 -0.38059,-0.66261 -0.73603,-0.88671 -0.35547,-0.22409 -0.77274,-0.33613 -1.2518,-0.33614 -0.86547,10e-6 -1.5841,0.28785 -2.1559,0.86353 -0.57183,0.57569 -0.85774,1.4972 -0.85773,2.7644 v 7.1516 h -2.0864 v -7.9978 c -9e-6,-0.92727 -0.17001,-1.6227 -0.51,-2.0864 -0.34001,-0.46363 -0.89638,-0.69545 -1.6691,-0.69546 -0.58728,10e-6 -1.1301,0.15456 -1.6285,0.46364 -0.49842,0.3091 -0.85967,0.76115 -1.0838,1.3561 -0.2241,0.59501 -0.33614,1.4527 -0.33614,2.5732 v 6.3866 z" />
    <path
       inkscape:connector-curvature="0"
       id="path26"
       d="m 91.602,426.55 v -17.027 h 1.9009 v 1.5996 c 0.44818,-0.6259 0.95432,-1.0953 1.5184,-1.4083 0.56409,-0.31294 1.248,-0.46942 2.0516,-0.46943 1.0509,1e-5 1.9782,0.27046 2.7818,0.81136 0.80363,0.54093 1.4102,1.304 1.8198,2.2892 0.40953,0.98524 0.61431,2.0651 0.61432,3.2397 -1e-5,1.2596 -0.22604,2.3935 -0.67807,3.402 -0.45206,1.0084 -1.1089,1.7812 -1.9705,2.3182 -0.8616,0.53705 -1.7676,0.80558 -2.7181,0.80558 -0.69546,0 -1.3194,-0.14682 -1.8719,-0.44046 -0.55251,-0.29364 -1.0065,-0.66455 -1.3619,-1.1127 v 5.9925 z m 1.8893,-10.803 c -4e-6,1.5841 0.32068,2.7548 0.96205,3.5121 0.64136,0.75728 1.418,1.1359 2.3298,1.1359 0.92727,0 1.7213,-0.39216 2.3819,-1.1765 0.66068,-0.78432 0.99102,-1.9994 0.99103,-3.6454 -1e-5,-1.5686 -0.32262,-2.7432 -0.96784,-3.5237 -0.64524,-0.78045 -1.416,-1.1707 -2.3124,-1.1707 -0.88865,1e-5 -1.6749,0.41536 -2.3588,1.246 -0.68387,0.8307 -1.0258,2.0381 -1.0258,3.6222 z" />
    <path
       inkscape:connector-curvature="0"
       id="path28"
       d="m 104.04,415.68 c 0,-2.2796 0.63364,-3.968 1.9009,-5.0653 1.0586,-0.91181 2.3491,-1.3677 3.8714,-1.3677 1.6923,10e-6 3.0755,0.55444 4.1496,1.6633 1.0741,1.10886 1.6111,2.6408 1.6112,4.5958 -2e-5,1.5841 -0.23763,2.8301 -0.71285,3.7381 -0.47524,0.90796 -1.1668,1.6131 -2.0748,2.1154 -0.90797,0.50228 -1.899,0.75342 -2.9731,0.75342 -1.7232,0 -3.116,-0.55251 -4.1785,-1.6575 -1.0625,-1.10499 -1.5938,-2.6968 -1.5938,-4.7755 z m 2.1443,0 c 0,1.5764 0.34386,2.7567 1.0316,3.541 0.68772,0.78432 1.5532,1.1765 2.5964,1.1765 1.0355,0 1.897,-0.39409 2.5848,-1.1823 0.68772,-0.78818 1.0316,-1.9898 1.0316,-3.6048 -1e-5,-1.5223 -0.34581,-2.6756 -1.0374,-3.4599 -0.6916,-0.78432 -1.5513,-1.1765 -2.579,-1.1765 -1.0432,1e-5 -1.9086,0.39024 -2.5964,1.1707 -0.68774,0.78047 -1.0316,1.9589 -1.0316,3.5352 z" />
    <path
       inkscape:connector-curvature="0"
       id="path30"
       d="m 118.03,421.83 v -12.31 h 1.8777 v 1.7502 c 0.90409,-1.3523 2.21,-2.0284 3.9178,-2.0284 0.74181,10e-6 1.4238,0.13331 2.0458,0.39988 0.62204,0.26661 1.0876,0.61627 1.3967,1.049 0.30908,0.43274 0.52544,0.9466 0.64909,1.5416 0.0773,0.38637 0.1159,1.0625 0.11591,2.0284 v 7.5689 h -2.0864 v -7.4878 c -1e-5,-0.84999 -0.0812,-1.4856 -0.24342,-1.9067 -0.16228,-0.42113 -0.45012,-0.75727 -0.86352,-1.0084 -0.41342,-0.25112 -0.89831,-0.37669 -1.4547,-0.3767 -0.88865,10e-6 -1.6556,0.28206 -2.3008,0.84614 -0.64523,0.5641 -0.96785,1.6343 -0.96784,3.2107 v 6.7228 z" />
    <path
       inkscape:connector-curvature="0"
       id="path32"
       d="m 139.67,417.87 2.1559,0.26659 c -0.34002,1.2596 -0.96979,2.2371 -1.8893,2.9325 -0.91956,0.69546 -2.0941,1.0432 -3.5237,1.0432 -1.8005,0 -3.2281,-0.55444 -4.2829,-1.6633 -1.0548,-1.10886 -1.5822,-2.664 -1.5822,-4.6654 0,-2.0709 0.53318,-3.6782 1.5996,-4.8218 1.06642,-1.1436 2.4496,-1.7154 4.1496,-1.7155 1.6459,1e-5 2.9905,0.56024 4.0337,1.6807 1.0432,1.12046 1.5648,2.6968 1.5648,4.7291 -1e-5,0.12365 -0.004,0.3091 -0.0116,0.55637 h -9.18 c 0.0773,1.3523 0.45977,2.3877 1.1475,3.1064 0.68772,0.71864 1.5454,1.078 2.5732,1.078 0.765,0 1.418,-0.20091 1.9589,-0.60273 0.5409,-0.40182 0.96977,-1.0432 1.2866,-1.9241 z m -6.8503,-3.373 h 6.8734 c -0.0927,-1.0354 -0.35547,-1.812 -0.78819,-2.3298 -0.66456,-0.80363 -1.5262,-1.2054 -2.5848,-1.2055 -0.95819,10e-6 -1.7638,0.32069 -2.4167,0.96205 -0.65297,0.64138 -1.0142,1.4991 -1.0838,2.5732 z" />
    <path
       inkscape:connector-curvature="0"
       id="path34"
       d="m 144.46,421.83 v -12.31 h 1.8777 v 1.7502 c 0.90409,-1.3523 2.21,-2.0284 3.9178,-2.0284 0.74181,10e-6 1.4238,0.13331 2.0458,0.39988 0.62203,0.26661 1.0876,0.61627 1.3967,1.049 0.30908,0.43274 0.52544,0.9466 0.64909,1.5416 0.0773,0.38637 0.1159,1.0625 0.11591,2.0284 v 7.5689 h -2.0864 v -7.4878 c -1e-5,-0.84999 -0.0811,-1.4856 -0.24341,-1.9067 -0.16229,-0.42113 -0.45013,-0.75727 -0.86353,-1.0084 -0.41342,-0.25112 -0.89831,-0.37669 -1.4547,-0.3767 -0.88865,10e-6 -1.6556,0.28206 -2.3008,0.84614 -0.64523,0.5641 -0.96785,1.6343 -0.96784,3.2107 v 6.7228 z" />
    <path
       inkscape:connector-curvature="0"
       id="path36"
       d="m 162.23,419.96 0.30137,1.843 c -0.58728,0.12364 -1.1127,0.18546 -1.5764,0.18546 -0.75728,0 -1.3446,-0.11978 -1.7618,-0.35932 -0.41728,-0.23955 -0.71092,-0.55444 -0.88092,-0.94467 -0.17,-0.39023 -0.255,-1.2112 -0.255,-2.4631 v -7.0821 h -1.53 v -1.6227 h 1.53 v -3.0484 l 2.0748,-1.2518 v 4.3002 h 2.098 v 1.6227 h -2.098 v 7.198 c -1e-5,0.59501 0.0367,0.97751 0.11011,1.1475 0.0734,0.17 0.19318,0.30523 0.35932,0.40568 0.16613,0.10046 0.40375,0.15068 0.71284,0.15068 0.23182,0 0.53705,-0.027 0.91569,-0.0811 z" />
  </g>
  <path
     style="fill:#595959;fill-rule:evenodd"
     inkscape:connector-curvature="0"
     id="path38"
     d="m 489.14098,375.17075 c 13.04,0 23.582,-10.542 23.582,-23.582 v -62.313 c 0,-13.04 -10.542,-23.66 -23.582,-23.66 h -89.721 c -13.04,0 -23.582,10.62 -23.582,23.66 v 62.313 c 0,13.04 10.542,23.582 23.582,23.582 h 89.721 z" />
  <path
     style="fill:none;stroke:#ffffff;stroke-width:3.59200001px;stroke-linecap:round;stroke-linejoin:round;stroke-opacity:1"
     inkscape:connector-curvature="0"
     id="path40"
     d="m 489.14098,375.17075 c 13.04,0 23.582,-10.542 23.582,-23.582 v 0 -62.313 c 0,-13.04 -10.542,-23.66 -23.582,-23.66 h -89.721 c -13.04,0 -23.582,10.62 -23.582,23.66 v 0 62.313 c 0,13.04 10.542,23.582 23.582,23.582 h 89.721 z" />
  <g
     style="fill:#ffffff"
     id="g42"
     transform="translate(-29.319016,-81.48925)">
    <path
       inkscape:connector-curvature="0"
       id="path44"
       d="m 453.38,394.34 6.5257,-16.992 h 2.4225 l 6.9546,16.992 h -2.5616 l -1.9821,-5.1464 h -7.1053 l -1.8662,5.1464 z m 4.903,-6.9778 h 5.7607 l -1.7734,-4.7059 c -0.54092,-1.4295 -0.94274,-2.6041 -1.2055,-3.5236 -0.21638,1.0896 -0.5216,2.1714 -0.91569,3.2455 z" />
    <path
       inkscape:connector-curvature="0"
       id="path46"
       d="m 470.84,399.06 v -17.027 h 1.9009 v 1.5996 c 0.44818,-0.6259 0.95431,-1.0953 1.5184,-1.4083 0.56409,-0.31294 1.248,-0.46942 2.0516,-0.46943 1.0509,1e-5 1.9782,0.27046 2.7818,0.81136 0.80363,0.54093 1.4102,1.304 1.8198,2.2892 0.40954,0.98524 0.61431,2.0651 0.61432,3.2397 -10e-6,1.2596 -0.22603,2.3935 -0.67807,3.402 -0.45206,1.0084 -1.1089,1.7812 -1.9705,2.3182 -0.86161,0.53705 -1.7676,0.80558 -2.7181,0.80558 -0.69546,0 -1.3194,-0.14682 -1.8719,-0.44046 -0.55251,-0.29364 -1.0065,-0.66455 -1.3619,-1.1127 v 5.9925 z m 1.8893,-10.803 c 0,1.5841 0.32068,2.7548 0.96206,3.5121 0.64136,0.75728 1.418,1.1359 2.3298,1.1359 0.92727,0 1.7212,-0.39216 2.382,-1.1765 0.66067,-0.78432 0.99101,-1.9994 0.99102,-3.6454 -1e-5,-1.5686 -0.32262,-2.7432 -0.96784,-3.5237 -0.64524,-0.78045 -1.416,-1.1707 -2.3124,-1.1707 -0.88865,1e-5 -1.6749,0.41536 -2.3588,1.246 -0.68388,0.8307 -1.0258,2.0381 -1.0258,3.6222 z" />
    <path
       inkscape:connector-curvature="0"
       id="path48"
       d="m 484.05,399.06 v -17.027 h 1.9009 v 1.5996 c 0.44818,-0.6259 0.95431,-1.0953 1.5184,-1.4083 0.56409,-0.31294 1.248,-0.46942 2.0516,-0.46943 1.0509,1e-5 1.9782,0.27046 2.7818,0.81136 0.80363,0.54093 1.4102,1.304 1.8198,2.2892 0.40954,0.98524 0.61431,2.0651 0.61432,3.2397 -1e-5,1.2596 -0.22603,2.3935 -0.67807,3.402 -0.45206,1.0084 -1.1089,1.7812 -1.9705,2.3182 -0.86161,0.53705 -1.7676,0.80558 -2.7181,0.80558 -0.69546,0 -1.3194,-0.14682 -1.8719,-0.44046 -0.55251,-0.29364 -1.0065,-0.66455 -1.3619,-1.1127 v 5.9925 z m 1.8893,-10.803 c 0,1.5841 0.32068,2.7548 0.96205,3.5121 0.64137,0.75728 1.418,1.1359 2.3298,1.1359 0.92727,0 1.7212,-0.39216 2.382,-1.1765 0.66067,-0.78432 0.99101,-1.9994 0.99102,-3.6454 -1e-5,-1.5686 -0.32262,-2.7432 -0.96784,-3.5237 -0.64524,-0.78045 -1.416,-1.1707 -2.3124,-1.1707 -0.88865,1e-5 -1.6749,0.41536 -2.3588,1.246 -0.68388,0.8307 -1.0258,2.0381 -1.0258,3.6222 z" />
  </g>
  <g
     style="fill:#ffffff"
     id="g50"
     transform="translate(-29.319016,-81.48925)">
    <path
       inkscape:connector-curvature="0"
       id="path52"
       d="m 427.39,417.12 2.2486,0.56796 c -0.47138,1.8468 -1.3195,3.2551 -2.5442,4.2249 -1.2248,0.96978 -2.722,1.4547 -4.4915,1.4547 -1.8314,0 -3.3208,-0.37285 -4.4683,-1.1185 -1.1475,-0.74569 -2.0207,-1.8256 -2.6196,-3.2397 -0.59887,-1.4141 -0.8983,-2.9325 -0.8983,-4.5552 0,-1.7696 0.33807,-3.3131 1.0142,-4.6306 0.67613,-1.3175 1.6382,-2.3182 2.8862,-3.0021 1.248,-0.68385 2.6215,-1.0258 4.1206,-1.0258 1.7,2e-5 3.1296,0.43275 4.2887,1.2982 1.1591,0.86548 1.9666,2.0825 2.4225,3.6512 l -2.2139,0.52159 c -0.39411,-1.2364 -0.96593,-2.1366 -1.7155,-2.7007 -0.74956,-0.56407 -1.6923,-0.84612 -2.8282,-0.84614 -1.3059,2e-5 -2.3974,0.31297 -3.2744,0.93887 -0.87706,0.62593 -1.4933,1.4663 -1.8488,2.521 -0.35546,1.0548 -0.53319,2.1424 -0.53319,3.2629 0,1.445 0.21057,2.7065 0.63171,3.7844 0.42113,1.078 1.076,1.8835 1.9647,2.4167 0.88863,0.53318 1.8507,0.79978 2.8862,0.79978 1.2595,0 2.3259,-0.36319 3.1991,-1.0896 0.87317,-0.72636 1.4643,-1.8043 1.7734,-3.2339 z" />
    <path
       inkscape:connector-curvature="0"
       id="path54"
       d="m 431.38,416.93 c 0,-2.2796 0.63364,-3.968 1.9009,-5.0653 1.0586,-0.91181 2.3491,-1.3677 3.8714,-1.3677 1.6923,10e-6 3.0755,0.55444 4.1496,1.6633 1.0741,1.10886 1.6111,2.6408 1.6111,4.5958 -1e-5,1.5841 -0.23762,2.8301 -0.71284,3.7381 -0.47524,0.90796 -1.1668,1.6131 -2.0748,2.1154 -0.90796,0.50228 -1.899,0.75342 -2.9731,0.75342 -1.7232,0 -3.116,-0.55251 -4.1786,-1.6575 -1.0625,-1.105 -1.5938,-2.6968 -1.5938,-4.7755 z m 2.1443,0 c 0,1.5764 0.34387,2.7567 1.0316,3.541 0.68773,0.78432 1.5532,1.1765 2.5964,1.1765 1.0354,0 1.897,-0.39409 2.5848,-1.1823 0.68772,-0.78818 1.0316,-1.9898 1.0316,-3.6048 -1e-5,-1.5223 -0.3458,-2.6756 -1.0374,-3.4599 -0.6916,-0.78431 -1.5513,-1.1765 -2.579,-1.1765 -1.0432,1e-5 -1.9086,0.39024 -2.5964,1.1707 -0.68773,0.78047 -1.0316,1.9589 -1.0316,3.5352 z" />
    <path
       inkscape:connector-curvature="0"
       id="path56"
       d="m 445.37,423.08 v -12.31 h 1.8662 v 1.727 c 0.38636,-0.60272 0.90022,-1.0876 1.5416,-1.4547 0.64137,-0.36704 1.3716,-0.55056 2.1907,-0.55057 0.91181,10e-6 1.6594,0.18933 2.2428,0.56795 0.5834,0.37865 0.99488,0.90797 1.2344,1.588 0.97363,-1.4373 2.2409,-2.1559 3.8018,-2.1559 1.2209,10e-6 2.1598,0.33808 2.8166,1.0142 0.6568,0.67615 0.98521,1.7174 0.98523,3.1238 v 8.4498 h -2.0748 v -7.7544 c -1e-5,-0.83454 -0.0676,-1.4353 -0.20284,-1.8024 -0.13524,-0.36704 -0.38058,-0.66261 -0.73602,-0.88671 -0.35548,-0.22409 -0.77275,-0.33613 -1.2518,-0.33614 -0.86547,10e-6 -1.5841,0.28785 -2.1559,0.86353 -0.57183,0.57569 -0.85774,1.4972 -0.85773,2.7644 v 7.1516 h -2.0864 v -7.9978 c -10e-6,-0.92727 -0.17001,-1.6227 -0.51,-2.0864 -0.34001,-0.46363 -0.89638,-0.69545 -1.6691,-0.69546 -0.58728,10e-6 -1.1301,0.15455 -1.6285,0.46364 -0.49842,0.3091 -0.85967,0.76115 -1.0838,1.3561 -0.22409,0.59501 -0.33614,1.4527 -0.33614,2.5732 v 6.3866 z" />
    <path
       inkscape:connector-curvature="0"
       id="path58"
       d="m 465.17,427.8 v -17.027 h 1.9009 v 1.5996 c 0.44818,-0.6259 0.95432,-1.0953 1.5184,-1.4083 0.56408,-0.31294 1.248,-0.46942 2.0516,-0.46943 1.0509,1e-5 1.9782,0.27046 2.7818,0.81136 0.80363,0.54093 1.4102,1.304 1.8198,2.2892 0.40954,0.98524 0.61431,2.0651 0.61433,3.2397 -2e-5,1.2596 -0.22604,2.3935 -0.67808,3.402 -0.45206,1.0084 -1.1089,1.7812 -1.9705,2.3182 -0.86161,0.53705 -1.7676,0.80558 -2.7181,0.80558 -0.69547,0 -1.3194,-0.14682 -1.872,-0.44046 -0.5525,-0.29364 -1.0065,-0.66455 -1.3619,-1.1127 v 5.9925 z m 1.8893,-10.803 c -1e-5,1.5841 0.32068,2.7548 0.96205,3.5121 0.64136,0.75728 1.418,1.1359 2.3298,1.1359 0.92727,0 1.7212,-0.39216 2.382,-1.1765 0.66067,-0.78432 0.99102,-1.9994 0.99103,-3.6454 -10e-6,-1.5686 -0.32263,-2.7432 -0.96785,-3.5237 -0.64524,-0.78045 -1.416,-1.1707 -2.3124,-1.1707 -0.88865,1e-5 -1.6749,0.41536 -2.3588,1.246 -0.68387,0.8307 -1.0258,2.0381 -1.0258,3.6222 z" />
    <path
       inkscape:connector-curvature="0"
       id="path60"
       d="m 477.61,416.93 c 0,-2.2796 0.63364,-3.968 1.9009,-5.0653 1.0586,-0.91181 2.3491,-1.3677 3.8714,-1.3677 1.6923,10e-6 3.0755,0.55444 4.1496,1.6633 1.0741,1.10886 1.6111,2.6408 1.6111,4.5958 -10e-6,1.5841 -0.23762,2.8301 -0.71284,3.7381 -0.47524,0.90796 -1.1668,1.6131 -2.0748,2.1154 -0.90796,0.50228 -1.899,0.75342 -2.9731,0.75342 -1.7232,0 -3.116,-0.55251 -4.1786,-1.6575 -1.0625,-1.105 -1.5938,-2.6968 -1.5938,-4.7755 z m 2.1443,0 c 0,1.5764 0.34387,2.7567 1.0316,3.541 0.68773,0.78432 1.5532,1.1765 2.5964,1.1765 1.0354,0 1.897,-0.39409 2.5848,-1.1823 0.68772,-0.78818 1.0316,-1.9898 1.0316,-3.6048 -10e-6,-1.5223 -0.3458,-2.6756 -1.0374,-3.4599 -0.6916,-0.78431 -1.5513,-1.1765 -2.579,-1.1765 -1.0432,1e-5 -1.9086,0.39024 -2.5964,1.1707 -0.68773,0.78047 -1.0316,1.9589 -1.0316,3.5352 z" />
    <path
       inkscape:connector-curvature="0"
       id="path62"
       d="m 491.6,423.08 v -12.31 h 1.8777 v 1.7502 c 0.9041,-1.3523 2.21,-2.0284 3.9178,-2.0284 0.74182,10e-6 1.4238,0.1333 2.0458,0.39988 0.62204,0.26661 1.0876,0.61627 1.3967,1.049 0.30908,0.43274 0.52545,0.9466 0.6491,1.5416 0.0773,0.38637 0.11589,1.0625 0.11591,2.0284 v 7.5689 h -2.0864 v -7.4878 c -1e-5,-0.84999 -0.0811,-1.4856 -0.24341,-1.9067 -0.16228,-0.42113 -0.45012,-0.75727 -0.86353,-1.0084 -0.41342,-0.25112 -0.8983,-0.37669 -1.4547,-0.3767 -0.88865,10e-6 -1.6556,0.28206 -2.3008,0.84614 -0.64524,0.5641 -0.96785,1.6343 -0.96785,3.2107 v 6.7228 z" />
    <path
       inkscape:connector-curvature="0"
       id="path64"
       d="m 513.24,419.12 2.1559,0.26659 c -0.34001,1.2596 -0.96979,2.2371 -1.8893,2.9325 -0.91956,0.69546 -2.0941,1.0432 -3.5236,1.0432 -1.8005,0 -3.2281,-0.55444 -4.2829,-1.6633 -1.0548,-1.10886 -1.5822,-2.664 -1.5822,-4.6654 -1e-5,-2.0709 0.53318,-3.6782 1.5996,-4.8218 1.06642,-1.1436 2.4496,-1.7154 4.1496,-1.7155 1.6459,1e-5 2.9905,0.56024 4.0337,1.6807 1.0432,1.12046 1.5648,2.6968 1.5648,4.7291 -10e-6,0.12365 -0.004,0.3091 -0.0116,0.55637 h -9.18 c 0.0773,1.3523 0.45977,2.3877 1.1475,3.1064 0.68773,0.71864 1.5455,1.078 2.5732,1.078 0.765,0 1.418,-0.20091 1.9589,-0.60273 0.54091,-0.40182 0.96977,-1.0432 1.2866,-1.9241 z m -6.8503,-3.373 h 6.8734 c -0.0927,-1.0355 -0.35546,-1.812 -0.78818,-2.3298 -0.66456,-0.80363 -1.5262,-1.2054 -2.5848,-1.2055 -0.95819,10e-6 -1.7638,0.32069 -2.4167,0.96205 -0.65296,0.64138 -1.0142,1.4991 -1.0838,2.5732 z" />
    <path
       inkscape:connector-curvature="0"
       id="path66"
       d="m 518.02,423.08 v -12.31 h 1.8777 v 1.7502 c 0.90409,-1.3523 2.21,-2.0284 3.9177,-2.0284 0.74182,10e-6 1.4238,0.1333 2.0458,0.39988 0.62204,0.26661 1.0876,0.61627 1.3967,1.049 0.30909,0.43274 0.52545,0.9466 0.6491,1.5416 0.0773,0.38637 0.1159,1.0625 0.11591,2.0284 v 7.5689 h -2.0864 v -7.4878 c -10e-6,-0.84999 -0.0811,-1.4856 -0.24341,-1.9067 -0.16228,-0.42113 -0.45012,-0.75727 -0.86353,-1.0084 -0.41341,-0.25112 -0.8983,-0.37669 -1.4547,-0.3767 -0.88865,10e-6 -1.6556,0.28206 -2.3008,0.84614 -0.64524,0.5641 -0.96785,1.6343 -0.96785,3.2107 v 6.7228 z" />
    <path
       inkscape:connector-curvature="0"
       id="path68"
       d="m 535.79,421.21 0.30136,1.843 c -0.58728,0.12364 -1.1127,0.18546 -1.5764,0.18546 -0.75728,0 -1.3446,-0.11978 -1.7618,-0.35932 -0.41727,-0.23955 -0.71091,-0.55444 -0.88091,-0.94467 -0.17,-0.39023 -0.255,-1.2112 -0.255,-2.4631 v -7.0821 h -1.53 v -1.6227 h 1.53 v -3.0484 l 2.0748,-1.2518 v 4.3002 h 2.098 v 1.6227 h -2.098 v 7.198 c 0,0.59501 0.0367,0.97751 0.11012,1.1475 0.0734,0.17 0.19317,0.30523 0.35932,0.40568 0.16613,0.10046 0.40374,0.15068 0.71284,0.15068 0.23181,0 0.53704,-0.027 0.91569,-0.0811 z" />
  </g>
  <g
     id="g4058"
     transform="translate(-11.222756,-5.230502)">
    <path
       d="m 236.566,26.372 v 64.89 h 64.812 v -64.89 h -64.812 z"
       id="path96"
       inkscape:connector-curvature="0"
       style="fill:#333333;fill-opacity:1;fill-rule:evenodd" />
    <path
       d="m 236.566,40.192 v 6.4031 h 15.305 l 10.151,10.151 4.6852,-4.6852 -12.025,-12.025 -18.116,0.15617 z"
       id="path98"
       inkscape:connector-curvature="0"
       style="fill:#ffe100;fill-rule:evenodd" />
    <path
       d="m 275.846,61.272 -4.6071,4.6852 11.557,11.635 h 18.585 V 71.111 h -15.695 l -9.8389,-9.8389 z"
       id="path100"
       inkscape:connector-curvature="0"
       style="fill:#ffe100;fill-rule:evenodd" />
    <path
       d="M 283.266,40.032 252.422,71.11 H 236.57 v 6.5593 h 18.507 l 31.078,-31.078 h 15.227 V 40.032 h -18.116 z"
       id="path102"
       inkscape:connector-curvature="0"
       style="fill:#ffe100;fill-rule:evenodd" />
  </g>
  <path
     style="fill:#ffffff;stroke:#ffffff;stroke-width:5.23180008px;stroke-linecap:round;stroke-linejoin:round"
     inkscape:connector-curvature="0"
     id="path108"
     d="m 361.86098,131.82075 90.112,81.991" />
  <path
     style="fill:#ffffff;fill-rule:evenodd;stroke:none"
     inkscape:connector-curvature="0"
     id="path110"
     d="m 457.13098,204.13075 8.5895,22.098 -22.801,-6.4031 14.212,-15.695 z" />
  <g
     style="fill:#ffffff;stroke:none"
     id="g112"
     transform="matrix(0.73135,0.682,-0.682,0.73135,-29.319016,-105.48925)">
    <path
       style="fill:#ffffff;stroke:none"
       inkscape:connector-curvature="0"
       id="path114"
       d="m 511.39,-111.71 2.2486,0.56796 c -0.47138,1.8468 -1.3194,3.2551 -2.5442,4.2249 -1.2248,0.96978 -2.722,1.4547 -4.4915,1.4547 -1.8314,0 -3.3208,-0.37285 -4.4683,-1.1185 -1.1475,-0.74569 -2.0207,-1.8256 -2.6196,-3.2397 -0.59887,-1.4141 -0.8983,-2.9325 -0.8983,-4.5552 0,-1.7696 0.33807,-3.3131 1.0142,-4.6306 0.67614,-1.3175 1.6382,-2.3182 2.8862,-3.0021 1.248,-0.68385 2.6215,-1.0258 4.1206,-1.0258 1.7,2e-5 3.1296,0.43275 4.2887,1.2982 1.1591,0.86548 1.9666,2.0825 2.4225,3.6512 l -2.2139,0.52159 c -0.39411,-1.2364 -0.96593,-2.1366 -1.7155,-2.7007 -0.74956,-0.56407 -1.6923,-0.84612 -2.8282,-0.84614 -1.3059,2e-5 -2.3974,0.31297 -3.2744,0.93887 -0.87706,0.62593 -1.4933,1.4663 -1.8488,2.521 -0.35546,1.0548 -0.53319,2.1424 -0.53319,3.2629 0,1.445 0.21057,2.7065 0.63171,3.7844 0.42114,1.078 1.076,1.8835 1.9647,2.4167 0.88864,0.53318 1.8507,0.79978 2.8862,0.79977 1.2596,1e-5 2.3259,-0.36318 3.1991,-1.0896 0.87318,-0.72636 1.4643,-1.8043 1.7734,-3.2339 z" />
  </g>
  <g
     style="fill:#ffffff;stroke:none"
     id="g116"
     transform="matrix(0.73135,0.682,-0.682,0.73135,-29.319016,-105.48925)">
    <path
       style="fill:#ffffff;stroke:none"
       inkscape:connector-curvature="0"
       id="path118"
       d="m 523.84,-107.57 c -0.77274,0.65682 -1.5165,1.1205 -2.2313,1.3909 -0.71479,0.27045 -1.4817,0.40568 -2.3008,0.40568 -1.3523,0 -2.3916,-0.33034 -3.118,-0.99103 -0.72637,-0.66068 -1.0896,-1.5049 -1.0896,-2.5326 0,-0.60273 0.13716,-1.1533 0.41148,-1.6517 0.27432,-0.4984 0.63364,-0.89829 1.078,-1.1997 0.44432,-0.30136 0.94466,-0.52932 1.501,-0.68387 0.40955,-0.10818 1.0277,-0.2125 1.8546,-0.31296 1.6846,-0.2009 2.9248,-0.44045 3.7207,-0.71864 0.008,-0.2859 0.0116,-0.46749 0.0116,-0.54477 -10e-6,-0.85 -0.19705,-1.4489 -0.59114,-1.7966 -0.53319,-0.47136 -1.3252,-0.70704 -2.3762,-0.70705 -0.98137,1e-5 -1.7058,0.17194 -2.1733,0.51579 -0.46751,0.34388 -0.81331,0.95241 -1.0374,1.8256 l -2.04,-0.27818 c 0.18546,-0.87318 0.49069,-1.5783 0.91569,-2.1154 0.425,-0.53704 1.0393,-0.95045 1.843,-1.2402 0.80363,-0.28976 1.7348,-0.43465 2.7934,-0.43466 1.0509,1e-5 1.9048,0.12365 2.5616,0.37091 0.65682,0.24729 1.1398,0.55831 1.4489,0.93308 0.30908,0.37478 0.52544,0.84808 0.64909,1.4199 0.0695,0.35547 0.10431,0.99683 0.10432,1.9241 v 2.7818 c -10e-6,1.9396 0.0444,3.1663 0.1333,3.6801 0.0889,0.51387 0.26464,1.0065 0.52739,1.4778 h -2.1791 c -0.21637,-0.43273 -0.35546,-0.93887 -0.41727,-1.5184 z m -0.17387,-4.6596 c -0.75728,0.3091 -1.8932,0.57183 -3.4077,0.78819 -0.85774,0.12364 -1.4643,0.26273 -1.8198,0.41727 -0.35546,0.15455 -0.62978,0.38058 -0.82295,0.67807 -0.19319,0.29751 -0.28978,0.62785 -0.28978,0.99103 0,0.55637 0.21057,1.02 0.63171,1.3909 0.42113,0.37091 1.0374,0.55637 1.8488,0.55636 0.80363,1e-5 1.5184,-0.17579 2.1443,-0.52739 0.6259,-0.35159 1.0857,-0.83261 1.3793,-1.4431 0.22409,-0.47136 0.33613,-1.1668 0.33614,-2.0864 z" />
  </g>
  <g
     style="fill:#ffffff;stroke:none"
     id="g120"
     transform="matrix(0.73135,0.682,-0.682,0.73135,-29.319016,-105.48925)">
    <path
       style="fill:#ffffff;stroke:none"
       inkscape:connector-curvature="0"
       id="path122"
       d="m 529.04,-106.47 v -16.992 h 2.0864 v 16.992 z" />
  </g>
  <g
     style="fill:#ffffff;stroke:none"
     id="g124"
     transform="matrix(0.73135,0.682,-0.682,0.73135,-29.319016,-105.48925)">
    <path
       style="fill:#ffffff;stroke:none"
       inkscape:connector-curvature="0"
       id="path126"
       d="m 534.34,-106.29 v -16.992 h 2.0864 v 16.992 z" />
  </g>
  <path
     style="fill:#ffffff;stroke:#ffffff;stroke-width:5.23180008px;stroke-linecap:round;stroke-linejoin:round;stroke-opacity:1"
     inkscape:connector-curvature="0"
     id="path128"
     d="m 50.142984,221.54075 94.637996,-82.3" />
  <path
     style="fill:#ffffff;fill-rule:evenodd;stroke:none"
     inkscape:connector-curvature="0"
     id="path130"
     d="m 135.80098,132.99075 22.957,-5.9346 -9.058,21.942 -13.899,-16.008 z" />
  <g
     style="fill:#ffffff;stroke:none"
     id="g132"
     transform="matrix(0.75470958,-0.65605903,0.65605903,0.75470958,-29.319016,-105.48925)">
    <path
       style="fill:#ffffff;stroke:none"
       inkscape:connector-curvature="0"
       id="path134"
       d="m -88.788,281.56 2.2486,0.56796 c -0.47138,1.8468 -1.3195,3.2551 -2.5442,4.2249 -1.2248,0.96978 -2.722,1.4547 -4.4915,1.4547 -1.8314,0 -3.3208,-0.37285 -4.4683,-1.1185 -1.1475,-0.74569 -2.0207,-1.8256 -2.6196,-3.2397 -0.59887,-1.4141 -0.8983,-2.9325 -0.8983,-4.5552 0,-1.7696 0.33806,-3.3131 1.0142,-4.6306 0.67613,-1.3175 1.6382,-2.3182 2.8861,-3.0021 1.248,-0.68385 2.6215,-1.0258 4.1206,-1.0258 1.7,2e-5 3.1296,0.43275 4.2887,1.2982 1.1591,0.86548 1.9666,2.0825 2.4225,3.6512 l -2.2139,0.52159 c -0.39411,-1.2364 -0.96593,-2.1366 -1.7155,-2.7007 -0.74956,-0.56408 -1.6923,-0.84613 -2.8282,-0.84615 -1.3059,2e-5 -2.3974,0.31298 -3.2744,0.93887 -0.87706,0.62593 -1.4933,1.4663 -1.8488,2.521 -0.35546,1.0548 -0.53319,2.1424 -0.53318,3.2629 -4e-6,1.445 0.21057,2.7065 0.63171,3.7844 0.42113,1.078 1.076,1.8835 1.9647,2.4167 0.88863,0.53319 1.8507,0.79978 2.8862,0.79978 1.2595,0 2.3259,-0.36319 3.1991,-1.0896 0.87317,-0.72636 1.4643,-1.8043 1.7734,-3.2339 z" />
  </g>
  <g
     style="fill:#ffffff;stroke:none"
     id="g136"
     transform="matrix(0.75470958,-0.65605903,0.65605903,0.75470958,-29.319016,-105.48925)">
    <path
       style="fill:#ffffff;stroke:none"
       inkscape:connector-curvature="0"
       id="path138"
       d="m -76.34,285.71 c -0.77274,0.65683 -1.5165,1.1205 -2.2313,1.3909 -0.71478,0.27046 -1.4817,0.40568 -2.3008,0.40568 -1.3523,0 -2.3916,-0.33034 -3.118,-0.99102 -0.72637,-0.66069 -1.0896,-1.5049 -1.0896,-2.5326 -10e-7,-0.60273 0.13716,-1.1533 0.41148,-1.6517 0.27432,-0.49841 0.63364,-0.8983 1.078,-1.1997 0.44432,-0.30136 0.94466,-0.52931 1.501,-0.68387 0.40954,-0.10817 1.0277,-0.21249 1.8546,-0.31295 1.6845,-0.20091 2.9248,-0.44045 3.7207,-0.71864 0.0077,-0.28591 0.01158,-0.4675 0.01159,-0.54478 -9e-6,-0.85 -0.19706,-1.4489 -0.59114,-1.7966 -0.53319,-0.47136 -1.3252,-0.70704 -2.3762,-0.70705 -0.98137,1e-5 -1.7058,0.17194 -2.1733,0.5158 -0.46751,0.34387 -0.8133,0.9524 -1.0374,1.8256 l -2.04,-0.27819 c 0.18545,-0.87317 0.49068,-1.5783 0.91569,-2.1154 0.425,-0.53704 1.0393,-0.95045 1.843,-1.2402 0.80364,-0.28977 1.7348,-0.43465 2.7934,-0.43466 1.0509,10e-6 1.9048,0.12364 2.5616,0.37091 0.65681,0.24728 1.1398,0.55831 1.4489,0.93307 0.30908,0.37479 0.52545,0.84808 0.6491,1.4199 0.06953,0.35547 0.10431,0.99684 0.10432,1.9241 v 2.7818 c -1.1e-5,1.9396 0.04442,3.1663 0.1333,3.6801 0.08885,0.51387 0.26465,1.0065 0.52739,1.4778 h -2.1791 c -0.21638,-0.43273 -0.35547,-0.93887 -0.41728,-1.5184 z m -0.17386,-4.6596 c -0.75728,0.3091 -1.8932,0.57183 -3.4077,0.78819 -0.85774,0.12364 -1.4643,0.26273 -1.8198,0.41727 -0.35546,0.15456 -0.62978,0.38058 -0.82296,0.67808 -0.19319,0.2975 -0.28978,0.62784 -0.28978,0.99102 -3e-6,0.55637 0.21057,1.02 0.63171,1.3909 0.42114,0.37091 1.0374,0.55637 1.8488,0.55637 0.80364,0 1.5184,-0.1758 2.1443,-0.52739 0.6259,-0.35159 1.0857,-0.83262 1.3793,-1.4431 0.22408,-0.47136 0.33613,-1.1668 0.33614,-2.0864 z" />
  </g>
  <g
     style="fill:#ffffff;stroke:none"
     id="g140"
     transform="matrix(0.75470958,-0.65605903,0.65605903,0.75470958,-29.319016,-105.48925)">
    <path
       style="fill:#ffffff;stroke:none"
       inkscape:connector-curvature="0"
       id="path142"
       d="m -71.138,287.19 v -16.992 h 2.0864 v 16.992 z" />
  </g>
  <g
     style="fill:#ffffff;stroke:none"
     id="g144"
     transform="matrix(0.75470958,-0.65605903,0.65605903,0.75470958,-29.319016,-105.48925)">
    <path
       style="fill:#ffffff;stroke:none"
       inkscape:connector-curvature="0"
       id="path146"
       d="m -65.85,286.82 v -16.992 h 2.0864 v 16.992 z" />
  </g>
  <path
     style="fill:#ffffff;stroke:#ffffff;stroke-width:5.23180008px;stroke-linecap:round;stroke-linejoin:round"
     inkscape:connector-curvature="0"
     id="path148"
     d="m 229.58098,136.51075 -94.719,84.49" />
  <path
     style="fill:#ffffff;fill-rule:evenodd;stroke:none"
     inkscape:connector-curvature="0"
     id="path150"
     d="m 143.85098,227.17075 -22.879,6.1688 8.8238,-22.02 14.056,15.852 z" />
  <g
     style="fill:#ffffff;stroke:none"
     id="g152"
     transform="matrix(0.75470958,-0.65605903,0.65605903,0.75470958,-29.319016,-105.48925)">
    <path
       style="fill:#ffffff;stroke:none"
       inkscape:connector-curvature="0"
       id="path154"
       d="m -66.717,383.43 v -16.992 h 7.5341 c 1.5145,2e-5 2.6659,0.15263 3.4541,0.45784 0.78817,0.30525 1.4179,0.84423 1.8893,1.6169 0.47135,0.77275 0.70703,1.6266 0.70705,2.5616 -1.5e-5,1.2055 -0.39024,2.2216 -1.1707,3.0484 -0.78047,0.82683 -1.9859,1.3523 -3.6164,1.5764 0.59499,0.28592 1.047,0.56796 1.3561,0.84614 0.65681,0.60274 1.2789,1.3562 1.8661,2.2602 l 2.9557,4.6248 h -2.8282 l -2.2486,-3.5352 c -0.65683,-1.02 -1.1977,-1.8005 -1.6227,-2.3414 -0.42501,-0.5409 -0.80558,-0.91954 -1.1417,-1.1359 -0.33615,-0.21636 -0.67808,-0.36704 -1.0258,-0.45205 -0.25501,-0.0541 -0.67228,-0.0811 -1.2518,-0.0811 h -2.608 v 7.5457 z m 2.2486,-9.493 h 4.8334 c 1.0277,10e-6 1.8314,-0.10624 2.4109,-0.31875 0.57954,-0.21249 1.02,-0.55249 1.3214,-1.02 0.30135,-0.46749 0.45204,-0.97556 0.45205,-1.5242 -1.3e-5,-0.80363 -0.29172,-1.4643 -0.87512,-1.9821 -0.58342,-0.51771 -1.5049,-0.77658 -2.7644,-0.77659 h -5.3782 z" />
  </g>
  <g
     style="fill:#ffffff;stroke:none"
     id="g156"
     transform="matrix(0.75470958,-0.65605903,0.65605903,0.75470958,-29.319016,-105.48925)">
    <path
       style="fill:#ffffff;stroke:none"
       inkscape:connector-curvature="0"
       id="path158"
       d="m -41.786,379.18 2.1559,0.26659 c -0.34001,1.2596 -0.96979,2.2371 -1.8893,2.9325 -0.91956,0.69546 -2.0941,1.0432 -3.5237,1.0432 -1.8005,0 -3.2281,-0.55444 -4.2829,-1.6633 -1.0548,-1.10886 -1.5822,-2.664 -1.5822,-4.6654 -10e-7,-2.0709 0.53318,-3.6782 1.5996,-4.8218 1.06642,-1.1436 2.4496,-1.7154 4.1496,-1.7155 1.6459,1e-5 2.9905,0.56024 4.0337,1.6807 1.0432,1.12046 1.5648,2.6968 1.5648,4.7291 -1.2e-5,0.12364 -0.0039,0.30909 -0.01159,0.55636 h -9.18 c 0.07727,1.3523 0.45977,2.3878 1.1475,3.1064 0.68773,0.71865 1.5455,1.078 2.5732,1.078 0.765,0 1.418,-0.2009 1.9589,-0.60273 0.5409,-0.40181 0.96977,-1.0432 1.2866,-1.9241 z m -6.8503,-3.373 h 6.8734 c -0.09274,-1.0354 -0.35547,-1.812 -0.78819,-2.3298 -0.66456,-0.80363 -1.5262,-1.2054 -2.5848,-1.2055 -0.95819,10e-6 -1.7638,0.3207 -2.4167,0.96205 -0.65296,0.64138 -1.0142,1.4991 -1.0838,2.5732 z" />
  </g>
  <g
     style="fill:#ffffff;stroke:none"
     id="g160"
     transform="matrix(0.75470958,-0.65605903,0.65605903,0.75470958,-29.319016,-105.48925)">
    <path
       style="fill:#ffffff;stroke:none"
       inkscape:connector-curvature="0"
       id="path162"
       d="m -37.766,379.42 2.0632,-0.32455 c 0.11591,0.82682 0.43852,1.4605 0.96785,1.9009 0.52932,0.44046 1.2692,0.66068 2.2197,0.66068 0.95818,0 1.6691,-0.19511 2.1327,-0.58534 0.46363,-0.39023 0.69545,-0.84807 0.69546,-1.3735 -9e-6,-0.47136 -0.20478,-0.84227 -0.61432,-1.1127 -0.28592,-0.18546 -0.99683,-0.42114 -2.1327,-0.70705 -1.53,-0.38636 -2.5906,-0.72057 -3.1817,-1.0026 -0.59114,-0.28204 -1.0393,-0.67227 -1.3446,-1.1707 -0.30523,-0.49841 -0.45784,-1.049 -0.45784,-1.6517 -2e-6,-0.54863 0.12557,-1.0567 0.37671,-1.5242 0.25114,-0.46749 0.59307,-0.85579 1.0258,-1.1649 0.32454,-0.23954 0.76693,-0.44238 1.3272,-0.60853 0.56023,-0.16612 1.161,-0.24919 1.8024,-0.2492 0.96591,10e-6 1.814,0.1391 2.5442,0.41727 0.73022,0.2782 1.2692,0.6549 1.6169,1.1301 0.34772,0.47524 0.58727,1.1108 0.71864,1.9067 l -2.04,0.27818 c -0.09274,-0.63363 -0.36126,-1.1282 -0.80557,-1.4836 -0.44433,-0.35545 -1.0722,-0.53318 -1.8835,-0.53319 -0.95819,1e-5 -1.6421,0.15842 -2.0516,0.47523 -0.40955,0.31683 -0.61432,0.68774 -0.61432,1.1127 -3e-6,0.27047 0.085,0.51388 0.255,0.73024 0.17,0.2241 0.43659,0.40955 0.79978,0.55636 0.20863,0.0773 0.82295,0.25501 1.843,0.53319 1.4759,0.3941 2.5056,0.71671 3.089,0.96784 0.5834,0.25115 1.0412,0.61626 1.3735,1.0954 0.33226,0.4791 0.4984,1.0741 0.49841,1.785 -1.1e-5,0.69546 -0.20285,1.3504 -0.60853,1.9647 -0.40569,0.61432 -0.99104,1.0896 -1.756,1.4257 -0.76501,0.33614 -1.6305,0.50421 -2.5964,0.50421 -1.5996,0 -2.8185,-0.33228 -3.657,-0.99683 -0.83842,-0.66454 -1.3735,-1.6498 -1.6054,-2.9557 z" />
  </g>
  <g
     style="fill:#ffffff;stroke:none"
     id="g164"
     transform="matrix(0.75470958,-0.65605903,0.65605903,0.75470958,-29.319016,-105.48925)">
    <path
       style="fill:#ffffff;stroke:none"
       inkscape:connector-curvature="0"
       id="path166"
       d="m -17.345,383.18 v -1.8082 c -0.9582,1.3909 -2.2602,2.0864 -3.9062,2.0864 -0.72637,0 -1.4044,-0.1391 -2.0342,-0.41728 -0.62978,-0.27818 -1.0973,-0.62784 -1.4025,-1.049 -0.30523,-0.42114 -0.51966,-0.93694 -0.6433,-1.5474 -0.085,-0.40954 -0.1275,-1.0586 -0.1275,-1.9473 v -7.6269 h 2.0864 v 6.8271 c -3e-6,1.0896 0.0425,1.8236 0.1275,2.2023 0.13136,0.54864 0.40954,0.97944 0.83455,1.2924 0.425,0.31296 0.95045,0.46944 1.5764,0.46944 0.62591,0 1.2132,-0.16035 1.7618,-0.48103 0.54863,-0.32068 0.93693,-0.75727 1.1649,-1.3098 0.22795,-0.5525 0.34192,-1.3542 0.34193,-2.4051 v -6.5953 h 2.0864 v 12.31 z" />
  </g>
  <g
     style="fill:#ffffff;stroke:none"
     id="g168"
     transform="matrix(0.75470958,-0.65605903,0.65605903,0.75470958,-29.319016,-105.48925)">
    <path
       style="fill:#ffffff;stroke:none"
       inkscape:connector-curvature="0"
       id="path170"
       d="m -13.121,382.32 v -16.992 h 2.0864 v 16.992 z" />
  </g>
  <g
     style="fill:#ffffff;stroke:none"
     id="g172"
     transform="matrix(0.75470958,-0.65605903,0.65605903,0.75470958,-29.319016,-105.48925)">
    <path
       style="fill:#ffffff;stroke:none"
       inkscape:connector-curvature="0"
       id="path174"
       d="m -2.2885,380.9 0.30137,1.843 c -0.58728,0.12364 -1.1127,0.18545 -1.5764,0.18545 -0.75728,0 -1.3446,-0.11977 -1.7618,-0.35932 -0.41728,-0.23954 -0.71092,-0.55443 -0.88091,-0.94466 -0.17,-0.39023 -0.255,-1.2112 -0.255,-2.4631 v -7.0821 h -1.53 v -1.6227 h 1.53 v -3.0484 l 2.0748,-1.2518 v 4.3002 h 2.098 v 1.6227 h -2.098 v 7.198 c -4e-6,0.595 0.036701,0.97751 0.11011,1.1475 0.073405,0.17001 0.19318,0.30524 0.35932,0.40569 0.16613,0.10046 0.40375,0.15068 0.71284,0.15068 0.23181,0 0.53704,-0.027 0.91569,-0.0811 z" />
  </g>
  <path
     style="fill:#ffffff;stroke:#ffffff;stroke-width:5.23180008px;stroke-linecap:round;stroke-linejoin:round"
     inkscape:connector-curvature="0"
     id="path176"
     d="m 394.89098,230.99075 -87.92,-81.83" />
  <path
     style="fill:#ffffff;fill-rule:evenodd;stroke:none"
     inkscape:connector-curvature="0"
     id="path178"
     d="m 301.66098,158.68075 -8.2772,-22.177 22.723,6.7154 -14.446,15.461 z" />
  <g
     style="fill:#ffffff;stroke:none"
     id="g180"
     transform="matrix(0.73135,0.682,-0.682,0.73135,-29.319016,-105.48925)">
    <path
       style="fill:#ffffff;stroke:none"
       inkscape:connector-curvature="0"
       id="path182"
       d="m 438.62,-13.286 v -16.992 h 7.5341 c 1.5145,1.7e-5 2.6659,0.15263 3.4541,0.45784 0.78817,0.30524 1.418,0.84422 1.8893,1.6169 0.47135,0.77275 0.70703,1.6266 0.70705,2.5616 -2e-5,1.2055 -0.39025,2.2216 -1.1707,3.0484 -0.78048,0.82683 -1.9859,1.3523 -3.6164,1.5764 0.595,0.28592 1.047,0.56796 1.3562,0.84614 0.65681,0.60274 1.2788,1.3562 1.8661,2.2602 l 2.9557,4.6248 h -2.8282 l -2.2486,-3.5352 c -0.65684,-1.02 -1.1978,-1.8005 -1.6227,-2.3414 -0.42501,-0.54091 -0.80558,-0.91954 -1.1417,-1.1359 -0.33615,-0.21636 -0.67808,-0.36704 -1.0258,-0.45205 -0.25501,-0.05408 -0.67229,-0.08113 -1.2518,-0.08114 h -2.608 v 7.5457 z m 2.2486,-9.493 h 4.8334 c 1.0277,10e-6 1.8314,-0.10624 2.4109,-0.31875 0.57954,-0.21249 1.02,-0.55249 1.3214,-1.02 0.30136,-0.46749 0.45204,-0.97556 0.45205,-1.5242 -10e-6,-0.80363 -0.29172,-1.4643 -0.87512,-1.9821 -0.58342,-0.51772 -1.5049,-0.77658 -2.7644,-0.7766 h -5.3782 z" />
  </g>
  <g
     style="fill:#ffffff;stroke:none"
     id="g184"
     transform="matrix(0.73135,0.682,-0.682,0.73135,-29.319016,-105.48925)">
    <path
       style="fill:#ffffff;stroke:none"
       inkscape:connector-curvature="0"
       id="path186"
       d="m 463.55,-17.547 2.1559,0.26659 c -0.34001,1.2596 -0.96979,2.2371 -1.8893,2.9325 -0.91956,0.69546 -2.0941,1.0432 -3.5236,1.0432 -1.8005,0 -3.2281,-0.55443 -4.2829,-1.6633 -1.0548,-1.10887 -1.5822,-2.664 -1.5822,-4.6654 0,-2.0709 0.53319,-3.6782 1.5996,-4.8218 1.06641,-1.1436 2.4496,-1.7155 4.1496,-1.7155 1.6459,1.2e-5 2.9905,0.56024 4.0336,1.6807 1.0432,1.1205 1.5648,2.6968 1.5648,4.7291 -2e-5,0.12364 -0.004,0.3091 -0.0116,0.55637 h -9.1801 c 0.0773,1.3523 0.45978,2.3877 1.1475,3.1064 0.68773,0.71864 1.5455,1.078 2.5732,1.078 0.76499,2e-6 1.418,-0.20091 1.9589,-0.60273 0.5409,-0.40182 0.96977,-1.0432 1.2866,-1.9241 z m -6.8503,-3.373 h 6.8734 c -0.0927,-1.0355 -0.35546,-1.812 -0.78818,-2.3298 -0.66456,-0.80363 -1.5262,-1.2054 -2.5848,-1.2055 -0.95819,1.1e-5 -1.7638,0.32069 -2.4167,0.96205 -0.65296,0.64138 -1.0142,1.4991 -1.0838,2.5732 z" />
  </g>
  <g
     style="fill:#ffffff;stroke:none"
     id="g188"
     transform="matrix(0.73135,0.682,-0.682,0.73135,-29.319016,-105.48925)">
    <path
       style="fill:#ffffff;stroke:none"
       inkscape:connector-curvature="0"
       id="path190"
       d="m 468.41,-16.764 2.0632,-0.32455 c 0.11591,0.82683 0.43852,1.4605 0.96785,1.9009 0.52931,0.44046 1.2692,0.66069 2.2197,0.66069 0.95818,1e-6 1.6691,-0.19511 2.1327,-0.58534 0.46363,-0.39023 0.69545,-0.84807 0.69546,-1.3735 -10e-6,-0.47136 -0.20479,-0.84227 -0.61433,-1.1127 -0.28591,-0.18545 -0.99683,-0.42113 -2.1327,-0.70705 -1.53,-0.38636 -2.5906,-0.72057 -3.1817,-1.0026 -0.59114,-0.28204 -1.0393,-0.67227 -1.3446,-1.1707 -0.30523,-0.4984 -0.45784,-1.049 -0.45784,-1.6517 0,-0.54863 0.12557,-1.0567 0.3767,-1.5242 0.25114,-0.46749 0.59307,-0.85579 1.0258,-1.1649 0.32454,-0.23954 0.76693,-0.44238 1.3272,-0.60853 0.56023,-0.16612 1.161,-0.24919 1.8024,-0.24921 0.96591,1.3e-5 1.814,0.1391 2.5442,0.41728 0.73022,0.2782 1.2692,0.6549 1.6169,1.1301 0.34772,0.47524 0.58726,1.1108 0.71864,1.9067 l -2.04,0.27818 c -0.0927,-0.63363 -0.36126,-1.1282 -0.80558,-1.4836 -0.44432,-0.35545 -1.0722,-0.53317 -1.8835,-0.53318 -0.95819,1.1e-5 -1.6421,0.15842 -2.0516,0.47523 -0.40955,0.31683 -0.61433,0.68774 -0.61432,1.1127 -1e-5,0.27046 0.085,0.51388 0.255,0.73023 0.17,0.2241 0.43659,0.40956 0.79978,0.55637 0.20863,0.07728 0.82295,0.25501 1.843,0.53318 1.4759,0.3941 2.5056,0.71672 3.089,0.96785 0.58341,0.25114 1.0412,0.61626 1.3735,1.0953 0.33227,0.4791 0.49841,1.0741 0.49842,1.785 -1e-5,0.69546 -0.20286,1.3504 -0.60853,1.9647 -0.40569,0.61432 -0.99104,1.0896 -1.756,1.4257 -0.76501,0.33614 -1.6305,0.50421 -2.5964,0.50421 -1.5996,-1e-6 -2.8185,-0.33228 -3.657,-0.99682 -0.83842,-0.66455 -1.3735,-1.6498 -1.6054,-2.9557 z" />
  </g>
  <g
     style="fill:#ffffff;stroke:none"
     id="g192"
     transform="matrix(0.73135,0.682,-0.682,0.73135,-29.319016,-105.48925)">
    <path
       style="fill:#ffffff;stroke:none"
       inkscape:connector-curvature="0"
       id="path194"
       d="m 488.82,-13.571 v -1.8082 c -0.95819,1.3909 -2.2602,2.0864 -3.9062,2.0864 -0.72637,0 -1.4044,-0.13909 -2.0342,-0.41728 -0.62978,-0.27818 -1.0973,-0.62784 -1.4025,-1.049 -0.30523,-0.42114 -0.51966,-0.93693 -0.6433,-1.5474 -0.085,-0.40954 -0.1275,-1.0586 -0.1275,-1.9473 v -7.6269 h 2.0864 v 6.8271 c -1e-5,1.0896 0.0425,1.8236 0.1275,2.2023 0.13136,0.54864 0.40954,0.97944 0.83455,1.2924 0.42499,0.31296 0.95045,0.46944 1.5764,0.46944 0.62591,10e-7 1.2132,-0.16034 1.7618,-0.48103 0.54863,-0.32068 0.93693,-0.75727 1.1649,-1.3098 0.22795,-0.5525 0.34192,-1.3542 0.34193,-2.4051 v -6.5953 h 2.0864 v 12.31 z" />
  </g>
  <g
     style="fill:#ffffff;stroke:none"
     id="g196"
     transform="matrix(0.73135,0.682,-0.682,0.73135,-29.319016,-105.48925)">
    <path
       style="fill:#ffffff;stroke:none"
       inkscape:connector-curvature="0"
       id="path198"
       d="m 493.07,-13.14 v -16.992 h 2.0864 v 16.992 z" />
  </g>
  <g
     style="fill:#ffffff;stroke:none"
     id="g200"
     transform="matrix(0.73135,0.682,-0.682,0.73135,-29.319016,-105.48925)">
    <path
       style="fill:#ffffff;stroke:none"
       inkscape:connector-curvature="0"
       id="path202"
       d="m 502.97,-14.821 0.30137,1.843 c -0.58729,0.12364 -1.1127,0.18546 -1.5764,0.18546 -0.75728,0 -1.3446,-0.11977 -1.7618,-0.35932 -0.41728,-0.23955 -0.71092,-0.55443 -0.88092,-0.94466 -0.17,-0.39023 -0.255,-1.2113 -0.255,-2.4631 v -7.0821 h -1.53 v -1.6227 h 1.53 v -3.0484 l 2.0748,-1.2518 v 4.3002 h 2.098 v 1.6227 h -2.098 v 7.198 c -10e-6,0.59501 0.0367,0.97751 0.11011,1.1475 0.0734,0.17 0.19318,0.30523 0.35932,0.40568 0.16613,0.10046 0.40375,0.15068 0.71284,0.15068 0.23182,2e-6 0.53705,-0.02704 0.91569,-0.08114 z" />
  </g>
  <path
     style="fill:none;stroke:#ffe100;stroke-width:3.59200001px;stroke-linecap:round;stroke-linejoin:round;stroke-opacity:1"
     inkscape:connector-curvature="0"
     id="path8-7"
     d="m 302.29418,112.13664 c 13.04,0 23.582,-10.542 23.582,-23.582 v 0 -63.093999 c 0,-13.04 -10.542,-23.66 -23.582,-23.66 v 0 h -90.737 c -13.04,0 -23.582,10.62 -23.582,23.66 v 0 63.093999 c 0,13.04 10.542,23.582 23.582,23.582 v 0 h 90.737 z" />
</svg>
