<?xml version="1.0" encoding="UTF-8" standalone="no"?>
<svg xmlns:rdf="http://www.w3.org/1999/02/22-rdf-syntax-ns#" xmlns="http://www.w3.org/2000/svg" version="1.1" xmlns:cc="http://creativecommons.org/ns#" xmlns:dc="http://purl.org/dc/elements/1.1/" viewBox="0 0 522.53 378.81">
<g transform="translate(-1.5863 -8.6726)">
<g transform="translate(3.6488 10.766)">
<g transform="translate(-.59055 1.4796)">
<flowRoot style="word-spacing:0px;letter-spacing:0px" xml:space="preserve" font-size="24px" line-height="125%" font-family="MS UI Gothic" fill="black"><flowRegion><rect y="-110.1" width="687.91" x="-6.0609" height="583.87"/></flowRegion><flowPara/></flowRoot>
<path d="m119.04 368.68c13.04 0 23.582-10.542 23.582-23.582v-63.094c0-13.04-10.542-23.66-23.582-23.66h-90.737c-13.04 0-23.582 10.62-23.582 23.66v63.094c0 13.04 10.542 23.582 23.582 23.582h90.737z" fill-rule="evenodd" fill="#595959"/>
<path stroke-linejoin="round" d="m119.04 368.68c13.04 0 23.582-10.542 23.582-23.582v0-63.094c0-13.04-10.542-23.66-23.582-23.66v0h-90.737c-13.04 0-23.582 10.62-23.582 23.66v0 63.094c0 13.04 10.542 23.582 23.582 23.582v0h90.737z" stroke="#000" stroke-linecap="round" stroke-width="3.592px" fill="none"/>
<g fill="#fff">
<path d="m53.409 306.6 6.5257-16.992h2.4225l6.9546 16.992h-2.5616l-1.9821-5.1464h-7.1053l-1.8661 5.1464zm4.903-6.9778h5.7607l-1.7734-4.7059c-0.54092-1.4295-0.94274-2.6041-1.2055-3.5236-0.21637 1.0896-0.5216 2.1714-0.91569 3.2455z"/>
<path d="m70.865 311.32v-17.027h1.9009v1.5996c0.44818-0.6259 0.95432-1.0953 1.5184-1.4083 0.56409-0.31294 1.248-0.46942 2.0516-0.46943 1.0509 0.00001 1.9782 0.27047 2.7818 0.81137 0.80363 0.54092 1.4102 1.304 1.8198 2.2892 0.40954 0.98524 0.61431 2.0651 0.61432 3.2397-0.000012 1.2596-0.22604 2.3935-0.67807 3.402-0.45206 1.0084-1.1089 1.7812-1.9705 2.3182-0.8616 0.53705-1.7676 0.80558-2.7181 0.80558-0.69546 0-1.3194-0.14682-1.8719-0.44046-0.55251-0.29364-1.0065-0.66455-1.3619-1.1127v5.9925zm1.8893-10.803c-0.000003 1.5841 0.32068 2.7548 0.96205 3.5121 0.64136 0.75728 1.418 1.1359 2.3298 1.1359 0.92727 0 1.7213-0.39216 2.3819-1.1765 0.66068-0.78432 0.99102-1.9994 0.99103-3.6454-0.00001-1.5686-0.32262-2.7432-0.96785-3.5237-0.64524-0.78045-1.416-1.1707-2.3124-1.1707-0.88865 0.00002-1.6749 0.41536-2.3588 1.246-0.68387 0.8307-1.0258 2.0381-1.0258 3.6222z"/>
<path d="m84.079 311.32v-17.027h1.9009v1.5996c0.44818-0.6259 0.95432-1.0953 1.5184-1.4083 0.56409-0.31294 1.248-0.46942 2.0516-0.46943 1.0509 0.00001 1.9782 0.27047 2.7818 0.81137 0.80363 0.54092 1.4102 1.304 1.8198 2.2892 0.40954 0.98524 0.61431 2.0651 0.61432 3.2397-0.000012 1.2596-0.22604 2.3935-0.67807 3.402-0.45206 1.0084-1.1089 1.7812-1.9705 2.3182-0.8616 0.53705-1.7676 0.80558-2.7181 0.80558-0.69546 0-1.3194-0.14682-1.8719-0.44046-0.55251-0.29364-1.0065-0.66455-1.3619-1.1127v5.9925zm1.8893-10.803c-0.000003 1.5841 0.32068 2.7548 0.96205 3.5121 0.64136 0.75728 1.418 1.1359 2.3298 1.1359 0.92727 0 1.7213-0.39216 2.3819-1.1765 0.66068-0.78432 0.99102-1.9994 0.99103-3.6454-0.00001-1.5686-0.32262-2.7432-0.96785-3.5237-0.64524-0.78045-1.416-1.1707-2.3124-1.1707-0.88865 0.00002-1.6749 0.41536-2.3588 1.246-0.68387 0.8307-1.0258 2.0381-1.0258 3.6222z"/>
</g>
<g fill="#fff">
<path d="m27.419 328.13 2.2486 0.56796c-0.47138 1.8468-1.3195 3.2551-2.5442 4.2249-1.2248 0.96978-2.722 1.4547-4.4915 1.4547-1.8314 0-3.3208-0.37284-4.4683-1.1185-1.1475-0.74569-2.0207-1.8256-2.6196-3.2397-0.59887-1.4141-0.8983-2.9325-0.8983-4.5552-0.000001-1.7695 0.33807-3.3131 1.0142-4.6306 0.67614-1.3175 1.6382-2.3182 2.8862-3.0021 1.248-0.68385 2.6215-1.0258 4.1206-1.0258 1.7 0.00002 3.1296 0.43275 4.2887 1.2982 1.1591 0.86548 1.9666 2.0825 2.4225 3.6512l-2.2139 0.52159c-0.39411-1.2364-0.96593-2.1366-1.7155-2.7007-0.74956-0.56408-1.6923-0.84613-2.8282-0.84614-1.3059 0.00001-2.3974 0.31297-3.2744 0.93886-0.87706 0.62593-1.4933 1.4663-1.8488 2.521-0.35546 1.0548-0.53319 2.1424-0.53318 3.2629-0.000004 1.445 0.21057 2.7065 0.63171 3.7844 0.42113 1.078 1.076 1.8835 1.9647 2.4167 0.88863 0.53319 1.8507 0.79978 2.8862 0.79978 1.2595 0 2.3259-0.36319 3.1991-1.0896 0.87317-0.72637 1.4643-1.8043 1.7734-3.2339z"/>
<path d="m31.406 327.93c-0.000001-2.2796 0.63364-3.968 1.9009-5.0653 1.0586-0.91181 2.3491-1.3677 3.8714-1.3677 1.6923 0.00001 3.0755 0.55444 4.1496 1.6633s1.6111 2.6408 1.6111 4.5958c-0.000012 1.5841-0.23763 2.8301-0.71284 3.7381-0.47524 0.90796-1.1668 1.6131-2.0748 2.1154-0.90797 0.50228-1.899 0.75342-2.9731 0.75342-1.7232 0-3.116-0.55251-4.1785-1.6575s-1.5938-2.6968-1.5938-4.7755zm2.1443 0c-0.000003 1.5764 0.34386 2.7567 1.0316 3.541 0.68773 0.78432 1.5532 1.1765 2.5964 1.1765 1.0355 0 1.897-0.39409 2.5848-1.1823 0.68772-0.78818 1.0316-1.9898 1.0316-3.6048-0.00001-1.5223-0.34581-2.6756-1.0374-3.4599-0.6916-0.78432-1.5513-1.1765-2.579-1.1765-1.0432 0.00001-1.9087 0.39024-2.5964 1.1707-0.68773 0.78047-1.0316 1.9589-1.0316 3.5352z"/>
<path d="m45.397 334.08v-12.31h1.8661v1.7271c0.38636-0.60272 0.90023-1.0876 1.5416-1.4547 0.64136-0.36704 1.3716-0.55056 2.1907-0.55057 0.91182 0.00001 1.6594 0.18933 2.2429 0.56796 0.5834 0.37865 0.99488 0.90797 1.2344 1.588 0.97363-1.4373 2.2409-2.1559 3.8018-2.1559 1.2209 0.00001 2.1598 0.33808 2.8166 1.0142 0.6568 0.67615 0.98522 1.7174 0.98523 3.1238v8.4498h-2.0748v-7.7544c-0.000016-0.83454-0.06763-1.4353-0.20284-1.8024-0.13524-0.36704-0.38059-0.66261-0.73603-0.88671-0.35547-0.22408-0.77275-0.33613-1.2518-0.33614-0.86547 0.00001-1.5841 0.28785-2.1559 0.86353-0.57183 0.57569-0.85774 1.4972-0.85773 2.7644v7.1516h-2.0864v-7.9978c-0.000009-0.92727-0.17001-1.6227-0.51-2.0864-0.34001-0.46363-0.89638-0.69545-1.6691-0.69546-0.58728 0.00001-1.1301 0.15456-1.6285 0.46364-0.49842 0.3091-0.85967 0.76115-1.0838 1.3561-0.2241 0.59501-0.33614 1.4527-0.33614 2.5732v6.3866z"/>
<path d="m65.194 338.8v-17.027h1.9009v1.5996c0.44818-0.62591 0.95432-1.0953 1.5184-1.4083 0.56409-0.31294 1.248-0.46942 2.0516-0.46943 1.0509 0.00001 1.9782 0.27047 2.7818 0.81137 0.80363 0.54092 1.4102 1.304 1.8198 2.2892 0.40954 0.98524 0.61431 2.0651 0.61432 3.2397-0.000012 1.2596-0.22604 2.3935-0.67807 3.402-0.45206 1.0084-1.1089 1.7812-1.9705 2.3182-0.8616 0.53705-1.7676 0.80558-2.7181 0.80558-0.69546 0-1.3194-0.14682-1.8719-0.44046-0.55251-0.29364-1.0065-0.66455-1.3619-1.1127v5.9925zm1.8893-10.803c-0.000004 1.5841 0.32068 2.7548 0.96205 3.5121 0.64136 0.75728 1.418 1.1359 2.3298 1.1359 0.92727 0 1.7213-0.39216 2.3819-1.1765 0.66068-0.78432 0.99102-1.9994 0.99103-3.6454-0.00001-1.5686-0.32262-2.7432-0.96785-3.5237-0.64524-0.78045-1.416-1.1707-2.3124-1.1707-0.88865 0.00002-1.6749 0.41536-2.3588 1.246-0.68387 0.8307-1.0258 2.0381-1.0258 3.6222z"/>
<path d="m77.631 327.93c-0.000001-2.2796 0.63364-3.968 1.9009-5.0653 1.0586-0.91181 2.3491-1.3677 3.8714-1.3677 1.6923 0.00001 3.0755 0.55444 4.1496 1.6633s1.6111 2.6408 1.6111 4.5958c-0.000012 1.5841-0.23763 2.8301-0.71284 3.7381-0.47524 0.90796-1.1668 1.6131-2.0748 2.1154-0.90797 0.50228-1.899 0.75342-2.9731 0.75342-1.7232 0-3.116-0.55251-4.1785-1.6575s-1.5938-2.6968-1.5938-4.7755zm2.1443 0c-0.000003 1.5764 0.34386 2.7567 1.0316 3.541 0.68773 0.78432 1.5532 1.1765 2.5964 1.1765 1.0355 0 1.897-0.39409 2.5848-1.1823 0.68772-0.78818 1.0316-1.9898 1.0316-3.6048-0.00001-1.5223-0.34581-2.6756-1.0374-3.4599-0.6916-0.78432-1.5513-1.1765-2.579-1.1765-1.0432 0.00001-1.9087 0.39024-2.5964 1.1707-0.68773 0.78047-1.0316 1.9589-1.0316 3.5352z"/>
<path d="m91.621 334.08v-12.31h1.8777v1.7502c0.90409-1.3523 2.21-2.0284 3.9177-2.0284 0.74181 0.00001 1.4237 0.13331 2.0458 0.39989 0.62204 0.2666 1.0876 0.61626 1.3967 1.049 0.30908 0.43274 0.52544 0.94661 0.64909 1.5416 0.0773 0.38637 0.1159 1.0625 0.11591 2.0284v7.5689h-2.0864v-7.4878c-0.000009-0.85-0.08115-1.4856-0.24341-1.9067-0.16228-0.42113-0.45012-0.75727-0.86353-1.0084-0.41342-0.25113-0.89831-0.3767-1.4547-0.37671-0.88865 0.00001-1.6556 0.28206-2.3008 0.84614-0.64524 0.5641-0.96785 1.6343-0.96785 3.2107v6.7228z"/>
<path d="m113.26 330.12 2.1559 0.26659c-0.34002 1.2596-0.96979 2.2371-1.8893 2.9325-0.91956 0.69546-2.0941 1.0432-3.5237 1.0432-1.8005 0-3.2281-0.55444-4.2829-1.6633s-1.5822-2.664-1.5822-4.6654c0-2.0709 0.53318-3.6782 1.5996-4.8218s2.4496-1.7154 4.1496-1.7155c1.6459 0.00001 2.9905 0.56024 4.0337 1.6807s1.5648 2.6968 1.5648 4.7291c-0.00001 0.12364-0.004 0.30909-0.0116 0.55636h-9.18c0.0773 1.3523 0.45977 2.3878 1.1475 3.1064 0.68772 0.71864 1.5454 1.078 2.5732 1.078 0.765 0 1.418-0.20091 1.9589-0.60273s0.96977-1.0432 1.2866-1.9241zm-6.8503-3.373h6.8734c-0.0927-1.0354-0.35547-1.812-0.78819-2.3298-0.66456-0.80363-1.5262-1.2054-2.5848-1.2055-0.95819 0.00001-1.7638 0.3207-2.4167 0.96205-0.65297 0.64138-1.0142 1.4991-1.0838 2.5732z"/>
<path d="m118.05 334.08v-12.31h1.8777v1.7502c0.90409-1.3523 2.21-2.0284 3.9178-2.0284 0.74181 0.00001 1.4238 0.13331 2.0458 0.39989 0.62203 0.2666 1.0876 0.61626 1.3967 1.049 0.30908 0.43274 0.52544 0.94661 0.64909 1.5416 0.0773 0.38637 0.1159 1.0625 0.11591 2.0284v7.5689h-2.0864v-7.4878c-0.00001-0.85-0.0811-1.4856-0.24341-1.9067-0.16229-0.42113-0.45013-0.75727-0.86353-1.0084-0.41342-0.25113-0.89831-0.3767-1.4547-0.37671-0.88865 0.00001-1.6556 0.28206-2.3008 0.84614-0.64523 0.5641-0.96785 1.6343-0.96784 3.2107v6.7228z"/>
<path d="m135.82 332.22 0.30137 1.843c-0.58728 0.12364-1.1127 0.18546-1.5764 0.18546-0.75728 0-1.3446-0.11978-1.7618-0.35932-0.41728-0.23955-0.71092-0.55444-0.88092-0.94467-0.17-0.39022-0.255-1.2112-0.255-2.4631v-7.0821h-1.53v-1.6227h1.53v-3.0484l2.0748-1.2518v4.3002h2.098v1.6227h-2.098v7.198c-0.00001 0.59501 0.0367 0.97751 0.11011 1.1475 0.0734 0.17 0.19318 0.30523 0.35932 0.40568 0.16613 0.10046 0.40375 0.15069 0.71284 0.15068 0.23182 0.00001 0.53705-0.027 0.91569-0.0811z"/>
</g>
<path d="m492.06 368.91c13.04 0 23.582-10.542 23.582-23.582v-62.313c0-13.04-10.542-23.66-23.582-23.66h-89.721c-13.04 0-23.582 10.62-23.582 23.66v62.313c0 13.04 10.542 23.582 23.582 23.582h89.721z" fill-rule="evenodd" fill="#595959"/>
<path stroke-linejoin="round" d="m492.06 368.91c13.04 0 23.582-10.542 23.582-23.582v0-62.313c0-13.04-10.542-23.66-23.582-23.66h-89.721c-13.04 0-23.582 10.62-23.582 23.66v0 62.313c0 13.04 10.542 23.582 23.582 23.582h89.721z" stroke="#000" stroke-linecap="round" stroke-width="3.592px" fill="none"/>
<g fill="#fff">
<path d="m426.98 306.6 6.5257-16.992h2.4225l6.9546 16.992h-2.5616l-1.982-5.1464h-7.1053l-1.8662 5.1464zm4.903-6.9778h5.7607l-1.7734-4.7059c-0.54092-1.4295-0.94274-2.6041-1.2055-3.5236-0.21637 1.0896-0.5216 2.1714-0.91569 3.2455z"/>
<path d="m444.43 311.32v-17.027h1.9009v1.5996c0.44818-0.6259 0.95432-1.0953 1.5184-1.4083 0.56409-0.31294 1.248-0.46942 2.0516-0.46943 1.0509 0.00001 1.9782 0.27047 2.7818 0.81137 0.80363 0.54092 1.4102 1.304 1.8198 2.2892 0.40954 0.98524 0.61431 2.0651 0.61432 3.2397-0.00001 1.2596-0.22603 2.3935-0.67807 3.402-0.45206 1.0084-1.1089 1.7812-1.9705 2.3182-0.86161 0.53705-1.7676 0.80558-2.7181 0.80558-0.69546 0-1.3194-0.14682-1.8719-0.44046-0.55251-0.29364-1.0065-0.66455-1.3619-1.1127v5.9925zm1.8893-10.803c-0.00001 1.5841 0.32068 2.7548 0.96205 3.5121 0.64136 0.75728 1.418 1.1359 2.3298 1.1359 0.92727 0 1.7212-0.39216 2.382-1.1765 0.66067-0.78432 0.99102-1.9994 0.99103-3.6454-0.00001-1.5686-0.32263-2.7432-0.96785-3.5237-0.64524-0.78045-1.416-1.1707-2.3124-1.1707-0.88865 0.00002-1.6749 0.41536-2.3588 1.246-0.68387 0.8307-1.0258 2.0381-1.0258 3.6222z"/>
<path d="m457.64 311.32v-17.027h1.9009v1.5996c0.44818-0.6259 0.95432-1.0953 1.5184-1.4083 0.56409-0.31294 1.248-0.46942 2.0516-0.46943 1.0509 0.00001 1.9782 0.27047 2.7818 0.81137 0.80363 0.54092 1.4102 1.304 1.8198 2.2892 0.40954 0.98524 0.61431 2.0651 0.61432 3.2397-0.00001 1.2596-0.22603 2.3935-0.67807 3.402-0.45206 1.0084-1.1089 1.7812-1.9705 2.3182-0.86161 0.53705-1.7676 0.80558-2.7181 0.80558-0.69546 0-1.3194-0.14682-1.8719-0.44046-0.55251-0.29364-1.0065-0.66455-1.3619-1.1127v5.9925zm1.8893-10.803c-0.00001 1.5841 0.32068 2.7548 0.96205 3.5121 0.64136 0.75728 1.418 1.1359 2.3298 1.1359 0.92727 0 1.7212-0.39216 2.382-1.1765 0.66067-0.78432 0.99101-1.9994 0.99103-3.6454-0.00002-1.5686-0.32263-2.7432-0.96785-3.5237-0.64524-0.78045-1.416-1.1707-2.3124-1.1707-0.88865 0.00002-1.6749 0.41536-2.3588 1.246-0.68387 0.8307-1.0258 2.0381-1.0258 3.6222z"/>
</g>
<g fill="#fff">
<path d="m400.99 329.38 2.2486 0.56796c-0.47138 1.8468-1.3194 3.2551-2.5442 4.2249-1.2248 0.96978-2.722 1.4547-4.4915 1.4547-1.8314 0-3.3208-0.37285-4.4683-1.1185-1.1475-0.74569-2.0207-1.8256-2.6196-3.2397-0.59887-1.4141-0.8983-2.9325-0.8983-4.5552 0-1.7695 0.33807-3.3131 1.0142-4.6306 0.67614-1.3175 1.6382-2.3182 2.8862-3.0021 1.248-0.68385 2.6215-1.0258 4.1206-1.0258 1.7 0.00002 3.1296 0.43275 4.2887 1.2982 1.1591 0.86548 1.9666 2.0825 2.4225 3.6512l-2.2139 0.52159c-0.39411-1.2364-0.96593-2.1366-1.7155-2.7007-0.74957-0.56408-1.6923-0.84613-2.8282-0.84615-1.3059 0.00002-2.3974 0.31298-3.2744 0.93887-0.87706 0.62593-1.4933 1.4663-1.8488 2.521-0.35546 1.0548-0.53319 2.1424-0.53319 3.2629 0 1.445 0.21057 2.7065 0.63171 3.7844 0.42114 1.078 1.076 1.8835 1.9647 2.4167 0.88864 0.53319 1.8507 0.79978 2.8862 0.79978 1.2596 0 2.3259-0.36319 3.1991-1.0896 0.87318-0.72636 1.4643-1.8043 1.7734-3.2339z"/>
<path d="m404.97 329.18c0-2.2796 0.63363-3.968 1.9009-5.0653 1.0586-0.91181 2.3491-1.3677 3.8714-1.3677 1.6923 0.00001 3.0755 0.55444 4.1496 1.6633s1.6111 2.6408 1.6111 4.5958c-0.00001 1.5841-0.23762 2.8301-0.71284 3.7381-0.47524 0.90796-1.1668 1.6131-2.0748 2.1154-0.90797 0.50228-1.899 0.75342-2.9731 0.75342-1.7232 0-3.116-0.55251-4.1785-1.6575s-1.5938-2.6968-1.5938-4.7755zm2.1443 0c-0.00001 1.5764 0.34386 2.7567 1.0316 3.541 0.68773 0.78432 1.5532 1.1765 2.5964 1.1765 1.0354 0 1.897-0.39409 2.5848-1.1823 0.68772-0.78818 1.0316-1.9898 1.0316-3.6048-0.00001-1.5223-0.3458-2.6756-1.0374-3.4599-0.6916-0.78432-1.5513-1.1765-2.579-1.1765-1.0432 0.00001-1.9086 0.39024-2.5964 1.1707-0.68773 0.78047-1.0316 1.9589-1.0316 3.5352z"/>
<path d="m418.96 335.33v-12.31h1.8662v1.7271c0.38636-0.60272 0.90022-1.0876 1.5416-1.4547 0.64136-0.36704 1.3716-0.55056 2.1907-0.55057 0.91182 0.00001 1.6594 0.18933 2.2428 0.56795 0.58341 0.37865 0.99488 0.90798 1.2344 1.588 0.97363-1.4373 2.2409-2.1559 3.8018-2.1559 1.2209 0.00001 2.1598 0.33808 2.8166 1.0142 0.6568 0.67615 0.98521 1.7174 0.98523 3.1238v8.4498h-2.0748v-7.7544c-0.00002-0.83454-0.0676-1.4353-0.20285-1.8024-0.13524-0.36704-0.38058-0.66261-0.73602-0.88671-0.35547-0.22408-0.77275-0.33613-1.2518-0.33614-0.86547 0.00001-1.5841 0.28785-2.1559 0.86353-0.57183 0.57569-0.85774 1.4972-0.85773 2.7644v7.1516h-2.0864v-7.9978c0-0.92727-0.17001-1.6227-0.51-2.0864-0.34001-0.46363-0.89637-0.69545-1.6691-0.69546-0.58728 0.00001-1.1301 0.15456-1.6285 0.46364-0.49842 0.3091-0.85967 0.76115-1.0838 1.3561-0.22409 0.59501-0.33614 1.4527-0.33613 2.5732v6.3866z"/>
<path d="m438.76 340.05v-17.027h1.9009v1.5996c0.44818-0.6259 0.95432-1.0953 1.5184-1.4083 0.56409-0.31294 1.248-0.46942 2.0516-0.46943 1.0509 0.00001 1.9782 0.27047 2.7818 0.81137 0.80363 0.54092 1.4102 1.304 1.8198 2.2892 0.40953 0.98524 0.61431 2.0651 0.61432 3.2397-0.00001 1.2596-0.22604 2.3935-0.67807 3.402-0.45206 1.0084-1.1089 1.7812-1.9705 2.3182-0.8616 0.53705-1.7676 0.80558-2.7181 0.80558-0.69547 0-1.3194-0.14682-1.8719-0.44046-0.55251-0.29364-1.0065-0.66455-1.3619-1.1127v5.9925zm1.8893-10.803c0 1.5841 0.32068 2.7548 0.96205 3.5121 0.64136 0.75728 1.418 1.1359 2.3298 1.1359 0.92727 0 1.7212-0.39216 2.3819-1.1765 0.66068-0.78432 0.99102-1.9994 0.99103-3.6454-0.00001-1.5686-0.32263-2.7432-0.96785-3.5237-0.64524-0.78045-1.416-1.1707-2.3124-1.1707-0.88864 0.00002-1.6749 0.41536-2.3588 1.246-0.68387 0.8307-1.0258 2.0381-1.0258 3.6222z"/>
<path d="m451.2 329.18c0-2.2796 0.63363-3.968 1.9009-5.0653 1.0586-0.91181 2.3491-1.3677 3.8714-1.3677 1.6923 0.00001 3.0755 0.55444 4.1496 1.6633s1.6111 2.6408 1.6111 4.5958c-0.00001 1.5841-0.23762 2.8301-0.71284 3.7381-0.47524 0.90796-1.1668 1.6131-2.0748 2.1154-0.90797 0.50228-1.899 0.75342-2.9731 0.75342-1.7232 0-3.116-0.55251-4.1785-1.6575s-1.5938-2.6968-1.5938-4.7755zm2.1443 0c-0.00001 1.5764 0.34386 2.7567 1.0316 3.541 0.68773 0.78432 1.5532 1.1765 2.5964 1.1765 1.0354 0 1.897-0.39409 2.5848-1.1823 0.68772-0.78818 1.0316-1.9898 1.0316-3.6048-0.00001-1.5223-0.3458-2.6756-1.0374-3.4599-0.6916-0.78432-1.5513-1.1765-2.579-1.1765-1.0432 0.00001-1.9086 0.39024-2.5964 1.1707-0.68773 0.78047-1.0316 1.9589-1.0316 3.5352z"/>
<path d="m465.19 335.33v-12.31h1.8777v1.7502c0.90409-1.3523 2.21-2.0284 3.9177-2.0284 0.74182 0.00001 1.4238 0.13331 2.0458 0.39989 0.62204 0.2666 1.0876 0.61626 1.3967 1.049 0.30909 0.43274 0.52545 0.94661 0.6491 1.5416 0.0773 0.38637 0.1159 1.0625 0.11591 2.0284v7.5689h-2.0864v-7.4878c-0.00001-0.85-0.0811-1.4856-0.24341-1.9067-0.16228-0.42113-0.45012-0.75727-0.86353-1.0084s-0.8983-0.3767-1.4547-0.37671c-0.88865 0.00001-1.6556 0.28206-2.3008 0.84614-0.64523 0.5641-0.96785 1.6343-0.96785 3.2107v6.7228z"/>
<path d="m486.83 331.37 2.1559 0.26659c-0.34001 1.2596-0.96979 2.2371-1.8893 2.9325-0.91955 0.69546-2.0941 1.0432-3.5236 1.0432-1.8005 0-3.2281-0.55444-4.2829-1.6633s-1.5822-2.664-1.5822-4.6654c0-2.0709 0.53318-3.6782 1.5996-4.8218s2.4496-1.7154 4.1496-1.7155c1.6459 0.00001 2.9905 0.56024 4.0337 1.6807s1.5648 2.6968 1.5648 4.7291c-0.00001 0.12365-0.004 0.3091-0.0116 0.55637h-9.18c0.0773 1.3523 0.45977 2.3878 1.1475 3.1064 0.68773 0.71864 1.5455 1.078 2.5732 1.078 0.765 0 1.418-0.20091 1.9589-0.60273 0.54091-0.40182 0.96977-1.0432 1.2866-1.9241zm-6.8503-3.373h6.8734c-0.0927-1.0354-0.35546-1.812-0.78818-2.3298-0.66456-0.80363-1.5262-1.2054-2.5848-1.2055-0.95819 0.00001-1.7638 0.3207-2.4167 0.96205-0.65296 0.64138-1.0142 1.4991-1.0838 2.5732z"/>
<path d="m491.61 335.33v-12.31h1.8777v1.7502c0.90409-1.3523 2.21-2.0284 3.9178-2.0284 0.74181 0.00001 1.4238 0.13331 2.0458 0.39989 0.62204 0.2666 1.0876 0.61626 1.3967 1.049 0.30908 0.43274 0.52544 0.94661 0.64909 1.5416 0.0773 0.38637 0.1159 1.0625 0.11591 2.0284v7.5689h-2.0864v-7.4878c-0.00001-0.85-0.0811-1.4856-0.24341-1.9067-0.16228-0.42113-0.45012-0.75727-0.86352-1.0084-0.41342-0.25113-0.89831-0.3767-1.4547-0.37671-0.88865 0.00001-1.6556 0.28206-2.3008 0.84614-0.64523 0.5641-0.96785 1.6343-0.96784 3.2107v6.7228z"/>
<path d="m509.38 333.47 0.30136 1.843c-0.58728 0.12364-1.1127 0.18546-1.5764 0.18546-0.75728 0-1.3446-0.11978-1.7618-0.35932-0.41727-0.23955-0.71091-0.55444-0.88091-0.94467s-0.255-1.2112-0.255-2.4631v-7.0821h-1.53v-1.6227h1.53v-3.0484l2.0748-1.2518v4.3002h2.098v1.6227h-2.098v7.198c0 0.59501 0.0367 0.97751 0.11012 1.1475 0.0734 0.17 0.19318 0.30523 0.35932 0.40568 0.16613 0.10046 0.40374 0.15069 0.71284 0.15068 0.23182 0.00001 0.53705-0.027 0.91569-0.0811z"/>
</g>
<path d="m335.02 145.43c13.04 0 23.66-10.62 23.66-23.66v-95.656c0-13.04-10.62-23.582-23.66-23.582h-139.31c-13.04 0-23.582 10.542-23.582 23.582v95.656c0 13.04 10.542 23.66 23.582 23.66h139.31z" fill-rule="evenodd" fill="#ffe100"/>
<path stroke-linejoin="round" d="m335.02 145.43c13.04 0 23.66-10.62 23.66-23.66v0-95.656c0-13.04-10.62-23.582-23.66-23.582v0h-139.31c-13.04 0-23.582 10.542-23.582 23.582v0 95.656c0 13.04 10.542 23.66 23.582 23.66v0h139.31z" stroke="#ffc000" stroke-linecap="round" stroke-width="5.2318px" fill="none"/>
<path d="m208.68 123.17c-2.1864 0.39043-4.2167 0.62469-6.2469 0.62469-0.78086 0-1.5617 0-2.2645-0.0781-0.70278-0.0781-1.4836-0.23426-2.3426-0.46852-0.85896-0.23426-1.5617-0.5466-2.1864-0.93703-0.5466-0.39044-1.0932-0.93704-1.4836-1.6398-0.46852-0.70278-0.6247-1.4836-0.6247-2.4207v-8.5114c0-3.9043 2.9673-5.8565 8.9019-5.8565 1.4836 0 3.5139 0.23426 6.1688 0.70278v3.4358c-2.4207-0.54661-4.4509-0.78087-6.0908-0.78087h-1.6398c-0.46852 0.0781-0.85895 0.15617-1.3275 0.31235-0.46852 0.15617-0.85895 0.46852-1.0932 0.78086-0.23426 0.31235-0.31235 0.78087-0.31235 1.3275v8.1991c0 1.796 1.5617 2.6549 4.7633 2.6549 1.4056 0 3.3577-0.31234 5.7784-0.85895v3.5139z" fill-rule="evenodd"/>
<path d="m220.94 112.4h-1.4836c-1.2494 0-2.1083 0.23426-2.733 0.54661-0.62469 0.39043-0.93704 1.0151-0.93704 1.9522v8.5895h-4.2948v-14.368h4.1386v2.4988c0-0.70278 0.39043-1.3275 1.2494-1.9522 0.78087-0.5466 1.6398-0.85895 2.4988-0.85895h1.5617v3.592z" fill-rule="evenodd"/>
<path d="m237.49 114.35v4.2167c0 0.93704-0.15618 1.7179-0.46852 2.4207-0.31235 0.6247-0.70278 1.1713-1.0932 1.5617-0.46852 0.31234-1.0151 0.62469-1.7179 0.85895-0.70278 0.15617-1.3275 0.31234-1.9522 0.31234-0.54661 0.0781-1.2494 0.0781-2.1083 0.0781-0.85895 0-1.5617 0-2.1083-0.0781-0.62469 0-1.2494-0.15617-1.9522-0.31234-0.70278-0.23426-1.2494-0.54661-1.7179-0.85895-0.39043-0.39044-0.78086-0.93704-1.0932-1.5617-0.31234-0.70277-0.46852-1.4836-0.46852-2.4207v-4.2167c0-1.0151 0.15618-1.8741 0.46852-2.5769 0.31235-0.70278 0.70278-1.2494 1.1713-1.6398 0.46852-0.31234 1.0151-0.62469 1.7179-0.85895 0.70278-0.23426 1.3275-0.31235 1.9522-0.39043 0.5466 0 1.2494-0.0781 2.0302-0.0781 0.78086 0 1.4836 0.0781 2.0302 0.0781 0.62469 0.0781 1.2494 0.15617 1.9522 0.39043 0.70278 0.23426 1.2494 0.54661 1.7179 0.85895 0.46852 0.39044 0.85895 0.93704 1.1713 1.6398 0.31234 0.70278 0.46852 1.5617 0.46852 2.5769zm-4.3728 4.7633v-5.4661c0-0.78087-0.15618-1.3275-0.54661-1.6398-0.46852-0.31235-1.2494-0.46852-2.4207-0.46852s-1.9522 0.15617-2.3426 0.46852c-0.46852 0.31235-0.62469 0.85895-0.62469 1.6398v5.4661c0 0.70278 0.15617 1.2494 0.54661 1.5617 0.39043 0.31234 1.2494 0.46852 2.4207 0.46852s2.0302-0.15618 2.4207-0.46852c0.39043-0.31235 0.54661-0.85895 0.54661-1.5617z" fill-rule="evenodd"/>
<path d="m253.27 117.86v1.8741c0 0.70278-0.15617 1.3275-0.46852 1.796-0.23426 0.54661-0.54661 0.93704-1.0151 1.2494-0.39043 0.23426-0.93703 0.46852-1.5617 0.6247-0.62469 0.15617-1.2494 0.31234-1.8741 0.31234-0.6247 0.0781-1.3275 0.0781-2.1083 0.0781-1.5617 0-3.4358-0.15617-5.7003-0.39043v-2.8892c2.733 0.39044 4.6852 0.6247 5.7784 0.6247 0.78086 0 1.4836-0.15618 1.9522-0.31235 0.46852-0.15617 0.70278-0.46852 0.70278-0.93704v-0.93704c0-0.46852-0.15617-0.78086-0.39043-1.0151-0.31235-0.23426-0.85896-0.31235-1.6398-0.31235h-1.9522c-1.4836 0-2.6549-0.31234-3.5139-0.93704-0.78087-0.62469-1.2494-1.4836-1.2494-2.6549v-1.7179c0-1.3275 0.6247-2.2645 1.8741-2.733 1.2494-0.54661 3.0454-0.78087 5.3099-0.78087 0.93704 0 2.6549 0.0781 5.0756 0.31235v2.733c-3.0454-0.23426-4.8414-0.31235-5.2318-0.31235-1.1713 0-1.9522 0.0781-2.2645 0.23426-0.31234 0.15617-0.46851 0.46852-0.46851 0.93704v0.78086c0 0.23426 0.15617 0.46852 0.39043 0.6247 0.23426 0.23426 0.62469 0.31234 1.0932 0.31234h1.9522c3.5139 0 5.3099 1.1713 5.3099 3.4358z" fill-rule="evenodd"/>
<path d="m268.81 117.86v1.8741c0 0.70278-0.0781 1.3275-0.39043 1.796-0.23426 0.54661-0.62469 0.93704-1.0151 1.2494-0.39044 0.23426-0.93704 0.46852-1.5617 0.6247-0.62469 0.15617-1.3275 0.31234-1.8741 0.31234-0.6247 0.0781-1.3275 0.0781-2.1864 0.0781-1.4836 0-3.4358-0.15617-5.6222-0.39043v-2.8892c2.733 0.39044 4.6852 0.6247 5.7003 0.6247 0.85895 0 1.5617-0.15618 2.0302-0.31235 0.46852-0.15617 0.70278-0.46852 0.70278-0.93704v-0.93704c0-0.46852-0.15617-0.78086-0.39043-1.0151-0.31235-0.23426-0.85896-0.31235-1.7179-0.31235h-1.8741c-1.4836 0-2.655-0.31234-3.5139-0.93704-0.78087-0.62469-1.2494-1.4836-1.2494-2.6549v-1.7179c0-1.3275 0.62469-2.2645 1.8741-2.733 1.2494-0.54661 3.0454-0.78087 5.3099-0.78087 0.93704 0 2.6549 0.0781 5.0756 0.31235v2.733c-3.0454-0.23426-4.8414-0.31235-5.2318-0.31235-1.1713 0-1.9522 0.0781-2.2645 0.23426-0.31235 0.15617-0.46852 0.46852-0.46852 0.93704v0.78086c0 0.23426 0.15617 0.46852 0.39043 0.6247 0.23426 0.23426 0.62469 0.31234 1.0932 0.31234h1.9522c3.5139 0 5.2318 1.1713 5.2318 3.4358z" fill-rule="evenodd"/>
<path d="m286.77 113.65v4.7633c0 1.9522-0.5466 3.3577-1.7179 4.1386-1.2494 0.85895-3.1235 1.2494-5.7003 1.2494-2.733 0-4.6852-0.39043-5.7003-1.2494-1.0932-0.93704-1.6398-2.2645-1.6398-4.1386v-15.695h4.3728v7.8087c0.23426-0.6247 0.70278-1.0932 1.4836-1.3275 0.70278-0.23426 1.7179-0.39043 3.2016-0.39043 1.2494 0 2.1864 0.15617 2.9673 0.31235 0.78087 0.23426 1.4056 0.5466 1.796 1.0151 0.39044 0.39044 0.6247 0.85896 0.78087 1.4056 0.0781 0.54661 0.15617 1.2494 0.15617 2.1083zm-4.2948 5.3099v-5.3099c0-0.93704-0.15617-1.5617-0.54661-1.796-0.31234-0.23426-1.1713-0.31235-2.5768-0.31235-1.2494 0-2.0302 0.0781-2.4207 0.46852-0.31235 0.31235-0.54661 0.85895-0.54661 1.6398v5.3099c0 0.85896 0.15617 1.4056 0.54661 1.7179 0.39043 0.31234 1.1713 0.46852 2.4988 0.46852 1.2494 0 2.0302-0.15618 2.4207-0.46852 0.39043-0.31235 0.62469-0.85895 0.62469-1.7179z" fill-rule="evenodd"/>
<path d="m303.09 123.49h-4.2167v-1.2494c-0.31235 0.5466-0.78087 0.93704-1.4056 1.1713-0.54661 0.31234-1.6398 0.39043-3.2796 0.39043-1.8741 0-3.2015-0.31235-3.8262-0.85895-0.62469-0.62469-0.93704-1.8741-0.93704-3.7482 0-1.7179 0.31235-2.8892 0.93704-3.5139 0.70278-0.70278 1.8741-1.0151 3.5139-1.0151h4.9194v-1.0151c0-0.85895-0.23426-1.4056-0.62469-1.7179-0.39043-0.31234-1.2494-0.39043-2.5769-0.39043-1.2494 0-2.8892 0.0781-5.0756 0.31235v-2.733c1.6398-0.15618 3.5139-0.31235 5.5441-0.31235 2.6549 0 4.4509 0.31235 5.4661 1.0151 1.0151 0.62469 1.5617 1.8741 1.5617 3.8262v9.8389zm-4.2948-3.6701v-2.8111h-2.9673c-1.0151 0-1.5617 0.15617-1.796 0.39043-0.23426 0.15618-0.39043 0.78087-0.39043 1.7179 0 0.93704 0.15617 1.4836 0.39043 1.7179 0.23426 0.15617 0.85895 0.31235 1.8741 0.31235 0.46852 0 0.85895-0.0781 1.0932-0.0781 0.23426 0 0.54661 0 0.78087-0.0781 0.31234 0 0.46851-0.0781 0.5466-0.15617 0.15617-0.0781 0.23426-0.23426 0.31235-0.39043 0.0781-0.15617 0.15617-0.39043 0.15617-0.62469z" fill-rule="evenodd"/>
<path d="m316.28 112.4h-1.4836c-1.1713 0-2.0302 0.23426-2.6549 0.54661-0.62469 0.39043-0.85895 1.0151-0.85895 1.9522v8.5895h-4.3728v-14.368h4.1386v2.4988c0-0.70278 0.39043-1.3275 1.2494-1.9522 0.78087-0.5466 1.6398-0.85895 2.4988-0.85895h1.4836v3.592z" fill-rule="evenodd"/>
<path d="m318.86 120.28v3.2015h3.4358v-3.2015h-3.4358z" fill-rule="evenodd"/>
<path d="m329.4 106.7h-2.733v-2.8111h2.733v2.8111zm0 16.789h-2.733v-14.368h2.733v14.368z" fill-rule="evenodd"/>
<path d="m346.74 113.96v4.9975c0 0.93704-0.0781 1.6398-0.31235 2.2645-0.23426 0.6247-0.54661 1.0932-0.85895 1.4056-0.31235 0.39043-0.85895 0.62469-1.4056 0.78087-0.62469 0.23426-1.2494 0.31234-1.796 0.31234-0.54661 0.0781-1.3275 0.0781-2.2645 0.0781-1.1713 0-2.1083 0-2.8111-0.0781-0.62469-0.0781-1.3275-0.31234-1.9522-0.62469-0.70278-0.31235-1.1713-0.78086-1.4056-1.4836-0.31235-0.6247-0.46852-1.5617-0.46852-2.655v-4.9975c0-0.93703 0.15617-1.7179 0.39043-2.4207 0.15618-0.62469 0.46852-1.1713 0.78087-1.4836 0.31235-0.39044 0.85895-0.6247 1.4836-0.85896 0.6247-0.15617 1.1713-0.23426 1.7179-0.31234 0.5466-0.0781 1.3275-0.0781 2.2645-0.0781 0.93704 0 1.7179 0 2.2645 0.0781s1.0932 0.15617 1.7179 0.31234c0.6247 0.23426 1.1713 0.46852 1.4836 0.85896 0.31234 0.31234 0.62469 0.85895 0.85895 1.4836 0.15617 0.70278 0.31235 1.4836 0.31235 2.4207zm-2.733 5.388v-5.8565c0-1.3275-0.31235-2.1083-0.85896-2.4207-0.46852-0.31234-1.5617-0.46852-3.0454-0.46852-1.5617 0-2.5769 0.15618-3.0454 0.46852-0.5466 0.31235-0.85895 1.0932-0.85895 2.4207v5.8565c0 0.62469 0.0781 1.1713 0.23426 1.4836 0.15617 0.39043 0.39043 0.70278 0.78087 0.85895 0.39043 0.15618 0.70277 0.23426 1.0932 0.31235 0.46852 0.0781 1.0151 0.0781 1.796 0.0781 0.78086 0 1.3275 0 1.7179-0.0781 0.46852-0.0781 0.78087-0.15617 1.1713-0.31235 0.39043-0.15617 0.62469-0.46852 0.78087-0.85895 0.15617-0.31235 0.23426-0.85895 0.23426-1.4836z" fill-rule="evenodd"/>
<path d="m234.6 21.582v64.89h64.812v-64.89h-64.812z" fill-rule="evenodd"/>
<path d="m234.6 35.403v6.4031h15.305l10.151 10.151 4.6852-4.6852-12.025-12.025-18.116 0.15617z" fill-rule="evenodd" fill="#ffe100"/>
<path d="m273.88 56.487-4.6071 4.6852 11.557 11.635h18.585v-6.4812h-15.695l-9.8389-9.8389z" fill-rule="evenodd" fill="#ffe100"/>
<path d="m281.3 35.247-30.844 31.078h-15.852v6.5593h18.507l31.078-31.078h15.227v-6.5593h-18.116z" fill-rule="evenodd" fill="#ffe100"/>
<path stroke-linejoin="round" d="m201.65 148.86-127.98 109.48" stroke="#000" stroke-linecap="round" stroke-width="3.592px" fill="none"/>
<path stroke-linejoin="round" d="m326.75 148.86 120.41 110.5" stroke="#000" stroke-linecap="round" stroke-width="3.592px" fill="none"/>
<path stroke-linejoin="round" d="m467.22 245.92-94.87-86.67" stroke="#3475cd" stroke-linecap="round" stroke-width="5.2318px" fill="none"/>
<path d="m367.12 168.85-8.4334-22.098 22.723 6.4812-14.29 15.617z" fill-rule="evenodd" fill="#3475cd"/>
<g fill="#3475cd" transform="matrix(.73135 0.682 -0.682 .73135 0 0)">
<path fill="#3475cd" d="m393.54-149.31v-16.992h7.5341c1.5146 0.00002 2.6659 0.15263 3.4541 0.45784 0.78817 0.30525 1.418 0.84423 1.8893 1.6169 0.47135 0.77275 0.70703 1.6266 0.70705 2.5616-0.00002 1.2055-0.39024 2.2216-1.1707 3.0484-0.78047 0.82684-1.9859 1.3523-3.6164 1.5764 0.59499 0.28591 1.047 0.56796 1.3561 0.84614 0.65681 0.60273 1.2789 1.3562 1.8662 2.2602l2.9557 4.6248h-2.8282l-2.2486-3.5352c-0.65683-1.02-1.1977-1.8005-1.6227-2.3414-0.42501-0.5409-0.80558-0.91954-1.1417-1.1359-0.33614-0.21636-0.67808-0.36704-1.0258-0.45205-0.25501-0.0541-0.67228-0.0811-1.2518-0.0811h-2.608v7.5457zm2.2486-9.493h4.8334c1.0277 0.00001 1.8314-0.10624 2.4109-0.31875 0.57953-0.21249 1.02-0.5525 1.3214-1.02 0.30135-0.46749 0.45203-0.97556 0.45205-1.5242-0.00002-0.80363-0.29172-1.4643-0.87512-1.9821-0.58343-0.51771-1.5049-0.77658-2.7644-0.77659h-5.3782z"/>
</g>
<g fill="#3475cd" transform="matrix(.73135 0.682 -0.682 .73135 0 0)">
<path fill="#3475cd" d="m418.47-153.57 2.1559 0.2666c-0.34002 1.2596-0.96979 2.2371-1.8893 2.9325-0.91956 0.69546-2.0941 1.0432-3.5237 1.0432-1.8005 0-3.2281-0.55443-4.2829-1.6633s-1.5822-2.664-1.5822-4.6654c0-2.0709 0.53318-3.6782 1.5996-4.8218s2.4496-1.7154 4.1496-1.7155c1.6459 0.00001 2.9905 0.56024 4.0337 1.6807s1.5648 2.6968 1.5648 4.7291c-0.00001 0.12364-0.004 0.3091-0.0116 0.55636h-9.18c0.0773 1.3523 0.45977 2.3878 1.1475 3.1064 0.68772 0.71864 1.5454 1.078 2.5732 1.078 0.765 0 1.418-0.20091 1.9589-0.60273s0.96976-1.0432 1.2866-1.9241zm-6.8503-3.373h6.8734c-0.0927-1.0354-0.35547-1.812-0.78819-2.3298-0.66456-0.80364-1.5262-1.2055-2.5848-1.2055-0.95819 0.00001-1.7638 0.3207-2.4167 0.96205-0.65297 0.64138-1.0142 1.4991-1.0838 2.5732z"/>
</g>
<g fill="#3475cd" transform="matrix(.73135 0.682 -0.682 .73135 0 0)">
<path fill="#3475cd" d="m422.93-149.01 2.0284 0.30137c0.085 0.62591 0.32068 1.0818 0.70705 1.3677 0.51773 0.38636 1.2248 0.57955 2.1212 0.57955 0.96591 0 1.7116-0.19319 2.2371-0.57955 0.52544-0.38637 0.8809-0.92728 1.0664-1.6227 0.10818-0.42501 0.15841-1.3175 0.15069-2.6775-0.91183 1.0741-2.0478 1.6112-3.4078 1.6112-1.6923 0-3.0021-0.61046-3.9293-1.8314-0.92728-1.2209-1.3909-2.6852-1.3909-4.393-0.00001-1.1745 0.2125-2.2583 0.6375-3.2513 0.425-0.99295 1.0412-1.7599 1.8488-2.3008 0.8075-0.5409 1.756-0.81136 2.8456-0.81137 1.4527 0.00001 2.6505 0.58729 3.5932 1.7618v-1.4836h1.9241v10.641c-0.00002 1.9164-0.19513 3.2744-0.58535 4.0742-0.39024 0.79978-1.0084 1.4315-1.8546 1.8951-0.84615 0.46363-1.8874 0.69545-3.1238 0.69546-1.4682-0.00001-2.6543-0.33035-3.5584-0.99103-0.9041-0.66069-1.3407-1.6556-1.3098-2.9847zm1.7271-7.395c-0.00001 1.615 0.32068 2.7934 0.96205 3.5352 0.64136 0.74182 1.445 1.1127 2.4109 1.1127 0.95818 0 1.7618-0.36898 2.4109-1.1069 0.64909-0.73795 0.97363-1.8951 0.97364-3.4715-0.00001-1.5068-0.33421-2.6427-1.0026-3.4078-0.66842-0.76499-1.474-1.1475-2.4167-1.1475-0.92729 0.00002-1.7155 0.37672-2.3646 1.1301-0.6491 0.75343-0.97365 1.872-0.97364 3.3556z"/>
</g>
<g fill="#3475cd" transform="matrix(.73135 0.682 -0.682 .73135 0 0)">
<path fill="#3475cd" d="m436.6-165.04v-2.3993h2.0864v2.3993zm0 14.593v-12.31h2.0864v12.31z"/>
</g>
<g fill="#3475cd" transform="matrix(.73135 0.682 -0.682 .73135 0 0)">
<path fill="#3475cd" d="m441.05-153.94 2.0632-0.32454c0.1159 0.82682 0.43852 1.4605 0.96784 1.9009 0.52932 0.44046 1.2692 0.66068 2.2197 0.66068 0.95818 0 1.6691-0.19511 2.1327-0.58534 0.46363-0.39023 0.69545-0.84807 0.69546-1.3735-0.00001-0.47136-0.20478-0.84228-0.61432-1.1127-0.28592-0.18545-0.99683-0.42113-2.1327-0.70704-1.53-0.38636-2.5906-0.72057-3.1817-1.0026-0.59114-0.28204-1.0393-0.67227-1.3446-1.1707-0.30523-0.49841-0.45785-1.049-0.45785-1.6517 0-0.54863 0.12557-1.0567 0.37671-1.5242 0.25113-0.46749 0.59307-0.85579 1.0258-1.1649 0.32454-0.23954 0.76693-0.44238 1.3272-0.60853 0.56022-0.16612 1.161-0.24919 1.8024-0.2492 0.96591 0.00001 1.814 0.1391 2.5442 0.41727 0.73022 0.2782 1.2692 0.6549 1.6169 1.1301 0.34772 0.47524 0.58727 1.1108 0.71864 1.9067l-2.04 0.27818c-0.0927-0.63363-0.36126-1.1282-0.80557-1.4836-0.44433-0.35545-1.0722-0.53318-1.8835-0.53319-0.95819 0.00001-1.642 0.15842-2.0516 0.47523-0.40955 0.31683-0.61432 0.68774-0.61432 1.1127 0 0.27047 0.085 0.51388 0.255 0.73024 0.17 0.2241 0.43659 0.40955 0.79978 0.55636 0.20863 0.0773 0.82295 0.25501 1.843 0.53319 1.4759 0.3941 2.5056 0.71671 3.089 0.96784 0.5834 0.25115 1.0412 0.61626 1.3735 1.0954 0.33226 0.4791 0.4984 1.0741 0.49841 1.785-0.00001 0.69546-0.20285 1.3504-0.60853 1.9647-0.40569 0.61432-0.99103 1.0896-1.756 1.4257-0.76501 0.33614-1.6305 0.50421-2.5964 0.50421-1.5996 0-2.8185-0.33228-3.657-0.99683-0.83841-0.66455-1.3735-1.6498-1.6054-2.9557z"/>
</g>
<g fill="#3475cd" transform="matrix(.73135 0.682 -0.682 .73135 0 0)">
<path fill="#3475cd" d="m457.95-152.61 0.30137 1.843c-0.58728 0.12364-1.1127 0.18545-1.5764 0.18546-0.75729-0.00001-1.3446-0.11978-1.7618-0.35933-0.41728-0.23954-0.71092-0.55443-0.88092-0.94466s-0.255-1.2112-0.255-2.4631v-7.0821h-1.53v-1.6227h1.53v-3.0484l2.0748-1.2518v4.3002h2.098v1.6227h-2.098v7.198c-0.00001 0.595 0.0367 0.97751 0.11011 1.1475 0.0734 0.17 0.19318 0.30523 0.35932 0.40568 0.16613 0.10046 0.40375 0.15068 0.71285 0.15068 0.23181 0 0.53704-0.027 0.91568-0.0811z"/>
</g>
<g fill="#3475cd" transform="matrix(.73135 0.682 -0.682 .73135 0 0)">
<path fill="#3475cd" d="m468.89-154.46 2.1559 0.26659c-0.34001 1.2596-0.96979 2.2371-1.8893 2.9325-0.91956 0.69545-2.0941 1.0432-3.5236 1.0432-1.8005 0-3.2281-0.55443-4.2829-1.6633s-1.5822-2.664-1.5822-4.6654c0-2.0709 0.53319-3.6782 1.5996-4.8218s2.4496-1.7154 4.1496-1.7155c1.6459 0.00002 2.9905 0.56025 4.0337 1.6807 1.0432 1.1205 1.5648 2.6968 1.5648 4.7291-0.00002 0.12364-0.004 0.3091-0.0116 0.55637h-9.18c0.0773 1.3523 0.45977 2.3877 1.1475 3.1064 0.68773 0.71864 1.5455 1.078 2.5732 1.078 0.76499 0 1.418-0.20091 1.9589-0.60273s0.96977-1.0432 1.2866-1.9241zm-6.8503-3.373h6.8734c-0.0927-1.0354-0.35546-1.812-0.78818-2.3298-0.66456-0.80363-1.5262-1.2054-2.5848-1.2055-0.95819 0.00001-1.7638 0.32069-2.4167 0.96205-0.65296 0.64137-1.0142 1.4991-1.0838 2.5732z"/>
</g>
<g fill="#3475cd" transform="matrix(.73135 0.682 -0.682 .73135 0 0)">
<path fill="#3475cd" d="m472.8-150.07v-12.31h1.8777v1.8661c0.47909-0.87317 0.92147-1.4489 1.3272-1.727 0.40568-0.27817 0.85193-0.41726 1.3388-0.41728 0.70318 0.00002 1.418 0.22411 2.1443 0.67228l-0.71864 1.9357c-0.51001-0.30135-1.02-0.45203-1.53-0.45204-0.45592 0.00001-0.86546 0.13717-1.2286 0.41147-0.36319 0.27433-0.62205 0.6549-0.7766 1.1417-0.23182 0.74183-0.34773 1.5532-0.34773 2.4341v6.4446z"/>
</g>
</g>
</g>
</g>
</svg>
