<?xml version="1.0" encoding="UTF-8" standalone="no"?>
<!-- Created with Inkscape (http://www.inkscape.org/) -->

<svg
   xmlns:dc="http://purl.org/dc/elements/1.1/"
   xmlns:cc="http://creativecommons.org/ns#"
   xmlns:rdf="http://www.w3.org/1999/02/22-rdf-syntax-ns#"
   xmlns:svg="http://www.w3.org/2000/svg"
   xmlns="http://www.w3.org/2000/svg"
   xmlns:sodipodi="http://sodipodi.sourceforge.net/DTD/sodipodi-0.dtd"
   xmlns:inkscape="http://www.inkscape.org/namespaces/inkscape"
   width="156.84375"
   height="123.28125"
   id="svg2"
   version="1.1"
   inkscape:version="0.48.4 r9939"
   sodipodi:docname="crossbar_iot_integration.svg">
  <defs
     id="defs4" />
  <sodipodi:namedview
     id="base"
     pagecolor="#ffffff"
     bordercolor="#666666"
     borderopacity="1.0"
     inkscape:pageopacity="0.0"
     inkscape:pageshadow="2"
     inkscape:zoom="1.4142136"
     inkscape:cx="218.53897"
     inkscape:cy="44.170575"
     inkscape:document-units="px"
     inkscape:current-layer="layer1"
     showgrid="false"
     fit-margin-top="5"
     fit-margin-left="5"
     fit-margin-right="5"
     fit-margin-bottom="5"
     inkscape:window-width="1615"
     inkscape:window-height="1026"
     inkscape:window-x="65"
     inkscape:window-y="411"
     inkscape:window-maximized="1" />
  <metadata
     id="metadata7">
    <rdf:RDF>
      <cc:Work
         rdf:about="">
        <dc:format>image/svg+xml</dc:format>
        <dc:type
           rdf:resource="http://purl.org/dc/dcmitype/StillImage" />
        <dc:title />
      </cc:Work>
    </rdf:RDF>
  </metadata>
  <g
     inkscape:label="Ebene 1"
     inkscape:groupmode="layer"
     id="layer1"
     transform="translate(-118.90625,-135.03125)">
    <g
       id="g4175">
      <path
         id="path3019"
         d="m 253.57773,251.60156 c 8.51685,0 15.45273,-6.88489 15.45273,-15.40175 l 0,0 0,-79.04863 c 0,-8.51686 -6.93588,-15.40174 -15.45273,-15.40174 l -112.55507,0 c -8.51686,0 -15.40173,6.88488 -15.40173,15.40174 l 0,0 0,79.04863 c 0,8.51686 6.88487,15.40175 15.40173,15.40175 l 0,0 112.55507,0 z"
         style="fill:#ffe100;fill-opacity:1;fill-rule:evenodd;stroke:none"
         inkscape:connector-curvature="0" />
      <path
         id="path3021"
         d="m 253.57773,251.60156 c 8.51685,0 15.45273,-6.88489 15.45273,-15.40175 l 0,0 0,-79.04863 c 0,-8.51686 -6.93588,-15.40174 -15.45273,-15.40174 l -112.55507,0 c -8.51686,0 -15.40173,6.88488 -15.40173,15.40174 l 0,0 0,79.04863 c 0,8.51686 6.88487,15.40175 15.40173,15.40175 l 0,0 112.55507,0 z"
         style="fill:none;stroke:#ffc000;stroke-width:3.41694117px;stroke-linecap:round;stroke-linejoin:round;stroke-opacity:1;stroke-dasharray:none"
         inkscape:connector-curvature="0" />
      <path
         id="path3023"
         d="m 157.95437,229.21294 c -1.42798,0.25499 -2.75395,0.40799 -4.07993,0.40799 -0.50999,0 -1.01998,0 -1.47897,-0.051 -0.40799,-0.051 -0.96899,-0.153 -1.52998,-0.306 -0.56099,-0.153 -1.01998,-0.35699 -1.42798,-0.61199 -0.35699,-0.204 -0.71398,-0.61199 -0.96898,-1.07098 -0.30599,-0.45899 -0.40799,-0.96899 -0.40799,-1.58098 l 0,-5.5589 c 0,-2.54995 1.93797,-3.77393 5.8139,-3.77393 0.96899,0 2.29496,0.10199 4.02893,0.40799 l 0,2.24396 c -1.58097,-0.35699 -2.90695,-0.50999 -3.97793,-0.50999 -0.45899,0 -0.81599,0 -1.07098,0.051 -0.306,0 -0.561,0.051 -0.86698,0.153 -0.30601,0.102 -0.561,0.306 -0.714,0.50999 -0.15299,0.204 -0.204,0.51 -0.204,0.86699 l 0,5.4059 c 0,1.12199 1.01999,1.68298 3.11095,1.68298 0.91799,0 2.19296,-0.204 3.77394,-0.56099 l 0,2.29496 z"
         style="fill:#333333;fill-opacity:1;fill-rule:evenodd;stroke:none"
         inkscape:connector-curvature="0" />
      <path
         id="path3025"
         d="m 165.96123,222.17506 -0.96898,0 c -0.81599,0 -1.37697,0.15299 -1.78497,0.35699 -0.40799,0.255 -0.56099,0.66299 -0.56099,1.27498 l 0,5.6099 -2.85595,0 0,-9.38383 2.70295,0 0,1.68296 c 0,-0.50998 0.306,-0.91797 0.81598,-1.27497 0.51,-0.40799 1.07099,-0.61199 1.63198,-0.61199 l 1.01998,0 0,2.34596 z"
         style="fill:#333333;fill-opacity:1;fill-rule:evenodd;stroke:none"
         inkscape:connector-curvature="0" />
      <path
         id="path3027"
         d="m 176.77304,223.45004 0,2.75395 c 0,0.61199 -0.10199,1.12198 -0.30599,1.58097 -0.20399,0.408 -0.40799,0.76499 -0.71399,1.01998 -0.30599,0.204 -0.66299,0.408 -1.12197,0.561 -0.459,0.10199 -0.86699,0.204 -1.27499,0.204 -0.35699,0.051 -0.81598,0.051 -1.37697,0.051 -0.56099,0 -1.01998,0 -1.37698,-0.051 -0.40799,0 -0.81598,-0.10201 -1.27497,-0.204 -0.459,-0.153 -0.81599,-0.357 -1.12199,-0.561 -0.25499,-0.25499 -0.50998,-0.61198 -0.71398,-1.01998 -0.204,-0.45899 -0.306,-0.96898 -0.306,-1.58097 l 0,-2.75395 c 0,-0.66299 0.153,-1.22398 0.306,-1.68297 0.204,-0.459 0.45899,-0.81599 0.76498,-1.01999 0.306,-0.255 0.66299,-0.45899 1.12198,-0.61199 0.45899,-0.10199 0.86698,-0.20399 1.27498,-0.25499 0.35699,0 0.81598,-0.051 1.32598,-0.051 0.50999,0 0.96898,0.051 1.37697,0.051 0.357,0.051 0.76499,0.153 1.22398,0.25499 0.459,0.153 0.86699,0.35699 1.12198,0.61199 0.306,0.204 0.561,0.56099 0.76499,1.01999 0.204,0.45899 0.30599,1.01998 0.30599,1.68297 z m -2.85595,3.11094 0,-3.56994 c 0,-0.50999 -0.10199,-0.86698 -0.35699,-1.07098 -0.30599,-0.204 -0.81598,-0.30599 -1.58097,-0.30599 -0.76499,0 -1.27498,0.10199 -1.52998,0.30599 -0.25499,0.204 -0.40799,0.56099 -0.40799,1.07098 l 0,3.56994 c 0,0.45899 0.153,0.81599 0.357,1.01999 0.25499,0.20399 0.81598,0.30599 1.58097,0.30599 0.76499,0 1.32597,-0.102 1.58097,-0.30599 0.255,-0.204 0.35699,-0.561 0.35699,-1.01999 z"
         style="fill:#333333;fill-opacity:1;fill-rule:evenodd;stroke:none"
         inkscape:connector-curvature="0" />
      <path
         id="path3029"
         d="m 187.07487,225.79599 0,1.17299 c 0,0.45899 -0.102,0.86698 -0.306,1.17298 -0.15299,0.35699 -0.35699,0.61199 -0.61199,0.81599 -0.30599,0.20399 -0.61199,0.30598 -1.07098,0.40799 -0.40799,0.10199 -0.81598,0.204 -1.22398,0.204 -0.40799,0.051 -0.86698,0.051 -1.37698,0.051 -1.01998,0 -2.24396,-0.102 -3.72293,-0.25499 l 0,-1.88698 c 1.78497,0.255 3.05995,0.408 3.77394,0.408 0.50999,0 0.96898,-0.051 1.27498,-0.204 0.30599,-0.102 0.45899,-0.30599 0.45899,-0.61199 l 0,-0.61199 c 0,-0.30599 -0.102,-0.50999 -0.255,-0.66299 -0.153,-0.15299 -0.56099,-0.204 -1.07098,-0.204 l -1.22398,0 c -1.01998,0 -1.78497,-0.20399 -2.29496,-0.61199 -0.56099,-0.40799 -0.86698,-0.96898 -0.86698,-1.73396 l 0,-1.12199 c 0,-0.86698 0.40799,-1.47897 1.22397,-1.78496 0.81599,-0.306 1.98897,-0.50999 3.46794,-0.50999 0.61199,0 1.73397,0.051 3.31494,0.20399 l 0,1.78498 c -1.98896,-0.15301 -3.11094,-0.204 -3.41693,-0.204 -0.76499,0 -1.27499,0.051 -1.47898,0.15299 -0.204,0.102 -0.30599,0.306 -0.30599,0.61199 l 0,0.50999 c 0,0.153 0.10199,0.306 0.25499,0.45899 0.153,0.10201 0.408,0.153 0.71399,0.153 l 1.27498,0 c 2.29496,0 3.46794,0.76499 3.46794,2.29496 z"
         style="fill:#333333;fill-opacity:1;fill-rule:evenodd;stroke:none"
         inkscape:connector-curvature="0" />
      <path
         id="path3031"
         d="m 197.22369,225.79599 0,1.17299 c 0,0.45899 -0.051,0.86698 -0.25499,1.17298 -0.153,0.35699 -0.408,0.61199 -0.66299,0.81599 -0.25499,0.20399 -0.61199,0.30598 -1.01998,0.40799 -0.408,0.10199 -0.86698,0.204 -1.22398,0.204 -0.40799,0.051 -0.86698,0.051 -1.37698,0.051 -1.01998,0 -2.29496,-0.102 -3.72293,-0.25499 l 0,-1.88698 c 1.78497,0.255 3.05994,0.408 3.72293,0.408 0.56099,0 1.01998,-0.051 1.32598,-0.204 0.30599,-0.102 0.45899,-0.30599 0.45899,-0.61199 l 0,-0.61199 c 0,-0.30599 -0.102,-0.50999 -0.25499,-0.66299 -0.204,-0.15299 -0.56099,-0.204 -1.12199,-0.204 l -1.22398,0 c -0.96898,0 -1.73396,-0.20399 -2.29495,-0.61199 -0.51,-0.40799 -0.81599,-0.96898 -0.81599,-1.73396 l 0,-1.12199 c 0,-0.86698 0.40799,-1.47897 1.22398,-1.78496 0.81598,-0.306 1.98897,-0.50999 3.46794,-0.50999 0.61199,0 1.73397,0.051 3.31494,0.20399 l 0,1.78498 c -1.98896,-0.15301 -3.16194,-0.204 -3.41694,-0.204 -0.76498,0 -1.27498,0.051 -1.47898,0.15299 -0.20399,0.102 -0.30599,0.306 -0.30599,0.61199 l 0,0.50999 c 0,0.153 0.102,0.306 0.255,0.45899 0.153,0.10201 0.40799,0.153 0.71398,0.153 l 1.27499,0 c 2.29495,0 3.41693,0.76499 3.41693,2.29496 z"
         style="fill:#333333;fill-opacity:1;fill-rule:evenodd;stroke:none"
         inkscape:connector-curvature="0" />
      <path
         id="path3033"
         d="m 208.95349,222.99104 0,3.11095 c 0,1.27498 -0.35699,2.19296 -1.12198,2.75395 -0.76498,0.51 -2.03996,0.76499 -3.72294,0.76499 -1.78496,0 -3.05994,-0.25499 -3.72293,-0.81599 -0.71399,-0.56099 -1.01998,-1.47897 -1.01998,-2.70295 l 0,-10.25082 2.80495,0 0,5.09991 c 0.153,-0.40799 0.50999,-0.71399 0.96898,-0.86699 0.459,-0.15299 1.12198,-0.25499 2.09097,-0.25499 0.81599,0 1.42798,0.102 1.93796,0.204 0.51,0.153 0.91799,0.35699 1.17298,0.66298 0.255,0.255 0.408,0.61199 0.50999,0.91799 0.102,0.35699 0.102,0.81599 0.102,1.37697 z m -2.80495,3.46795 0,-3.46795 c 0,-0.61198 -0.10199,-0.96898 -0.35699,-1.17297 -0.204,-0.153 -0.76499,-0.204 -1.68298,-0.204 -0.81598,0 -1.32597,0.10199 -1.58097,0.30599 -0.20399,0.204 -0.35699,0.56099 -0.35699,1.07098 l 0,3.46795 c 0,0.56098 0.10199,0.96898 0.35699,1.12198 0.255,0.20399 0.76499,0.30599 1.63198,0.30599 0.81598,0 1.32597,-0.102 1.58096,-0.30599 0.255,-0.153 0.408,-0.561 0.408,-1.12198 z"
         style="fill:#333333;fill-opacity:1;fill-rule:evenodd;stroke:none"
         inkscape:connector-curvature="0" />
      <path
         id="path3035"
         d="m 219.61231,229.41693 -2.75395,0 0,-0.81598 c -0.204,0.357 -0.51,0.61199 -0.91799,0.81598 -0.35699,0.15301 -1.07098,0.204 -2.14196,0.204 -1.22398,0 -2.09096,-0.204 -2.49896,-0.56099 -0.40799,-0.408 -0.61199,-1.22398 -0.61199,-2.44796 0,-1.07098 0.204,-1.88696 0.61199,-2.29496 0.459,-0.45899 1.22398,-0.66298 2.29497,-0.66298 l 3.21294,0 0,-0.663 c 0,-0.56098 -0.153,-0.91798 -0.408,-1.12198 -0.25499,-0.20399 -0.81598,-0.25499 -1.68297,-0.25499 -0.81599,0 -1.88696,0.051 -3.31494,0.204 l 0,-1.78497 c 1.07098,-0.102 2.29496,-0.204 3.62094,-0.204 1.73397,0 2.90695,0.204 3.62094,0.66298 0.66299,0.408 0.96898,1.22398 0.96898,2.49896 l 0,6.42589 z m -2.80495,-2.39696 0,-1.78496 -1.93797,0 c -0.66298,0 -1.01998,0.051 -1.17298,0.20399 -0.153,0.102 -0.25499,0.50999 -0.25499,1.12198 0,0.61199 0.10199,0.96899 0.25499,1.12198 0.153,0.102 0.56099,0.204 1.22398,0.204 0.306,0 0.56099,-0.051 0.71399,-0.051 0.153,0 0.35699,0 0.50999,0 0.20399,-0.051 0.306,-0.10199 0.35699,-0.153 0.102,-0.051 0.153,-0.15299 0.204,-0.255 0.051,-0.10199 0.102,-0.20399 0.102,-0.40799 z"
         style="fill:#333333;fill-opacity:1;fill-rule:evenodd;stroke:none"
         inkscape:connector-curvature="0" />
      <path
         id="path3037"
         d="m 228.28216,222.17506 -0.96898,0 c -0.81599,0 -1.37698,0.15299 -1.78498,0.35699 -0.35699,0.255 -0.56098,0.66299 -0.56098,1.27498 l 0,5.6099 -2.85595,0 0,-9.38383 2.70295,0 0,1.68296 c 0,-0.50998 0.255,-0.91797 0.81599,-1.27497 0.50998,-0.40799 1.07098,-0.61199 1.63197,-0.61199 l 1.01998,0 0,2.34596 z"
         style="fill:#333333;fill-opacity:1;fill-rule:evenodd;stroke:none"
         inkscape:connector-curvature="0" />
      <path
         id="path3039"
         d="m 229.91414,227.32597 0,2.09096 2.24396,0 0,-2.09096 -2.24396,0 z"
         style="fill:#333333;fill-opacity:1;fill-rule:evenodd;stroke:none"
         inkscape:connector-curvature="0" />
      <path
         id="path3041"
         d="m 236.79901,218.45212 -1.78496,0 0,-1.78497 1.78496,0 0,1.78497 z m 0,10.96481 -1.78496,0 0,-9.38383 1.78496,0 0,9.38383 z"
         style="fill:#333333;fill-opacity:1;fill-rule:evenodd;stroke:none"
         inkscape:connector-curvature="0" />
      <path
         id="path3043"
         d="m 248.12082,223.19504 0,3.26395 c 0,0.61198 -0.051,1.07098 -0.204,1.47897 -0.153,0.408 -0.35699,0.71398 -0.56099,0.91798 -0.204,0.255 -0.50999,0.40799 -0.91798,0.51 -0.40799,0.15299 -0.81598,0.204 -1.17298,0.204 -0.357,0.051 -0.86698,0.051 -1.47897,0.051 -0.76499,0 -1.37698,0 -1.78498,-0.051 -0.45898,-0.051 -0.86698,-0.204 -1.32597,-0.408 -0.408,-0.20399 -0.76499,-0.51 -0.91799,-0.96898 -0.20399,-0.408 -0.30599,-1.01999 -0.30599,-1.73397 l 0,-3.26395 c 0,-0.61199 0.102,-1.12198 0.255,-1.58097 0.15299,-0.40799 0.30599,-0.71399 0.50998,-0.96898 0.204,-0.255 0.561,-0.408 0.96899,-0.51 0.40799,-0.15299 0.76499,-0.20399 1.12198,-0.25499 0.35699,0 0.86699,-0.051 1.47898,-0.051 0.61199,0 1.12197,0.051 1.47897,0.051 0.357,0.051 0.71399,0.102 1.12198,0.25499 0.45899,0.102 0.76498,0.255 0.96898,0.51 0.204,0.25499 0.40799,0.56099 0.56099,0.96898 0.102,0.45899 0.204,0.96898 0.204,1.58097 z m -1.78497,3.51894 0,-3.77394 c 0,-0.86698 -0.204,-1.42797 -0.50999,-1.63197 -0.35699,-0.204 -1.01998,-0.30599 -2.03996,-0.30599 -0.96899,0 -1.68298,0.10199 -1.98897,0.30599 -0.357,0.204 -0.561,0.76499 -0.561,1.63197 l 0,3.77394 c 0,0.408 0.051,0.76499 0.15301,0.96898 0.10199,0.255 0.25499,0.459 0.50999,0.56099 0.255,0.10201 0.50999,0.204 0.76498,0.204 0.255,0.051 0.61199,0.051 1.12199,0.051 0.50998,0 0.91797,0 1.17297,-0.051 0.255,0 0.459,-0.10199 0.71399,-0.204 0.25499,-0.10199 0.45899,-0.30599 0.50999,-0.56099 0.102,-0.20399 0.153,-0.56098 0.153,-0.96898 z"
         style="fill:#333333;fill-opacity:1;fill-rule:evenodd;stroke:none"
         inkscape:connector-curvature="0" />
      <path
         id="path3045"
         d="m 174.93707,162.91408 0,42.32927 42.27828,0 0,-42.32927 -42.27828,0 z"
         style="fill:#333333;fill-opacity:1;fill-rule:evenodd;stroke:none"
         inkscape:connector-curvature="0" />
      <path
         id="path3047"
         d="m 174.93707,171.88992 0,4.18193 9.94484,0 6.62988,6.62989 3.05995,-3.05995 -7.85387,-7.85387 -11.7808,0.102 z"
         style="fill:#ffe100;fill-opacity:1;fill-rule:evenodd;stroke:none"
         inkscape:connector-curvature="0" />
      <path
         id="path3049"
         d="m 200.53864,185.65969 -3.00895,3.05994 7.54787,7.59888 12.13779,0 0,-4.23293 -10.25083,0 -6.42588,-6.42589 z"
         style="fill:#ffe100;fill-opacity:1;fill-rule:evenodd;stroke:none"
         inkscape:connector-curvature="0" />
      <path
         id="path3051"
         d="m 205.38355,171.83893 -20.14465,20.29764 -10.30183,0 0,4.23293 12.0358,0 20.29765,-20.29765 9.94483,0 0,-4.23292 -11.8318,0 z"
         style="fill:#ffe100;fill-opacity:1;fill-rule:evenodd;stroke:none"
         inkscape:connector-curvature="0" />
    </g>
    <g
       transform="matrix(0,-0.65278878,0.65278878,0,95.22909,84.1594)"
       style="font-size:26.25px;font-style:normal;font-weight:normal;text-align:start;text-anchor:start;fill:#262626;font-family:Arial"
       id="text3083" />
  </g>
</svg>
